<?xml version="1.0" encoding="UTF-8"?>
<svg id="Layer_1" data-name="Layer 1" xmlns="http://www.w3.org/2000/svg" viewBox="0 0 1200 1200">
  <defs>
    <style>
      .cls-1 {
        fill: #eaebec;
      }

      .cls-2 {
        fill: #fff;
      }

      .cls-3 {
        fill: #527bef;
      }

      .cls-4, .cls-5 {
        fill: #293657;
      }

      .cls-6 {
        fill: #56b7e0;
      }

      .cls-5 {
        isolation: isolate;
        opacity: .3;
      }
    </style>
  </defs>
  <rect class="cls-6" width="1200" height="1200"/>
  <ellipse class="cls-5" cx="598.36" cy="903.23" rx="274.24" ry="23.61"/>
  <g>
    <g>
      <path class="cls-1" d="m463.36,549.46c-14.21-10.15-38.29-.87-53.66,20.59-15.37,21.46-75.27,121.82-57.14,134.73,18.13,12.91,93.4-76.43,108.77-97.89,15.37-21.46,16.24-47.28,2.03-57.43Z"/>
      <path class="cls-2" d="m776.76,524.23c0-97.31-81.5-176.2-182.15-176.2s-182.01,78.75-182.01,176.2,81.5,176.2,182.15,176.2,182.01-78.89,182.01-176.2h0Z"/>
      <path class="cls-4" d="m705.84,498.99c5.22-43.8-45.68-85.85-113.84-93.98s-127.62,20.59-132.84,64.39,45.68,85.85,113.84,93.98c68.02,8.27,127.48-20.59,132.84-64.39h0Z"/>
      <path class="cls-1" d="m781.26,588.04c-12.04-23.64-34.52-36.26-50.03-28.28s-18.42,33.5-6.38,57.14c12.04,23.64,73.53,122.84,93.25,112.68,19.72-10.01-24.8-118.05-36.84-141.54h0Z"/>
    </g>
    <g>
      <g>
        <path class="cls-3" d="m495.85,467.23c-3.48-.44-6.53,2.03-6.96,5.51s2.03,6.53,5.51,6.96,6.53-2.03,6.96-5.51-2.03-6.67-5.51-6.96Z"/>
        <path class="cls-3" d="m535.88,473.76c-3.48-.44-6.53,2.03-6.96,5.51s2.03,6.53,5.51,6.96,6.53-2.03,6.96-5.51-2.03-6.53-5.51-6.96h0Z"/>
        <path class="cls-3" d="m526.01,458.39c-3.48-.44-6.53,2.03-6.96,5.51-.44,3.48,2.03,6.53,5.51,6.96,3.48.44,6.53-2.03,6.96-5.51.29-3.48-2.18-6.67-5.51-6.96Z"/>
        <path class="cls-3" d="m515.72,462.59c.44-3.48-2.03-6.53-5.51-6.96s-6.53,2.03-6.96,5.51,2.03,6.53,5.51,6.96,6.53-2.03,6.96-5.51h0Z"/>
      </g>
      <g>
        <path class="cls-3" d="m623.32,488.7c.44-3.48-2.03-6.53-5.51-6.96-3.48-.44-6.53,2.03-6.96,5.51s2.03,6.53,5.51,6.96,6.53-2.03,6.96-5.51h0Z"/>
        <path class="cls-3" d="m663.35,495.22c.44-3.48-2.03-6.53-5.51-6.96-3.48-.44-6.53,2.03-6.96,5.51-.44,3.48,2.03,6.53,5.51,6.96s6.53-2.03,6.96-5.51h0Z"/>
        <path class="cls-3" d="m647.83,472.89c-3.48-.44-6.53,2.03-6.96,5.51-.44,3.48,2.03,6.53,5.51,6.96s6.53-2.03,6.96-5.51-2.03-6.67-5.51-6.96h0Z"/>
        <path class="cls-3" d="m632.17,470.13c-3.48-.44-6.53,2.03-6.96,5.51s2.03,6.53,5.51,6.96,6.53-2.03,6.96-5.51-2.03-6.53-5.51-6.96h0Z"/>
      </g>
    </g>
  </g>
</svg>