<?xml version="1.0" encoding="utf-8"?>
<!-- Generator: Adobe Illustrator 27.3.1, SVG Export Plug-In . SVG Version: 6.00 Build 0)  -->
<svg version="1.1" id="Layer_1" xmlns="http://www.w3.org/2000/svg" xmlns:xlink="http://www.w3.org/1999/xlink" x="0px" y="0px"
	 viewBox="0 0 2000 2000" style="enable-background:new 0 0 2000 2000;" xml:space="preserve">
<style type="text/css">
	.st0{fill:#56B7E0;}
	.st1{opacity:0.3;fill:#293657;enable-background:new    ;}
	.st2{fill:#EF5C00;}
	.st3{fill:#FFFFFF;}
	.st4{fill:#DB8109;}
	.st5{fill:#EA910F;}
	.st6{fill:#F5F5F7;}
	.st7{fill:#D8D8D8;}
	.st8{fill:#2A3756;}
	.st9{fill:#EBECED;}
	.st10{fill:#527BEF;}
</style>
<rect class="st0" width="2000" height="2000"/>
<ellipse class="st1" cx="1030.3" cy="1543.2" rx="812" ry="96"/>
<g>
	<path class="st2" d="M1250.8,1540c8.7,5.4,20.2,2.7,25.5-6.1c5.4-8.7,2.7-20.2-6.1-25.5l-28.9-17.8l-19.5,31.6L1250.8,1540
		L1250.8,1540z"/>
	<path class="st3" d="M1187,1478.9c-5.4,8.7-2.7,20.2,6.1,25.6l28.9,17.8l19.5-31.6l-28.9-17.8
		C1203.8,1467.5,1192.4,1470.2,1187,1478.9L1187,1478.9z"/>
</g>
<g>
	<path class="st3" d="M1184.6,1557.5c10,2.2,19.9-4.2,22.1-14.2c2.2-10-4.2-19.9-14.2-22.1l-33.2-7.2l-7.8,36.3L1184.6,1557.5
		L1184.6,1557.5z"/>
	<path class="st2" d="M1104.1,1521.1c-2.2,10,4.2,19.9,14.2,22.1l33.2,7.2l7.8-36.3l-33.2-7.2
		C1116.1,1504.7,1106.2,1511.1,1104.1,1521.1L1104.1,1521.1z"/>
</g>
<g>
	<path class="st2" d="M1309.1,1585.5c10-2.1,16.4-12,14.3-22c-2.1-10-12-16.4-22-14.3l-33.2,7l7.7,36.3L1309.1,1585.5z"/>
	<path class="st3" d="M1220.7,1585.2c2.1,10,12,16.5,22,14.3l33.2-7l-7.7-36.3l-33.2,7C1225,1565.3,1218.6,1575.2,1220.7,1585.2
		L1220.7,1585.2z"/>
</g>
<g>
	<g>
		
			<rect x="663.5" y="1244" transform="matrix(5.410451e-03 -1 1 5.410451e-03 -593.0819 1988.1241)" class="st4" width="78.9" height="96.5"/>
		<path class="st5" d="M786.5,1496.9c-0.1,19.5-16,35.2-35.5,35.1l-98.9-0.5c-19.5-0.1-35.2-16-35.1-35.5l0.9-167.1
			c0.1-19.5,16-35.2,35.5-35.1l98.9,0.5c19.5,0.1,35.2,16,35.1,35.5L786.5,1496.9z"/>
		<g>
			<path class="st6" d="M770.7,1264.9c0,5.8-4.8,10.6-10.7,10.5l-114.2-0.6c-5.8,0-10.6-4.8-10.5-10.7l0.1-23.5
				c0-5.8,4.8-10.6,10.7-10.5l114.2,0.6c5.9,0,10.6,4.8,10.5,10.7L770.7,1264.9L770.7,1264.9z"/>
			<g>
				<path class="st7" d="M653.7,1257.8c0,3.6-2.9,6.5-6.5,6.4l0,0c-3.6,0-6.5-2.9-6.4-6.5l0.1-11.8c0-3.6,2.9-6.5,6.5-6.4l0,0
					c3.6,0,6.5,2.9,6.4,6.5L653.7,1257.8L653.7,1257.8z"/>
				<path class="st7" d="M676,1257.9c0,3.6-2.9,6.4-6.5,6.4l0,0c-3.6,0-6.5-2.9-6.4-6.5l0.1-11.8c0-3.6,2.9-6.4,6.5-6.4l0,0
					c3.6,0,6.5,2.9,6.4,6.5L676,1257.9L676,1257.9z"/>
				<path class="st7" d="M698.4,1258.1c0,3.6-2.9,6.4-6.5,6.4l0,0c-3.6,0-6.5-2.9-6.4-6.5l0.1-11.8c0-3.6,2.9-6.5,6.5-6.4l0,0
					c3.6,0,6.5,2.9,6.4,6.5L698.4,1258.1L698.4,1258.1z"/>
				<path class="st7" d="M720.8,1258.2c0,3.6-2.9,6.5-6.5,6.4l0,0c-3.6,0-6.5-2.9-6.4-6.5l0.1-11.8c0-3.6,2.9-6.5,6.5-6.4l0,0
					c3.6,0,6.5,2.9,6.5,6.5L720.8,1258.2L720.8,1258.2z"/>
				<path class="st7" d="M743.1,1258.3c0,3.6-2.9,6.5-6.5,6.4l0,0c-3.6,0-6.5-2.9-6.4-6.5l0.1-11.8c0-3.6,2.9-6.4,6.5-6.4l0,0
					c3.6,0,6.5,2.9,6.4,6.5L743.1,1258.3L743.1,1258.3z"/>
				<path class="st7" d="M765.5,1258.4c0,3.6-2.9,6.5-6.5,6.4l0,0c-3.6,0-6.5-2.9-6.4-6.5l0.1-11.8c0-3.6,2.9-6.5,6.5-6.4l0,0
					c3.6,0,6.5,2.9,6.4,6.5L765.5,1258.4L765.5,1258.4z"/>
			</g>
		</g>
	</g>
	
		<rect x="624.6" y="1343.7" transform="matrix(5.410451e-03 -1 1 5.410451e-03 -710.7853 2103.8892)" class="st6" width="155.3" height="131.2"/>
</g>
<g>
	<g>
		<path class="st3" d="M469.5,1533.6c-21-5.7-33.5-27.4-27.7-48.4l0.4-1.3c5.7-21,27.4-33.4,48.5-27.7l210.7,57.3
			c21,5.7,33.3,27.4,27.6,48.4l-0.4,1.3c-5.8,21-27.3,33.5-48.3,27.8L469.5,1533.6L469.5,1533.6z"/>
		<path class="st8" d="M486.1,1517c-9.7-2.6-15.3-12.6-12.6-22.3l0.6-2.2c2.7-9.7,12.5-15.5,22.1-12.9l79.6,21.7
			c9.7,2.6,15.4,12.6,12.7,22.3l-0.6,2.2c-2.6,9.7-12.6,15.5-22.3,12.8L486.1,1517L486.1,1517z"/>
		<polygon class="st3" points="674.6,1558.5 680.1,1538.4 820.5,1576.8 813.8,1596.5 		"/>
	</g>
	<path class="st2" d="M610.7,1547.6c-8.5-2.3-13.5-11.1-11.1-19.6c2.3-8.5,11.1-13.4,19.6-11.1c8.5,2.3,13.5,11.1,11.1,19.6
		C628,1544.9,619.2,1549.9,610.7,1547.6L610.7,1547.6z"/>
	<path class="st8" d="M810.5,1595.9l5.6-20.3l16.2,4.4c5.6,1.5,8.9,7.3,7.4,13l0,0c-1.5,5.6-7.3,8.9-13,7.4L810.5,1595.9
		L810.5,1595.9z"/>
</g>
<g>
	<path class="st9" d="M1040.4,1076.6c-10.8,54.3-77.6,289.1-123.1,280.1c-45.5-9-17.6-251.5-6.8-305.8
		c10.8-54.3,48.6-92.6,84.5-85.5C1030.8,972.4,1051.2,1022.2,1040.4,1076.6L1040.4,1076.6z"/>
	<ellipse class="st3" cx="1268.3" cy="922.6" rx="380.7" ry="368.4"/>
	<g>
		<path class="st3" d="M1386.7,895.8c-2-0.2-4-0.8-6-1.5c-36.6-14.7-65.3-42.8-80.8-79.1c-15.5-36.3-15.9-76.5-1.2-113.1l57.3-142.5
			c14.7-36.6,42.8-65.3,79.1-80.8c36.3-15.5,76.5-15.9,113.1-1.2c12.1,4.9,18,18.7,13.1,30.8c-4.9,12.1-18.7,18-30.8,13.2
			c-24.9-10-52.2-9.7-76.8,0.8c-24.7,10.5-43.7,30-53.8,54.9l-57.3,142.5c-10,24.9-9.7,52.2,0.8,76.8c10.5,24.7,30,43.7,54.9,53.7
			c12.2,4.9,18,18.7,13.2,30.8C1407.4,891.3,1397.1,897.1,1386.7,895.8L1386.7,895.8z"/>
		<g>
			<path class="st8" d="M1469.9,870.1c-11,91.5-135.4,151.7-277.8,134.6c-142.4-17.1-249-105.1-238-196.6s135.4-151.7,277.8-134.6
				C1374.3,690.6,1480.9,778.7,1469.9,870.1L1469.9,870.1z"/>
			<g>
				<path class="st10" d="M1276.4,804.3c4.4-5.8,12.7-7,18.5-2.5c5.8,4.4,6.9,12.7,2.5,18.5c-4.4,5.8-12.7,7-18.5,2.5
					C1273.1,818.4,1272,810.1,1276.4,804.3z"/>
				<path class="st10" d="M1305,820.5c4.4-5.8,12.7-7,18.5-2.5c5.8,4.4,7,12.7,2.5,18.5c-4.4,5.8-12.7,7-18.5,2.5
					C1301.7,834.6,1300.6,826.3,1305,820.5z"/>
				<path class="st10" d="M1333.7,836.8c4.4-5.8,12.7-7,18.5-2.5c5.8,4.4,7,12.7,2.5,18.5c-4.4,5.8-12.7,7-18.5,2.5
					C1330.4,850.9,1329.3,842.6,1333.7,836.8L1333.7,836.8z"/>
				<path class="st10" d="M1289.2,848.5c4.4-5.8,12.7-7,18.5-2.5c5.8,4.4,7,12.7,2.5,18.5c-4.4,5.8-12.7,7-18.5,2.5
					C1285.9,862.6,1284.7,854.3,1289.2,848.5z"/>
				<path class="st10" d="M1317.8,864.8c4.4-5.8,12.7-7,18.5-2.5c5.8,4.4,6.9,12.7,2.5,18.5c-4.4,5.8-12.7,7-18.5,2.5
					C1314.5,878.9,1313.4,870.6,1317.8,864.8L1317.8,864.8z"/>
				<path class="st10" d="M1362.3,853c4.4-5.8,12.7-7,18.5-2.5c5.8,4.4,6.9,12.7,2.5,18.5c-4.4,5.8-12.7,7-18.5,2.5
					C1359.1,867.2,1357.9,858.9,1362.3,853z"/>
			</g>
			<g>
				<path class="st10" d="M1126.7,796.8c-1.9-7-9.2-11.2-16.2-9.3c-7.1,1.9-11.2,9.2-9.3,16.2c1.9,7,9.2,11.2,16.2,9.3
					C1124.5,811.2,1128.6,803.9,1126.7,796.8z"/>
				<path class="st10" d="M1094.1,801.2c-1.9-7-9.2-11.2-16.2-9.3c-7.1,1.9-11.2,9.2-9.3,16.2c1.9,7,9.2,11.2,16.2,9.3
					C1091.8,815.5,1096,808.3,1094.1,801.2z"/>
				<path class="st10" d="M1061.4,805.6c-1.9-7-9.2-11.2-16.2-9.3c-7,1.9-11.2,9.2-9.3,16.2c1.9,7,9.2,11.2,16.2,9.3
					S1063.3,812.6,1061.4,805.6L1061.4,805.6z"/>
				<path class="st10" d="M1098.3,833.1c-1.9-7-9.2-11.2-16.2-9.3s-11.2,9.2-9.3,16.2c1.9,7,9.2,11.2,16.2,9.3
					C1096.1,847.4,1100.3,840.1,1098.3,833.1z"/>
				<path class="st10" d="M1065.7,837.5c-1.9-7-9.2-11.2-16.2-9.3c-7.1,1.9-11.2,9.2-9.3,16.2c1.9,7,9.2,11.2,16.2,9.3
					C1063.5,851.8,1067.6,844.5,1065.7,837.5L1065.7,837.5z"/>
				<path class="st10" d="M1028.8,810c-1.9-7-9.2-11.2-16.2-9.3c-7.1,1.9-11.2,9.2-9.3,16.2c1.9,7,9.2,11.2,16.2,9.3
					C1026.5,824.3,1030.7,817,1028.8,810L1028.8,810z"/>
			</g>
		</g>
	</g>
	<path class="st9" d="M1553.4,1108.9c8.9,54.7,28.7,297.9-17.1,305.5c-45.8,7.5-104.7-229.4-113.7-284
		c-8.9-54.7,13.1-103.8,49.2-109.7C1507.9,1014.7,1544.4,1054.2,1553.4,1108.9L1553.4,1108.9z"/>
</g>
<g>
	<g>
		<path class="st5" d="M1058.4,458c0.6,2.1,0.9,4.4,0.9,6.7c0,2.1-0.3,7.5-0.8,9.6c-9.6,42.8-113.7,75.4-115.7,125.3
			c-1.9,45.2,58.8,58.7,95.1,48.7l3-0.8c24,17.6,76.3,14.2,132.7-1.3c56.4-15.5,100-38.6,111.6-66l2-0.5
			c36.3-10,86.6-48.4,58.3-84.9c-32.9-42.5-134.8-29.3-165.2-55.4c-3.4-2.9-6.9-8.2-8.1-12.6C1172.1,418.4,1053.9,451,1058.4,458
			L1058.4,458z"/>
		<path class="st2" d="M1073.1,506.7c0,0-59.8,83.4-36.1,92S1073.1,506.7,1073.1,506.7z"/>
		<path class="st2" d="M1127,485.9c0,0,6.7,102.3,30.5,94C1181.2,571.5,1127,485.9,1127,485.9L1127,485.9z"/>
		<path class="st2" d="M1180.2,477c0,0,93.7,41.6,77.7,61.1S1180.2,477,1180.2,477z"/>
	</g>
	<path class="st3" d="M1049.8,444.1l8.2,29.3c1.4,5.2,30,1.8,63.8-7.6c33.8-9.4,60-21.3,58.5-26.5l-8.2-29.3L1049.8,444.1
		L1049.8,444.1z"/>
	<path class="st9" d="M1172.1,410c1.4,5.2-24.7,17.1-58.5,26.5s-62.3,12.8-63.8,7.6c-1.5-5.2,24.7-17.1,58.5-26.5
		S1170.6,404.8,1172.1,410z"/>
</g>
</svg>
