<?xml version="1.0" encoding="utf-8"?>
<!-- Generator: Adobe Illustrator 27.3.1, SVG Export Plug-In . SVG Version: 6.00 Build 0)  -->
<svg version="1.1" id="Layer_1" xmlns="http://www.w3.org/2000/svg" xmlns:xlink="http://www.w3.org/1999/xlink" x="0px" y="0px"
	 viewBox="0 0 2000 2000" style="enable-background:new 0 0 2000 2000;" xml:space="preserve">
<style type="text/css">
	.st0{fill:#56B7E0;}
	.st1{opacity:0.7;fill:#2A3756;enable-background:new    ;}
	.st2{opacity:0.3;fill:#293657;enable-background:new    ;}
	.st3{fill:#EBECED;}
	.st4{fill:#FFFFFF;}
	.st5{fill:#2A3756;}
	.st6{fill:#527BEF;}
	.st7{fill:#D3428B;}
	.st8{fill:#B73771;}
	.st9{fill:#FFF097;}
	.st10{fill:#F4E156;}
	.st11{fill:#E8A038;}
	.st12{fill:#F7B45C;}
</style>
<rect class="st0" width="2000" height="2000"/>
<g>
	<polygon class="st1" points="585.5,880.4 273.5,880.4 429.5,618.4 	"/>
	<rect x="1004.7" y="611" class="st1" width="276.8" height="276.8"/>
	<circle class="st1" cx="781.3" cy="749.4" r="156"/>
</g>
<path class="st2" d="M1869,1412.5c0-54.4-329.5-98.5-736-98.5s-736,44.1-736,98.5c0,30.8,106,58.4,272,76.4c0,0.3,0,0.5,0,0.8
	c0,70.3,236.2,127.2,527.6,127.2s527.6-57,527.6-127.2c0-6-1.7-11.9-5.1-17.7C1813.2,1455.5,1869,1434.9,1869,1412.5L1869,1412.5z"
	/>
<g>
	<path class="st3" d="M1326.8,951.9c-7.5,38-54.3,202.3-86.1,196c-31.8-6.3-12.3-176-4.8-214c7.5-38,34-64.8,59.1-59.8
		C1320.2,879,1334.4,913.9,1326.8,951.9z"/>
	<ellipse class="st4" cx="1486.3" cy="844.2" rx="266.4" ry="257.7"/>
	<g>
		<path class="st4" d="M1569.2,825.5c-1.4-0.2-2.8-0.5-4.2-1.1c-25.6-10.3-45.7-30-56.5-55.4c-10.8-25.4-11.1-53.5-0.8-79.1
			l40.1-99.7c10.3-25.6,30-45.7,55.4-56.5c25.4-10.8,53.5-11.1,79.1-0.8c8.5,3.4,12.6,13.1,9.2,21.6c-3.4,8.5-13.1,12.6-21.6,9.2
			c-17.4-7-36.5-6.8-53.8,0.6c-17.2,7.4-30.6,21-37.6,38.4l-40.1,99.7c-7,17.4-6.8,36.5,0.6,53.8c7.4,17.2,21,30.6,38.4,37.6
			c8.5,3.4,12.6,13.1,9.2,21.6C1583.7,822.3,1576.4,826.3,1569.2,825.5L1569.2,825.5z"/>
		<g>
			<path class="st5" d="M1627.4,807.5c-7.7,64-94.7,106.2-194.4,94.2c-99.7-12-174.2-73.6-166.5-137.6s94.7-106.2,194.4-94.2
				C1560.5,681.9,1635.1,743.5,1627.4,807.5L1627.4,807.5z"/>
			<g>
				<path class="st6" d="M1492,761.4c3.1-4.1,8.9-4.9,13-1.8c4.1,3.1,4.9,8.9,1.8,13c-3.1,4.1-8.9,4.9-13,1.8
					C1489.7,771.3,1488.9,765.4,1492,761.4L1492,761.4z"/>
				<path class="st6" d="M1512,772.8c3.1-4.1,8.9-4.9,13-1.8c4.1,3.1,4.9,8.9,1.8,13c-3.1,4.1-8.9,4.9-13,1.8
					C1509.8,782.6,1509,776.8,1512,772.8L1512,772.8z"/>
				<path class="st6" d="M1532.1,784.1c3.1-4.1,8.9-4.9,13-1.8c4.1,3.1,4.9,8.9,1.8,13c-3.1,4.1-8.9,4.9-13,1.8
					C1529.8,794,1529,788.2,1532.1,784.1z"/>
				<path class="st6" d="M1500.9,792.3c3.1-4.1,8.9-4.9,13-1.8c4.1,3.1,4.9,8.9,1.8,13s-8.9,4.9-13,1.8
					C1498.7,802.2,1497.9,796.4,1500.9,792.3L1500.9,792.3z"/>
				<path class="st6" d="M1521,803.7c3.1-4.1,8.9-4.9,13-1.8c4.1,3.1,4.9,8.9,1.8,13c-3.1,4.1-8.9,4.9-13,1.8
					C1518.7,813.6,1517.9,807.8,1521,803.7L1521,803.7z"/>
				<path class="st6" d="M1552.1,795.5c3.1-4.1,8.9-4.9,13-1.8c4.1,3.1,4.9,8.9,1.8,13c-3.1,4.1-8.9,4.9-13,1.8
					C1549.8,805.4,1549,799.6,1552.1,795.5L1552.1,795.5z"/>
			</g>
			<g>
				<path class="st6" d="M1387.3,756.2c-1.3-4.9-6.4-7.8-11.4-6.5c-4.9,1.3-7.8,6.4-6.5,11.4c1.3,4.9,6.4,7.8,11.4,6.5
					C1385.7,766.2,1388.6,761.1,1387.3,756.2L1387.3,756.2z"/>
				<path class="st6" d="M1364.4,759.3c-1.3-4.9-6.4-7.8-11.4-6.5c-4.9,1.3-7.8,6.4-6.5,11.4c1.3,4.9,6.4,7.8,11.4,6.5
					C1362.9,769.3,1365.8,764.2,1364.4,759.3L1364.4,759.3z"/>
				<path class="st6" d="M1341.6,762.3c-1.3-4.9-6.4-7.8-11.4-6.5c-4.9,1.3-7.8,6.4-6.5,11.4c1.3,4.9,6.4,7.8,11.4,6.5
					S1342.9,767.3,1341.6,762.3z"/>
				<path class="st6" d="M1367.4,781.6c-1.3-4.9-6.4-7.8-11.4-6.5c-4.9,1.3-7.8,6.4-6.5,11.4c1.3,4.9,6.4,7.8,11.4,6.5
					C1365.9,791.6,1368.8,786.5,1367.4,781.6L1367.4,781.6z"/>
				<path class="st6" d="M1344.6,784.6c-1.3-4.9-6.4-7.8-11.4-6.5c-4.9,1.3-7.8,6.4-6.5,11.4c1.3,4.9,6.4,7.8,11.4,6.5
					C1343,794.7,1345.9,789.6,1344.6,784.6z"/>
				<path class="st6" d="M1318.7,765.4c-1.3-4.9-6.4-7.8-11.4-6.5c-4.9,1.3-7.8,6.4-6.5,11.4c1.3,4.9,6.4,7.8,11.4,6.5
					C1317.2,775.4,1320.1,770.3,1318.7,765.4L1318.7,765.4z"/>
			</g>
		</g>
	</g>
	<path class="st3" d="M1685.8,974.5c6.3,38.2,20.1,208.5-11.9,213.7c-32,5.2-73.3-160.5-79.5-198.7c-6.3-38.2,9.1-72.6,34.4-76.8
		S1679.5,936.3,1685.8,974.5L1685.8,974.5z"/>
</g>
<g>
	<polygon class="st7" points="1638.3,1288.8 1315.7,1288.8 1477,1200 	"/>
	<rect x="1315.7" y="1288.8" class="st8" width="322.6" height="198"/>
</g>
<g>
	<polygon class="st9" points="847.2,1242.2 651.5,1188.6 847.2,1134.9 1043,1188.6 	"/>
	<polygon class="st10" points="847.6,1439.6 1043,1386.6 1043,1188.6 847.6,1241.6 	"/>
	<polygon class="st10" points="847.6,1439.6 652.5,1386.6 652.5,1188.6 847.6,1241.6 	"/>
</g>
<g>
	<path class="st11" d="M943.2,1310.8v198c0,27.7,70.5,50.1,157.4,50.1s157.4-22.4,157.4-50.1v-198H943.2L943.2,1310.8z"/>
	<ellipse class="st12" cx="1100.6" cy="1310.8" rx="157.4" ry="50.1"/>
</g>
</svg>
