<?xml version="1.0" encoding="utf-8"?>
<!-- Generator: Adobe Illustrator 27.3.1, SVG Export Plug-In . SVG Version: 6.00 Build 0)  -->
<svg version="1.1" id="Layer_1" xmlns="http://www.w3.org/2000/svg" xmlns:xlink="http://www.w3.org/1999/xlink" x="0px" y="0px"
	 viewBox="0 0 2000 2000" style="enable-background:new 0 0 2000 2000;" xml:space="preserve">
<style type="text/css">
	.st0{fill:#5BB8DE;}
	.st1{fill:#E2E2E2;}
	.st2{fill:#FFFFFF;}
	.st3{fill:#2A3756;}
	.st4{fill:#EBECED;}
	.st5{fill:#DD5205;}
	.st6{opacity:0.4;fill:#FFFFFF;enable-background:new    ;}
	.st7{fill:#F4E451;}
	.st8{fill:#E2CC2D;}
	.st9{fill:#E6EDED;}
	.st10{opacity:0.3;fill:#293657;enable-background:new    ;}
</style>
<rect class="st0" width="2000" height="2000"/>
<polygon class="st1" points="661.2,771.1 735.7,877.4 675.2,966 645,824.3 "/>
<g>
	<path class="st2" d="M1121.2,974.6c0,121.3-101.7,219.7-227.1,219.7s-227.1-98.4-227.1-219.7s101.7-219.7,227.1-219.7
		S1121.2,853.2,1121.2,974.6z"/>
	<g>
		<path class="st2" d="M983,958.6c-1.2-0.1-2.4-0.5-3.6-0.9c-21.8-8.8-39-25.5-48.2-47.2c-9.2-21.7-9.5-45.6-0.7-67.5l34.2-85
			c8.8-21.8,25.5-39,47.2-48.2c21.7-9.2,45.6-9.5,67.5-0.7c7.2,2.9,10.8,11.2,7.8,18.4s-11.1,10.8-18.4,7.8
			c-14.8-6-31.1-5.8-45.8,0.5c-14.7,6.3-26.1,17.9-32,32.7l-34.2,85c-6,14.8-5.8,31.1,0.5,45.8c6.3,14.7,17.9,26.1,32.7,32
			c7.2,2.9,10.8,11.2,7.8,18.4C995.4,955.9,989.2,959.4,983,958.6L983,958.6z"/>
		<path class="st3" d="M1032.6,943.3c-6.6,54.5-80.7,90.5-165.7,80.3C782,1013.3,718.5,960.8,725,906.3
			c6.5-54.5,80.7-90.5,165.7-80.3C975.6,836.2,1039.2,888.7,1032.6,943.3z"/>
	</g>
	<path class="st4" d="M1126.8,1046.5c15,29.4,70.5,164,45.8,176.6c-24.6,12.6-101.2-111.3-116.2-140.7c-15-29.4-11.4-61.3,8-71.2
		C1083.8,1001.3,1111.8,1017.1,1126.8,1046.5L1126.8,1046.5z"/>
	<g>
		<path class="st5" d="M914.7,934.7c0-4.2,3.3-7.6,7.5-7.6c4.2,0,7.6,3.3,7.6,7.5c0,4.2-3.3,7.6-7.5,7.6S914.7,938.8,914.7,934.7
			L914.7,934.7z"/>
		<path class="st5" d="M933.3,932c0-4.2,3.3-7.6,7.5-7.6c4.2,0,7.6,3.3,7.6,7.5c0,4.2-3.3,7.6-7.5,7.6
			C936.7,939.6,933.3,936.2,933.3,932L933.3,932z"/>
		<path class="st5" d="M951.9,929.4c0-4.2,3.3-7.6,7.5-7.6c4.2,0,7.6,3.3,7.6,7.5c0,4.2-3.3,7.6-7.5,7.6
			C955.3,936.9,951.9,933.6,951.9,929.4L951.9,929.4z"/>
		<path class="st5" d="M935.8,950.2c0-4.2,3.3-7.6,7.5-7.6c4.2,0,7.6,3.3,7.6,7.5s-3.3,7.6-7.5,7.6
			C939.3,957.7,935.9,954.4,935.8,950.2L935.8,950.2z"/>
		<path class="st5" d="M954.4,947.6c0-4.2,3.3-7.6,7.5-7.6c4.2,0,7.6,3.3,7.6,7.5c0,4.2-3.3,7.6-7.5,7.6S954.5,951.8,954.4,947.6
			L954.4,947.6z"/>
		<path class="st5" d="M970.5,926.8c0-4.2,3.3-7.6,7.5-7.6c4.2,0,7.6,3.3,7.6,7.5c0,4.2-3.3,7.6-7.5,7.6
			C973.9,934.3,970.5,931,970.5,926.8L970.5,926.8z"/>
	</g>
	<g>
		<path class="st5" d="M840.2,920.4c1.2-4-1.1-8.2-5.1-9.4c-4-1.2-8.2,1.1-9.4,5.1c-1.2,4,1.1,8.2,5.1,9.4S839,924.4,840.2,920.4z"
			/>
		<path class="st5" d="M823.1,912.7c1.2-4-1.1-8.2-5.1-9.4s-8.2,1.1-9.4,5.1s1.1,8.2,5.1,9.4C817.7,919,821.9,916.7,823.1,912.7z"/>
		<path class="st5" d="M805.9,905c1.2-4-1.1-8.2-5.1-9.4c-4-1.2-8.2,1.1-9.4,5.1s1.1,8.2,5.1,9.4S804.8,909,805.9,905z"/>
		<path class="st5" d="M815.5,929.4c1.2-4-1.1-8.2-5.1-9.4s-8.2,1.1-9.4,5.1s1.1,8.2,5.1,9.4S814.3,933.4,815.5,929.4z"/>
		<path class="st5" d="M798.4,921.7c1.2-4-1.1-8.2-5.1-9.4c-4-1.2-8.2,1.1-9.4,5.1c-1.2,4,1.1,8.2,5.1,9.4S797.2,925.7,798.4,921.7
			L798.4,921.7z"/>
		<path class="st5" d="M788.8,897.2c1.2-4-1.1-8.2-5.1-9.4s-8.2,1.1-9.4,5.1c-1.2,4,1.1,8.2,5.1,9.4
			C783.4,903.5,787.6,901.2,788.8,897.2z"/>
	</g>
</g>
<g>
	<path class="st6" d="M682.5,640.2c0,0,40.2-11.9,52.1-65.6c56.1-83.6,106.8-205.3,251-165.8s118.6,56.1,260,128.1
		s311.7,23.2,355.3,100.9s135,203.8,71.7,265.2c-63.4,61.4-198.4,103.6-374,24.8s-261.9-173.4-320.6-257
		C919.1,587.2,887,557,831.5,592.6c-25.4,16.3-57.5,93.3-146.6,64.7C648.8,669.8,682.5,640.2,682.5,640.2L682.5,640.2z"/>
	<g>
		<path class="st7" d="M785.6,523.9c0,0,26.8,135.6-119.3,133C635,575.8,758,599.9,785.6,523.9z"/>
		<path class="st7" d="M763.3,526.2c0,0,11.5,34.5-55.8,52.5C703.8,549.9,745.9,547.2,763.3,526.2z"/>
		<path class="st8" d="M758.3,578.7c0,0-25.7,71.6-92,78.2C686.2,589.4,733,626,758.3,578.7z"/>
	</g>
	<path class="st3" d="M608,755.2c3.8-16.4,20.1-23.5,23.3-26.1c3.1-2.6,24.6-63,25.2-64.6c-0.7-1.3-0.9-3-0.5-4.5
		c0.4-1.5,1.4-2.8,2.6-3.6h0c-1.3-0.4-1.4-1.8-0.9-3.4c0.4-1.6,1.2-2.8,2.5-2.5l24.7,6.8c1.3,0.4,1.4,1.8,0.9,3.4
		c-0.4,1.6-1.2,2.8-2.5,2.5h0c0.7,1.3,0.8,2.8,0.4,4.4c-0.4,1.6-1.5,2.8-2.8,3.7c-0.3,1.7-12.9,64.6-11.5,68.4
		c1.4,3.9,11.7,18.3,6.6,34.3c-1.8,5.6-31.1,113-31.1,113c-1,3.6-4.7,5.7-8.2,4.7l-55.1-15.2c-3.6-1-5.7-4.7-4.7-8.2
		C576.8,868.2,606.7,760.8,608,755.2L608,755.2z"/>
	<path class="st9" d="M601.2,735.6c-5.3,14.8-2.7,29.2,5.9,32.3c8.6,3.1,19.8-6.3,25.2-21.1s2.7-29.2-5.9-32.3
		C617.8,711.4,606.5,720.8,601.2,735.6z"/>
</g>
<path class="st10" d="M1513.3,1726.2c0,24.8-344.3,45-620.9,45s-380.9-20.1-380.9-45s104.3-45,380.9-45S1513.3,1701.4,1513.3,1726.2
	z"/>
</svg>
