<?xml version="1.0" encoding="utf-8"?>
<!-- Generator: Adobe Illustrator 27.3.1, SVG Export Plug-In . SVG Version: 6.00 Build 0)  -->
<svg version="1.1" id="Layer_1" xmlns="http://www.w3.org/2000/svg" xmlns:xlink="http://www.w3.org/1999/xlink" x="0px" y="0px"
	 viewBox="0 0 2400 1700" style="enable-background:new 0 0 2400 1700;" xml:space="preserve">
<style type="text/css">
	.st0{fill:#56B7E0;}
	.st1{fill:#FFFFFF;}
	.st2{opacity:0.3;fill:#293657;enable-background:new    ;}
	.st3{fill:#151C28;}
	.st4{fill:#BA9E8C;}
	.st5{fill:#C6BDBD;}
	.st6{fill:#F6F4F4;}
	.st7{fill:#4D5CB0;}
	.st8{fill:#405296;}
	.st9{fill:#967B6D;}
	.st10{fill:#958682;}
	.st11{fill:#D4DBDF;}
	.st12{fill:#B1A6A2;}
	.st13{opacity:0.79;}
	.st14{fill:#10161E;}
	.st15{fill:#527BEF;}
	.st16{fill:#DBD2D2;}
</style>
<rect class="st0" width="2400" height="1700"/>
<path class="st1" d="M1380.6,892.8c0,0,154-3.4,181.6,11.2c27.5,14.6-25,123.1-25,137.7s-25,70.6-20.7,86.9
	c4.3,16.3,16.3,180.7,11.2,194.5c-5.2,13.8-94.7,27.5-147.2,15.5s-183.3-110.2-183.3-110.2L1380.6,892.8L1380.6,892.8z"/>
<path class="st2" d="M1626.6,1350.8c0,29.1,21.9,97.5-262.2,72.5c-324.2-28.6-770.8-43.4-770.8-72.5s231.2-52.6,516.5-52.6
	S1626.6,1321.8,1626.6,1350.8L1626.6,1350.8z"/>
<g>
	<g>
		<path id="hair" class="st3" d="M1265.7,805.4c112.4-155-31.7-179.2-102.7-328.4c-43.7-12.7-159.2,40.1-161.9,88.2
			c-14.4,254.9,121.2,167.6,238.5,243.5C1303.2,736.2,1233.8,849.4,1265.7,805.4L1265.7,805.4z"/>
		<path class="st4" d="M1080.5,728.5c0,0,3.6-6.4,0-28.6s-8.5-72.6-8.5-72.6l81.3-30.8c0,0,11.4,97,31.4,111.3s-42.8,42.8-42.8,42.8
			L1080.5,728.5L1080.5,728.5z"/>
		<path class="st5" d="M1082,715.1c0,0,20.6,23.3,52,11.2s37-43.2,37-43.2s109.7-9.4,146.6,23.2c55.4,48.8,103.6,222.1,106.4,253.6
			c2.9,31.4,0.7,90-12.1,106.4c-12.9,16.4-37.1,32.1-37.1,32.1s20.7,53.6-25.7,78.6c-46.4,25-380.7-109.3-380.7-109.3
			s-12.9-52.8,7.1-85.7c20-32.9-11.4-137.1-11.4-137.1s5-42.1,23.6-61.4C1006.2,764.2,1082,715.1,1082,715.1L1082,715.1z"/>
		<g>
			<path class="st6" d="M1169.8,774.2l-6.4-17.1c0,0-83.6,33.6-102.1,45.7c-18.6,12.1-57.8,43.6-57.8,43.6l94.3,9.3L1169.8,774.2
				L1169.8,774.2z"/>
			<path class="st1" d="M859.8,764.2l31.4-18.6c0,0,72.1,38.6,92.1,52.1s37.1,48.6,37.1,48.6l-66.4-11.4L859.8,764.2L859.8,764.2z"
				/>
			<path class="st1" d="M1174.8,764.9l26.2,10.4l-166.2,76l-22.1-6.4C1012.6,844.9,1074.8,796.3,1174.8,764.9L1174.8,764.9z"/>
			<polygon class="st7" points="854.8,757 1003.3,839.2 1035.5,843.5 1205.5,769.2 1243.3,962 1065.5,1030.6 1034.1,1030.6 
				887.6,965.6 			"/>
			<polygon class="st8" points="1035.5,843.5 1061,1030.2 1031.7,1031.8 1003.3,839.2 			"/>
		</g>
		<g>
			<path class="st4" d="M1083.3,992.7c0,0,20.7-12.9,25.7-16.4s9.3-9.3,0-10.7c-9.3-1.4-64.3,11.4-69.3,13.6s-8.6,24.3-8.6,24.3
				l-27.9,52.9l82.1,5.7c0,0,27.9-15.7,29.3-21.4c1.4-5.7,0-14.3,0-14.3s0-11.4-2.9-16.4s7.9-11.4,7.9-11.4s-2.1-12.1-7.9-12.1
				S1083.3,992.7,1083.3,992.7L1083.3,992.7z"/>
			<path class="st9" d="M1061.2,1002l-4.3-5.9c0.1,0,23.1-3.1,23.1-3.1l3.3-0.2C1067.4,999,1061.4,1001.9,1061.2,1002L1061.2,1002z"
				/>
		</g>
		<g>
			<path class="st4" d="M1348.3,971.3c0,0-55.7-42.1-61.4-47.1c-5.7-5-28.6-27.1-35.7-32.9c-7.1-5.7-30.7-14.3-44.3-16.4
				c-13.6-2.1-40.7,0.7-42.8,7.1s9.3,12.1,15.7,12.1s22.1,0.7,22.1,0.7l16.4,9.3c0,0-23.6,2.1-32.1,0.7c-8.6-1.4-53.6,2.1-58.6,4.3
				s-13.6,15.7,0,16.4s40,0,40,0l27.1,2.9l-34.3,2.9c0,0-23.6-2.9-32.9,0s-10.7,9.3,0,12.9s19.3,9.3,19.3,9.3s15,5,18.6,6.4
				s38.6,12.9,44.3,14.3c5.7,1.4,20,8.6,29.3,8.6h21.4c0,0,43.1,45.9,57.8,57.8C1333,1052.5,1366.9,1008.4,1348.3,971.3
				L1348.3,971.3z"/>
			<polygon class="st9" points="1197.5,956.7 1155.7,952.3 1152.1,950.9 1203.2,950.9 			"/>
		</g>
	</g>
	<g>
		<path class="st10" d="M855.5,1033c0,0-24.6,1.3-27.8,9.1c-6.6,16.4,47,4.9,47,4.9L855.5,1033L855.5,1033z"/>
		<g>
			<path class="st4" d="M1106.4,1276.3c0,0-42.6,13-38.3,66.5l160.4,13.7l135.9,23.8l-102.6-99L1106.4,1276.3L1106.4,1276.3z"/>
			<path class="st1" d="M1152.6,1183.1c0,0-49.9,81.7-73.7,93.2c0,0-206-41.9-253.7-61.4s-106.2-41.9-86-102.6
				c20.2-60.7,50.6-71.6,96.1-71.6s380.9-0.7,380.9-0.7s106.6,4,135.9,65.8c31.8,67.2,12.3,146.7-31.1,158.3
				C1291.8,1271.9,1152.6,1183.1,1152.6,1183.1L1152.6,1183.1z"/>
			<path class="st1" d="M817.3,1178.8c0,0-52,3.6-82.4,20.2c-30.3,16.6-49.9,55.7-36.9,89.6s21.7,51.3,100.5,54.2
				c78.8,2.9,184.3,5.1,184.3,5.1l91.8,5.1l99.7-91.8l-114.2-61.4L817.3,1178.8L817.3,1178.8z"/>
			<path class="st11" d="M1027.4,1264.6c-1.3-0.3-130.5-30.8-245.1-75.2l1.3-3.3c114.3,44.3,243.3,74.7,244.6,75L1027.4,1264.6
				L1027.4,1264.6z"/>
		</g>
		<g>
			<path class="st12" d="M855.5,1030.9c-2.2,0.1-4.6,3-5.3,4.5c-0.8,1.6,1.2,1.7,3.2,2.8c2.3,0.3,4.5,1,7,1.8
				c2.2,0.7,3.3,4.9,5.7,5.9c2.2,0.9,4.3,1.8,6.6,3c2.1,1.1,5.1,0.7,7.2,2c2,1.2,4,2.7,6.1,4.1c2,1.3,2.6,4.8,4.6,6.2
				c2,1.4,6.2-0.4,8.3,1c1.9,1.4,3.2,3.8,5.2,5.3c1.9,1.5,2.4,4.8,4.3,6.3c1.9,1.5,3.8,3,5.7,4.6c1.8,1.6,4.8,1.8,6.7,3.4
				c1.8,1.6,2.3,4.7,4.1,6.4c1.8,1.6,3.4,3.5,5.2,5.2c1.8,1.6,3.5,3.3,5.4,5c1.8,1.7,4.7,2.1,6.5,3.8c1.8,1.7,5.5,1.2,7.3,3
				c1.8,1.7,0.8,6.2,2.6,7.9c1.7,1.7,3.4,3.5,5.1,5.2c1.7,1.7,4.5,2.3,6.3,4.1c1.7,1.7,2,4.8,3.8,6.6c1.7,1.7,4.5,2.4,6.2,4.2
				c1.7,1.8,4,2.9,5.7,4.7c1.7,1.8,4.8,2.2,6.5,3.9c1.7,1.8,1.5,5.3,3.2,7.1c1.7,1.8,3,3.9,4.7,5.7c1.7,1.8,3.9,3.1,5.5,4.9
				c1.7,1.8,1.9,4.9,3.6,6.7c1.7,1.8,3.8,3.1,5.5,4.9c1.6,1.8,6.1,1.1,7.7,2.9c1.6,1.8,2.8,4,4.5,5.8s1.8,5,3.4,6.8
				c1.6,1.8,2.2,4.5,3.9,6.4c1.6,1.8,5.2,1.9,6.8,3.7c1.6,1.8,2.8,4,4.4,5.9c1.6,1.8,2,4.8,3.6,6.6s5.4,1.8,7,3.6
				c1.6,1.8,1.7,5.1,3.3,6.9c1.6,1.8,5,2.1,6.6,4c1.6,1.9,0,6.5,1.6,8.3c1.6,1.9,3,3.9,4.6,5.8c1.6,1.9,5.1,2.1,6.7,4
				c1.6,1.9,2.9,4,4.5,5.8c1.6,1.9,2.3,4.5,3.9,6.3c1.6,1.9,4.4,2.7,5.9,4.6c1.6,1.9,2.5,4.3,4.1,6.2c1.6,1.9,4.8,2.3,6.4,4.2
				c1.6,1.9,2.9,4,4.5,5.8c1.6,1.9,4.2,2.9,5.8,4.8c1.6,1.9,1.7,5,3.3,6.8c1.6,1.9,2.4,4.4,4,6.2c1.6,1.9,3.1,3.8,4.7,5.7
				c1.6,1.9,1.8,4.9,3.4,6.8c1.6,1.9,6.7,0.8,8.2,2.6c1.6,1.9,1.8,5,3.3,6.8c1.6,1.9,3.2,3.8,4.7,5.6c1.6,1.9,3.1,3.8,4.7,5.6
				c1.6,1.9,1.5,5.2,3.1,7c1.7,1.9,6.7,0.8,8.2,2.5c1.7,1.9,1,5.8,2.5,7.6c1.7,1.9,3.6,3.4,5.2,5.2c1.7,1.9,3.1,4,4.6,5.7
				c1.8,1.9,3.7,3.5,5.2,5.2c1.8,1.8,2.3,4.8,4.1,6.5c1.8,1.8,5.6,1.4,7.3,3.1c1.8,1.7,2.5,4.7,4.3,6.3c1.8,1.7,3.4,3.7,5.3,5.3
				c1.9,1.7,3.5,3.7,5.3,5.2c1.9,1.6,4.8,2.1,6.7,3.6c2,1.6,4.3,2.5,6.3,4c2,1.5,4.2,2.7,6.2,4.1c2,1.4,4.2,2.6,6.3,3.9
				c2.1,1.3,2.7,5.1,4.8,6.4s5.6,0.3,7.7,1.5c2.2,1.2,3.9,3.2,6.1,4.3c2.2,1.1,3.6,4,5.9,5c2.2,1,5.2,0.5,7.5,1.5
				c2.3,1,5.2,0.3,7.5,1.2c2.3,0.9,4.8,1,7.2,1.8c2.3,0.8,4.8,1.1,7.2,1.9c2.3,0.8,4.4,2.4,6.8,3.1c2.3,0.7,4.3,2.7,6.8,3.4
				c2.4,0.6,5.2-0.5,7.6,0.1c2.4,0.6,4.2,3.7,6.6,4.2c2.4,0.5,4.4,2.8,6.9,3.3c2.4,0.5,5.2-1,7.7-0.5c2.4,0.5,4.9,0.4,7.4,0.8
				c2.4,0.4,5,0.1,7.5,0.5c2.4,0.4,4.5,2.8,7,3.2c2.4,0.4,5.2-1.4,7.7-1c2.4,0.4,4.9,0.4,7.4,0.7c2.4,0.3,4.7,2,7.2,2.3
				c2.4,0.3,5.1-0.9,7.6-0.6c2.4,0.3,4.6,3.3,7,3.6c2.4,0.3,4.8,1.7,7.3,2c2.4,0.3,4.9,0.5,7.4,0.8c2.3,0.3,5-1.2,7.5-0.9
				c2.4,0.2,4.9-0.7,7.4-0.5c2.4,0.2,4.7,1.9,7.2,2.1c2.4,0.2,5-2.5,7.5-2.4c2.4,0.2,4.8,0.5,7.3,0.6c2.4,0.1,4.7,2.1,7.2,2.2
				c2.4,0.1,4.9-1.4,7.4-1.3c2.4,0.1,4.7,3.3,7.2,3.4c2.4,0.1,4.8,1,7.3,1.1c2.4,0.1,4.9-2.6,7.4-2.5c2.4,0.1,4.9-1.1,7.3-1
				c2.4,0.1,4.8,2.2,7.2,2.3c2.4,0.1,4.9-0.5,7.3-0.5c2.4,0.1,4.9-0.6,7.3-0.5c2.4,0.1,4.8,0.3,7.3,0.3c2.4,0,4.9-0.4,7.3-0.4
				c2.4,0,4.8,3.6,7.3,3.6c2.4,0,4.9-2.9,7.3-2.8c2.4,0,4.8,2.9,7.3,3c2.4,0,4.9-1.9,7.3-1.9c2.4,0,4.9-0.4,7.3-0.4
				c2.4,0,4.9,0,7.3,0c2.4,0,4.9-0.6,7.3-0.6c2.4,0,4.9,2.5,7.3,2.5c2.4,0,4.9,0.4,7.3,0.4c2.4,0,4.8-3.6,7.3-3.7
				c2.4,0,4.9,1.8,7.3,1.8c2.4,0,4.9-0.4,7.3-0.5c2.4,0,4.9-1.3,7.3-1.3c2.4,0,4.9,3.7,7.3,3.7c2.4,0,4.9-1.6,7.3-1.6
				c2.4,0,4.8-2.9,7.3-2.9c2.4,0,4.9-0.2,7.3-0.2c2.4,0,4.9,2.4,7.3,2.4c2.4,0,4.8-2.3,7.3-2.4c2.4,0,4.9,0.2,7.3,0.2
				c2.4-0.1,4.9,0,7.3-0.1c2.4-0.1,4.9,2.4,7.4,2.4c2.4-0.1,4.9-1.2,7.3-1.2c2.4-0.1,4.8-2.4,7.3-2.5c2.4-0.1,4.9,1.6,7.3,1.6
				c2.5-0.1,4.9,0.1,7.3,0c2.5-0.1,4.9,1.6,7.3,1.6c2.5-0.1,4.9,1.1,7.3,1.1c2.5-0.1,4.9-0.2,7.3-0.3c2.5-0.1,4.9-1.2,7.3-1.2
				c2.5-0.1,4.8-2.7,7.2-2.7c2.5-0.1,5,2.1,7.4,2c2.5-0.1,4.8-3.4,7.2-3.5c2.5-0.1,5,1.6,7.4,1.6c2.5-0.1,5,1.7,7.4,1.6
				c2.5-0.1,4.8-3.2,7.2-3.3c2.5-0.1,5.1,3.6,7.4,3.5c2.5-0.1,4.9-1.8,7.2-1.9c2.6-0.1,5-0.6,7.3-0.7c2.6-0.1,5-0.1,7.3-0.1
				c2.7-0.1,5-1.8,7.2-1.9c2.9-0.1,5.3,0.1,7.3,0c3.1-0.1,6.8-3,5.6-5.9c-0.6-1.3-2.8-3.2-4.8-5.9c-1.2-1.7-3.2-3.2-5-5.4
				c-1.4-1.7-4.7-2.2-6.3-4.2c-1.5-1.8-2.1-4.4-3.8-6.3c-1.5-1.7-1.9-4.7-3.6-6.6c-1.6-1.7-5.1-1.8-6.8-3.6c-1.6-1.7-3.5-3.2-5.2-5
				c-1.7-1.7-0.7-6-2.5-7.8c-1.7-1.7-5.5-1.3-7.3-3c-1.7-1.7-2-4.9-3.8-6.6c-1.7-1.7-5.3-1.4-7.1-3.1c-1.8-1.6-2-5-3.8-6.6
				c-1.8-1.6-3.3-3.5-5.2-5.1c-1.8-1.6-4.3-2.4-6.2-4c-1.8-1.6-1.9-5.2-3.8-6.8c-1.8-1.6-4.8-1.8-6.7-3.3c-1.9-1.5-5.6-0.8-7.5-2.3
				c-1.9-1.5-1.3-6.1-3.3-7.6c-1.9-1.5-3.7-3.2-5.7-4.7c-1.9-1.4-4.9-1.5-6.9-3c-2-1.4-5.3-0.9-7.3-2.4c-2-1.4-3.1-4-5.1-5.3
				c-2-1.4-3.2-3.9-5.2-5.3c-2-1.3-5.5-0.4-7.6-1.7c-2.1-1.3-2.6-5-4.7-6.2c-2.1-1.3-4.9-1.2-7-2.5c-2.1-1.2-5-0.9-7.2-2.1
				c-2.1-1.2-2.4-5.8-4.5-6.9c-2.1-1.2-4.2-2.6-6.3-3.7c-2.2-1.1-4.6-1.7-6.8-2.8s-4.4-2.2-6.6-3.2s-5.1-0.6-7.3-1.6
				c-2.2-0.9-4.9-0.9-7.1-1.8s-4.8-1.1-7-1.9c-2.3-0.8-4-3.2-6.3-4c-2.3-0.8-4.8-1.1-7.1-1.8c-2.3-0.7-4.6-1.4-7-2.1
				s-4.2-3.3-6.6-3.9c-2.4-0.6-4.7-1.4-7.1-1.9c-2.4-0.5-4.9-0.3-7.3-0.7s-5.2,1.9-7.6,1.6c-2.4-0.3-4.8-1.2-7.2-1.4s-4.8-1-7.2-1.1
				c-2.5-0.1-4.9,0-7.3-0.1c-2.5-0.1-4.9-1.1-7.3-1.2c-2.5-0.1-5.1,3.7-7.4,3.6c-2.5-0.1-4.7-4.6-7.1-4.8c-2.5-0.1-5,2.2-7.4,2.1
				c-2.5-0.2-4.9-0.8-7.3-1c-2.4-0.2-4.7-1.6-7.1-1.8c-2.4-0.3-4.9-0.1-7.3-0.5c-2.4-0.4-4.7-1.3-7.1-1.8c-2.4-0.5-5,0-7.3-0.6
				c-2.4-0.6-4.9-0.5-7.3-1.2c-2.3-0.7-4.6-1.7-6.9-2.6c-2.3-0.9-3.6-3.9-5.8-4.9c-2.2-1-5.6,0.5-7.8-0.7c-2.1-1.1-2.5-5.3-4.6-6.6
				c-2-1.2-5.1-0.8-7.2-2.3c-2-1.4-2.9-4.1-4.9-5.6c-1.9-1.5-4-2.6-5.8-4.2c-1.8-1.6-5.1-1.6-6.9-3.3c-1.7-1.7-3.9-3-5.6-4.8
				c-1.6-1.7-2.6-4.2-4.2-6.1c-1.6-1.8-1.8-4.8-3.4-6.7c-1.5-1.8-4.1-2.8-5.7-4.8c-1.5-1.9-2.2-4.4-3.6-6.4c-1.4-1.9-3.6-3.4-5-5.4
				c-1.4-2-1-5.1-2.4-7.2c-1.3-2-6-1.9-7.3-4c-1.3-2-0.2-5.5-1.5-7.7c-1.2-2.1-1.8-4.6-3-6.7c-1.2-2.1-2.9-3.9-4.1-6.1
				c-1.2-2.1-1.6-4.6-2.8-6.8c-1.2-2.1-2.6-4.1-3.8-6.2c-1.1-2.1-3.3-3.7-4.4-5.9c-1.1-2.1-4.6-3.1-5.7-5.3c-1-2,0.7-5.5-0.3-7.9
				c-0.9-2.1-3.7-3.6-4.7-5.9c-0.9-2.2-2.7-4-3.7-6.4c-0.9-2.2-1.5-4.5-2.5-6.8c-0.9-2.2-0.6-5-1.6-7.2c-1-2.2-1.2-4.7-2.3-7
				c-1-2.2-4.2-3.3-5.3-5.5c-1.1-2.1-0.2-5.3-1.4-7.5c-1.2-2.1-4.8-2.7-6.1-4.8c-1.3-2-2.3-4.1-3.7-6.1c-1.4-2-2.4-4.1-3.9-6.1
				c-1.5-1.9-3.1-3.6-4.6-5.5c-1.6-1.8-0.2-6.3-1.9-8.1c-1.7-1.7-4.3-2.6-6.1-4.3c-1.8-1.6-5.2-1.3-7.1-2.9
				c-1.9-1.5-2.4-4.7-4.4-6.2c-1.9-1.4-5-1.2-7.1-2.5c-2-1.3-4.1-2.4-6.3-3.5c-2.1-1.1-3-4.8-5.2-5.8c-2.2-1-5.2-0.1-7.5-1
				c-2.2-0.9-3.7-4.2-6-5c-2.3-0.7-5-0.3-7.4-0.9c-2.3-0.6-4.5-2.3-6.9-2.8c-2.3-0.5-4.8-1.3-7.2-1.7c-2-0.3-4.9,3.1-7.8,2.9
				c-2.2-0.2-4.4-3.4-7.1-3.5c-2.3-0.1-4.8,0.4-7.4,0.3c-2.3-0.1-4.8,0.1-7.3,0c-2.3-0.1-4.8,1.6-7.4,1.5c-2.4-0.1-4.8,0.2-7.3,0.2
				c-2.4-0.1-4.8-2-7.3-2c-2.4-0.1-4.8-0.8-7.3-0.8c-2.4,0-4.8,0.4-7.3,0.4c-2.4,0-4.9,0.8-7.3,0.8c-2.4,0-4.9,1.8-7.3,1.8
				c-2.4,0-4.8-3.8-7.3-3.8c-2.4,0-4.9,4.1-7.4,4.1c-2.4,0-4.9-1.9-7.3-1.9c-2.4,0-4.9,1-7.3,1c-2.4,0-4.9-2.1-7.3-2.1
				c-2.4,0-4.9,1.9-7.3,1.9c-2.4,0-4.9-1.9-7.3-1.9c-2.4,0-4.9-0.9-7.3-0.9c-2.4,0-4.9,1.3-7.3,1.3c-2.4,0-4.9-1-7.3-1
				c-2.4,0-4.9-0.1-7.3-0.1c-2.4,0-4.9,2.8-7.3,2.8c-2.4,0-4.9-0.9-7.3-0.9c-2.4,0-4.9-1-7.3-1c-2.4,0-4.9-1.5-7.3-1.4
				c-2.4,0-4.9,3-7.3,3c-2.4,0-4.9-1.2-7.3-1.2c-2.4,0-4.9,2.3-7.3,2.3c-2.4,0-4.9-1.9-7.4-1.8c-2.4,0-4.9,2.2-7.3,2.3
				c-2.4,0-4.9-0.9-7.3-0.9c-2.5,0-4.9-1.1-7.4-1.1c-2.5,0-4.9-0.6-7.3-0.5c-2.5,0-4.8,3.3-7.3,3.3c-2.5,0-4.9-2.3-7.4-2.3
				c-2.5,0-4.9,0.9-7.3,0.9c-2.5,0-4.9,0.8-7.3,0.8c-2.5,0-5-2.3-7.4-2.2c-2.5,0-4.9,0-7.3,0c-2.5,0-4.9-1.5-7.4-1.4
				c-2.5,0-4.9,3.2-7.3,3.2c-2.5,0-4.9-0.8-7.4-0.8c-2.5,0.1-4.9-0.9-7.4-0.9c-2.5,0.1-4.9-0.7-7.4-0.7c-2.5,0.1-4.9,1.9-7.3,2
				c-2.5,0.1-4.9,0.9-7.3,1c-2.5,0.1-5-0.7-7.3-0.6c-2.5,0.1-5-0.3-7.3-0.2c-2.5,0.1-4.9,1.5-7.3,1.6c-2.5,0.1-4.9,1.5-7.3,1.5
				c-2.5,0.1-5.1-4.6-7.4-4.5c-2.5,0.1-4.9,3.8-7.3,3.9c-2.6,0.1-5,0.4-7.3,0.4C860.2,1034.5,857.6,1031,855.5,1030.9L855.5,1030.9z
				"/>
			<g>
				<g class="st13">
					<path class="st10" d="M1212.1,1325.5c-2.9,0.1-1.6,3.6-3.8,5.4c-1.8,1.5-3.8-0.1-3.7,2.2c0.1,3.3,1,2.9,4.2,3.6
						c3.3,0.7,2.5-0.1,5.1-2.2c2.1-1.7,2.4-1.1,2.7-3.8C1216.9,1326.8,1215.5,1325.4,1212.1,1325.5L1212.1,1325.5z"/>
					<path class="st10" d="M1192.9,1328.6c-1.6-0.9-1.8,1.1-3.7,1.1s-2.8-3.2-4.4-2.2s-1.6,1.9-2.6,3.6c-0.9,1.6-1,2.1-1,4
						s1.9,1.3,2.9,3s0.5,1.3,2.1,2.3c1.6,0.9,1.1,2.3,3,2.3s2-0.2,3.7-1.2c1.6-0.9,1.9-0.9,2.9-2.6c0.9-1.6,1.4-1.9,1.4-3.8
						s-3-0.9-3.7-2.7C1192.7,1330.6,1194.6,1329.6,1192.9,1328.6L1192.9,1328.6z"/>
					<path class="st10" d="M1204.9,1314.1c-2.6-1.5-4.2-2.4-6.7-0.9c-2.6,1.5-2.1,3.3-2.1,6.3s-0.4,4.6,2.1,6.1s3.7,0.1,6.3-1.4
						c2.6-1.5,0.9-2.3,1.8-5.2C1207.2,1316.1,1207.5,1315.6,1204.9,1314.1z"/>
				</g>
				<g class="st13">
					<path class="st10" d="M1277.6,1051.1c-1.8-1.8-4.1,0.1-6.6,0.8s-1.6,2.6-3.7,4.2c-1.8,1.4-0.8,1.4-1.8,3.4s-5.4,1.8-4.9,3.9
						c0.8,3.9,1.8,5.8,5.2,8c2.2,1.4,3.7-2.2,6.3-2.4c2.6-0.3,5.4,2.8,6.7,0.5c1.2-2.1-1.5-3.6-2.9-5.6s-3.8-0.8-4-3.2
						c-0.1-2.3-0.3-3.3,1.3-5.1C1275.6,1053.1,1279.2,1052.8,1277.6,1051.1L1277.6,1051.1z"/>
					<path class="st10" d="M1283.3,1074.5c-3.7,0.1-2,4.6-4.9,6.9c-2.3,1.9-4.8-0.2-4.7,2.8c0.1,4.2,1.2,3.7,5.3,4.6
						c4.2,0.9,3.2-0.2,6.5-2.9c2.7-2.2,3.1-1.4,3.4-4.8C1289.4,1076.2,1287.6,1074.4,1283.3,1074.5L1283.3,1074.5z"/>
					<path class="st10" d="M1287.1,1058.3c-1.2-0.6,0.2,0.3,0,1.6c-0.4,3-3.6,4.1-1.6,6.4c2,2.3,3.7,2.1,6.3,0.6
						c2.1-1.2-0.8-1.7-1.5-3.9C1289.5,1059.9,1289.9,1059.7,1287.1,1058.3L1287.1,1058.3z"/>
				</g>
				<g class="st13">
					<path class="st10" d="M1726.5,1422.3c-3.6-2.3-4.9,3-9.2,3.4c-3.5,0.3-4.5-3.3-6.4-0.4c-2.7,4-1.2,4.4,2.1,7.9
						c3.4,3.6,3.2,2,8.1,1.5c4-0.3,3.9,0.7,6.4-2.4C1731.1,1427.9,1730.6,1425,1726.5,1422.3L1726.5,1422.3z"/>
					<path class="st10" d="M1744.3,1418.2c-0.8-1.3,0,0.3-1.1,1.5c-2.3,2.6-6.1,1.6-5.7,5.1c0.4,3.5,2.1,4.5,5.6,4.7
						c2.7,0.2,0.3-2.2,1.2-4.8C1745.6,1421.3,1746.1,1421.3,1744.3,1418.2L1744.3,1418.2z"/>
				</g>
			</g>
		</g>
	</g>
	<path class="st9" d="M1077.6,681.2l2.2,14.5c0,0,43.5-6.3,67.2-67C1151,568.2,1077.6,681.2,1077.6,681.2L1077.6,681.2z"/>
	<g>
		<g>
			<g>
				<path class="st14" d="M1137.7,405.6c0.6,31.7-18.9,51.9-47.8,52.4c-28.9,0.5-42.4-20-43-51.7c-0.6-31.7,14.2-55.8,43.1-56.3
					C1119,349.5,1137.2,373.9,1137.7,405.6z"/>
				<path class="st1" d="M1089.3,466.7c18.8-0.4,51.5,0.7,47.7-14.3c-9.3-36.6-72.5-45.6-91.9-4.1
					C1051.9,466.7,1068.9,467.2,1089.3,466.7z"/>
			</g>
			<g>
				<g>
					<g id="head">
						<path id="hair-2" class="st3" d="M1176.1,510.6c8.6,49.4-23.9,101.6-73.7,110.3s-98.1-29.4-106.7-78.8
							c-8.6-49.4,24.8-96.5,74.6-105.2C1120.1,428.2,1167.5,461.2,1176.1,510.6L1176.1,510.6z"/>
						<path class="st4" d="M1141,534.3c-13.8-41.4-54.1-57.1-93-50.3s-53.8,35.7-47,74.7c0,0,9,49.7,9.4,52.2
							c5.1,29.2,40,79.7,68,74.8c32.4-5.7,80.2-58.5,75.2-86.5C1153.3,596.8,1146.3,550,1141,534.3L1141,534.3z"/>
					</g>
					<g>
						<g id="eyebrows">
							<g>
								<path class="st3" d="M1069.8,545.4c0,0,28.5-8,34.2-8.4c9.5-0.7,12.5,5,14.5,8c0.7,1-37,11.5-42.9,10.4
									S1069.8,545.4,1069.8,545.4z"/>
								<path class="st3" d="M1038.4,550.9c0,0-29.5,2.2-35,3.7c-1,0.3-2,0.6-2.8,1c-3,1.2-1.2,11.6,1.4,11.5
									c11.8-0.7,30.9-2.7,34.4-4.7C1041.6,559.4,1038.4,550.9,1038.4,550.9L1038.4,550.9z"/>
							</g>
						</g>
						<g>
							<path class="st9" d="M1070.3,617.2c2.7-0.7,6.5,3.2,6.5,3.2l-10.9,2.5C1067.1,620.1,1067.6,617.9,1070.3,617.2L1070.3,617.2z
								"/>
							<path class="st9" d="M1055.2,618.5c2.7,0.1,4.8,4.9,4.8,4.9l-10-0.4C1050.1,623,1052.5,618.4,1055.2,618.5L1055.2,618.5z"/>
							<path class="st9" d="M1054.3,602.3c-2-19.6-8.5-40.8-8.5-41.1l-4.3,1.3c0.1,0.2,6.4,21.1,8.4,40.2L1054.3,602.3L1054.3,602.3
								z"/>
						</g>
						<path class="st9" d="M1070.5,654.7c-7.7,1-13.8-1.1-14.2-1.2c-1.2-0.4-1.8-1.7-1.4-2.8c0.4-1.2,1.7-1.8,2.8-1.4
							c0.2,0.1,12.3,4.1,22.8-2.9c1-0.7,2.4-0.4,3.1,0.6c0.7,1,0.4,2.4-0.6,3.1C1078.9,652.9,1074.5,654.2,1070.5,654.7
							L1070.5,654.7z"/>
					</g>
				</g>
				<g>
					<path class="st4" d="M1149.8,542.1c2.6-4.5,10-8.7,20.6,0.6c10.6,9.3,11.9,50.9-9.8,54.7
						C1138.9,601.2,1142.8,554.4,1149.8,542.1L1149.8,542.1z"/>
					<path class="st9" d="M1164.4,548.9c0,0-9.6,3.3-8.4,12.5s3.5,19.8,3.5,19.8L1164.4,548.9L1164.4,548.9z"/>
				</g>
			</g>
			<g>
				<g>
					<g id="face">
						<path class="st3" d="M1033.7,581.2c0.3,6.3-1.9,12.1-7.3,13.2c-5.4,1.2-10.8-2.8-12.1-9c-1.3-6.1,2.6-1.8,7.9-3
							C1027.6,581.3,1033.5,578.2,1033.7,581.2z"/>
					</g>
					<path class="st3" d="M1039.3,583.8c-13.8-2.5-20.7-1.1-28.7,0.5l-0.7-3.3c8.3-1.7,15.6-3.1,29.9-0.5L1039.3,583.8L1039.3,583.8
						z"/>
				</g>
				<g>
					<g id="face-2">
						<path class="st3" d="M1082,573.7c1.8,6,5.9,10.7,11.3,10s9.2-6.3,8.4-12.5c-0.8-6.2-3.1-0.9-8.5-0.2
							C1087.8,571.7,1081.2,570.8,1082,573.7L1082,573.7z"/>
					</g>
					<path class="st3" d="M1077.6,578.1l-1.7-3c12.7-7.3,19.9-8.4,28.2-9.7c2-0.3,4.1-0.6,6.4-1l0.6,3.4c-2.3,0.4-4.5,0.8-6.5,1.1
						C1096.3,570.1,1089.7,571.1,1077.6,578.1z"/>
				</g>
			</g>
		</g>
		<path class="st9" d="M1082.8,638.7c-0.1,0-0.1,0-0.2,0c-1.2,0.2-2.8,0.2-4.5,0.2c-1.6,0-3.5,0-4.3,0.3c-3,0.8-9.6,1.8-12.2,2
			c-1,0.1-2.6,0.6-4.1,1c-1.6,0.5-2.9,0.9-4,1c-7,0.6-11.2-1.4-11.4-1.5c-1.1-0.5-1.6-1.9-1.1-3s1.9-1.6,3-1.1c0.1,0,3.5,1.5,9.1,1
			c0.6,0,1.9-0.5,3.1-0.8c1.8-0.5,3.6-1.1,5-1.2c2.3-0.2,8.7-1.2,11.4-1.9c1.4-0.3,3.3-0.4,5.4-0.4c1.4,0,2.9,0,3.8-0.2
			c2.8-0.5,5.8-2,8.9-3.6c1.5-0.8,3-1.5,4.6-2.3c1.1-0.5,2.5,0,3,1.1c0.5,1.1,0,2.5-1.1,3c-1.5,0.7-2.9,1.4-4.4,2.2
			C1089.5,636.5,1086.2,638.1,1082.8,638.7L1082.8,638.7z"/>
	</g>
</g>
<g>
	<path class="st1" d="M1509.7,617.4c11.8,78.7-42.9,152.2-122.3,164.2c-79.4,12-153.3-42.2-165.2-120.9
		c-11.8-78.7,42.9-152.2,122.3-164.2C1423.9,484.6,1497.8,538.7,1509.7,617.4L1509.7,617.4z"/>
	<g>
		<path class="st1" d="M1420.6,620.2c-0.8,0-1.6-0.1-2.4-0.2c-14.7-3.6-27.2-12.9-35.1-26c-8-13.2-10.5-28.7-7-43.7l13.3-58.4
			c3.4-15,12.4-27.7,25.2-35.8c12.8-8,27.9-10.5,42.6-6.9c4.9,1.2,7.9,6.2,6.8,11.2c-1.1,5-6,8-10.9,6.8c-10-2.5-20.2-0.8-28.9,4.7
			c-8.7,5.5-14.8,14.1-17.1,24.3l-13.3,58.4c-2.3,10.2-0.6,20.7,4.8,29.7c5.4,8.9,13.9,15.2,23.8,17.7c4.9,1.2,7.9,6.2,6.8,11.2
			C1428.2,617.3,1424.6,620.1,1420.6,620.2L1420.6,620.2z"/>
		<g>
			<path class="st3" d="M1435,598.6c1.2,36-42.3,66.4-97,67.9c-54.8,1.5-100.1-26.5-101.3-62.5c-1.2-36,42.3-66.4,97-67.9
				C1388.5,534.6,1433.8,562.6,1435,598.6L1435,598.6z"/>
			<g>
				<path class="st15" d="M1270.2,602c0.1,2.8-2.1,5.2-4.9,5.3c-2.8,0.1-5.1-2.2-5.2-5c-0.1-2.9,2.1-5.2,4.9-5.3
					S1270.1,599.1,1270.2,602z"/>
				<path class="st15" d="M1302.8,602.5c0.1,2.8-2.1,5.2-4.9,5.3s-5.1-2.2-5.2-5c-0.1-2.9,2.1-5.2,4.9-5.3
					C1300.4,597.4,1302.7,599.7,1302.8,602.5L1302.8,602.5z"/>
				<path class="st15" d="M1293,591.2c0.1,2.8-2.1,5.2-4.9,5.3c-2.8,0.1-5.1-2.2-5.2-5c-0.1-2.9,2.1-5.2,4.9-5.3
					C1290.6,586.1,1292.9,588.3,1293,591.2z"/>
				<path class="st15" d="M1280.2,590.9c0.1,2.8-2.1,5.2-4.9,5.3c-2.8,0.1-5.1-2.2-5.2-5c-0.1-2.8,2.1-5.2,4.9-5.3
					C1277.8,585.7,1280.1,588,1280.2,590.9z"/>
			</g>
			<g>
				<path class="st15" d="M1368.7,599.3c0.1,2.8-2.1,5.2-4.9,5.3s-5.1-2.2-5.2-5c-0.1-2.9,2.1-5.2,4.9-5.3
					C1366.3,594.2,1368.6,596.5,1368.7,599.3L1368.7,599.3z"/>
				<path class="st15" d="M1401.3,599.9c0.1,2.9-2.1,5.2-4.9,5.3s-5.1-2.2-5.2-5c-0.1-2.8,2.1-5.2,4.9-5.3
					C1398.9,594.8,1401.3,597,1401.3,599.9L1401.3,599.9z"/>
				<path class="st15" d="M1391.6,588.5c0.1,2.9-2.1,5.2-4.9,5.3s-5.1-2.2-5.2-5c-0.1-2.8,2.1-5.2,4.9-5.3
					C1389.1,583.4,1391.5,585.7,1391.6,588.5z"/>
				<path class="st15" d="M1378.7,588.2c0.1,2.8-2.1,5.2-4.9,5.3c-2.8,0.1-5.1-2.2-5.2-5c-0.1-2.9,2.1-5.2,4.9-5.3
					S1378.6,585.3,1378.7,588.2L1378.7,588.2z"/>
			</g>
		</g>
	</g>
	<path class="st16" d="M1488.2,716.6c-5.8-3.8-11.2-9.5-15.7-16.9c-8.4-13.9-13.1-32.4-13-52s4.7-38,13.2-51.9
		c6.5-10.7,14.7-17.7,23.6-20.6l1.9,3.6c-8.2,2.4-15.9,9-22,19c-8.1,13.3-12.6,31-12.6,49.9c0,18.9,4.4,36.6,12.4,49.9
		c4.2,6.9,9.1,12.2,14.4,15.6L1488.2,716.6L1488.2,716.6z"/>
	<path class="st16" d="M1405.8,500.2c0,0-4-1.7-14.1-2.4l0.3-4c10.8,0.8,15.2,2.6,15.3,2.7L1405.8,500.2L1405.8,500.2z"/>
</g>
</svg>
