<?xml version="1.0" encoding="utf-8"?>
<!-- Generator: Adobe Illustrator 27.3.1, SVG Export Plug-In . SVG Version: 6.00 Build 0)  -->
<svg version="1.1" id="Layer_1" xmlns="http://www.w3.org/2000/svg" xmlns:xlink="http://www.w3.org/1999/xlink" x="0px" y="0px"
	 viewBox="0 0 1200 1200" style="enable-background:new 0 0 1200 1200;" xml:space="preserve">
<style type="text/css">
	.st0{opacity:0.3;fill:#293657;enable-background:new    ;}
	.st1{fill:#EAEBEC;}
	.st2{fill:#FFFFFF;}
	.st3{fill:#293657;}
	.st4{fill:#527BEF;}
</style>
<ellipse class="st0" cx="598.4" cy="903.2" rx="274.2" ry="23.6"/>
<g>
	<g>
		<path class="st1" d="M463.4,549.5c-14.2-10.2-38.3-0.9-53.7,20.6s-75.3,121.8-57.1,134.7s93.4-76.4,108.8-97.9
			S477.6,559.6,463.4,549.5z"/>
		<path class="st2" d="M776.8,524.2c0-97.3-81.5-176.2-182.2-176.2s-182,78.8-182,176.2s81.5,176.2,182.2,176.2
			S776.8,621.5,776.8,524.2L776.8,524.2z"/>
		<path class="st3" d="M705.8,499c5.2-43.8-45.7-85.9-113.8-94s-127.6,20.6-132.8,64.4s45.7,85.8,113.8,94
			C641,571.6,700.5,542.8,705.8,499L705.8,499L705.8,499z"/>
		<path class="st1" d="M781.3,588c-12-23.6-34.5-36.3-50-28.3s-18.4,33.5-6.4,57.1s73.5,122.8,93.2,112.7
			C837.8,719.6,793.3,611.5,781.3,588L781.3,588L781.3,588z"/>
	</g>
	<g>
		<g>
			<path class="st4" d="M495.9,467.2c-3.5-0.4-6.5,2-7,5.5s2,6.5,5.5,7s6.5-2,7-5.5S499.3,467.5,495.9,467.2z"/>
			<path class="st4" d="M535.9,473.8c-3.5-0.4-6.5,2-7,5.5s2,6.5,5.5,7s6.5-2,7-5.5S539.4,474.2,535.9,473.8L535.9,473.8z"/>
			<path class="st4" d="M526,458.4c-3.5-0.4-6.5,2-7,5.5c-0.4,3.5,2,6.5,5.5,7c3.5,0.4,6.5-2,7-5.5
				C531.8,461.9,529.3,458.7,526,458.4z"/>
			<path class="st4" d="M515.7,462.6c0.4-3.5-2-6.5-5.5-7s-6.5,2-7,5.5s2,6.5,5.5,7S515.3,466.1,515.7,462.6L515.7,462.6z"/>
		</g>
		<g>
			<path class="st4" d="M623.3,488.7c0.4-3.5-2-6.5-5.5-7c-3.5-0.4-6.5,2-7,5.5s2,6.5,5.5,7S622.9,492.2,623.3,488.7L623.3,488.7z"
				/>
			<path class="st4" d="M663.3,495.2c0.4-3.5-2-6.5-5.5-7c-3.5-0.4-6.5,2-7,5.5c-0.4,3.5,2,6.5,5.5,7S662.9,498.7,663.3,495.2
				L663.3,495.2z"/>
			<path class="st4" d="M647.8,472.9c-3.5-0.4-6.5,2-7,5.5c-0.4,3.5,2,6.5,5.5,7s6.5-2,7-5.5S651.3,473.2,647.8,472.9L647.8,472.9z"
				/>
			<path class="st4" d="M632.2,470.1c-3.5-0.4-6.5,2-7,5.5s2,6.5,5.5,7s6.5-2,7-5.5S635.6,470.6,632.2,470.1L632.2,470.1z"/>
		</g>
	</g>
</g>
</svg>
