<?xml version="1.0" encoding="utf-8"?>
<!-- Generator: Adobe Illustrator 27.3.1, SVG Export Plug-In . SVG Version: 6.00 Build 0)  -->
<svg version="1.1" id="Layer_1" xmlns="http://www.w3.org/2000/svg" xmlns:xlink="http://www.w3.org/1999/xlink" x="0px" y="0px"
	 viewBox="0 0 2000 2000" style="enable-background:new 0 0 2000 2000;" xml:space="preserve">
<style type="text/css">
	.st0{fill:#BCBA38;}
	.st1{fill:#FBF84A;}
	.st2{fill:#2A3756;}
	.st3{fill:#FFFFFF;}
	.st4{fill:#EF5C00;}
	.st5{fill:#C64709;}
	.st6{opacity:0.1;fill:#FFFFFF;enable-background:new    ;}
	.st7{fill:#E2857E;}
	.st8{fill:#D87E7C;}
	.st9{fill:#43840B;}
	.st10{fill:#346009;}
	.st11{fill:#4A990D;}
	.st12{fill:#7DC93A;}
	.st13{fill:#293657;}
	.st14{fill:#364896;}
	.st15{opacity:0.8;fill:#3A6D09;enable-background:new    ;}
	.st16{fill:#DD5205;}
	.st17{fill:#6E7DE5;}
	.st18{fill:#F9F9F9;}
	.st19{fill:#EAEAEA;}
	.st20{fill:#EDEDED;}
	.st21{fill:#CCCAC8;}
	.st22{fill:#4E5EAF;}
	.st23{fill:#3A6D09;}
	.st24{fill:#383838;}
	.st25{fill:#C9AD97;}
	.st26{fill:#AA9180;}
	.st27{fill:#EBEBEB;}
	.st28{fill:#293856;}
	.st29{fill:#5974B8;}
	.st30{fill:#13C5E2;}
	.st31{opacity:0.5;fill:#4A990D;enable-background:new    ;}
	.st32{opacity:0.6;fill:#FFFFFF;enable-background:new    ;}
</style>
<g>
	<g>
		<g>
			<rect x="897.2" y="141.8" class="st0" width="77.9" height="59.8"/>
			<rect x="865.7" y="188.5" class="st1" width="140.9" height="28.5"/>
			<rect x="1532.5" y="141.8" class="st0" width="77.9" height="59.8"/>
			<rect x="1501" y="188.5" class="st1" width="140.9" height="28.5"/>
		</g>
		<path class="st1" d="M2000,141.6H228.5c-83.7,0-162.2-41.1-209.9-110.1C11.6,21.5,5.4,10.9,0,0h139.6
			c25.1,19.6,56.3,30.7,88.9,30.7H2000V141.6L2000,141.6z"/>
		<g>
			<rect x="603.9" class="st0" width="29.1" height="147"/>
			<rect x="1239.2" class="st0" width="29.1" height="147"/>
			<rect x="1874.6" class="st0" width="29.1" height="147"/>
			<g>
				<path class="st1" d="M625,45c0,4-3.2,7.2-7.2,7.2s-7.2-3.2-7.2-7.2s3.2-7.2,7.2-7.2S625,41,625,45z"/>
				<path class="st1" d="M1260.9,45c0,4-3.2,7.2-7.2,7.2s-7.2-3.2-7.2-7.2s3.2-7.2,7.2-7.2S1260.9,41,1260.9,45z"/>
				<path class="st1" d="M1896.9,45c0,4-3.2,7.2-7.2,7.2s-7.2-3.2-7.2-7.2s3.2-7.2,7.2-7.2S1896.9,41,1896.9,45z"/>
				<path class="st1" d="M625,124.1c0,4-3.2,7.2-7.2,7.2s-7.2-3.2-7.2-7.2s3.2-7.2,7.2-7.2S625,120.1,625,124.1z"/>
				<path class="st1" d="M1260.9,124.1c0,4-3.2,7.2-7.2,7.2s-7.2-3.2-7.2-7.2s3.2-7.2,7.2-7.2S1260.9,120.1,1260.9,124.1z"/>
				<path class="st1" d="M1896.9,124.1c0,4-3.2,7.2-7.2,7.2s-7.2-3.2-7.2-7.2s3.2-7.2,7.2-7.2S1896.9,120.1,1896.9,124.1z"/>
			</g>
		</g>
		<g>
			<path class="st0" d="M238,141.6c0,3.7-3,5.4-6.7,5.4l0,0c-3.7,0-6.7-1.7-6.7-5.4V31.1c0-3.7,3-5.4,6.7-5.4l0,0
				c3.7,0,6.7,1.7,6.7,5.4V141.6z"/>
			<path class="st0" d="M177.2,137.4c-1.1,3.6-4.4,4.4-8,3.3l0,0c-3.6-1.1-6-3.5-4.9-7.1l31.2-105.9c1.1-3.6,4.4-4.4,8-3.3l0,0
				c3.6,1,6,3.5,4.9,7.1L177.2,137.4z"/>
			<path class="st0" d="M121.1,118.8c-2,3.1-5.5,2.9-8.6,0.9l0,0c-3.1-2-4.7-5.1-2.7-8.2l59.9-92.8c2-3.1,5.5-2.9,8.6-0.9l0,0
				c3.1,2,4.7,3.8,2.7,6.9L121.1,118.8L121.1,118.8z"/>
			<path class="st0" d="M70.8,84.9c-2.8,2.4-6.1,1.3-8.5-1.6l0,0c-2.4-2.8-3.1-6.2-0.3-8.7l83.7-72.1c2.8-2.4,6.1-1.2,8.5,1.6l0,0
				c2.4,2.8,3.1,6.2,0.3,8.6L70.8,84.9L70.8,84.9z"/>
		</g>
	</g>
	<g>
		<g>
			<g>
				<rect x="680.6" class="st2" width="7.7" height="270.7"/>
				<path class="st2" d="M707.1,270.7h-5.4c0-33.1-9.5-49.2-19.6-66.3c-10-16.9-20.4-34.5-20.4-69s10.4-52.1,20.4-69
					c10.1-17.1,19.6-33.2,19.6-66.3h5.4c0,34.6-10.4,52.1-20.4,69c-10.1,17.1-19.6,33.2-19.6,66.3s9.5,49.2,19.6,66.3
					C696.8,218.6,707.1,236.1,707.1,270.7z"/>
			</g>
			<g>
				<path class="st3" d="M711.8,333.4c0,33.4-12.2,60.4-27.3,60.4s-27.3-27-27.3-60.4s12.2-60.4,27.3-60.4S711.8,300,711.8,333.4z"
					/>
				<polygon class="st2" points="797.5,327.5 571.4,327.5 657.1,272.9 684.5,248.9 711.8,272.9 				"/>
				<polygon class="st2" points="711.8,272.9 657.2,272.9 668.1,200.2 700.8,200.2 				"/>
			</g>
		</g>
		<g>
			<g>
				<rect x="1301.3" class="st2" width="7.7" height="270.7"/>
				<path class="st2" d="M1327.9,270.7h-5.4c0-33.1-9.5-49.2-19.6-66.3c-10-16.9-20.4-34.5-20.4-69s10.4-52.1,20.4-69
					c10.1-17.1,19.6-33.2,19.6-66.3h5.4c0,34.6-10.4,52.1-20.4,69c-10.1,17.1-19.6,33.2-19.6,66.3s9.5,49.2,19.6,66.3
					C1317.5,218.6,1327.9,236.1,1327.9,270.7z"/>
			</g>
			<g>
				<path class="st3" d="M1332.6,333.4c0,33.4-12.2,60.4-27.3,60.4s-27.3-27-27.3-60.4s12.2-60.4,27.3-60.4S1332.6,300,1332.6,333.4
					z"/>
				<polygon class="st2" points="1418.2,327.5 1192.1,327.5 1277.8,272.9 1305.2,248.9 1332.6,272.9 				"/>
				<polygon class="st2" points="1332.6,272.9 1277.9,272.9 1288.8,200.2 1321.6,200.2 				"/>
			</g>
		</g>
	</g>
</g>
<g>
	<path class="st4" d="M1073.2,841.6c0,0,99.8,40.5,122.2,228.1c17.7,148.4-133.3,103.1-133.3,103.1s12.7-80.4,5.1-172.9
		C1063.6,956.2,1073.2,841.6,1073.2,841.6L1073.2,841.6z"/>
	<g>
		<path class="st4" d="M1118.7,881.6c-8.8-28.4-81.4-58.3-95.9-62c-17.5-7.3-25.9-1.4-49.1,0c-27.3,1.7-85.8,19.3-99.2,50.4
			c-5,34.3,27.7,121.6,19.1,229.2h210.8C1101.6,1002.6,1133.2,928.3,1118.7,881.6L1118.7,881.6z"/>
		<path class="st5" d="M1104.4,1099.3H893.6c-1.1,14.1-3,28.4-5.7,43.1c-4.5,24.6-8.2,49.5-11,74.2c0,0,239.2,2.8,240.6-1.3
			c-2.5-23-5.5-46.1-8.9-68.9C1106.1,1130.1,1104.9,1114.4,1104.4,1099.3z"/>
	</g>
	<polygon class="st5" points="1077.2,1108.7 917.8,1104.8 935.5,926.8 1057.9,926.8 	"/>
	<path class="st4" d="M898.2,844.8c0,0-77.4,46.3-93.4,195.6c-15.7,146.4,104.5,45,104.5,45L898.2,844.8L898.2,844.8z"/>
	<g>
		<path class="st5" d="M1022.8,819.7c22.5,38.6,20.4,116,20.4,116.3l14.9,0.4c0.2-4.5,2.2-103.7-36-125.2L1022.8,819.7L1022.8,819.7
			z"/>
		<path class="st5" d="M970.4,813.7c-33.3,30.3-35.1,117.1-35.2,120.8l14.9,0.2c0-0.2-2.9-60.8,23.5-115c0.2-0.3,0.9-9.4,0.9-9.4
			C973.2,811.3,971.8,812.5,970.4,813.7L970.4,813.7z"/>
	</g>
	<g>
		<path class="st3" d="M1045.2,1181.4h-12.7c0,0,3.9-90.3,3.9-120.3c0-7.8-6.3-14.1-14.1-14.1h-20.2v-5h20.2
			c10.5,0,19.1,8.6,19.1,19.1C1041.4,1091.2,1045.2,1181.4,1045.2,1181.4L1045.2,1181.4z"/>
		<g id="tea_pot">
			<g>
				<polygon class="st2" points="1000.5,1058.3 1023.1,1047.1 1009.1,1036.3 1008.4,1038.1 963.5,1003.8 921.8,1048.8 979,1092.5 
									"/>
				<path class="st2" d="M924.7,1019.6l-6.9-5.3l7.7-10.1c8.5-11,24.3-13.2,35.4-4.8c0,0,0,0,0.2,0.1l0,0l62,47.5l-8.7,4.3
					c0,0-58.4-44.7-58.8-45c-7.2-5.5-17.7-4-23.2,3.2L924.7,1019.6z"/>
			</g>
			<polygon class="st6" points="975.2,1085.4 966.1,1078.5 1000,1035.9 1004.3,1039.2 			"/>
		</g>
	</g>
	<path class="st3" d="M1030.2,1208.9c38.7,0,70.6-29,75.2-66.4H955C959.6,1180,991.5,1208.9,1030.2,1208.9L1030.2,1208.9z"/>
	<path class="st7" d="M1090.1,1137.8c16.2-5.3,34.9,0.9,38.2,11c1,2.9,0.8,6.1-0.4,9.2c-1.2,3.1-14.5,5.9-20.4,6.6
		c-3,0.4-6.3,1.2-9.5,2.4c-6.9,2.7-12.5,6.8-15.5,11.1c-6.4-1.6-11.2-5-12.8-10.1C1066.4,1157.9,1073.9,1143.1,1090.1,1137.8
		L1090.1,1137.8z"/>
	<path id="hand" class="st7" d="M928.3,996.6c-8.8-5.5-22.4-2.2-38.5,9.6s-6.6,32.7,6.6,32.5C909.6,1038.5,956.7,1014.4,928.3,996.6
		L928.3,996.6z"/>
	<g id="_02_Front">
		<g id="hoodie">
			<path class="st4" d="M970.4,891.7c0,0-91.1-35.9-67.5-86.8c23.6-50.9,205.5-30.7,204.4,14.3s-88.7,76.8-88.7,76.8L970.4,891.7
				L970.4,891.7z"/>
		</g>
		<g id="head">
			<path class="st2" d="M946.4,721c0,0-6.1-34,4.8-55c13.7-26.4,53.2-38.3,86.1-12.9c23.3,18,10.4,71.3,10.4,71.3L979,695.1
				L946.4,721z"/>
			<polygon class="st8" points="1022.8,819.7 998.2,843 973.7,819.7 978,766.8 1018.5,766.8 			"/>
			<path class="st8" d="M955,715c0,0-5.8-3.8-10.3,2.2s-1.5,28.4,9.7,28.4S955,715,955,715L955,715z"/>
			<path class="st8" d="M1041.8,715c0,0,5.8-3.8,10.3,2.2s1.5,28.4-9.7,28.4S1041.8,715,1041.8,715L1041.8,715z"/>
			<path class="st7" d="M1043.7,708.7c0-25.2-20.3-41.7-45.5-41.7s-45.5,16.5-45.5,41.7c0,0-2,32.1-2,33.7
				c0,23.9,29.3,54.3,47.4,54.3c20.9,0,47.4-36.2,47.4-54.3C1045.7,740.9,1043.7,708.7,1043.7,708.7L1043.7,708.7z"/>
			<path class="st2" d="M1033.8,614.5c0.7,21.7-12.4,35.7-32.2,36.4s-29.2-13.2-30-34.9c-0.7-21.7,9.2-38.3,28.9-39
				C1020.3,576.3,1033,592.8,1033.8,614.5L1033.8,614.5z"/>
		</g>
	</g>
</g>
<g>
	<g id="plant">
		<g>
			<path class="st9" d="M523.8,1013.5c12.8-15.5,31.2-20.5,46.6-28.7c15-7.9,29.8-16.2,44-18.8c13.5-2.4,26.2,5,37.4,5.6
				c23.8,1.3,33.6-4.6,43.8-0.9c12,4.4,21.1,11.7,20.9,24.3s-10.7,22.4-23.5,21.7c-0.3,0-12.7-4.7-31.3,0.9c-2.8-3.5-7.1-5.8-12-5.8
				c-8.3,0-15.1,6.7-15.3,15c-8,2-16.3,3.3-23,2.4c-19.2-2.6-31.6,10.3-49.8,31.7c-9.3,10.9-26.8,8.9-37.6,0.5
				c-1.8-1.4-3.6-3.1-5.1-5C508.5,1043.2,506.8,1034.1,523.8,1013.5L523.8,1013.5z"/>
			<path class="st9" d="M436.5,907.8c16-39.5,46.3-87.5,50.5-106.7c2.7-12.6-9.2-77.7-10.5-101.6c9-2.5,15.6-10.8,15.6-20.6
				c0-8.5-4.9-15.8-12.1-19.3c4.3-24.2,13.6-51.8,34.3-57.1c44.3-11.3,32.9,100.3,41.4,131.5c19.8,72.9-6.3,127.4-20.9,150.9
				c-17.7,28.5-33.2,47.6-31.7,70.7c2.6,38,4.9,73.6,1.6,84c-5.1,16-21.3,25.4-37.5,22.4c-1.3-0.2-2.6-0.8-4-1
				C418.5,1053,412.2,967.8,436.5,907.8L436.5,907.8z"/>
			<g>
				<path class="st10" d="M484.6,1139.1l2.5-0.7c-1.3-4.4-4.3-25.9-6.9-44.8c-2.1-15-3.9-28-4.7-31.2
					c-20.8-87.7-1.2-134.7,25.9-199.8c1.8-4.3,3.6-8.6,5.4-13.1c9.2-22.2,19.4-61,16.4-120.1c-1.8-35.3-7.6-61.5-7.6-61.8l-2.6,0.6
					c0.1,0.3,5.8,26.3,7.6,61.3c3,58.6-7.2,97-16.2,118.9c-1.8,4.4-3.6,8.8-5.4,13c-27.3,65.5-47,112.8-26,201.4
					c0.7,3.1,2.6,16.7,4.6,31C480.3,1112.9,483.3,1134.5,484.6,1139.1L484.6,1139.1z"/>
				<polygon class="st10" points="470.4,944 472.5,942.5 441.1,897.1 439.8,900 				"/>
				<polygon class="st10" points="467.6,958.4 469.6,956.7 433.6,915.6 432.6,918.5 				"/>
				<polygon class="st10" points="522,778.6 560.9,759.1 560.5,756.3 520.9,776.2 				"/>
				<polygon class="st10" points="520.5,795 562,768.2 561.7,765.3 519,792.7 				"/>
			</g>
			<g>
				<path class="st11" d="M367.9,985.3c-1.4-1.9-7.3-5.9-12.1-9.1c-13.8-9.2-32.6-21.8-49.3-47.2c-6.6-10-9.6-21.6-12.8-33.9
					c-4.3-16.5,1.6-33.2-12.4-48.5c-12.3-13.5-22.1-36.4-8.6-48.7s34.4-11.3,46.6,2.2c24.9,27.3,30.7,92.2,73,121.2
					c57.8,39.6,59.8,101.4,60.5,106.1c0,0,6.8,47.9-33.3,50.7C378.8,1080.9,380,1002.4,367.9,985.3L367.9,985.3z"/>
				<path class="st12" d="M435.9,1145.9l2.6-0.1v-0.4c-0.3-14.8-1.3-59.9-2.7-71.3c-4.6-37.6-15-68.1-31.8-93.2
					c-14.2-21.3-30-34.2-42.6-44.7c-8.2-6.7-14.6-12-18.3-17.6c-7.2-10.9-11.4-25.4-15.9-40.8c-5.9-20.1-12-40.9-25.3-54.5l-1.9,1.8
					c12.9,13.2,18.8,33.6,24.6,53.4c4.5,15.5,8.9,30.2,16.2,41.5c3.9,5.9,10.5,11.3,18.8,18.2c25.1,20.7,63.1,51.9,73.5,136.2
					c0.9,7.5,1.8,31.4,2.6,71.1L435.9,1145.9L435.9,1145.9z"/>
				<polygon class="st12" points="330.8,895.7 331,893.1 292.7,889.8 293.1,892.5 				"/>
				<polygon class="st12" points="335,907.5 335.5,904.9 294.6,898.5 295.4,901.3 				"/>
				<polygon class="st12" points="401.2,978 418.5,944.3 416.6,942.2 398.9,976.8 				"/>
			</g>
			<g>
				<path class="st10" d="M506.7,1109.7c1.9-11.1,13.2-40.3,17.9-48.6c10.1-18,25.3-32.8,45.2-44c15.9-8.9,34.9-15.6,56.3-19.7
					c36.6-7,68.1-4.3,68.4-4.2l0.2-2.6c-0.3,0-32.1-2.8-69.1,4.3c-21.7,4.2-40.9,10.9-57.1,20c-20.3,11.4-35.8,26.5-46.2,45
					c-4.8,8.6-16.2,37.9-18.2,49.4L506.7,1109.7L506.7,1109.7z"/>
				<polygon class="st10" points="616.2,999 628,966.3 625.3,965.9 613.7,998.1 				"/>
				<polygon class="st10" points="604,1002.4 621.6,965.6 618.7,965.5 601.6,1001.3 				"/>
				<polygon class="st10" points="575.6,1045.3 544,1033.5 543.1,1035.9 573.6,1047.4 				"/>
			</g>
		</g>
		<path class="st4" d="M559.2,1147.1c0,20.8-9.9,39.7-26,53.3h-126c-16-13.7-26-32.5-26-53.3c0-16.3,6.1-31.3,16.4-43.7h145.3
			C553.2,1115.8,559.2,1130.9,559.2,1147.1z"/>
	</g>
	<g>
		<rect x="290" y="1281" class="st13" width="1409.6" height="525.8"/>
		<g>
			<rect x="270.7" y="1237.6" class="st14" width="1448.2" height="144.2"/>
			<rect x="270.7" y="1396.4" class="st14" width="1448.2" height="144.2"/>
			<rect x="270.7" y="1555.2" class="st14" width="1448.2" height="144.2"/>
			<rect x="270.7" y="1713.9" class="st14" width="1448.2" height="144.2"/>
		</g>
		<rect x="238" y="1200.4" class="st13" width="1513.6" height="37"/>
	</g>
</g>
<g>
	<g>
		<path class="st15" d="M750.5,1075.4L750.5,1075.4V1043h-15.9v32.4l0,0c0.8,0-11.4,11.4-11.4,17.2v97.4c0,5.9,4.8,10.6,10.6,10.6
			h17.5c5.9,0,10.6-4.8,10.6-10.6v-97.4C761.9,1086.8,750.5,1075.4,750.5,1075.4L750.5,1075.4z"/>
		<rect x="730.9" y="1035.2" class="st2" width="23.2" height="10.2"/>
	</g>
	<circle class="st4" cx="1361.2" cy="1158.9" r="34.8"/>
	<circle class="st16" cx="1404.8" cy="1166.9" r="31.1"/>
	<g>
		<rect x="1255.1" y="1081.7" class="st3" width="50.6" height="118.7"/>
		<rect x="1259.8" y="1092.8" class="st17" width="41.2" height="96.5"/>
		<polygon class="st18" points="1305.7,1081.7 1255.1,1081.7 1270.5,1057.1 1321.2,1057.1 		"/>
		<rect x="1305.7" y="1081.7" class="st19" width="32.4" height="118.7"/>
		<polygon class="st20" points="1321.2,1057.1 1338,1081.7 1305.7,1081.7 		"/>
		<polygon class="st21" points="1338,1081.7 1316.4,1064.6 1321.2,1057.1 		"/>
		<rect x="1270.5" y="1048.8" class="st3" width="50.6" height="8.2"/>
		<path class="st22" d="M1292.9,1062.2c-0.5-0.3-1-0.6-1.5-0.8l0,0l-2.3-0.9l0.1,0.4c-2.9-0.2-5.9,1.1-7.8,3.8c-2.5,3.6-2,8.3,1,11
			l-0.3,0.4l2.3,0.9l0,0c3.5,1.5,7.8,0.2,10.1-3.2C1297.3,1069.8,1296.5,1064.6,1292.9,1062.2L1292.9,1062.2z"/>
		<path class="st17" d="M1292.6,1072.9c-2.7,3.9-7.8,5-11.4,2.5s-4.4-7.7-1.7-11.6c2.7-3.9,7.8-5,11.4-2.5
			C1294.5,1063.9,1295.3,1069,1292.6,1072.9L1292.6,1072.9z"/>
	</g>
	<g>
		<path class="st23" d="M1514.4,1192.1c0,0-203.4,10.9-302.9,1.1c72.1-4.3,301.4-14.5,301.4-14.5L1514.4,1192.1L1514.4,1192.1z"/>
		<path class="st23" d="M1525.8,1189.9c0,0-174.5,14.4-283.1-6.6c87.1,3.7,192.4-14.7,255.4-4.3
			C1505.4,1180.2,1525.8,1189.9,1525.8,1189.9z"/>
		<path class="st11" d="M1516.7,1184.6c8.3,1.2-12.5,10.1-12.5,10.1s-52.6,7.9-249.2,5.7C1321.8,1189.7,1458.7,1175.9,1516.7,1184.6
			L1516.7,1184.6z"/>
		<polygon class="st19" points="1520.8,1191.4 1519.3,1178 1495.7,1177.8 		"/>
		<path class="st3" d="M1555.7,1161.7c8.2-1,19.9,5.1,21.2,16.4c1,9.1-8.4,19.8-17.4,21.7c-9.7,2-33.2-5.6-38.6-8.4l-18.7,3.8
			c-0.1-0.7,17.1-17.1,17.1-17.1C1528.1,1171.6,1545.8,1162.9,1555.7,1161.7L1555.7,1161.7z"/>
		<path class="st24" d="M1576.2,1184.2c0,0-4.2-4.7-0.9-11.7l8.7-3.2l-6.2,5.4l9.1-1.3l-7.4,4.6l7.9,2.2l-8.4,1.3l8.1,4.7
			L1576.2,1184.2L1576.2,1184.2z"/>
	</g>
	<g>
		<path class="st3" d="M685.1,1173.8c0,12.6-9,22.8-20,22.8s-20-10.2-20-22.8s9-32.8,20-32.8S685.1,1161.2,685.1,1173.8z"/>
		<path class="st3" d="M736,1173.8c0,12.6-9,22.8-20,22.8s-20-10.2-20-22.8s9-32.8,20-32.8S736,1161.2,736,1173.8z"/>
		<path class="st3" d="M786.8,1173.8c0,12.6-9,22.8-20,22.8s-20-10.2-20-22.8s9-32.8,20-32.8S786.8,1161.2,786.8,1173.8z"/>
		<path class="st25" d="M804.9,1172.9c0,2.2-1.8,4.1-4.1,4.1H632.3c-2.2,0-4.1-1.8-4.1-4.1l0,0c0-2.2,1.8-4.1,4.1-4.1h168.5
			C803,1168.8,804.9,1170.6,804.9,1172.9L804.9,1172.9z"/>
		<path class="st25" d="M795.9,1174.5c0,14.3-11.6,25.8-25.8,25.8h-107c-14.3,0-25.8-11.6-25.8-25.8H795.9L795.9,1174.5z"/>
		<polygon class="st26" points="795.9,1176.9 706.5,1176.9 794.5,1182.8 		"/>
	</g>
</g>
<g>
	<path class="st27" d="M1264.7,797.8c-11.8,10.2-67.3,50.9-75.9,41s39.7-59,51.4-69.3c11.8-10.2,26.9-12.2,33.6-4.4
		C1280.6,773,1276.5,787.6,1264.7,797.8L1264.7,797.8z"/>
	<path class="st3" d="M1454.7,774.2c0,57.4-48.1,103.9-107.4,103.9S1240,831.6,1240,774.2s48.1-103.9,107.4-103.9
		S1454.7,716.8,1454.7,774.2z"/>
	<g>
		<path class="st3" d="M1389.4,766.6c-0.6-0.1-1.1-0.2-1.7-0.4c-10.3-4.2-18.4-12.1-22.8-22.3s-4.5-21.6-0.3-31.9l16.2-40.2
			c4.2-10.3,12.1-18.4,22.3-22.8c10.2-4.4,21.6-4.5,31.9-0.3c3.4,1.4,5.1,5.3,3.7,8.7s-5.3,5.1-8.7,3.7c-7-2.8-14.7-2.7-21.7,0.2
			c-7,3-12.3,8.5-15.2,15.5l-16.2,40.2c-2.8,7-2.7,14.7,0.2,21.7c3,7,8.5,12.3,15.5,15.2c3.4,1.4,5.1,5.3,3.7,8.7
			C1395.2,765.4,1392.3,767,1389.4,766.6L1389.4,766.6z"/>
		<g>
			<path class="st28" d="M1412.8,759.4c-3.1,25.8-38.2,42.8-78.3,38c-40.2-4.8-70.2-29.7-67.1-55.4s38.2-42.8,78.3-38
				C1385.9,708.8,1415.9,733.6,1412.8,759.4z"/>
			<g>
				<path class="st29" d="M1292,744.1c-0.2,2-2.1,3.5-4.2,3.3s-3.5-2.1-3.3-4.2c0.2-2,2.1-3.5,4.2-3.3S1292.3,742.1,1292,744.1z"/>
				<path class="st29" d="M1315.8,748c-0.2,2-2.1,3.5-4.2,3.3s-3.5-2.1-3.3-4.2c0.2-2,2.1-3.5,4.2-3.3S1316,746,1315.8,748z"/>
				<path class="st29" d="M1309.9,738.9c-0.2,2-2.1,3.5-4.2,3.3c-2-0.2-3.5-2.1-3.3-4.2c0.2-2,2.1-3.5,4.2-3.3
					S1310.1,736.8,1309.9,738.9z"/>
				<path class="st29" d="M1300.6,737.3c-0.2,2-2.1,3.5-4.1,3.3c-2.1-0.2-3.5-2.1-3.3-4.2c0.2-2,2.1-3.5,4.2-3.3
					C1299.4,733.4,1300.8,735.2,1300.6,737.3L1300.6,737.3z"/>
			</g>
			<g>
				<path class="st29" d="M1364.3,752.8c-0.2,2-2.1,3.5-4.1,3.3c-2.1-0.2-3.5-2.1-3.3-4.2c0.2-2,2.1-3.5,4.2-3.3
					C1363.1,748.9,1364.6,750.7,1364.3,752.8z"/>
				<path class="st29" d="M1388.1,756.7c-0.2,2-2.1,3.5-4.2,3.2s-3.5-2.1-3.3-4.2c0.2-2,2.1-3.5,4.2-3.3S1388.3,754.7,1388.1,756.7
					L1388.1,756.7z"/>
				<path class="st29" d="M1382.2,747.6c-0.2,2-2.1,3.5-4.2,3.3s-3.5-2.1-3.2-4.2c0.2-2,2.1-3.5,4.1-3.3
					C1381,743.7,1382.4,745.5,1382.2,747.6z"/>
				<path class="st29" d="M1372.8,746c-0.2,2-2.1,3.5-4.2,3.3c-2-0.2-3.5-2.1-3.2-4.2c0.2-2,2.1-3.5,4.1-3.3
					C1371.6,742.1,1373.1,743.9,1372.8,746z"/>
			</g>
		</g>
	</g>
	<g>
		<path class="st22" d="M1451.5,856.6c4.1-0.4,7.7,2.6,8,6.7l0,0c0.4,4.1-2.6,7.7-6.7,8l-100.3,9.1c-4.1,0.4-7.7-2.6-8-6.7l0,0
			c-0.4-4.1,2.6-7.7,6.7-8L1451.5,856.6z"/>
		<path class="st22" d="M1313.1,862.5l21.2-1.9c2.4-0.2,4.5,1.5,4.7,4c0.2,2.4-1.6,4.5-3.9,4.7l-25.6,2.3c-0.3,1.7-0.3,3.5-0.2,5.2
			s0.6,3.5,1.1,5.1l25.6-2.3c2.4-0.2,4.5,1.5,4.7,4c0.2,2.4-1.6,4.5-3.9,4.7l-21.2,1.9c5.7,5.7,14.4,9,24,8.2
			c15.6-1.4,27.2-13.4,26-26.7s-14.8-23-30.4-21.6C1325.6,851.1,1317.6,855.9,1313.1,862.5L1313.1,862.5z"/>
	</g>
	<path class="st27" d="M1437.9,833.9c-8.7,13-51.3,67.1-62.2,59.8s22.4-67.5,31.1-80.5c8.6-13,22.6-18.9,31.2-13.2
		S1446.6,820.9,1437.9,833.9L1437.9,833.9z"/>
</g>
<g>
	<g>
		<path class="st30" d="M1493.2,1151.5c0,4.9-3.9,8.8-8.8,8.8s-8.8-3.9-8.8-8.8s3.9-8.8,8.8-8.8S1493.2,1146.6,1493.2,1151.5z"/>
		<polygon class="st30" points="1485.9,1153 1482.9,1150 1549.6,1074.3 1726.7,1074.3 1726.7,1078.6 1551.4,1078.6 		"/>
	</g>
	<rect x="1554.2" y="986.4" class="st31" width="172.5" height="77.6"/>
	<g>
		<rect x="1595.9" y="1001.1" class="st3" width="91.3" height="6.5"/>
		<rect x="1595.9" y="1014" class="st32" width="91.3" height="6.5"/>
		<rect x="1595.9" y="1026.9" class="st32" width="91.3" height="6.5"/>
		<rect x="1595.9" y="1039.8" class="st32" width="91.3" height="6.5"/>
	</g>
</g>
<g>
	<g>
		<path class="st30" d="M1352,1053.3c0,4.9-3.9,8.8-8.8,8.8s-8.8-3.9-8.8-8.8s3.9-8.8,8.8-8.8S1352,1048.4,1352,1053.3z"/>
		<polygon class="st30" points="1344.7,1054.8 1341.7,1051.8 1357.3,1002.1 1534.4,1002.1 1534.4,1006.4 1359.1,1006.4 		"/>
	</g>
	<rect x="1362" y="914.2" class="st31" width="172.5" height="77.6"/>
</g>
<g>
	<rect x="1447.8" y="936.8" class="st32" width="67.6" height="6.5"/>
	<rect x="1447.8" y="949.8" class="st32" width="67.6" height="6.5"/>
	<rect x="1447.8" y="962.7" class="st32" width="67.6" height="6.5"/>
	<path class="st32" d="M1406.2,929.8c-14.5,0-26.2,11.7-26.2,26.2s11.7,26.2,26.2,26.2s26.2-11.7,26.2-26.2h-26.2V929.8z"/>
	<path class="st3" d="M1435.6,953c0-14.5-11.7-26.2-26.2-26.2V953H1435.6z"/>
</g>
<g>
	<rect x="726.5" y="891.9" class="st31" width="172.5" height="77.6"/>
	<g>
		<path class="st30" d="M949.9,954.8c0,4.8-3.9,8.8-8.8,8.8s-8.8-3.9-8.8-8.8s3.9-8.8,8.8-8.8S949.9,949.9,949.9,954.8z"/>
		<polygon class="st30" points="939.6,956.3 904.8,883.5 726.7,883.5 726.7,879.2 906.5,879.2 942.6,953.2 		"/>
	</g>
	<g>
		<polygon class="st3" points="755.5,919.6 758.7,926.1 765.9,927.2 760.7,932.2 761.9,939.3 755.5,936 749.2,939.3 750.4,932.2 
			745.2,927.2 752.4,926.1 		"/>
		<polygon class="st3" points="783.9,919.6 787.1,926.1 794.2,927.2 789.1,932.2 790.3,939.3 783.9,936 777.5,939.3 778.7,932.2 
			773.5,927.2 780.7,926.1 		"/>
		<polygon class="st3" points="812.2,919.6 815.4,926.1 822.6,927.2 817.4,932.2 818.6,939.3 812.2,936 805.8,939.3 807.1,932.2 
			801.9,927.2 809,926.1 		"/>
		<polygon class="st3" points="840.6,919.6 843.8,926.1 850.9,927.2 845.7,932.2 847,939.3 840.6,936 834.2,939.3 835.4,932.2 
			830.2,927.2 837.4,926.1 		"/>
		<polygon class="st3" points="868.9,919.6 872.1,926.1 879.2,927.2 874.1,932.2 875.3,939.3 868.9,936 862.5,939.3 863.7,932.2 
			858.6,927.2 865.7,926.1 		"/>
	</g>
</g>
</svg>
