<?xml version="1.0" encoding="utf-8"?>
<!-- Generator: Adobe Illustrator 27.3.1, SVG Export Plug-In . SVG Version: 6.00 Build 0)  -->
<svg version="1.1" id="Layer_1" xmlns="http://www.w3.org/2000/svg" xmlns:xlink="http://www.w3.org/1999/xlink" x="0px" y="0px"
	 viewBox="0 0 2400 1700" style="enable-background:new 0 0 2400 1700;" xml:space="preserve">
<style type="text/css">
	.st0{opacity:0.3;fill:#293657;enable-background:new    ;}
	.st1{fill:#FBF84A;}
	.st2{fill:#9AD4EC;}
	.st3{fill:#EBECED;}
	.st4{fill:#D9DADB;}
	.st5{fill:#FFFFFF;}
	.st6{fill:#2A3756;}
	.st7{fill:#527BEF;}
	.st8{opacity:0.3;fill:#FFFFFF;enable-background:new    ;}
	.st9{opacity:0.6;}
	.st10{opacity:0.4;fill:#FFFFFF;enable-background:new    ;}
	.st11{opacity:0.6;fill:#FFFFFF;enable-background:new    ;}
</style>
<path class="st0" d="M1699.5,128.4c-185.6-106.5-451,9.7-742.7,212.7s-653,317.3-488.2,710.5S1175.4,1693.5,1475,1588
	S2295.7,470.6,1699.5,128.4L1699.5,128.4z"/>
<path class="st1" d="M779.8,649.9v252.9c0,98.5,79.9,178.4,178.4,178.4s178.4-79.9,178.4-178.4V649.9
	c-53,28.9-113.8,45.3-178.4,45.3S832.8,678.8,779.8,649.9L779.8,649.9z"/>
<path class="st2" d="M958.2,270.4c-98.5,0-178.4,79.9-178.4,178.4v201.1c53,28.9,113.8,45.3,178.4,45.3s125.4-16.4,178.4-45.3V448.8
	C1136.6,350.3,1056.7,270.4,958.2,270.4L958.2,270.4z"/>
<g>
	<path class="st3" d="M2079.6,1108.2c22.4,43.9,105.3,245.1,68.5,263.8c-36.8,18.8-151.1-166.2-173.6-210.2
		c-22.4-43.9-17.1-91.6,11.9-106.4C2015.4,1040.6,2057.2,1064.2,2079.6,1108.2L2079.6,1108.2z"/>
	<polygon class="st4" points="1329,1051 1441.7,1212.2 1418.1,1014.3 1337.8,954.8 	"/>
	<g>
		<path class="st5" d="M2081.8,1060.6c0,189.4-154.8,342.9-345.8,342.9s-345.8-153.5-345.8-342.9S1545,717.7,1736,717.7
			S2081.8,871.2,2081.8,1060.6L2081.8,1060.6z"/>
		<g>
			<path class="st5" d="M1763.7,994.2c-1.8-0.2-3.7-0.7-5.5-1.4c-33.2-13.7-59.3-39.9-73.4-73.7s-14.4-71.2-1.1-105.3l52.1-132.7
				c13.4-34.1,38.9-60.8,71.9-75.2s69.5-14.8,102.7-1.1c11,4.5,16.4,17.4,11.9,28.7c-4.4,11.3-17,16.8-28,12.2
				c-22.6-9.3-47.4-9-69.8,0.8s-39.7,27.9-48.8,51.1l-52.1,132.7c-9.1,23.2-8.8,48.5,0.7,71.5c9.6,22.9,27.2,40.7,49.8,50
				c11,4.5,16.4,17.4,11.9,28.7C1782.5,989.9,1773.1,995.3,1763.7,994.2L1763.7,994.2z"/>
			<g>
				<path class="st6" d="M1975,955.1c-0.7,85.7-107,153.7-237.3,151.9c-130.3-1.8-235.4-72.8-234.7-158.6
					c0.7-85.7,107-153.7,237.3-151.9C1870.6,798.4,1975.7,869.4,1975,955.1L1975,955.1z"/>
				<g>
					<path class="st7" d="M1593.5,947.1c-0.1,6.8-5.5,12.2-12.1,12.1c-6.6-0.1-12-5.7-11.9-12.5s5.5-12.2,12.1-12.1
						C1588.3,934.7,1593.6,940.3,1593.5,947.1z"/>
					<path class="st7" d="M1671,951.7c-0.1,6.8-5.5,12.2-12.1,12.1c-6.6-0.1-12-5.7-11.9-12.5s5.5-12.2,12.1-12.2
						C1665.8,939.3,1671.1,944.9,1671,951.7L1671,951.7z"/>
					<path class="st7" d="M1648.8,923.7c-0.1,6.8-5.5,12.2-12.1,12.1c-6.6-0.1-12-5.7-11.9-12.5s5.5-12.2,12.1-12.1
						C1643.6,911.3,1648.9,916.9,1648.8,923.7L1648.8,923.7z"/>
					<path class="st7" d="M1618.5,921.7c-0.1,6.8-5.5,12.2-12.1,12.1c-6.7-0.1-12-5.7-11.9-12.5s5.5-12.2,12.1-12.1
						C1613.2,909.3,1618.5,914.9,1618.5,921.7z"/>
				</g>
				<g>
					<path class="st7" d="M1828,950.4c-0.1,6.8-5.5,12.2-12.1,12.1c-6.6-0.1-12-5.7-11.9-12.5s5.5-12.2,12.1-12.1
						C1822.8,938,1828.1,943.6,1828,950.4L1828,950.4z"/>
					<path class="st7" d="M1905.5,955c-0.1,6.8-5.5,12.2-12.1,12.1s-12-5.7-11.9-12.5s5.5-12.2,12.1-12.1
						C1900.2,942.6,1905.6,948.2,1905.5,955z"/>
					<path class="st7" d="M1883.4,927c-0.1,6.8-5.5,12.2-12.1,12.1c-6.6-0.1-12-5.7-11.9-12.5s5.5-12.2,12.1-12.1
						C1878.1,914.6,1883.4,920.2,1883.4,927L1883.4,927z"/>
					<path class="st7" d="M1853,925c-0.1,6.8-5.5,12.2-12.1,12.1c-6.6-0.1-12-5.7-11.9-12.5s5.5-12.2,12.1-12.1
						C1847.7,912.6,1853,918.2,1853,925L1853,925z"/>
				</g>
			</g>
		</g>
	</g>
	<path class="st6" d="M1488.6,1220.9c4.3,8.1,0.5,18.6-8.6,23.5l0,0c-9.1,4.9-20,2.3-24.3-5.8c0,0-301-577.7-353.6-675.5
		c-2.5-4.7-0.3-10.9,5-13.7l0,0c5.3-2.8,11.7-1.3,14.2,3.4C1173.9,650.6,1488.6,1220.9,1488.6,1220.9L1488.6,1220.9z"/>
	<path class="st3" d="M1373.5,1001c13.2,44.2,3.9,86-20.7,93.4c-24.6,7.3-55.2-22.6-68.4-66.8s-3.9-86,20.7-93.4
		S1360.4,956.8,1373.5,1001L1373.5,1001z"/>
</g>
<path class="st8" d="M980.4,316c-13.5,0-26.5,2.2-38.5,6.4c46.6,16,73.6,52.8,73.6,104.9c0,21.7,17.6,39.3,39.3,39.3
	s39.3-17.6,39.3-39.3C1094.1,361.8,1045.9,316,980.4,316L980.4,316z"/>
<g class="st9">
	<g>
		<rect x="548.5" y="705.1" class="st5" width="167.6" height="11.7"/>
		<rect x="548.5" y="741.9" class="st5" width="167.6" height="11.7"/>
		<rect x="548.5" y="778.8" class="st5" width="167.6" height="11.7"/>
		<rect x="548.5" y="815.6" class="st5" width="105.3" height="11.7"/>
	</g>
</g>
<g class="st9">
	<rect x="291.8" y="559.7" class="st5" width="429.8" height="33.2"/>
	<rect x="291.8" y="617.6" class="st5" width="245" height="23.4"/>
</g>
<g class="st9">
	<g>
		<path class="st5" d="M401.5,822.1c-13.6,0-24.7-11.1-24.7-24.7s11.1-24.7,24.7-24.7s24.7,11.1,24.7,24.7S415.1,822.1,401.5,822.1z
			 M401.5,778.1c-10.7,0-19.4,8.7-19.4,19.4s8.7,19.4,19.4,19.4s19.4-8.7,19.4-19.4S412.2,778.1,401.5,778.1L401.5,778.1z"/>
		<path class="st5" d="M401.5,850.2c-28.9,0-52.5-23.7-52.5-52.8s23.5-52.8,52.5-52.8s52.5,23.7,52.5,52.8S430.5,850.2,401.5,850.2z
			 M401.5,750c-26,0-47.2,21.3-47.2,47.5s21.2,47.5,47.2,47.5s47.2-21.3,47.2-47.5S427.5,750,401.5,750z"/>
		<path class="st5" d="M401.5,874.4c-42.4,0-76.9-34.5-76.9-76.9s34.5-76.9,76.9-76.9s76.9,34.5,76.9,76.9S443.9,874.4,401.5,874.4
			L401.5,874.4z M401.5,725.8c-39.5,0-71.6,32.1-71.6,71.7s32.1,71.6,71.6,71.6s71.6-32.1,71.6-71.6S441,725.8,401.5,725.8z"/>
		<path class="st5" d="M401.5,904.2c-58.9,0-106.8-47.9-106.8-106.8s47.9-106.8,106.8-106.8s106.8,47.9,106.8,106.8
			S460.4,904.2,401.5,904.2z M401.5,696c-56,0-101.5,45.5-101.5,101.5S345.6,899,401.5,899S503,853.4,503,797.5S457.5,696,401.5,696
			z"/>
	</g>
	<g>
		<path class="st5" d="M401.5,828.3c-17,0-30.8-13.8-30.8-30.8h17.6c0,7.3,5.9,13.2,13.2,13.2L401.5,828.3L401.5,828.3z"/>
		<path class="st5" d="M454.7,822.3l-16-7.4c2.5-5.5,3.8-11.4,3.8-17.5c0-22.8-18.4-41.3-41-41.3c-6.9,0-13.6,1.7-19.6,5l-8.5-15.4
			c8.5-4.7,18.3-7.2,28.1-7.2c32.3,0,58.6,26.4,58.6,58.9C460.1,806.1,458.3,814.5,454.7,822.3L454.7,822.3z"/>
		<path class="st5" d="M343.9,766.3l-15.5-8.4c14.5-26.9,42.6-43.6,73.1-43.6c24,0,46.9,10.4,62.6,28.5l-13.2,11.6
			c-12.5-14.3-30.5-22.5-49.4-22.5C377.5,732,355.4,745.1,343.9,766.3L343.9,766.3z"/>
		<path class="st5" d="M401.5,910.4v-17.6c52.6,0,95.4-42.8,95.4-95.4S454.1,702,401.5,702v-17.6c62.3,0,112.9,50.7,112.9,112.9
			S463.8,910.4,401.5,910.4L401.5,910.4z"/>
	</g>
</g>
<g>
	<polygon class="st5" points="839.6,416.5 751.6,316.6 503.3,316.6 503.3,322.6 749.1,322.6 831.6,416.5 	"/>
	<rect x="503.3" y="193.3" class="st10" width="241.9" height="108.8"/>
	<g>
		<rect x="530.7" y="214" class="st5" width="85.9" height="9.1"/>
		<rect x="601.8" y="232.1" class="st11" width="56.9" height="9.1"/>
		<rect x="558.7" y="232.1" class="st11" width="38.8" height="9.1"/>
		<rect x="558.7" y="250.2" class="st11" width="128" height="9.1"/>
		<rect x="558.7" y="268.3" class="st11" width="67.8" height="9.1"/>
	</g>
</g>
<g>
	<g>
		<rect x="1242.7" y="382.3" class="st10" width="234.4" height="105.5"/>
		<polygon class="st5" points="1121.3,517.6 1234.9,370.9 1476.9,370.9 1476.9,365 1232.5,365 1114.3,517.6 		"/>
	</g>
	<g>
		<g>
			<path class="st5" d="M1314.8,435.1l28.7,10.5V457l-42-16.2v-11.4l42-16.2v11.4L1314.8,435.1z"/>
			<path class="st5" d="M1418.6,440.8l-42,16.2v-11.4l28.7-10.5l-28.7-10.6v-11.4l42,16.2V440.8z"/>
		</g>
		<polygon class="st5" points="1348.8,459.7 1358.6,459.7 1368.6,410.4 1358.9,410.4 		"/>
	</g>
</g>
</svg>
