<?xml version="1.0" encoding="utf-8"?>
<!-- Generator: Adobe Illustrator 27.3.1, SVG Export Plug-In . SVG Version: 6.00 Build 0)  -->
<svg version="1.1" id="Layer_1" xmlns="http://www.w3.org/2000/svg" xmlns:xlink="http://www.w3.org/1999/xlink" x="0px" y="0px"
	 viewBox="0 0 1200 1200" style="enable-background:new 0 0 1200 1200;" xml:space="preserve">
<style type="text/css">
	.st0{opacity:0.3;fill:#293657;enable-background:new    ;}
	.st1{fill:#3A454B;}
	.st2{fill:#EDE726;}
	.st3{fill:#D84C96;}
	.st4{fill:#F4AC89;}
	.st5{fill:#FFFFFF;}
	.st6{fill:#EE509C;}
	.st7{fill:#373737;}
	.st8{fill:#2B72B6;}
	.st9{fill:#8EC8EF;}
	.st10{fill:#9871DF;}
	.st11{fill:#EAEBEC;}
	.st12{fill:#293657;}
	.st13{fill:#527BEF;}
</style>
<ellipse class="st0" cx="615.3" cy="1016" rx="418.6" ry="38.2"/>
<g>
	<rect x="706.9" y="936.6" class="st1" width="17.1" height="73.5"/>
	<path class="st2" d="M740.9,992.8c0,14-11.4,25.4-25.4,25.4s-25.4-11.4-25.4-25.4s11.4-25.4,25.4-25.4S740.9,978.8,740.9,992.8z"/>
	<path d="M727.8,992.8c0,6.8-5.5,12.3-12.3,12.3s-12.3-5.5-12.3-12.3s5.5-12.3,12.3-12.3S727.8,986,727.8,992.8z"/>
	<rect x="911.7" y="936.6" class="st1" width="17.1" height="73.5"/>
	<path class="st2" d="M893.9,992.8c0,14,11.4,25.4,25.4,25.4s25.4-11.4,25.4-25.4s-11.4-25.4-25.4-25.4S893.9,978.8,893.9,992.8z"/>
	<path d="M907.4,992.8c0,6.8,5.5,12.3,12.3,12.3s12.3-5.5,12.3-12.3s-5.5-12.3-12.3-12.3S907.4,986,907.4,992.8z"/>
	<path class="st3" d="M1016.3,913.4c-2-5.2-7.8-7.7-12.9-5.7l-63,24.3H698.9l-63-24.3c-5.2-2-10.9,0.6-12.9,5.7
		c-2,5.2,0.6,10.9,5.7,12.9l66.5,25.7h249l66.5-25.7C1015.8,924.3,1018.3,918.5,1016.3,913.4L1016.3,913.4z"/>
</g>
<g>
	<g id="Blonde_girl">
		<path class="st2" d="M446.4,253c-5.6-31.5-28.4-63.3-79.4-67v-0.2c0,0-0.7,0-1.1-0.1c-1.8-0.1-3.4-0.1-5.1,0c-1.7,0-3.1,0-4.9,0
			c-0.5,0-0.9,0-0.9,0.1v0.2c-58,4-77.8,31.1-82.3,66.6c-5.1,40-5.4,194.2-5.1,211.5c5.2,26.8,17.4,30,34.1,46.6
			c16.5,16.4,37.3,26.2,60,26.2s42.5-9.3,58.8-25c15.6-15,27.5-35.9,33.6-60C454.4,430.2,454.1,296,446.4,253L446.4,253z"/>
		<g id="Head">
			<g>
				<path class="st4" d="M440.5,302.6c0.7,42.6-33.3,77.7-75.9,78.4l0,0c-42.6,0.7-77.7-33.3-78.4-75.9l-0.5-28.8
					c-0.7-42.6,33.3-77.7,75.9-78.4l0,0c42.6-0.7,77.7,33.3,78.4,75.9L440.5,302.6L440.5,302.6z"/>
				<path class="st4" d="M304.3,303.5c0.2,11.5-8.9,20.9-20.4,21.1c-11.4,0.2-20.9-9-21-20.4c-0.2-11.5,8.9-20.9,20.4-21.1
					C294.7,282.9,304.2,292.1,304.3,303.5L304.3,303.5z"/>
			</g>
			<g>
				<path d="M343.8,306.6c-1.5,4.9-6.5,7.6-11.1,6.2c-4.6-1.5-7.1-6.6-5.5-11.4c1.5-4.9,6.5-7.6,11.1-6.2
					C342.8,296.6,345.3,301.7,343.8,306.6z"/>
				<path d="M416,307.9c-1.5,4.9-6.5,7.6-11.1,6.2c-4.6-1.5-7.1-6.6-5.5-11.4c1.5-4.9,6.5-7.6,11.1-6.2S417.6,303,416,307.9z"/>
				<path class="st5" d="M344.3,335.1l56.7,0.2c0,0-8.9,17.4-23,19.3C358.6,357.2,345.1,339.5,344.3,335.1L344.3,335.1z"/>
			</g>
		</g>
		<path class="st2" d="M329.4,251.4c0,0-28.8,61.3-34,127.4l-12-1.9c0,0-4.1-83.4,3.8-125.5H329.4L329.4,251.4z"/>
		<g>
			<path class="st3" d="M208,241.6c0,6,3.9,10.8,8.8,10.8l73.1,0.2c4.9,0,8.9-4.8,8.9-10.8l0,0c0-6-3.9-10.8-8.8-10.8l-73.1-0.2
				C212,230.8,208,235.6,208,241.6L208,241.6L208,241.6z"/>
			<path class="st6" d="M446.4,252.9c0.1-42.5-34-76.9-76.5-77.1l-20.4-0.1c-42.5-0.1-76.7,34.3-76.8,76.7L446.4,252.9L446.4,252.9z
				"/>
			<path class="st4" d="M357.7,240.6l45.6-0.2l0,0c0.2-11.5-8.6-20.8-19.7-20.7h-5.3C367.2,219.8,358,229.1,357.7,240.6L357.7,240.6
				L357.7,240.6z"/>
		</g>
	</g>
	<g id="hipster">
		<g>
			<g>
				<rect x="399" y="951" class="st4" width="22" height="30"/>
				<rect x="389" y="1008" class="st5" width="82" height="11"/>
				<path class="st7" d="M424,977.4V966c-0.1,0-0.2,0-0.3,0c-6.2,0-11.2,4.9-11.6,11.1H399l-10,31h82v-6.8
					C459.2,993.1,429.3,979.7,424,977.4z"/>
			</g>
			<g>
				<rect x="318" y="951" class="st4" width="23" height="30"/>
				<rect x="305" y="1008" class="st5" width="48" height="11"/>
				<path class="st7" d="M341,977h-1.6c-0.3-6-3.5-10.7-9.4-11l0,0c-0.1,0-1,0-1,0l0,0c-5.6,0.4-9.1,5.1-9.4,11H318l-13,31h48
					L341,977z"/>
			</g>
			<g>
				<path class="st8" d="M297,653v45.6c2,8.3,9,17.2,15.2,22.1l1.1,230.3H346l-0.5-227.8l50.2,0.2l0.2,227.5H427V653H297z"/>
				<rect x="310" y="937" class="st9" width="40" height="15"/>
				<rect x="390" y="937" class="st9" width="40" height="15"/>
			</g>
		</g>
		<g id="Body">
			<path class="st4" d="M563.7,568.5c-28.7,4.7-62.9,7.7-73.5-2c-17-15.7-21.3-63.9-21.3-89.4h-30c0,0.8,0,19.6,3.7,41.9
				c5.2,31.7,13,56.4,27.3,69.6c11.3,10.4,30.9,13.5,55.6,13.5c7.5,0,15.6-0.5,24.4-1.4c1.2-0.1,2.3-0.3,3.4-0.4
				C551.6,597.4,558.1,570,563.7,568.5L563.7,568.5z"/>
			<path class="st4" d="M256.1,696.3l29.4-6.8c-10.2-44.1-19.6-107.8-6.8-160.3c7.5-30.8,19.4-43.2,19.5-43.4L298,486l-21-21.7
				c-1.7,1.7-17,17.2-26.8,54.1C237.8,565.7,239.8,625.6,256.1,696.3L256.1,696.3z"/>
			<path class="st5" d="M290,502.5L251.5,487c3.4-42.2,45.3-92,111.9-92s108.1,49.8,111.5,92L436,502.5V699H290V502.5L290,502.5z"/>
			<g id="Head-2">
				<path class="st4" d="M336.5,397.8c3.8-0.9,5.9-1.3,10.6-2l2.4-25.2l26.9-1l1,25.9c5.5,0.5,8.5,1.2,12.9,2.2c0.1,1.3,0,2.5,0,3.9
					c-0.7,16.5-13.2,29.3-28.1,28.6c-14.8-0.7-26.3-14.7-25.7-31.3C336.6,398.7,336.5,398.1,336.5,397.8L336.5,397.8z"/>
			</g>
		</g>
	</g>
	<g>
		<g>
			<path d="M611.2,629c-0.3,2-2.2,3.4-4.2,3.1l-92.7-14.6c-2-0.3-3.4-2.2-3.1-4.2l0,0c0.3-2,2.2-3.4,4.2-3.1l92.7,14.6
				C610.1,625.1,611.5,627,611.2,629L611.2,629L611.2,629z"/>
			<path class="st3" d="M521.4,623c-1,6.4-7,10.7-13.3,9.7l0,0c-6.4-1-10.7-7-9.7-13.3l2.2-13.9c1-6.4,7-10.7,13.3-9.7l0,0
				c6.4,1,10.7,7,9.7,13.3L521.4,623L521.4,623z"/>
			<path class="st3" d="M621.4,638.7c-1,6.4-7,10.7-13.3,9.7l0,0c-6.4-1-10.7-7-9.7-13.3l2.2-13.9c1-6.4,7-10.7,13.3-9.7l0,0
				c6.4,1,10.7,7,9.7,13.3L621.4,638.7L621.4,638.7z"/>
		</g>
		<g>
			<path d="M555.4,983.6c0.3-2-1.1-3.9-3.1-4.2l-92.7-14.6c-2-0.3-3.9,1.1-4.2,3.1l0,0c-0.3,2,1.1,3.9,3.1,4.2l92.7,14.6
				C553.2,987,555.1,985.6,555.4,983.6L555.4,983.6L555.4,983.6z"/>
			<path class="st3" d="M468.2,961.8c1-6.4-3.4-12.3-9.7-13.3l0,0c-6.4-1-12.3,3.3-13.3,9.7l-2.2,13.9c-1,6.4,3.4,12.3,9.7,13.3l0,0
				c6.4,1,12.3-3.3,13.3-9.7L468.2,961.8L468.2,961.8z"/>
			<path class="st3" d="M568.2,977.5c1-6.4-3.3-12.3-9.7-13.3l0,0c-6.4-1-12.3,3.3-13.3,9.7l-2.2,13.9c-1,6.4,3.3,12.3,9.7,13.3l0,0
				c6.4,1,12.3-3.3,13.3-9.7L568.2,977.5L568.2,977.5z"/>
		</g>
		<path class="st10" d="M609.1,671.3L584.8,651l8.7-54c0,0-10.5-12.2-25.5-14.6c-15.1-2.4-28.8,6-28.8,6l-8.5,54.1l-29.8,11.9
			l-42.6,271.4l24.8,20.4l-8.5,54.1c0,0,10.6,12.2,25.7,14.6c15.1,2.4,28.9-6,28.9-6l8-54.2l29.3-12L609.1,671.3L609.1,671.3z"/>
		<polygon class="st2" points="602.4,720.2 565.4,776.1 551.3,737.6 511.9,816.9 501.8,789 478.5,861.1 498,835.6 510.8,859.3 
			546.6,792.6 560.5,851.2 588.4,809.2 		"/>
		<g>
			<path d="M559.2,611.8c-0.3,1.7-1.8,2.8-3.5,2.5s-2.8-1.8-2.5-3.5s1.8-2.8,3.5-2.5S559.5,610.1,559.2,611.8z"/>
			<path d="M574.3,614.1c-0.3,1.7-1.8,2.8-3.5,2.5s-2.8-1.8-2.5-3.5s1.8-2.8,3.5-2.5S574.5,612.4,574.3,614.1z"/>
			<path d="M571.7,630.8c-0.3,1.7-1.8,2.8-3.5,2.5s-2.8-1.8-2.5-3.5s1.8-2.8,3.5-2.5S572,629.2,571.7,630.8z"/>
			<path d="M556.6,628.5c-0.3,1.7-1.8,2.8-3.5,2.5s-2.8-1.8-2.5-3.5s1.8-2.8,3.5-2.5C555.7,625.2,556.9,626.8,556.6,628.5z"/>
		</g>
		<g>
			<path d="M500.7,984.1c0.3-1.7-0.9-3.2-2.5-3.5s-3.2,0.9-3.5,2.5s0.9,3.2,2.5,3.5C498.9,986.9,500.4,985.8,500.7,984.1z"/>
			<path d="M515.8,986.5c0.3-1.7-0.9-3.2-2.5-3.5c-1.7-0.3-3.2,0.9-3.5,2.5c-0.3,1.7,0.9,3.2,2.5,3.5
				C513.9,989.3,515.5,988.2,515.8,986.5z"/>
			<path d="M518.4,969.8c0.3-1.7-0.9-3.2-2.5-3.5s-3.2,0.9-3.5,2.5c-0.3,1.7,0.9,3.2,2.5,3.5S518.2,971.5,518.4,969.8z"/>
			<path d="M503.3,967.4c0.3-1.7-0.9-3.2-2.5-3.5s-3.2,0.9-3.5,2.5c-0.3,1.7,0.9,3.2,2.5,3.5S503.1,969,503.3,967.4z"/>
		</g>
	</g>
	<path class="st4" d="M581.9,585.2c1.2-8.2-4.5-15.8-12.7-17c-1.1-0.2-2.2-0.2-3.3-0.1c-0.9,0.2-1.8,0.3-2.7,0.5
		c-5.6,1.5-10.1,6.2-11,12.3l-3.2,22.3l29.6,4.9C579,604.9,581.9,585.2,581.9,585.2L581.9,585.2z"/>
</g>
<g>
	<g>
		<path class="st11" d="M731,825.8c-9.8-7-26.4-0.6-37,14.2s-51.9,84-39.4,92.9s64.4-52.7,75-67.5
			C740.2,850.6,740.8,832.8,731,825.8z"/>
		<path class="st5" d="M947.1,808.4c0-67.1-56.2-121.5-125.6-121.5S696,741.2,696,808.4c0,67.1,56.2,121.5,125.6,121.5
			S947.1,875.5,947.1,808.4L947.1,808.4z"/>
		<path class="st12" d="M898.2,791c3.6-30.2-31.5-59.2-78.5-64.8s-88,14.2-91.6,44.4s31.5,59.2,78.5,64.8
			C853.5,841.1,894.5,821.2,898.2,791L898.2,791z"/>
		<path class="st11" d="M950.2,852.4c-8.3-16.3-23.8-25-34.5-19.5s-12.7,23.1-4.4,39.4S962,957,975.6,950
			C989.2,943.1,958.5,868.6,950.2,852.4L950.2,852.4L950.2,852.4z"/>
	</g>
	<g>
		<g>
			<path class="st13" d="M753.4,769.1c-2.4-0.3-4.5,1.4-4.8,3.8s1.4,4.5,3.8,4.8s4.5-1.4,4.8-3.8S755.8,769.3,753.4,769.1z"/>
			<path class="st13" d="M781,773.6c-2.4-0.3-4.5,1.4-4.8,3.8s1.4,4.5,3.8,4.8s4.5-1.4,4.8-3.8S783.4,773.9,781,773.6L781,773.6z"/>
			<path class="st13" d="M774.2,763c-2.4-0.3-4.5,1.4-4.8,3.8c-0.3,2.4,1.4,4.5,3.8,4.8s4.5-1.4,4.8-3.8
				C778.2,765.4,776.5,763.2,774.2,763z"/>
			<path class="st13" d="M767.1,765.9c0.3-2.4-1.4-4.5-3.8-4.8s-4.5,1.4-4.8,3.8s1.4,4.5,3.8,4.8S766.8,768.3,767.1,765.9
				L767.1,765.9L767.1,765.9z"/>
		</g>
		<g>
			<path class="st13" d="M841.3,783.9c0.3-2.4-1.4-4.5-3.8-4.8s-4.5,1.4-4.8,3.8s1.4,4.5,3.8,4.8S841,786.3,841.3,783.9L841.3,783.9
				L841.3,783.9z"/>
			<path class="st13" d="M868.9,788.4c0.3-2.4-1.4-4.5-3.8-4.8c-2.4-0.3-4.5,1.4-4.8,3.8s1.4,4.5,3.8,4.8S868.6,790.8,868.9,788.4
				L868.9,788.4L868.9,788.4z"/>
			<path class="st13" d="M858.2,773c-2.4-0.3-4.5,1.4-4.8,3.8c-0.3,2.4,1.4,4.5,3.8,4.8s4.5-1.4,4.8-3.8S860.6,773.2,858.2,773
				L858.2,773z"/>
			<path class="st13" d="M847.4,771.1c-2.4-0.3-4.5,1.4-4.8,3.8s1.4,4.5,3.8,4.8s4.5-1.4,4.8-3.8S849.8,771.4,847.4,771.1
				L847.4,771.1z"/>
		</g>
	</g>
</g>
</svg>
