<?xml version="1.0" encoding="utf-8"?>
<!-- Generator: Adobe Illustrator 27.3.1, SVG Export Plug-In . SVG Version: 6.00 Build 0)  -->
<svg version="1.1" id="Layer_1" xmlns="http://www.w3.org/2000/svg" xmlns:xlink="http://www.w3.org/1999/xlink" x="0px" y="0px"
	 viewBox="0 0 2400 1700" style="enable-background:new 0 0 2400 1700;" xml:space="preserve">
<style type="text/css">
	.st0{fill:#A7A1F1;}
	.st1{fill:#817FC6;}
	.st2{fill:#658182;}
	.st3{fill:#262E3A;}
	.st4{fill:#FCF5F5;}
	.st5{fill:#FFFFFF;}
	.st6{fill:#EFE6E6;}
	.st7{fill:#1F2835;}
	.st8{fill:#BA9E8C;}
	.st9{fill:#151C28;}
	.st10{fill:#527BEF;}
	.st11{fill:#DBD2D2;}
</style>
<g>
	<g>
		<g>
			<path class="st0" d="M1471.6,1296.8l-3.2-31.9l45.7,0.9c30.8-9.3,75.6-14.7,125.4-13.7c49.8,1,94.3,8.2,124.7,18.8l38,0.8
				l2.9,28.8c0.2,1,0.3,2,0.3,3.1c-0.5,26.6-75.7,46.5-167.9,44.7S1471.1,1323.3,1471.6,1296.8L1471.6,1296.8z"/>
			
				<ellipse transform="matrix(2.041890e-02 -0.9998 0.9998 2.041890e-02 333.8931 2877.2576)" class="st0" cx="1635.3" cy="1268.2" rx="48.1" ry="166.9"/>
			<path class="st1" d="M1699.3,1316.7c40-4,73-12.6,90.9-24.2l-3.1-4.7c-26.1,17-86.1,27.1-152.8,25.8
				c-61.9-1.3-117.9-12.2-146.1-28.5l-2.8,4.9c29,16.8,86,27.9,148.8,29.2C1657,1319.6,1679.1,1318.8,1699.3,1316.7L1699.3,1316.7z"
				/>
		</g>
		<g>
			<path class="st2" d="M1274.4,423.4h116.9c57.7,0,105.1,43.8,110.8,99.9c-48.2,7.2-106.5,11.5-169.3,11.5s-121.1-4.2-169.3-11.5
				C1169.4,467.2,1216.8,423.4,1274.4,423.4L1274.4,423.4z"/>
			<path class="st3" d="M1326.5,313.2h12.7v-36.7c0-3.5-2.8-6.4-6.4-6.4l0,0c-3.5,0-6.4,2.9-6.4,6.4V313.2z"/>
			<rect x="1695.7" y="468.9" class="st3" width="14.5" height="795.9"/>
			<polygon class="st3" points="1916.4,575.4 1922.4,563.4 1396.7,324.7 1355.9,324.7 1355.9,338.1 1393.5,338.1 			"/>
			<g>
				<path class="st2" d="M1367.8,354.7v8.5c0,27.6,16.7,51.3,40.5,61.5l-75.4,48.8l-75.4-48.8c23.8-10.3,40.5-34,40.5-61.5v-8.5
					H1367.8L1367.8,354.7z"/>
				<rect x="1298" y="295.8" class="st3" width="69.8" height="59"/>
			</g>
		</g>
		<path class="st3" d="M1960.4,588.2L1960.4,588.2c3.6-7.9,0.1-17.2-7.8-20.8l-131.8-59.8l-13,28.6l131.8,59.8
			C1947.5,599.7,1956.8,596.2,1960.4,588.2z"/>
	</g>
	<g>
		<g>
			<path class="st4" d="M1076.2,1190.3c0,0,47.3-58.2,156.4-49.1c73.7,6.2,168.7,45.7,249.2,63.7l100,107.7h-506.6L1076.2,1190.3
				L1076.2,1190.3z"/>
			<path class="st5" d="M1078.1,1190.3c0,0-47.3-58.2-156.4-49.1c-73.7,6.2-168.7,45.7-249.2,63.7l-100,107.7H1079L1078.1,1190.3
				L1078.1,1190.3z"/>
			<path class="st5" d="M1076.2,1294c0,0,71.4-61.2,198.3-72.4c126.8-11.2,307.4,21.8,307.4,21.8l-114-117.9
				c-285.6-83.7-391.7,64.8-391.7,64.8V1294z"/>
			<path class="st6" d="M1076.2,1294c0,0,47.3-58.2,156.4-49.1c109.1,9.1,216.4,69.6,349.2,67.7l45.5,72.4l-520.2-24.7l-30.9-20.8
				L1076.2,1294L1076.2,1294z"/>
			<path class="st6" d="M1078.1,1294c0,0-47.3-58.2-156.4-49.1c-109.1,9.1-216.5,69.6-349.2,67.7l-45.5,72.4l520.2-24.7l30.9-20.8
				L1078.1,1294L1078.1,1294z"/>
			<path class="st7" d="M1004,1362.5c0,0,32,22.4,70.3,22.4s74.2-23.6,74.2-23.6c-1.8-3.4-3.1-7.2-6-9.3
				c-21.3-15.6-113.5-15.6-131.4-0.5C1008.5,1354.8,1006.1,1358.5,1004,1362.5L1004,1362.5z"/>
			<path class="st8" d="M511.8,1385.9l495.8-33.8l3.9-0.3l2.7,2.9c12.5,13.5,36.6,21.9,63,22.1c26.4-0.2,50.5-8.6,63-22.1l2.7-2.9
				l499.7,34c4.5,0.3,7.9,4.2,7.6,8.7c-0.3,4.3-3.9,7.6-8.2,7.6c-0.2,0-0.4,0-0.6,0l-492.1-33.5c-15.8,14.9-41.6,23.9-70.3,24.4
				c-0.3,0-0.6,0.1-0.9,0.1c-0.4,0-0.8,0-1.2,0c-0.2,0-0.4,0-0.6,0c-0.2,0-0.3,0-0.4,0c-28.5-0.5-55-9.7-70.8-24.4l-492.1,33.5
				c-0.2,0-0.4,0-0.6,0c-4.3,0-7.9-3.3-8.1-7.6C503.9,1390.1,507.3,1386.2,511.8,1385.9L511.8,1385.9z"/>
		</g>
		<g>
			<path class="st7" d="M1277.1,1408.6c-27.6-46.4-33.9-113-34.1-115.8l36.6,4.8c0.1,0.6,4.9,53.4,28.3,92.7l-18.8,0.7
				L1277.1,1408.6z"/>
			<g>
				<path class="st5" d="M1282.3,1378.1l-13.4-12.9l2.5-18.4l13.4,12.9L1282.3,1378.1L1282.3,1378.1z M1270.4,1364.7l10.8,10.4
					l2-14.8l-10.8-10.4L1270.4,1364.7z"/>
				<path class="st5" d="M1267.5,1339.1c-3-12.8-5.5-25.9-7.4-38.9l1.5-0.2c1.9,13,4.4,26,7.4,38.8L1267.5,1339.1L1267.5,1339.1z"/>
			</g>
		</g>
	</g>
	<g>
		<path class="st5" d="M813.9,801.9c-16.6,110.5,60.2,213.6,171.6,230.4c111.4,16.8,215.2-59.2,231.8-169.7
			c16.6-110.5-60.2-213.6-171.6-230.4C934.3,615.5,830.5,691.4,813.9,801.9L813.9,801.9z"/>
		<g>
			<path class="st5" d="M938.8,805.9c1.1,0,2.2-0.1,3.3-0.4c20.6-5.1,38.1-18,49.3-36.5c11.2-18.5,14.7-40.3,9.9-61.3l-18.7-82
				c-4.8-21.1-17.3-38.9-35.3-50.2c-18-11.3-39.2-14.7-59.8-9.7c-6.8,1.7-11.1,8.7-9.5,15.7c1.6,7,8.4,11.3,15.3,9.6
				c14-3.5,28.4-1.1,40.6,6.6s20.7,19.8,24,34.1l18.7,82c3.3,14.3,0.9,29.1-6.7,41.7c-7.6,12.5-19.5,21.3-33.5,24.8
				c-6.8,1.7-11.1,8.7-9.5,15.7C928.2,801.7,933.2,805.7,938.8,805.9L938.8,805.9z"/>
			<g>
				<path class="st9" d="M918.6,775.5c-1.7,50.5,59.3,93.2,136.2,95.3c76.9,2.1,140.5-37.2,142.2-87.8s-59.3-93.2-136.2-95.3
					C983.9,685.6,920.3,724.9,918.6,775.5L918.6,775.5z"/>
				<g>
					<path class="st10" d="M986.7,788.3c-0.1-4-3.3-7.2-7.2-7.1c-3.9,0.1-7,3.4-7,7.4s3.3,7.2,7.2,7.1
						C983.7,795.7,986.8,792.3,986.7,788.3L986.7,788.3z"/>
					<path class="st10" d="M1032.4,785.3c-0.1-4-3.3-7.2-7.2-7.1c-3.9,0.1-7,3.4-7,7.4c0.1,4,3.3,7.2,7.2,7.1
						C1029.4,792.6,1032.5,789.3,1032.4,785.3L1032.4,785.3z"/>
					<path class="st10" d="M1019.5,801.8c-0.1-4-3.3-7.2-7.2-7.1c-3.9,0.1-7,3.4-7,7.4s3.3,7.2,7.2,7.1
						C1016.4,809.2,1019.5,805.9,1019.5,801.8z"/>
					<path class="st10" d="M1001.5,803.2c-0.1-4-3.3-7.2-7.2-7.1c-3.9,0.1-7,3.4-7,7.4s3.3,7.2,7.2,7.1
						C998.5,810.5,1001.6,807.2,1001.5,803.2z"/>
				</g>
				<g>
					<path class="st10" d="M1125,785.2c-0.1-4-3.3-7.2-7.2-7.1c-3.9,0.1-7,3.4-7,7.4c0.1,4,3.3,7.2,7.2,7.1
						C1122,792.5,1125.1,789.2,1125,785.2L1125,785.2z"/>
					<path class="st10" d="M1170.7,782.1c-0.1-4-3.3-7.2-7.2-7.1c-3.9,0.1-7,3.4-7,7.4c0.1,4,3.3,7.2,7.2,7.1
						C1167.7,789.5,1170.8,786.1,1170.7,782.1L1170.7,782.1z"/>
					<path class="st10" d="M1157.8,798.7c-0.1-4-3.3-7.2-7.2-7.1c-3.9,0.1-7,3.4-7,7.4c0.1,4,3.3,7.2,7.2,7.1
						C1154.7,806,1157.9,802.7,1157.8,798.7z"/>
					<path class="st10" d="M1139.9,800.1c-0.1-4-3.3-7.2-7.2-7.1c-3.9,0.1-7,3.4-7,7.4c0.1,4,3.3,7.2,7.2,7.1
						C1136.8,807.4,1139.9,804.1,1139.9,800.1z"/>
				</g>
			</g>
		</g>
		<path class="st11" d="M843.9,941.1c8.2-5.3,15.7-13.3,22-23.8c11.8-19.5,18.3-45.5,18.3-73s-6.6-53.4-18.5-72.9
			c-9.1-15-20.6-24.8-33.1-28.9l-2.6,5.1c11.6,3.4,22.3,12.6,30.9,26.7c11.4,18.6,17.7,43.5,17.7,70c0,26.5-6.2,51.4-17.5,70
			c-5.9,9.7-12.8,17.1-20.2,21.9L843.9,941.1L843.9,941.1z"/>
		<path class="st11" d="M959.7,637.5c0,0,5.6-2.3,19.7-3.4l-0.4-5.6c-15.2,1.1-21.3,3.7-21.5,3.8L959.7,637.5L959.7,637.5z"/>
	</g>
</g>
</svg>
