<?xml version="1.0" encoding="utf-8"?>
<!-- Generator: Adobe Illustrator 27.3.1, SVG Export Plug-In . SVG Version: 6.00 Build 0)  -->
<svg version="1.1" id="Layer_1" xmlns="http://www.w3.org/2000/svg" xmlns:xlink="http://www.w3.org/1999/xlink" x="0px" y="0px"
	 viewBox="0 0 2000 2000" style="enable-background:new 0 0 2000 2000;" xml:space="preserve">
<style type="text/css">
	.st0{opacity:0.3;fill:#293657;enable-background:new    ;}
	.st1{fill:#FFFFFF;}
	.st2{fill:#FBF84A;}
	.st3{fill:#2A3756;}
	.st4{fill:#527BEF;}
	.st5{fill:#EBECED;}
	.st6{opacity:0.3;fill:#FFFFFF;enable-background:new    ;}
	.st7{opacity:0.2;fill:#FFFFFF;enable-background:new    ;}
	.st8{fill:#293657;}
	.st9{fill:#E3847C;}
	.st10{fill:#ECE74A;}
	.st11{fill:#B2B6C2;}
	.st12{fill:#EAEBEC;}
</style>
<g>
	<path class="st0" d="M1847.4,1747.2c0,27.5-543.1,49.8-1013.8,49.8s-690.8-22.3-690.8-49.8s220.1-49.8,690.8-49.8
		S1847.4,1719.7,1847.4,1747.2z"/>
	<g>
		<g>
			<polygon class="st1" points="1686.6,1747.2 1719.1,1747.2 1629.4,1345.1 1597,1345.1 			"/>
			<rect x="1205.2" y="1345.1" class="st1" width="32.4" height="402.1"/>
			<g id="chair">
				<path class="st2" d="M1580.6,1336.7l117.2-414.9c14.7-45.5,22.1-79.1,63.8-94.4l-127.8,537.7L1580.6,1336.7L1580.6,1336.7z"/>
				<rect x="1204.3" y="1308.3" class="st2" width="429.4" height="56.8"/>
			</g>
		</g>
		<g>
			<g>
				<path class="st1" d="M1536.6,807.1c-0.8-0.1-1.7-0.3-2.4-0.6c-14.9-6-26.6-17.4-32.9-32.2s-6.5-31.1-0.5-46l23.3-58
					c6-14.9,17.4-26.6,32.2-32.9c14.8-6.3,31.1-6.5,46-0.5c4.9,2,7.3,7.6,5.3,12.5s-7.6,7.3-12.6,5.3c-10.1-4.1-21.2-4-31.3,0.3
					c-10,4.3-17.8,12.2-21.9,22.3l-23.3,58c-4.1,10.1-3.9,21.2,0.3,31.3c4.3,10,12.2,17.8,22.3,21.9c4.9,2,7.3,7.6,5.3,12.5
					C1545,805.2,1540.8,807.6,1536.6,807.1L1536.6,807.1z"/>
				<g>
					<g>
						<path class="st1" d="M1479,677c-42,0-79.9,16.8-107,43.9c46.4,12.3,78.5,43.5,74.7,75.8c-4.5,37.2-55.1,61.7-113,54.8
							c-0.1,0-0.1,0-0.2,0c14.4,65,74.1,113.7,145.6,113.7c82.2,0,148.9-64.5,148.9-144S1561.2,677,1479,677L1479,677z"/>
						<path class="st3" d="M1446.7,796.6c3.9-32.3-28.2-63.5-74.7-75.8c-25.9,25.9-41.9,61.2-41.9,100.2c0,10.4,1.2,20.6,3.3,30.3
							c0.1,0,0.1,0,0.2,0C1391.6,858.3,1442.2,833.8,1446.7,796.6L1446.7,796.6z"/>
					</g>
					<g>
						<path class="st4" d="M1365.4,784.8c-0.3,3-3,5.1-6,4.7c-2.9-0.4-5.1-3-4.7-6c0.3-3,3-5.1,6-4.7
							C1363.7,779.2,1365.8,781.9,1365.4,784.8L1365.4,784.8z"/>
						<path class="st4" d="M1399.7,790.5c-0.3,3-3,5.1-6,4.7c-2.9-0.3-5.1-3-4.7-6s3-5.1,6-4.7S1400.1,787.5,1399.7,790.5
							L1399.7,790.5z"/>
						<path class="st4" d="M1391.2,777.3c-0.3,3-3,5.1-6,4.7c-2.9-0.3-5.1-3-4.7-6c0.3-3,3-5.1,6-4.7S1391.6,774.3,1391.2,777.3z"/>
						<path class="st4" d="M1377.8,775c-0.4,3-3,5.1-6,4.7c-2.9-0.3-5.1-3-4.7-6s3-5,6-4.7C1376,769.3,1378.1,772,1377.8,775
							L1377.8,775z"/>
					</g>
				</g>
			</g>
			<path class="st5" d="M1486.8,903.9c-14.4,17.4-83.7,88.5-98.3,76.4s42.4-93.4,56.7-110.8c14.4-17.4,35.3-23.7,46.8-14.2
				C1503.6,864.8,1501.2,886.5,1486.8,903.9L1486.8,903.9z"/>
		</g>
	</g>
</g>
<g>
	<g>
		<g>
			<rect x="921.4" y="964.3" class="st1" width="64.6" height="31.1"/>
			<path class="st1" d="M953.7,986.2c45.3,0,82.5-37.3,86-84.7h-172C871.2,948.9,908.4,986.2,953.7,986.2L953.7,986.2z"/>
		</g>
		<g id="water">
			<polygon class="st6" points="1138.5,994.5 1070.4,994.5 1065.5,825.9 1143.4,825.9 			"/>
			<polygon class="st7" points="1132.9,984.6 1076,984.6 1071.9,863 1137.1,863 			"/>
			<polygon class="st6" points="1123.1,959.5 1109.8,959.5 1110.6,838.3 1125.8,838.3 			"/>
		</g>
		<g>
			<polygon class="st1" points="312.2,1747.2 279.8,1747.2 369.4,1345.1 401.9,1345.1 			"/>
			<rect x="761.2" y="1345.1" class="st1" width="32.4" height="402.1"/>
			<g id="chair-2">
				<path class="st8" d="M418.2,1336.7L301.1,921.8c-14.6-45.5-22.1-79.1-63.8-94.4l127.8,537.7L418.2,1336.7L418.2,1336.7z"/>
				<rect x="365.1" y="1308.3" class="st8" width="429.4" height="56.8"/>
			</g>
		</g>
	</g>
	<g>
		<g>
			<g>
				<polygon class="st8" points="717,610.6 717.5,604.4 921.8,621.8 921,630.7 				"/>
				<path class="st2" d="M750.1,660.1c0.9-23.9-0.1-51.2-3.3-59.9c0,10.3-6,22.3-12.2,26.4c-4.2,2.8-8.6,2.1-11.4-1.9
					c-4.7-6.7,10.9-24.9,15.3-29c0.2-0.2,0.4-0.4,0.7-0.6c-0.2-0.5-0.4-0.9-0.7-1.3c-0.5-0.8-1-1.4-1.7-1.8
					c-2.8,6.5-8.1,16.6-14,17.4c-1.3,0.2-4,0.1-6.1-2.8c-2.2-2.8-2.4-6.5-0.7-10.3c2.8-6.2,10.2-11.5,16.9-12
					c4.7-0.3,8.8,1.7,11.3,5.8c0.3,0.5,0.5,0.9,0.8,1.4c1.6-0.4,3.2-0.3,4.7,0.9c8.9,7.3,7.8,53.8,7.2,67.9L750.1,660.1L750.1,660.1
					z M729,621.2c0.3,0.4,0.7,0.5,1.8-0.2c3.6-2.4,7.5-9.7,8.7-16.5C734.6,610.2,729.3,618.2,729,621.2z M722.2,599.2
					c-0.7,1.5-0.7,2.6-0.1,3.3l0,0c1.6-0.8,4.4-5,6.9-10.1C726.2,594,723.4,596.5,722.2,599.2L722.2,599.2z"/>
				<polygon class="st8" points="717,606.9 716.6,600.7 921.2,586.8 921.7,595.7 				"/>
				<path class="st9" d="M798.6,680.4l9.3-17.3c0,0-3.1-9.3-2.1-16.4c1-7.1,4.7-25.5,4.7-25.5l-9.3-2.8c0,0-5.1,9.9-10.8,8.2
					c-4.1-1.2,1.4-13.9,1.4-13.9s-7,3.3-9.3,0c-2.8-4,13.6-15.3,13.6-15.3l7.7-3.7c0,0-2.3-2-2.5-4.8c-0.3-2.8,17.8-8.8,17.8-8.8
					s17.3,1.4,18.7,2.3c1.4,0.8,18.4,25.5,18.4,28.3s-16.4,49.8-17.3,52.7c-0.8,2.8-12.4,37.6-12.4,37.6L798.6,680.4L798.6,680.4z"
					/>
			</g>
			<path class="st10" d="M830.5,704.1l-36.1-26.9L663.8,842.8l-0.3,77.2c0,0,16.6,18.3,23.8,16.9
				C754.2,923.3,830.5,704.1,830.5,704.1L830.5,704.1z"/>
		</g>
		<g>
			<g>
				<path class="st11" d="M659.4,445.7c0,72.8-59,131.8-131.8,131.8s-131.8-59-131.8-131.8s59-131.8,131.8-131.8
					S659.4,372.9,659.4,445.7z"/>
				<g id="_04_Standing">
					<path id="head" class="st9" d="M591.8,436.4c-0.1-19.5,17.2-26.1,35.8-13.5c12.9,8.8,23,23.6,27,46.7
						c6.7,39.5,14.8,108-10.2,116.7c-11,3.9-53.3,0-53.3,0l12,63.5l-80.5-16.5l12.7-67.3C535.3,566,481,464.4,591.8,436.4
						L591.8,436.4z"/>
				</g>
			</g>
			<g>
				<path class="st8" d="M640,535.3c-18.9-3.8-28.9,19.5-39,16.3c-5.9-1.8-10.9-23.1-12.6-44.4c-0.1-0.8-0.1-1.6-0.2-2.4l-14,17.1
					v0.1c-1,17.9-5,38.6-1.7,50.2c5.7,19.5,74.3,22.2,80,22.2s6.3-17.5,8.2-32.7C662.7,545.8,658.9,539,640,535.3L640,535.3z"/>
				<path class="st11" d="M535.3,566c0,0,65.1-122.3,87-146.2C634,407,641.5,401,641.5,401c-14.8-56-126.1-0.1-145.1,43.8
					C476.1,491.5,526.8,567.3,535.3,566z"/>
			</g>
		</g>
		<g id="_03_Sitting">
			<g id="leg">
				<path class="st12" d="M808.2,1280.5c15.2,28.3,9.3,65.8,67.2,161c28.9,47.6,60.9,120.4,87.4,157.7l80.3-29.9
					c-33.8-89.7-124.2-335.1-138.3-371.4c-20.1-51.5-275.3-14.3-275.3-14.3s-92.1-59.8-155.5-17.4
					C456.2,1177.9,793,1252.3,808.2,1280.5L808.2,1280.5z"/>
				<polygon class="st9" points="999,1634.8 1054.2,1654.6 1046.3,1601.2 1034.1,1572.6 978.6,1593.3 				"/>
			</g>
			<g id="leg-2">
				<path class="st1" d="M428.3,1236.6c7.2,119.7,310.9,47.8,321.3,78.1c10.4,30.3-5.6,41.6,12.2,135.7
					c10.4,54.7,46.3,156.5,66.5,197.6l84-16.7c-18.9-93.9-50.8-350.2-58.9-388.3c-11.6-54.1-260.5-69.3-260.5-69.3
					s-79.8-75-149.1-43.4C424.3,1139.1,427.2,1218.5,428.3,1236.6L428.3,1236.6z"/>
				<polygon class="st9" points="850.9,1688.3 905.2,1676.2 900,1633.7 841.9,1645.2 				"/>
			</g>
			<path class="st2" d="M547.3,616c-34.4,2.1-66.1,38-88.2,102.9c-31.6,89.4-77.9,203.8-56.8,513.2l287.9-56.6
				c-28.9-151.5-24-500.5-85.4-548C582.6,618.3,576.5,614.2,547.3,616L547.3,616z"/>
			<path class="st1" d="M996.8,1630.6c-3,2.1,8.7,65,15.2,66.2s159.8-49.6,165.6-61.3c3.1-6.2-8.9-24.6-12.4-24.3
				c-64.6,4.1-118.1-11.9-118.1-11.9s-13.2,10.7-8.6,18.1l3,2.8c0,0-6.4,12.2-15.9,14.5S1004.5,1625.2,996.8,1630.6L996.8,1630.6z"
				/>
			<path class="st1" d="M847.5,1668.6c-3.6,1-13.4,64.2-7.6,67.5c5.8,3.3,167.2,6.2,176.6-3c4.9-4.8-0.3-26.1-3.7-27.1
				c-62.3-17.5-107.5-50.4-107.5-50.4s-16,5.7-14.1,14.2l1.9,3.6c0,0-10.1,9.4-19.8,8.4C863.6,1680.9,856.6,1666.2,847.5,1668.6
				L847.5,1668.6z"/>
		</g>
		<g id="table">
			<path class="st9" d="M870.5,952.5c0,0,29.3-3.1,31.7-3s62.9-12.5,66.3-12.5s36.9,6.1,39.4,7.7c2.5,1.7,29.1,30,29.1,30
				s0.5,6.8-6.4,5.4c-6.9-1.3-4.3,2.4-7.1,3.1c-2.8,0.7-29.2-13.2-29.2-13.2l-18.8-2.9l-4.7,4.3l36.9,17.6c0,0,1.9,4.3-2.5,5.4
				c-4.4,1.1-42.6-12-42.6-12s-27.5,3.5-33.7,3.9c-6.3,0.4-23.2-3.4-23.2-3.4L873.4,994L870.5,952.5L870.5,952.5z"/>
			<g id="hand">
				<path class="st2" d="M641.5,731l57.7,197.4l215,18.2l-3.9,49.7c0,0-124.8,22.8-234.3,22.6c-68.5-0.1-129.7-18.8-154.5-28.2
					C507.7,981.7,625.9,706.2,641.5,731L641.5,731z"/>
			</g>
			<rect x="618.8" y="995.6" class="st8" width="711.1" height="30.1"/>
			<g>
				<polygon class="st8" points="1313.8,1749.9 1289.8,1749.9 1177.8,1010.7 1224.1,1010.7 				"/>
				<polygon class="st8" points="634.9,1749.9 658.9,1749.9 770.9,1010.7 724.5,1010.7 				"/>
			</g>
		</g>
	</g>
</g>
</svg>
