<?xml version="1.0" encoding="utf-8"?>
<!-- Generator: Adobe Illustrator 27.3.1, SVG Export Plug-In . SVG Version: 6.00 Build 0)  -->
<svg version="1.1" id="Layer_1" xmlns="http://www.w3.org/2000/svg" xmlns:xlink="http://www.w3.org/1999/xlink" x="0px" y="0px"
	 viewBox="0 0 2000 2000" style="enable-background:new 0 0 2000 2000;" xml:space="preserve">
<style type="text/css">
	.st0{fill:#EBECED;}
	.st1{fill:#FFFFFF;}
	.st2{fill:#2A3756;}
	.st3{fill:#527BEF;}
	.st4{opacity:0.8;fill:#4E5EAF;enable-background:new    ;}
	.st5{fill:#4E5EAF;}
	.st6{fill:#E3E4E5;}
	.st7{opacity:0.4;fill:#FFFFFF;enable-background:new    ;}
	.st8{opacity:0.8;}
	.st9{opacity:0.29;fill:#2A3756;enable-background:new    ;}
	.st10{fill:#4A990D;}
	.st11{fill:#5EB214;}
	.st12{fill:#43840B;}
</style>
<g>
	<path class="st0" d="M927.2,841.4c-25.7,15.3-143.9,73.2-156.7,51.7C757.7,871.6,865,795.3,890.7,780s54.7-13.9,64.8,3
		C965.5,800,952.8,826.1,927.2,841.4L927.2,841.4z"/>
	<ellipse class="st1" cx="1070.3" cy="762.5" rx="205.3" ry="198.7"/>
	<g>
		<path class="st1" d="M1150.7,748.1c-1.1-0.1-2.2-0.4-3.2-0.8c-19.8-7.9-35.2-23.1-43.6-42.7c-8.3-19.6-8.6-41.2-0.6-61l30.9-76.9
			c7.9-19.8,23.1-35.2,42.7-43.6c19.6-8.3,41.2-8.6,61-0.6c6.6,2.6,9.7,10.1,7.1,16.6s-10.1,9.7-16.6,7.1
			c-13.4-5.4-28.1-5.2-41.4,0.4s-23.6,16.2-29,29.6l-30.9,76.9c-5.4,13.4-5.2,28.1,0.4,41.4c5.7,13.3,16.2,23.6,29.6,29
			c6.6,2.6,9.7,10.1,7.1,16.6C1161.9,745.6,1156.3,748.7,1150.7,748.1L1150.7,748.1z"/>
		<g>
			<path class="st2" d="M1195.6,734.2c-5.9,49.3-73,81.8-149.8,72.6s-134.3-56.7-128.4-106c5.9-49.3,73-81.8,149.8-72.6
				S1201.5,684.9,1195.6,734.2L1195.6,734.2z"/>
			<g>
				<path class="st3" d="M964.5,705c-0.5,3.9-4,6.7-7.9,6.2s-6.7-4-6.2-7.9s4-6.7,7.9-6.2C962.2,697.5,965,701.1,964.5,705z"/>
				<path class="st3" d="M1010,712.5c-0.5,3.9-4,6.7-7.9,6.2s-6.7-4-6.2-7.9s4-6.7,7.9-6.2C1007.7,705,1010.5,708.6,1010,712.5
					L1010,712.5z"/>
				<path class="st3" d="M998.7,695c-0.5,3.9-4,6.7-7.9,6.2s-6.7-4-6.2-7.9s4-6.7,7.9-6.2C996.4,687.5,999.2,691.1,998.7,695z"/>
				<path class="st3" d="M980.9,691.9c-0.5,3.9-4,6.7-7.9,6.2s-6.7-4-6.2-7.9s4-6.7,7.9-6.2C978.6,684.4,981.4,688,980.9,691.9
					L980.9,691.9z"/>
			</g>
			<g>
				<path class="st3" d="M1102.8,721.6c-0.5,3.9-4,6.7-7.9,6.2s-6.7-4-6.2-7.9s4-6.7,7.9-6.2
					C1100.5,714.1,1103.2,717.7,1102.8,721.6z"/>
				<path class="st3" d="M1148.2,729.1c-0.5,3.9-4,6.7-7.9,6.2s-6.7-4-6.2-7.9s4-6.7,7.9-6.2
					C1145.9,721.6,1148.7,725.2,1148.2,729.1L1148.2,729.1z"/>
				<path class="st3" d="M1136.9,711.6c-0.5,3.9-4,6.7-7.9,6.2s-6.7-4-6.2-7.9s4-6.7,7.9-6.2
					C1134.6,704.1,1137.4,707.7,1136.9,711.6L1136.9,711.6z"/>
				<path class="st3" d="M1119.1,708.5c-0.5,3.9-4,6.7-7.9,6.2s-6.7-4-6.2-7.9s4-6.7,7.9-6.2S1119.6,704.6,1119.1,708.5
					L1119.1,708.5z"/>
			</g>
		</g>
	</g>
	<g>
		<path class="st4" d="M1252,1026.6c6.1,7.8,4.7,19.1-3.1,25.2l-81.8,63.9c-7.8,6.1-19.1,4.7-25.2-3.1c0,0-63-133.8-86.1-176.3
			c-4.6-8.5-1.3-14.4,1.9-17l27-21.1c3.3-2.5,9.8-4.3,16.9,2.2C1135.8,931.8,1252,1026.6,1252,1026.6L1252,1026.6z"/>
		
			<rect x="988.2" y="894.5" transform="matrix(0.7879 -0.6158 0.6158 0.7879 -342.8885 804.8232)" class="st5" width="17.4" height="11.4"/>
		<path class="st5" d="M1023.9,921.9l-0.8,2.8c-1.5,2.7,0,2.4,3.4-0.5c0,0,4-3.6,6-10.5c4.2-14.6-4.2-29.8-18.8-34l-9.5,6.6
			C1019.5,890.7,1028.3,906.6,1023.9,921.9L1023.9,921.9z"/>
		<path class="st6" d="M1064.5,843.5c-3.7-4.7-10.5-5.5-15.1-1.9l-52.4,41c-4.7,3.7-5.5,10.5-1.9,15.1l3.9,5
			c3.7,4.7,10.5,5.5,15.1,1.8l15.3-12c4.7-3.7,11.5-2.8,15.1,1.8l5.5,7c3.7,4.7,10.5,5.5,15.1,1.8l2.4-1.8
			c4.7-3.7,5.5-10.5,1.8-15.1l-5.5-7c-3.7-4.7-2.8-11.5,1.8-15.1l0.7-0.5c4.7-3.7,5.5-10.5,1.8-15.1L1064.5,843.5L1064.5,843.5z"/>
		
			<rect x="1046.8" y="891.3" transform="matrix(0.7878 -0.6159 0.6159 0.7878 -328.9688 847.217)" class="st5" width="36.7" height="19.6"/>
		<path class="st7" d="M1167.7,1100.5l-4.7,0.2c-2.8-75.7-74.1-166.4-93.9-190.2l3.7-2.9C1093.1,932,1164.9,1023.6,1167.7,1100.5
			L1167.7,1100.5z"/>
		<g class="st8">
			<path class="st5" d="M1145.1,1106.3c5.7,7.3,16.1,8.7,23.2,3.2l74.3-58.1c4-3.2,6.1-7.9,6.2-12.7h-136.3
				C1130.1,1074.9,1145.1,1106.3,1145.1,1106.3L1145.1,1106.3z"/>
		</g>
	</g>
	<path class="st0" d="M1222.7,878.5c-17.1,24.5-100.8,126.1-121.3,111.8s45.6-128.1,62.7-152.6s44-35.3,60.2-24
		S1239.8,854,1222.7,878.5z"/>
</g>
<g>
	<path class="st9" d="M1616,1461c20.6,3-359.4,52.3-690.7,52.3s-509.9-16.9-509.9-37.7s178.6-37.7,509.9-37.7
		S1439.2,1435.1,1616,1461L1616,1461z"/>
	<g>
		<path class="st10" d="M716.8,966c0,0-44.2-46.6-12-115.9s71.7-70.5,71.7-70.5s47.8,74.1,26.3,127.8
			C781.3,961.2,748.8,972.1,716.8,966L716.8,966z"/>
		<g>
			<path class="st11" d="M688.1,996c0,0,13.2-53.3-15.3-83.3s-90.7-56.8-90.7-56.8s-9.8,57,5.5,88.8
				C602.8,976.5,637.7,998.6,688.1,996L688.1,996z"/>
			<path class="st10" d="M708.5,1037.3l1.5-7.6c-0.9-22.3-89.1-111.7-92.9-115.8l-1.3,1.2C616.7,916.2,707.6,1015.7,708.5,1037.3z"
				/>
		</g>
		<g>
			<path class="st11" d="M738.6,1005.4c0,0,15.5-26.3,68.1-43s119.5,16.5,119.5,16.5s-35.8,39.6-65.7,57.5
				C830.6,1054.4,767.3,1026.9,738.6,1005.4L738.6,1005.4z"/>
			<path class="st10" d="M711.7,1026.4c11.6-33.2,172-39.4,173.6-39.4l-0.1-1.8c-6.7,0.2-164.9,3.9-176.9,38.3L711.7,1026.4
				L711.7,1026.4z"/>
		</g>
		<g>
			<path class="st11" d="M744.3,1121.3c26-22.5,60.9-10.8,77.7,21.5s8.4,93.2,8.4,93.2s-69.3-23.7-92-60.8
				S726.3,1136.8,744.3,1121.3L744.3,1121.3z"/>
			<path class="st10" d="M807.6,1193.5l1.5-0.9c-0.1-0.2-12.7-21.6-29.1-42.8c-22.1-28.6-40.2-43.3-53.8-43.5
				c-6.6-0.1-12,3.2-16.3,9.7l1.4,10.8c3.8-5.9,8.2-13.9,14-13.9c0.1,0-0.1,0,0,0C756.7,1113.5,807.1,1192.6,807.6,1193.5
				L807.6,1193.5z"/>
		</g>
		<g>
			<path class="st12" d="M698.3,1139.8c0,0-14.3-32.2-81.2-40.6s-98,47.8-98,47.8s69.3,43,105.1,40.6S683.9,1161.3,698.3,1139.8
				L698.3,1139.8z"/>
			<path class="st11" d="M710,1149.9l1.5-5.4c-21.3-19.2-129.6-2.2-134.2-1.4l0.3,1.8C578.6,1144.7,689.3,1131.3,710,1149.9
				L710,1149.9z"/>
		</g>
		<g>
			<path class="st10" d="M704.9,1066.3c0,0-9.5-43-80-70.5s-107.5,12-107.5,12s40.6,64.5,88.4,75.3
				C653.5,1093.8,704.9,1066.3,704.9,1066.3L704.9,1066.3z"/>
			<path class="st11" d="M710.8,1081.1l-0.5-9.4c-72.3-79.3-157.6-66.6-158.5-66.5l0.2,1.8C552.9,1006.9,644.3,1000,710.8,1081.1
				L710.8,1081.1z"/>
		</g>
		<path class="st11" d="M752.6,841.5c-10.6,34.8-40.7,139.2-41.8,200.8c-1.2,70.8,6,228.4,6,228.4l1.2,78.8h-29.9
			c0,0,14.8-114.3,16.7-156.4s-1.2-124.7,0-150.8c1.1-24.1,23.7-146.5,45.8-200.4L752.6,841.5L752.6,841.5z"/>
		<polygon class="st1" points="613.5,1470.7 784.9,1470.7 768.8,1324.9 629.6,1324.9 		"/>
	</g>
	<g>
		<g>
			<path class="st10" d="M1268.2,1367.8c0,0-11.2-105.9,28.9-163.6c32.2-46.3,119-95.7,152.2-113.5c8.2-4.4,3.6-5.3-11.5-1
				c-40.7,11.6-122.3,43.4-171,119.2c-43.2,67.4-29,158.8-29,158.8L1268.2,1367.8L1268.2,1367.8z"/>
			<path class="st10" d="M1172.8,1082.3c18.7,6.5,44.7,18.7,62.8,40.1c31.1,36.9,55.2,92.2,55.2,92.2l-32.1,44.1
				c0,0-14.4-77-38.5-115.5c-14.9-23.9-38.5-44.1-54.3-56C1156.2,1080,1159.2,1077.6,1172.8,1082.3L1172.8,1082.3z"/>
			<path class="st10" d="M1270.4,1035.8c-26.6,15.5-54.4,41.8-68.8,78c23-3.3,18.4,15,18.4,15s6.6-42.6,51-88.9
				C1274.3,1036.5,1274.2,1033.6,1270.4,1035.8L1270.4,1035.8z"/>
			<path class="st10" d="M1277,1021.8c0,9.2-2.6,16.7-5.9,16.7s-5.9-7.5-5.9-16.7s2.6-16.7,5.9-16.7S1277,1012.5,1277,1021.8z"/>
			<path class="st10" d="M1288.9,1035.8c8.8,2.7,15.2,7.3,14.3,10.4c-0.9,3.1-8.9,3.5-17.7,0.8c-8.8-2.7-15.2-7.3-14.3-10.4
				C1272.1,1033.5,1280.1,1033.2,1288.9,1035.8z"/>
			<path class="st10" d="M1270.4,1059.5c11.1,3.3,19.2,9.2,18,13.1s-11.1,4.4-22.2,1s-19.2-9.2-18-13.1
				C1249.3,1056.6,1259.3,1056.2,1270.4,1059.5L1270.4,1059.5z"/>
			<path class="st10" d="M1254.1,1035c0,12.3-3.5,22.3-7.8,22.3s-7.8-10-7.8-22.3s3.5-22.3,7.8-22.3S1254.1,1022.7,1254.1,1035z"/>
			<path class="st10" d="M1218.2,1056.9c5,14.6,4.9,27.9-0.2,29.7c-5.1,1.8-13.4-8.7-18.4-23.3c-5-14.6-4.9-27.9,0.2-29.7
				C1204.9,1031.8,1213.2,1042.3,1218.2,1056.9L1218.2,1056.9z"/>
			<path class="st10" d="M1187.7,1119c15.4-0.9,28.2,2.8,28.5,8.3s-12,10.5-27.4,11.4s-28.2-2.8-28.5-8.3S1172.2,1119.9,1187.7,1119
				z"/>
			<path class="st10" d="M1146.2,1079c12.2-0.7,22.3,2.2,22.6,6.6c0.2,4.3-9.5,8.3-21.7,9s-22.3-2.2-22.6-6.6
				C1124.2,1083.7,1134,1079.7,1146.2,1079L1146.2,1079z"/>
			<path class="st10" d="M1173.6,1062.9c1,12.2-1.7,22.4-6,22.7c-4.3,0.3-8.6-9.3-9.6-21.5s1.7-22.4,6-22.7
				C1168.3,1041.1,1172.6,1050.7,1173.6,1062.9z"/>
			<path class="st10" d="M1309.4,1286.8c32.2-1.8,58.8,5.9,59.4,17.2c0.6,11.3-24.9,21.9-57.1,23.7c-32.2,1.8-58.8-5.9-59.4-17.2
				S1277.2,1288.6,1309.4,1286.8z"/>
			<path class="st10" d="M1305.8,1241.7c26.8-1.5,48.9,4.9,49.5,14.3c0.5,9.4-20.8,18.3-47.6,19.8c-26.8,1.5-48.9-4.9-49.5-14.3
				C1257.7,1252.1,1279,1243.2,1305.8,1241.7L1305.8,1241.7z"/>
			<path class="st10" d="M1226,1217.5c24.3,11.4,40.7,27.6,36.7,36.1s-26.9,6.2-51.2-5.2c-24.3-11.4-40.7-27.6-36.7-36.1
				S1201.7,1206.1,1226,1217.5z"/>
			<path class="st10" d="M1211.9,1157.3c20.3,4.8,35.3,14.5,33.6,21.6c-1.7,7.1-19.5,9-39.8,4.2s-35.3-14.5-33.6-21.6
				S1191.7,1152.4,1211.9,1157.3z"/>
			<path class="st10" d="M1259.9,1115.1c-2,16.4-8.2,29.1-14,28.4s-8.8-14.5-6.8-30.9s8.2-29.1,14-28.4S1261.8,1098.7,1259.9,1115.1
				L1259.9,1115.1z"/>
			<path class="st10" d="M1283.8,1148c-2,16.4-8.2,29.1-14,28.4s-8.8-14.5-6.8-30.9s8.2-29.1,14-28.4S1285.8,1131.6,1283.8,1148
				L1283.8,1148z"/>
			<path class="st10" d="M1321.3,1196.4c22.1-1.2,40.3,4,40.8,11.8c0.4,7.8-17.1,15.1-39.2,16.3c-22.1,1.2-40.3-4-40.8-11.8
				C1281.7,1204.9,1299.2,1197.6,1321.3,1196.4L1321.3,1196.4z"/>
			<path class="st10" d="M1361.4,1153.2c18.1-1,33.1,3.3,33.4,9.7c0.4,6.4-14,12.3-32.2,13.4c-18.1,1-33.1-3.3-33.4-9.7
				C1328.9,1160.2,1343.3,1154.2,1361.4,1153.2z"/>
			<path class="st10" d="M1420.8,1113.4c14,4.8,24,12.7,22.3,17.6s-14.4,5-28.4,0.2s-24-12.7-22.3-17.6S1406.8,1108.6,1420.8,1113.4
				L1420.8,1113.4z"/>
			<path class="st10" d="M1463.5,1089.9c1.8,0.6,3.5,1.2,5.1,1.9c9.2,4,15.2,9.3,14,12.9c-1.4,4.2-12.2,4.3-24.2,0.3
				c-11.9-4-20.5-10.7-19.1-14.9C1440.7,1086,1451.5,1085.9,1463.5,1089.9L1463.5,1089.9z"/>
			<path class="st10" d="M1453.3,1069.3c0,1.9-0.1,3.7-0.2,5.4c-0.8,10-3.9,17.4-7.7,17.4c-4.4,0-8.1-10.2-8.1-22.8
				c-0.1-12.6,3.5-22.8,7.9-22.8S1453.2,1056.7,1453.3,1069.3L1453.3,1069.3z"/>
			<path class="st10" d="M1407.4,1086.9c0,2.2-0.1,4.3-0.2,6.4c-0.9,11.8-4.6,20.5-9.1,20.5c-5.2,0-9.5-12-9.6-26.8
				s4.1-26.9,9.3-26.9S1407.3,1072.1,1407.4,1086.9L1407.4,1086.9z"/>
			<path class="st10" d="M1363.5,1105.1c0,3-0.1,5.9-0.3,8.7c-1.3,15.9-6.3,27.7-12.3,27.8c-7.1,0-12.8-16.2-12.9-36.3
				c-0.1-20.1,5.6-36.4,12.6-36.4S1363.4,1085,1363.5,1105.1L1363.5,1105.1z"/>
			<path class="st10" d="M1322.1,1133.8c0,3-0.1,5.9-0.3,8.7c-1.3,15.9-6.3,27.7-12.3,27.8c-7.1,0-12.8-16.2-12.9-36.3
				c-0.1-20.1,5.6-36.4,12.6-36.4C1316.2,1097.4,1322,1113.7,1322.1,1133.8z"/>
			<path class="st10" d="M1213.7,1275.9c27,7.5,46.8,21.3,44.1,30.8c-2.6,9.5-26.7,11.1-53.7,3.5c-27-7.5-46.8-21.3-44.1-30.8
				S1186.7,1268.4,1213.7,1275.9L1213.7,1275.9z"/>
		</g>
		<path class="st1" d="M1382.5,1361.4v-11.1h-244.3v11.1c0,47.9,27.6,89.4,67.8,109.4h108.8
			C1354.9,1450.7,1382.5,1409.3,1382.5,1361.4L1382.5,1361.4z"/>
	</g>
	<g id="plant">
		<g>
			<path class="st10" d="M1031.8,1402.9c0,0-75.8-101.7-110.6-143.3c-34.7-41.7-95.5-98.3-95.5-98.3s56,12.1,116.2,58.8
				C1002,1266.8,1031.8,1402.9,1031.8,1402.9L1031.8,1402.9z"/>
			<path class="st12" d="M1009.7,1377.6c0,0-70.5-27.2-117.9-46.8c-47.3-19.6-130.1,5.3-130.1,5.3s61-52.1,131.8-39.4
				C964.4,1309.3,1009.7,1377.6,1009.7,1377.6z"/>
			<path class="st12" d="M1041.5,1394.9c0,0,32.3-134.5,64-174.7c31.7-40.3,126.1-78.6,126.1-78.6s-57.4,44.1-95.1,105.5
				C1098.9,1308.5,1041.5,1394.9,1041.5,1394.9L1041.5,1394.9z"/>
			<path class="st10" d="M1032,1394.9c0,0-28.5-138.9-29.3-204.9s4.3-166.2,4.3-166.2s27.4,62,48.3,152.3
				C1076.3,1266.4,1032,1394.9,1032,1394.9L1032,1394.9z"/>
			<path class="st12" d="M1051.1,1424.6c-0.8-41.1,65.7-100.8,65.7-100.8l43.1-1.9C1159.9,1321.9,1092.4,1384.2,1051.1,1424.6
				L1051.1,1424.6z"/>
			<path class="st10" d="M1231.6,1437.9c-54.3-57.2-114.8-114.1-114.8-114.1l43.1-1.9C1159.9,1321.9,1221.7,1358.1,1231.6,1437.9
				L1231.6,1437.9z"/>
		</g>
		<path class="st1" d="M1134.5,1383.1v-8.9H938.6v8.9c0,38.4,22.1,71.6,54.3,87.7h87.2C1112.4,1454.7,1134.5,1421.5,1134.5,1383.1
			L1134.5,1383.1z"/>
	</g>
</g>
</svg>
