<?xml version="1.0" encoding="utf-8"?>
<!-- Generator: Adobe Illustrator 27.3.1, SVG Export Plug-In . SVG Version: 6.00 Build 0)  -->
<svg version="1.1" id="Layer_1" xmlns="http://www.w3.org/2000/svg" xmlns:xlink="http://www.w3.org/1999/xlink" x="0px" y="0px"
	 viewBox="0 0 2000 2000" style="enable-background:new 0 0 2000 2000;" xml:space="preserve">
<style type="text/css">
	.st0{opacity:0.3;fill:#293657;enable-background:new    ;}
	.st1{fill:#EBECED;}
	.st2{fill:#FFFFFF;}
	.st3{fill:#2A3756;}
	.st4{fill:#527BEF;}
	.st5{fill:#2F3D5B;}
	.st6{fill:#EDD600;}
	.st7{fill:#DDC203;}
</style>
<ellipse class="st0" cx="959" cy="1587.7" rx="552" ry="33.3"/>
<g>
	<path class="st1" d="M1067.8,812c-21.9,13-122.9,62.5-133.8,44.1c-10.9-18.3,80.7-83.5,102.6-96.6s46.7-11.9,55.3,2.6
		C1100.5,776.6,1089.7,798.9,1067.8,812L1067.8,812z"/>
	<ellipse class="st2" cx="1190" cy="744.6" rx="175.3" ry="169.7"/>
	<g>
		<path class="st2" d="M1258.6,732.3c-0.9-0.1-1.9-0.3-2.8-0.7c-16.9-6.8-30.1-19.7-37.2-36.4s-7.3-35.2-0.5-52.1l26.4-65.7
			c6.8-16.9,19.7-30.1,36.4-37.2s35.2-7.3,52.1-0.5c5.6,2.2,8.3,8.6,6.1,14.2s-8.6,8.3-14.2,6c-11.4-4.6-24-4.5-35.4,0.4
			c-11.4,4.8-20.1,13.8-24.8,25.3l-26.4,65.7c-4.6,11.5-4.5,24,0.4,35.4c4.8,11.3,13.8,20.1,25.3,24.8c5.6,2.2,8.3,8.6,6.1,14.2
			C1268.2,730.2,1263.4,732.8,1258.6,732.3L1258.6,732.3z"/>
		<g>
			<path class="st3" d="M1296.9,720.4c-5.1,42.1-62.3,69.9-127.9,62s-114.7-48.4-109.6-90.5s62.3-69.9,127.9-62
				C1252.9,637.8,1302,678.3,1296.9,720.4L1296.9,720.4z"/>
			<g>
				<path class="st4" d="M1099.7,695.5c-0.4,3.3-3.4,5.7-6.8,5.3c-3.3-0.4-5.7-3.4-5.3-6.8c0.4-3.3,3.4-5.7,6.8-5.3
					C1097.7,689.1,1100.1,692.1,1099.7,695.5z"/>
				<path class="st4" d="M1138.5,701.9c-0.4,3.3-3.4,5.7-6.8,5.3c-3.3-0.4-5.7-3.4-5.3-6.8s3.4-5.7,6.8-5.3
					C1136.5,695.5,1138.9,698.5,1138.5,701.9L1138.5,701.9z"/>
				<path class="st4" d="M1128.9,686.9c-0.4,3.3-3.4,5.7-6.8,5.3c-3.3-0.4-5.7-3.4-5.3-6.8s3.4-5.7,6.8-5.3
					C1126.9,680.6,1129.3,683.6,1128.9,686.9L1128.9,686.9z"/>
				<path class="st4" d="M1113.7,684.3c-0.4,3.3-3.4,5.7-6.8,5.3c-3.3-0.4-5.7-3.4-5.3-6.8s3.4-5.7,6.8-5.3
					C1111.7,677.9,1114.1,681,1113.7,684.3z"/>
			</g>
			<g>
				<path class="st4" d="M1217.7,709.7c-0.4,3.3-3.4,5.7-6.8,5.3c-3.3-0.4-5.7-3.4-5.3-6.8s3.4-5.7,6.8-5.3
					C1215.7,703.3,1218.1,706.3,1217.7,709.7L1217.7,709.7z"/>
				<path class="st4" d="M1256.5,716c-0.4,3.3-3.4,5.7-6.8,5.3c-3.3-0.4-5.7-3.4-5.3-6.8s3.4-5.7,6.8-5.3
					C1254.6,709.7,1256.9,712.7,1256.5,716L1256.5,716z"/>
				<path class="st4" d="M1246.9,701.1c-0.4,3.3-3.4,5.7-6.8,5.3c-3.3-0.4-5.7-3.4-5.3-6.8c0.4-3.3,3.4-5.7,6.8-5.3
					C1244.9,694.7,1247.3,697.8,1246.9,701.1L1246.9,701.1z"/>
				<path class="st4" d="M1231.7,698.5c-0.4,3.3-3.4,5.7-6.8,5.3c-3.3-0.4-5.7-3.4-5.3-6.8s3.4-5.7,6.8-5.3
					C1229.7,692.1,1232.1,695.1,1231.7,698.5L1231.7,698.5z"/>
			</g>
		</g>
	</g>
	<path class="st1" d="M1320.1,843.7c-14.6,20.9-86.1,107.7-103.6,95.5s39-109.4,53.5-130.3c14.6-20.9,37.6-30.1,51.4-20.5
		C1335.3,797.9,1334.7,822.7,1320.1,843.7L1320.1,843.7z"/>
</g>
<g>
	<g>
		<path class="st2" d="M797.8,1207.1l-110.2,341c-2.5,7.9-11,12.2-18.9,9.7c-7.9-2.6-12.2-11-9.7-18.9l110.2-341.2L797.8,1207.1
			L797.8,1207.1z"/>
		<polygon class="st2" points="813.6,1153.6 900.4,902 874.6,893.6 787.8,1145.2 		"/>
		
			<rect x="628.4" y="1514.5" transform="matrix(0.3075 -0.9515 0.9515 0.3075 -997.2263 1707.7501)" class="st5" width="92.6" height="49"/>
		<path class="st5" d="M764.9,1198.6c-1,3.1,0.7,6.3,3.7,7.3l25,8.1c3,1,6.3-0.7,7.3-3.7l18.8-58.2c1-3.1-0.7-6.3-3.7-7.3l-25-8.1
			c-3-1-6.3,0.7-7.3,3.7L764.9,1198.6L764.9,1198.6z"/>
		<rect x="548.6" y="1564.8" class="st5" width="240.3" height="27.1"/>
		<rect x="607.1" y="1554.6" class="st5" width="123.3" height="25.4"/>
	</g>
	<path class="st3" d="M976.6,1425.7l17.5-32.5c-82.6-44.4-37.6-192.2,2-322.5c16.7-55,32.5-106.9,38.4-149.5
		c3.3-24.2,3.2-43.8-0.3-59.7c-4.6-20.4-14.9-35.3-30.6-44.3c-21.6-12.4-43.8-14.8-64.3-7c-19.9,7.6-37.7,24.3-52.7,49.7
		c-10.5,17.8-16,33.7-16.2,34.4l35,11.8l-17.5-5.9l17.5,5.9c4.7-13.9,22.4-52.1,47-61.4c10-3.8,20.8-2.3,32.8,4.6
		c33.8,19.3,2.8,121-24.5,210.7c-21.5,70.7-43.7,143.7-48.9,208.1c-2.9,36.5-0.1,66.3,8.7,91.3
		C930.9,1388.9,949.8,1411.3,976.6,1425.7L976.6,1425.7z"/>
	<g>
		<polygon class="st2" points="1011.9,1352.7 972.2,1343.8 915,1389.2 915,1432.2 		"/>
		<path class="st6" d="M1303.3,1425.8l26.3,76.6c-49-19.3-130.8-47.4-181.2-42.4c-3.9,0.4-7.9,1-12,1.8l0,0
			C1136.4,1461.8,1206.8,1400,1303.3,1425.8L1303.3,1425.8z"/>
		<path class="st7" d="M996.7,1432.2c65.6-52.7,217.1-52.7,281.5-79.5l25.1,73.1c-96.5-25.7-166.9,36-166.9,36l0,0
			c-53,10.7-122,55.4-199.3,52.3C948.1,1486,966.4,1456.5,996.7,1432.2L996.7,1432.2z"/>
		<g>
			<path class="st6" d="M1156.3,1317.2l51.8,53.4c-71.9,13-164.1,23.6-211.4,61.7c-30.2,24.3-48.5,53.8-59.5,81.9
				c-16.5-0.7-33.4-3.5-50.6-9.3c0-0.9,0-1.8,0-2.6C886.5,1400.2,1007.2,1317.5,1156.3,1317.2L1156.3,1317.2z"/>
			<path class="st3" d="M1157.2,1317.2c9.3,0,100,3.1,110.5,4.9l10.5,30.7c-17.9,7.4-42.5,12.8-70.1,17.8l-51.8-53.4
				C1156.6,1317.2,1156.9,1317.2,1157.2,1317.2L1157.2,1317.2z"/>
		</g>
		<path class="st3" d="M891.4,1537.2c-2.9-10.5-4.6-21.3-4.8-32.4c103.8,35.2,196.7-38.4,261.9-44.8c50.4-5,132.2,23.1,181.2,42.4
			l-75.7,66.8c0,0-210.9,3.7-281.1,0C901.6,1565.4,892.3,1540,891.4,1537.2L891.4,1537.2z"/>
		<path class="st2" d="M1264.6,1432.2c46.4,0,84.3,36.3,86.9,82.1l-152.1-52.7C1215.3,1443.6,1238.6,1432.2,1264.6,1432.2
			L1264.6,1432.2z"/>
		<path class="st6" d="M1189.7,1519.2c0,41.3,33.5,74.8,74.8,74.8s74.8-33.5,74.8-74.8s-33.5-74.8-74.8-74.8
			S1189.7,1477.9,1189.7,1519.2z"/>
		<path class="st3" d="M1209.9,1519.2c0,30.2,24.4,54.6,54.6,54.6s54.6-24.4,54.6-54.6s-24.4-54.6-54.6-54.6
			S1209.9,1489.1,1209.9,1519.2z"/>
	</g>
	<path class="st5" d="M908,914.5c2.3,0,4.6-1.4,5.5-3.7c1.2-3-0.2-6.5-3.3-7.8L869,886.1c-3-1.2-6.5,0.2-7.8,3.3
		c-1.2,3,0.2,6.5,3.3,7.8l41.3,16.8C906.5,914.3,907.2,914.4,908,914.5L908,914.5z"/>
</g>
</svg>
