<?xml version="1.0" encoding="utf-8"?>
<!-- Generator: Adobe Illustrator 27.3.1, SVG Export Plug-In . SVG Version: 6.00 Build 0)  -->
<svg version="1.1" id="Layer_1" xmlns="http://www.w3.org/2000/svg" xmlns:xlink="http://www.w3.org/1999/xlink" x="0px" y="0px"
	 viewBox="0 0 2000 2000" style="enable-background:new 0 0 2000 2000;" xml:space="preserve">
<style type="text/css">
	.st0{opacity:0.3;fill:#2A3756;enable-background:new    ;}
	.st1{fill:#2A3756;}
	.st2{fill:#FFFFFF;}
	.st3{fill:#EF5C00;}
	.st4{fill:#06090C;}
	.st5{fill:#DD5205;}
	.st6{fill:#EBECED;}
	.st7{fill:#527BEF;}
</style>
<path class="st0" d="M1645,1534.5c0,18-149.9,32.5-334.7,32.5s-854.7-14.6-854.7-32.5s669.9-32.5,854.7-32.5
	S1645,1516.5,1645,1534.5z"/>
<g>
	<g id="dog">
		<path class="st1" d="M1167.1,1357.3c21.1-43.6,94.1-51.9,132.3-51.6c34.7,0.2,28.4-54.4,37.4-62.5c-3.6-12.6,5.4-109.3,34.1-106.7
			c28.7,2.7,48.4,67.2,48.4,67.2c18.8-3.6,41.2,0,41.2,0c17-55.6,28.7-72.9,43-60.9c15.9,13.3,43.9,86,22.3,115.6
			c10.3,49.2,2.3,94.8-4.4,145.2c-2.4,17.8-8.4,32.9-16.4,45.6c-12.2,13.6-26.7,19.3-38.6,27.4c-14.2,9.8-161.4,7.8-209.5,1
			c0,0-34.2-16.5-55.4-5.8l0,0c-15.3,3.8-50.7,71.2-70,61.5C1110.1,1522.7,1137.5,1418.5,1167.1,1357.3L1167.1,1357.3z"/>
		<path class="st1" d="M1251.2,1312.1c-30.1-12.9-62.4-39.9-69.8-29.3c-7.3,10.6,6,58.4,6,58.4S1265.6,1318.3,1251.2,1312.1
			L1251.2,1312.1z"/>
		<path class="st1" d="M1287,1539.3c-31.5,0.4-76.5-74.6-76.5-74.6l67.3,12.8C1277.8,1477.4,1315.6,1538.8,1287,1539.3z"/>
		<path class="st1" d="M1554.1,1430.9c0,20.3-7.6,62.6-22.7,56c-24.5-10.2-16.7-40.1-16.7-40.1s-25,32.2-64.7,38.8
			c-17.4,4.2-38.6-1.6-37.8-4.6c4.4-16.5,82.4-51.2,86.3-59.9C1506,1404.1,1554.1,1383.5,1554.1,1430.9L1554.1,1430.9z"/>
		<path class="st2" d="M1357.4,1317.2c6.7-6.7,48.7,28.9,66.6-27.6c6.6-20.9,6.2-40.8,3.9-57.6c-1.5-11.1,30.2-13.6,31.5-0.4
			c2.3,22.3,6.9,45.8,10.3,56.7c7.3,23.1,9.5,41.3,43.5,38.3c2.6,100.2-42.6,156.2-84.6,161.6c-14.5,1.8-22,0.8-25.9-5
			c-6.4-9.6-2.3-24.2-2.5-24.6c-6.9-12.2-25.3-32.5-35.7-72.5C1355.9,1353.1,1354.4,1320.2,1357.4,1317.2L1357.4,1317.2z"/>
		<path class="st2" d="M1298.7,1460.1c36,4.6,41.9,15.5,41.9,15.5l15.8,17.5c-49,3.7-145.6-14.1-154.9-21.2
			C1220.9,1461.5,1258.3,1455,1298.7,1460.1z"/>
		<path class="st3" d="M1405.9,1485.9c41.8-5.9,54.5-70.1,54.6-70.8l13,2.5c-0.1,0.8-3.6,18.5-13.1,37.3
			c-7,13.9-15.6,24.8-25.3,32.3c-4.1,1.3-12.2,2-16.8,1.7C1410,1488.5,1405.9,1485.9,1405.9,1485.9L1405.9,1485.9z"/>
		<path class="st1" d="M1381.7,1429.2c0,0,49,78.7,57.2,86.9c8.2,8.2-10.6,38.1-41.2,17.4c-30.6-20.6-55.9-60.6-86-76.1
			C1292.1,1447.4,1349.8,1414.3,1381.7,1429.2L1381.7,1429.2z"/>
		<g>
			<path class="st2" d="M1405.7,1213.7c6.4-15.3-15.8-56.5-33.3-57.5s-27.1,72.6-21.8,78.6
				C1358.5,1236.1,1394.2,1224.3,1405.7,1213.7z"/>
			<path class="st2" d="M1471.5,1208.3c-3.1-13.6,13.8-43.3,25.1-46c15.8-3.8,31.6,76.8,21.8,84.2
				C1508.5,1241.2,1488.5,1217.3,1471.5,1208.3L1471.5,1208.3z"/>
			<path class="st4" d="M1466.2,1300.2c3.2,2.1-3.6,17.5-13,17.2c-9.4-0.2-14.6-11.9-12.8-15.7
				C1442.2,1297.9,1460.2,1296.1,1466.2,1300.2z"/>
			<path class="st4" d="M1486.7,1284.9c0,5.7,4.5,10.3,10.1,10.3s10.1-4.6,10.1-10.3s-4.5-10.3-10.1-10.3
				S1486.7,1279.2,1486.7,1284.9z"/>
			<path class="st4" d="M1390.1,1285.4c0,5.7,4.5,10.3,10.1,10.3s10.1-4.6,10.1-10.3s-4.5-10.3-10.1-10.3
				S1390.1,1279.7,1390.1,1285.4z"/>
		</g>
		<path class="st3" d="M1318.5,1492.7c-8.2-9-19.5-23.6-28.6-43c-14.5-31.2-25.8-81.2,2.1-143.9c0.4-0.9,13.4-3.3,15-1.1
			c6,8.4,22.5,31.2,44.7,52.5c25.4,24.4,64,53.7,104.2,53.7h0.6c20.1,0,35.9-4.4,47.4-11.3c12.3-7.7,18.7-12.6,20-14.5
			c-0.5,5.1-1.8,16.7-2.4,17.4c-14.1,13.8-35.9,20.9-64.9,21.1c-0.2,0-0.5,0-0.7,0c-35.8,0-74-19.3-113.5-57.3
			c-19-18.3-33.6-36.5-41.6-47.2c-17.5,43.8-17.1,85.8,1.1,124.9c14.7,31.5,36.1,49.3,36.3,49.5
			C1338.2,1493.6,1331.7,1494.6,1318.5,1492.7L1318.5,1492.7z"/>
	</g>
	<g>
		<polygon points="1294.7,1295.8 978.8,887.8 982.6,883 1298.3,1291.2 		"/>
		<path d="M1299.7,1289.2c-7.9,0-14.3,6.4-14.3,14.3c0,3.6,1.3,6.9,3.6,9.4l2.8-6.6c-0.3-0.9-0.5-1.8-0.5-2.8c0-4.6,3.8-8.4,8.4-8.4
			s8.4,3.8,8.4,8.4c0,0.8-0.1,1.5-0.3,2.3l3.9,5.4c1.4-2.2,2.3-4.9,2.3-7.7C1314,1295.7,1307.6,1289.2,1299.7,1289.2L1299.7,1289.2z
			"/>
		<g>
			<path d="M976.7,876.8l4.2-0.6c0,0,1-27.3-6.2-28.3c-3.1-0.4-9.7,2.4-9.7,2.4L976.7,876.8L976.7,876.8z"/>
			<path class="st3" d="M900.4,898.2c-0.8,8.3,0.7,16.9,5,24.8c11.3,21.1,37.6,29,58.8,17.7c14.6-7.8,22.9-22.9,22.9-38.4
				c1.2-16.2-17.9-52.7-23.8-63.7c-7.2-13.3-23.8-18.3-37.1-11.2L890,846.9c-13.3,7.2-18.3,23.8-11.2,37.1
				C883.2,892.3,891.5,897.4,900.4,898.2z M954.7,843.1c3.2,6,0,11.9-5.1,16.4c-8.8-1.2-18.1,0.2-26.5,4.7c-8.7,4.7-15.2,12-19,20.3
				c-7.3,0.7-14.4-0.5-16.9-5.2c-4.7-8.7-1.4-19.5,7.3-24.1c16.4-2.8,22.9-7.1,36.2-19.5C939.3,831.1,950.1,834.4,954.7,843.1
				L954.7,843.1z"/>
			<path class="st5" d="M914.5,917.9c8.5,15.8,28.1,21.7,43.9,13.2c15.8-8.5,21.7-28.1,13.2-43.9c-8.5-15.8-28.1-21.7-43.9-13.2
				C912,882.5,906.1,902.1,914.5,917.9z"/>
		</g>
	</g>
</g>
<g>
	<path class="st6" d="M787.4,815.9c20.8,12.7,116.8,60.9,127.4,43.5c10.6-17.4-76.3-80.6-97.1-93.3s-44.5-11.8-52.9,1.9
		S766.6,803.2,787.4,815.9z"/>
	<path class="st2" d="M493.5,743.2c0,89.5,75,162.1,167.5,162.1s167.5-72.6,167.5-162.1s-75-162.1-167.5-162.1
		S493.5,653.7,493.5,743.2z"/>
	<g>
		<path class="st2" d="M595.5,731.4c0.9-0.1,1.8-0.3,2.7-0.7c16.1-6.5,28.7-18.8,35.6-34.8c6.8-16,7-33.7,0.5-49.8L609,583.4
			c-6.5-16.1-18.8-28.8-34.8-35.6s-33.7-7-49.8-0.5c-5.3,2.2-7.9,8.2-5.8,13.6c2.2,5.3,8.2,7.9,13.6,5.8c10.9-4.4,23-4.3,33.8,0.3
			c10.9,4.6,19.2,13.2,23.7,24.2l25.2,62.7c4.4,11,4.3,23-0.3,33.8s-13.2,19.2-24.2,23.7c-5.3,2.2-7.9,8.2-5.8,13.6
			C586.4,729.4,590.9,732,595.5,731.4z"/>
		<g>
			<path class="st1" d="M558.9,720.1c4.8,40.3,59.6,66.8,122.2,59.2s109.6-46.3,104.7-86.5c-4.8-40.2-59.6-66.8-122.3-59.2
				C600.9,641.1,554,679.9,558.9,720.1z"/>
			<g>
				<path class="st7" d="M747.3,696.3c0.4,3.2,3.3,5.5,6.5,5.1s5.5-3.3,5.1-6.5s-3.3-5.5-6.5-5.1C749.2,690.2,747,693.1,747.3,696.3
					L747.3,696.3z"/>
				<path class="st7" d="M710.3,702.4c0.4,3.2,3.3,5.5,6.5,5.1s5.5-3.3,5.1-6.5s-3.3-5.5-6.5-5.1
					C712.2,696.3,709.9,699.2,710.3,702.4z"/>
				<path class="st7" d="M719.5,688.1c0.4,3.2,3.3,5.5,6.5,5.1s5.5-3.3,5.1-6.5s-3.3-5.5-6.5-5.1C721.4,682,719.1,684.9,719.5,688.1
					z"/>
				<path class="st7" d="M734,685.6c0.4,3.2,3.3,5.5,6.5,5.1s5.5-3.3,5.1-6.5s-3.3-5.5-6.5-5.1C735.9,679.5,733.6,682.4,734,685.6
					L734,685.6z"/>
			</g>
			<g>
				<path class="st7" d="M634.6,709.8c0.4,3.2,3.3,5.5,6.5,5.1s5.5-3.3,5.1-6.5s-3.3-5.5-6.5-5.1
					C636.5,703.8,634.2,706.7,634.6,709.8L634.6,709.8z"/>
				<path class="st7" d="M597.5,716c0.4,3.2,3.3,5.5,6.5,5.1s5.5-3.3,5.1-6.5s-3.3-5.5-6.5-5.1C599.4,709.9,597.1,712.8,597.5,716
					L597.5,716z"/>
				<path class="st7" d="M606.7,701.7c0.4,3.2,3.3,5.5,6.5,5.1s5.5-3.3,5.1-6.5s-3.3-5.5-6.5-5.1
					C608.6,695.6,606.3,698.5,606.7,701.7z"/>
				<path class="st7" d="M621.2,699.2c0.4,3.2,3.3,5.5,6.5,5.1s5.5-3.3,5.1-6.5s-3.3-5.5-6.5-5.1C623.1,693.1,620.9,696,621.2,699.2
					z"/>
			</g>
		</g>
	</g>
	<path class="st6" d="M496.1,820.3c-6.2,23.6-24.7,129.4-5,134.5c19.8,5.2,55.2-96.2,61.4-119.8s-1.5-46-17.1-50.1
		C519.8,780.9,502.2,796.8,496.1,820.3L496.1,820.3z"/>
</g>
</svg>
