<?xml version="1.0" encoding="utf-8"?>
<!-- Generator: Adobe Illustrator 27.3.1, SVG Export Plug-In . SVG Version: 6.00 Build 0)  -->
<svg version="1.1" id="Layer_1" xmlns="http://www.w3.org/2000/svg" xmlns:xlink="http://www.w3.org/1999/xlink" x="0px" y="0px"
	 viewBox="0 0 2000 2000" style="enable-background:new 0 0 2000 2000;" xml:space="preserve">
<style type="text/css">
	.st0{opacity:0.3;fill:#293657;enable-background:new    ;}
	.st1{fill:#FFFFFF;}
	.st2{fill:#F2F2F2;}
	.st3{fill:#2A3756;}
	.st4{fill:#4E5EAF;}
	.st5{fill:#EF5C00;}
	.st6{fill:#E2857E;}
	.st7{fill:#EDD600;}
	.st8{opacity:0.3;fill:#D3D1D1;enable-background:new    ;}
	.st9{fill:#527BEF;}
	.st10{fill:#EBECED;}
</style>
<path class="st0" d="M1700.7,1617.6c0,26-354.1,47-708.5,47s-575-21.1-575-47s220.5-47,575-47S1700.7,1591.6,1700.7,1617.6z"/>
<g>
	<g>
		<polygon class="st1" points="772.4,1613.6 851,1071.1 870.6,1073.9 792.5,1613.6 		"/>
		<polygon class="st1" points="1333,1613.6 1254.9,1073.9 1274.5,1071.1 1353.1,1613.6 		"/>
		<rect x="1052.8" y="1072.5" class="st1" width="19.8" height="506"/>
	</g>
	<g>
		<g>
			<rect x="795" y="574" class="st2" width="541" height="491"/>
			<rect x="795" y="556" class="st3" width="541" height="20"/>
			<rect x="795" y="1062" class="st3" width="541" height="21"/>
		</g>
		<g>
			<g>
				<g>
					<rect x="945.6" y="716.4" class="st4" width="89.8" height="10"/>
					<rect x="945.6" y="736.2" class="st4" width="89.8" height="10"/>
					<rect x="945.6" y="755.9" class="st4" width="89.8" height="10"/>
					<rect x="945.6" y="775.7" class="st4" width="56.5" height="10"/>
				</g>
				<g>
					<path class="st3" d="M879,766.4v-41.5c-22.9,0-41.5,18.6-41.5,41.5s18.6,41.5,41.5,41.5s41.5-18.6,41.5-41.5
						c0-6.9-1.7-13.5-4.7-19.2L879,766.4L879,766.4z"/>
					<path class="st5" d="M904,717.1c-6.1-3.6-13.2-5.6-20.8-5.6V753L904,717.1L904,717.1z"/>
					<path class="st4" d="M907.2,721.9l-20.8,35.8l36.7-19.2C919.5,731.6,914,725.8,907.2,721.9L907.2,721.9z"/>
				</g>
			</g>
			<g>
				<rect x="1132.1" y="913.7" class="st5" width="163" height="17.7"/>
				<rect x="1132.1" y="944.5" class="st4" width="135.4" height="10"/>
				<rect x="1132.1" y="964.2" class="st4" width="68.9" height="10"/>
				<rect x="1132.1" y="983.8" class="st4" width="135.4" height="10"/>
				<rect x="1132.1" y="1003.5" class="st4" width="118.8" height="10"/>
				<rect x="1132.1" y="1023.8" class="st4" width="135.4" height="10"/>
			</g>
			<g>
				<g>
					<path class="st4" d="M1175.6,805.6c-12.8,0-23.2-10.4-23.2-23.2s10.4-23.2,23.2-23.2s23.2,10.4,23.2,23.2
						S1188.4,805.6,1175.6,805.6z M1175.6,764.2c-10,0-18.2,8.2-18.2,18.2s8.2,18.2,18.2,18.2s18.2-8.2,18.2-18.2
						S1185.7,764.2,1175.6,764.2z"/>
					<path class="st4" d="M1175.6,832c-27.2,0-49.2-22.2-49.2-49.6s22.1-49.6,49.2-49.6s49.2,22.2,49.2,49.6S1202.8,832,1175.6,832z
						 M1175.6,737.9c-24.4,0-44.3,20-44.3,44.6s19.9,44.6,44.3,44.6s44.3-20,44.3-44.6S1200.1,737.9,1175.6,737.9z"/>
					<path class="st4" d="M1175.6,854.7c-39.8,0-72.2-32.4-72.2-72.2s32.4-72.2,72.2-72.2s72.2,32.4,72.2,72.2
						S1215.4,854.7,1175.6,854.7z M1175.6,715.2c-37.1,0-67.3,30.2-67.3,67.3s30.2,67.3,67.3,67.3s67.3-30.2,67.3-67.3
						S1212.7,715.2,1175.6,715.2z"/>
					<path class="st4" d="M1175.6,882.7c-55.3,0-100.3-45-100.3-100.3s45-100.3,100.3-100.3s100.3,45,100.3,100.3
						S1230.9,882.7,1175.6,882.7z M1175.6,687.1c-52.6,0-95.3,42.8-95.3,95.3s42.8,95.3,95.3,95.3s95.3-42.8,95.3-95.3
						S1228.2,687.1,1175.6,687.1L1175.6,687.1z"/>
				</g>
				<g>
					<path class="st4" d="M1175.6,811.4c-16,0-28.9-13-28.9-28.9h16.5c0,6.8,5.6,12.4,12.4,12.4V811.4L1175.6,811.4z"/>
					<path class="st4" d="M1225.5,805.8l-15-6.9c2.4-5.2,3.6-10.7,3.6-16.4c0-21.4-17.3-38.8-38.5-38.8c-6.4,0-12.8,1.6-18.4,4.7
						l-7.9-14.5c8-4.4,17.2-6.8,26.4-6.8c30.3,0,55,24.8,55,55.3C1230.7,790.6,1228.9,798.5,1225.5,805.8L1225.5,805.8z"/>
					<path class="st4" d="M1121.5,753.2l-14.5-7.9c13.7-25.2,40-40.9,68.7-40.9c22.6,0,44,9.8,58.8,26.8l-12.4,10.8
						c-11.7-13.4-28.6-21.1-46.4-21.1C1153,721,1132.3,733.3,1121.5,753.2L1121.5,753.2z"/>
					<path class="st4" d="M1175.6,888.5V872c49.4,0,89.5-40.2,89.5-89.5s-40.2-89.5-89.5-89.5v-16.5c58.5,0,106,47.6,106,106
						S1234.1,888.5,1175.6,888.5L1175.6,888.5z"/>
				</g>
			</g>
			<g id="_3">
				<g>
					<rect x="1039" y="972" class="st5" width="38" height="65"/>
					<rect x="987" y="932" class="st3" width="38" height="105"/>
					<rect x="938" y="905" class="st3" width="37" height="132"/>
					<rect x="887" y="972" class="st3" width="40" height="65"/>
					<rect x="837" y="868" class="st5" width="38" height="169"/>
				</g>
			</g>
		</g>
	</g>
	<g>
		<path class="st3" d="M862.2,643v-13.2c0-5.5,0.8-11.6,0.8-11.6h-0.2l-6.3,24.8h-8.6l-6.4-24.8h-0.2c0,0,0.9,6,0.9,11.5V643H832
			v-36.6h15.6l5.2,21.1h0.2l5.1-21.1h15V643H862.2L862.2,643z"/>
		<path class="st3" d="M905.8,623.5v11c0,1.2,0.5,2.1,1.6,2.1h1.8v6.1c0,0-1.8,1.1-5.2,1.1c-4,0-6.4-1.4-7.3-3.5
			c-2.2,1.9-5.1,3.5-9.7,3.5c-5.5,0-9.3-2-9.3-7.9c0-8.4,6.7-10,18.2-10v-1.4c0-2.3-1.7-3.3-3.8-3.3c-1.8,0-3.8,0.6-3.8,2.5v0.2
			h-9.8c0-0.3,0-0.5,0-0.7c0-5.2,4.7-8.7,13.8-8.7C899.4,614.3,905.8,616.5,905.8,623.5L905.8,623.5z M887.6,634.4
			c0,2.2,1.7,2.7,3.4,2.7c2.5,0,4.9-1.6,4.9-3.9v-2.4C889.9,630.8,887.5,632.3,887.6,634.4L887.6,634.4z"/>
		<path class="st3" d="M940.6,626.3H931c0-3.3-1.8-4.8-4.9-4.8c-3.5,0-4.9,2.3-4.9,6v3c0,3.7,1.5,6,5.1,6c3.2,0,5.1-1.4,5.1-4.9h9.2
			c0,8.6-6.5,12.1-14.5,12.1c-9,0-14.8-4.8-14.8-14.7s5.8-14.7,14.8-14.7C934.1,614.3,940.6,617.7,940.6,626.3L940.6,626.3z"/>
		<path class="st3" d="M963,614.3c6.2,0,9.2,3.9,9.2,10.5V643h-9.9v-16.9c0-2.3-1.2-4-3.3-4c-2.5,0-4.1,2-4.1,4.4V643H945v-38.6h9.9
			v13.4C956.9,615.6,959.9,614.3,963,614.3L963,614.3z"/>
		<path class="st3" d="M978.5,611.6v-7.2h9.9v7.2H978.5z M978.5,643v-28.1h9.9V643H978.5z"/>
		<path class="st3" d="M1022.1,624.8V643h-9.9v-16.9c0-2.3-1.2-4-3.3-4c-2.5,0-4.1,2-4.1,4.4V643h-9.9v-28h8.1l0.7,4.3
			c2-3,5.6-4.9,9.4-4.9C1019.2,614.3,1022.2,618.2,1022.1,624.8L1022.1,624.8z"/>
		<path class="st3" d="M1056.6,629v1.8h-19.8c0,3.9,1.5,6.1,5.3,6.1c3.5,0,4.8-1.8,4.8-4.1h9.6c0,6.7-4.8,10.9-14.3,10.9
			s-15.4-4.6-15.4-14.7s5.8-14.7,14.8-14.7C1051.2,614.3,1056.6,618.9,1056.6,629L1056.6,629z M1036.9,625.8h9.7
			c0-2.9-1.7-4.7-4.4-4.7C1038.8,621.1,1037.2,622.9,1036.9,625.8L1036.9,625.8z"/>
		<path class="st3" d="M1078.3,643v-38.6h9.9V643H1078.3z"/>
		<path class="st3" d="M1123.1,629v1.8h-19.8c0,3.9,1.5,6.1,5.3,6.1c3.5,0,4.8-1.8,4.8-4.1h9.6c0,6.7-4.8,10.9-14.3,10.9
			s-15.4-4.6-15.4-14.7s5.8-14.7,14.8-14.7C1117.7,614.3,1123.1,618.9,1123.1,629L1123.1,629z M1103.4,625.8h9.7
			c0-2.9-1.7-4.7-4.4-4.7C1105.3,621.1,1103.8,622.9,1103.4,625.8L1103.4,625.8z"/>
		<path class="st3" d="M1154.6,623.5v11c0,1.2,0.5,2.1,1.6,2.1h1.8v6.1c0,0-1.8,1.1-5.2,1.1c-4,0-6.4-1.4-7.3-3.5
			c-2.2,1.9-5.1,3.5-9.7,3.5c-5.5,0-9.3-2-9.3-7.9c0-8.4,6.7-10,18.2-10v-1.4c0-2.3-1.7-3.3-3.8-3.3c-1.8,0-3.8,0.6-3.8,2.5v0.2
			h-9.8c-0.1-0.3-0.1-0.5-0.1-0.7c0-5.2,4.7-8.7,13.8-8.7C1148.2,614.3,1154.6,616.5,1154.6,623.5L1154.6,623.5z M1136.4,634.4
			c0,2.2,1.7,2.7,3.4,2.7c2.6,0,4.9-1.6,4.9-3.9v-2.4C1138.8,630.8,1136.3,632.3,1136.4,634.4L1136.4,634.4z"/>
		<path class="st3" d="M1180.2,614.9v8.9h-3.2c-4.3,0-5.8,2.5-5.8,6.8V643h-9.9v-28.1h8.1l0.7,4.3c1.2-3.3,4.1-5,7.2-5
			C1179.1,614.3,1180.2,614.9,1180.2,614.9L1180.2,614.9z"/>
		<path class="st3" d="M1213.2,624.8V643h-9.9v-16.9c0-2.3-1.2-4-3.3-4c-2.5,0-4.1,2-4.1,4.4V643h-9.9v-28h8.1l0.7,4.3
			c2.1-3,5.6-4.9,9.4-4.9C1210.3,614.3,1213.2,618.2,1213.2,624.8L1213.2,624.8z"/>
		<path class="st3" d="M1219.5,611.6v-7.2h9.9v7.2H1219.5z M1219.5,643v-28.1h9.9V643H1219.5z"/>
		<path class="st3" d="M1263.2,624.8V643h-9.9v-16.9c0-2.3-1.2-4-3.3-4c-2.5,0-4.1,2-4.1,4.4V643h-9.9v-28h8.1l0.7,4.3
			c2.1-3,5.6-4.9,9.4-4.9C1260.2,614.3,1263.2,618.2,1263.2,624.8L1263.2,624.8z"/>
		<path class="st3" d="M1292.7,617.3c1.9,1.5,3.1,3.7,3.1,6.1c0,6.3-5.2,9-11.1,9h-3.8c-2.3,0-3.1,0.6-3.1,1.5s0.6,1.7,3.1,1.7h9
			c6.1,0,8.9,3.8,8.9,9c0,6.3-5.2,9.6-11.1,9.6H1273c-3.6,0-6.6-3-6.6-6.9c0-2.9,2-5.2,4.2-6.3c-1.6-1.2-2.6-2.9-2.6-5
			c0-2.8,2.2-5.3,5-6c-2.4-1.7-4.2-4-4.2-6.7c0-7,6.2-9.1,13.6-9.1c2,0,3.2,0.1,4.3,0.3c3.9-2.6,3.9-5,3.9-5h8.2
			C1298.8,614.2,1296.5,616.2,1292.7,617.3L1292.7,617.3z M1275.8,645.6c0,1.7,1.2,2.7,2.6,2.7h7.8c1.4,0,2.7-1,2.7-2.7
			s-1.2-2.6-2.7-2.6h-7.8C1276.9,643,1275.8,643.9,1275.8,645.6L1275.8,645.6z M1278.5,623.3c0,2.4,1.4,3.5,3.7,3.5s3.8-1.1,3.8-3.5
			s-1.5-3.5-3.8-3.5C1280.1,619.8,1278.5,621,1278.5,623.3z"/>
	</g>
</g>
<g id="_02_3_4">
	<g id="_02_Standing">
		<g id="leg">
			<path class="st3" d="M690.9,987.8c0,0,44.9,287.9,47.3,310.7c2.4,22.8-17.7,74.9,10,233.3l36.9,1.8c1.9-68.4,5.1-188.4,5.6-216.2
				c0.6-39.5,8-248.7,8-248.7S713.5,933,690.9,987.8L690.9,987.8z"/>
			<g>
				<polygon class="st3" points="861.6,1626.8 747.9,1630.5 747.9,1577.7 798.7,1577.7 861.6,1607.1 				"/>
				<polygon class="st1" points="753.1,1577.7 791.1,1577.7 786.5,1550.3 751.2,1553.1 				"/>
				<polygon class="st6" points="786.5,1550.3 751.2,1553.1 748.2,1531.8 785.2,1533.6 				"/>
			</g>
		</g>
		<g id="hoodie">
			<g id="head">
				<path class="st6" d="M698.7,529.7c24-6.1,57.2-1.2,64,39c4.8,28.2,10.5,77.1-7.2,83.4c-7.9,2.8-38,0-38,0l6.3,33.5h-55.3l9.1-48
					C677.6,637.5,619.6,549.7,698.7,529.7L698.7,529.7z"/>
				<path class="st3" d="M745.2,534.9l-36.3,53.3c-6.4-12-16.2-8.9-21.3,0.9c-6.3,12,7.9,22.2,6.6,26.3c-1.4,4-13.4,21.6-16.6,22.1
					c-3.2,0.4-63.2-26.9-35.6-95.6C654.7,510.2,709.4,499.1,745.2,534.9L745.2,534.9z"/>
				<path class="st3" d="M706,481.6c4.4,19.1-4.7,33.7-22,37.7s-28.1-6.6-32.6-25.6c-4.4-19,1.4-35.5,18.7-39.5
					C687.5,450.2,701.6,462.5,706,481.6L706,481.6z"/>
			</g>
			<path class="st7" d="M764.4,677.7L564.1,635c0,0-34.7,108.1,51.2,113.2c51.4,3,109.7-11.5,136.1-32.7
				C769.2,701.2,764.4,677.7,764.4,677.7L764.4,677.7z"/>
		</g>
	</g>
	<g id="_02_Front">
		<g id="leg-2">
			<path class="st3" d="M595.6,1063.8c0,0,13.4,92.1,18.1,211.5c4.1,104.7-18.1,105.2,0.8,252.4h36c1.6-96.7,3.9-96.5,43.2-489
				C693.8,1038.7,617.6,1008.8,595.6,1063.8L595.6,1063.8z"/>
			<polygon class="st1" points="647.3,1596.9 613.7,1587 614.5,1548.8 648.8,1548.8 			"/>
			<polygon class="st6" points="614.5,1548.8 648.8,1548.8 650.5,1527.7 614.5,1527.7 			"/>
			<polygon class="st3" points="658.3,1633.5 599.7,1633.5 599.7,1618.7 613.7,1576.9 648.8,1576.9 658.3,1618.7 			"/>
		</g>
		<g id="hoodie-2">
			<path class="st7" d="M609.7,703.5c-12.1,83.6-32.9,406.1-32.9,406.1c40,42.9,234.6,1.7,234.6,1.7S797,830,767.6,706
				C759.5,671.9,625.5,657.1,609.7,703.5L609.7,703.5z"/>
		</g>
	</g>
	<path class="st7" d="M599.7,721.1c0,0-104.3,160.9-80,211.5s119.1,70.8,119.1,70.8l-9.8-255L599.7,721.1L599.7,721.1z"/>
	<path class="st8" d="M587.2,741.2c0,0,50.8,26.2,119.5-7.9C706.7,733.3,638.8,798,587.2,741.2L587.2,741.2z"/>
	<g id="hand">
		<polygon class="st6" points="964.1,818.5 977,790.4 959.5,779.6 941.3,800.7 		"/>
		<path class="st7" d="M758.9,686.2c0,0,48.1,29.4,80.9,174c3.7,16.2,13.2,23.8,19,19c28.2-23.7,82.5-78.4,82.5-78.4l26.5,19.4
			c0,0-143.8,281.8-214.9,14.2C742.9,796.2,758.9,686.3,758.9,686.2L758.9,686.2z"/>
		<path class="st6" d="M966.1,751.8c-12.5,16.5-14.3,36.1-4,43.9c3,2.3,6.7,3.2,10.7,3.1c4-0.1,12.5-14.3,15.7-20.8
			c1.6-3.3,3.8-6.7,6.5-10c5.8-6.9,12.7-11.6,18.8-13.4c0.7-8-1.4-14.8-6.5-18.7C997,728.2,978.6,735.3,966.1,751.8z"/>
	</g>
</g>
<g>
	<g>
		<path class="st1" d="M1545,836.7c-0.7-0.1-1.3-0.2-2-0.5c-12.1-4.9-21.6-14.2-26.7-26.2s-5.3-25.3-0.4-37.4l18.9-47.1
			c4.9-12.1,14.2-21.6,26.2-26.7s25.3-5.3,37.4-0.4c4,1.6,6,6.2,4.3,10.2s-6.2,6-10.2,4.3c-8.2-3.3-17.2-3.2-25.4,0.3
			c-8.2,3.5-14.5,9.9-17.8,18.2l-18.9,47.1c-3.3,8.2-3.2,17.2,0.3,25.4s9.9,14.5,18.2,17.8c4,1.6,6,6.2,4.3,10.2
			C1551.8,835.2,1548.4,837.1,1545,836.7L1545,836.7z"/>
		<g>
			<g>
				<path class="st1" d="M1498.2,731c-34.1,0-64.9,13.7-86.9,35.7c37.7,10,63.8,35.3,60.7,61.6c-3.6,30.2-44.8,50.2-91.8,44.5
					c-0.1,0-0.1,0-0.2,0c11.7,52.8,60.2,92.4,118.3,92.4c66.8,0,121-52.4,121-117.1S1565,731,1498.2,731L1498.2,731z"/>
				<path class="st3" d="M1471.9,828.2c3.2-26.2-22.9-51.6-60.7-61.6c-21.1,21.1-34.1,49.8-34.1,81.4c0,8.5,0.9,16.7,2.7,24.7
					c0.1,0,0.1,0,0.2,0C1427.2,878.4,1468.3,858.4,1471.9,828.2L1471.9,828.2z"/>
			</g>
			<g>
				<path class="st9" d="M1405.9,818.6c-0.3,2.4-2.5,4.1-4.9,3.8s-4.1-2.5-3.8-4.9c0.3-2.4,2.5-4.1,4.9-3.8
					C1404.5,814.1,1406.2,816.2,1405.9,818.6z"/>
				<path class="st9" d="M1433.8,823.2c-0.3,2.4-2.5,4.1-4.9,3.8s-4.1-2.5-3.8-4.9c0.3-2.4,2.5-4.1,4.9-3.8
					C1432.4,818.7,1434.1,820.8,1433.8,823.2z"/>
				<path class="st9" d="M1426.9,812.5c-0.3,2.4-2.5,4.1-4.9,3.8s-4.1-2.5-3.8-4.9c0.3-2.4,2.5-4.1,4.9-3.8
					S1427.2,810.1,1426.9,812.5z"/>
				<path class="st9" d="M1415.9,810.6c-0.3,2.4-2.5,4.1-4.9,3.8s-4.1-2.5-3.8-4.9c0.3-2.4,2.5-4.1,4.9-3.8
					S1416.2,808.2,1415.9,810.6z"/>
			</g>
		</g>
	</g>
	<path class="st10" d="M1542.3,897.3c7.4,16.7,34.2,92.9,20.2,99.1s-52.7-64.6-60.2-81.3c-7.4-16.7-4.5-34.3,6.5-39.2
		C1519.9,871,1534.9,880.5,1542.3,897.3L1542.3,897.3z"/>
</g>
</svg>
