<?xml version="1.0" encoding="utf-8"?>
<!-- Generator: Adobe Illustrator 27.3.1, SVG Export Plug-In . SVG Version: 6.00 Build 0)  -->
<svg version="1.1" id="Layer_1" xmlns="http://www.w3.org/2000/svg" xmlns:xlink="http://www.w3.org/1999/xlink" x="0px" y="0px"
	 viewBox="0 0 2400 1700" style="enable-background:new 0 0 2400 1700;" xml:space="preserve">
<style type="text/css">
	.st0{fill:#FFFFFF;}
	.st1{fill:#151C28;}
	.st2{fill:#DBD2D2;}
	.st3{fill:#527BEF;}
	.st4{opacity:0.7;fill:#527BEF;enable-background:new    ;}
	.st5{opacity:0.9;fill:#527BEF;enable-background:new    ;}
	.st6{opacity:0.15;fill:#527BEF;enable-background:new    ;}
	.st7{opacity:0.3;fill:#527BEF;enable-background:new    ;}
	.st8{opacity:0.6;fill:#527BEF;enable-background:new    ;}
	.st9{opacity:0.4;fill:#527BEF;enable-background:new    ;}
	.st10{opacity:0.3;fill:#293657;enable-background:new    ;}
	.st11{fill:#D84848;}
	.st12{fill:#10161E;}
	.st13{fill:#394149;}
	.st14{opacity:0.55;fill:#FFFFFF;enable-background:new    ;}
	.st15{fill:#BAA090;}
	.st16{fill:#A58A7C;}
	.st17{fill:#967B6F;}
	.st18{fill:#493A32;}
	.st19{fill:#56453A;}
	.st20{fill:#3D302A;}
	.st21{fill:#3F3B3B;}
	.st22{opacity:0.7;fill:#3F3B3B;enable-background:new    ;}
	.st23{opacity:0.9;fill:#3F3B3B;enable-background:new    ;}
	.st24{opacity:0.7;fill:#FFFFFF;enable-background:new    ;}
	.st25{opacity:0.9;fill:#FFFFFF;enable-background:new    ;}
	.st26{opacity:0.6;fill:#3F3B3B;enable-background:new    ;}
	.st27{opacity:0.4;fill:#3F3B3B;enable-background:new    ;}
</style>
<g>
	<g>
		<path class="st0" d="M1448,991.6c-2.1,135.8-114.8,244.2-251.8,242.1c-136.9-2.1-246.3-113.9-244.2-249.7s114.8-244.2,251.8-242.1
			C1340.7,744,1450.1,855.8,1448,991.6L1448,991.6z"/>
		<g>
			<path class="st0" d="M1297.3,971.4c-1.3-0.2-2.6-0.5-3.9-1.1c-23.7-10.2-42.1-29.2-51.8-53.6c-9.7-24.4-9.6-51.2,0.4-75.5
				l38.8-94.6c10-24.3,28.6-43.2,52.4-53.2s50-9.8,73.7,0.3c7.9,3.4,11.6,12.7,8.2,20.7c-3.3,8.1-12.3,11.8-20.2,8.5
				c-16.1-6.9-33.9-7-50-0.2s-28.8,19.6-35.6,36.1l-38.8,94.6c-6.8,16.5-6.9,34.7-0.3,51.3s19.1,29.5,35.2,36.4
				c7.9,3.4,11.6,12.7,8.2,20.7C1310.9,968.6,1304.1,972.3,1297.3,971.4L1297.3,971.4z"/>
			<path class="st1" d="M1327.6,939c-8.1,61-89.7,99.9-182.3,87.1c-92.6-12.8-161.1-72.7-153-133.6s89.7-99.9,182.3-87.1
				C1267.2,818.2,1335.7,878,1327.6,939L1327.6,939z"/>
		</g>
		<path class="st2" d="M1384.2,1152.6c-8.8-7.9-16.2-19.1-21.7-32.9c-10.3-25.8-12.9-58.2-7.3-91.1c5.6-33,18.6-62.7,36.8-83.7
			c13.9-16.1,29.6-25.7,45.4-28l2.1,6.6c-14.5,1.8-29.2,10.7-42.4,25.9c-17.4,20.1-29.9,48.6-35.2,80.4c-5.3,31.8-2.9,62.8,6.9,87.5
			c5.1,12.8,11.9,23.1,19.9,30.3L1384.2,1152.6L1384.2,1152.6z"/>
		<path class="st2" d="M1306,765.3c0,0-6.3-3.9-23-8l1.6-6.6c18,4.4,24.8,8.7,25.1,8.9L1306,765.3L1306,765.3z"/>
	</g>
	<g>
		<path class="st3" d="M1071.3,938.5L1071.3,938.5c-5.2,0-10.3-1-15.1-3l7.3-17.7c2.5,1,5.1,1.5,7.8,1.5L1071.3,938.5L1071.3,938.5z
			"/>
		<path class="st4" d="M1086.4,935.5l-7.3-17.7c2.5-1,4.7-2.5,6.6-4.4l13.5,13.6C1095.6,930.6,1091.2,933.5,1086.4,935.5
			L1086.4,935.5z"/>
		<path class="st5" d="M1043.3,927c-3.7-3.7-6.6-8-8.6-12.8l17.7-7.4c1,2.5,2.5,4.7,4.4,6.6L1043.3,927L1043.3,927z"/>
		<path class="st6" d="M1107.8,914.1l-17.7-7.3c1-2.5,1.5-5.1,1.5-7.8v-0.1l19.2-0.1v0.2C1110.8,904.2,1109.8,909.3,1107.8,914.1
			L1107.8,914.1z"/>
		<path class="st4" d="M1031.7,899.1L1031.7,899.1c0-5.3,1-10.4,3-15.2l17.7,7.3c-1,2.5-1.5,5.1-1.5,7.8v0.1H1031.7l7.9-0.1
			L1031.7,899.1L1031.7,899.1z"/>
		<path class="st7" d="M1090.1,891.1c-1-2.5-2.5-4.7-4.5-6.6l13.5-13.6c3.7,3.7,6.6,8,8.6,12.8L1090.1,891.1z"/>
		<path class="st8" d="M1056.8,884.6l-13.6-13.5c3.7-3.7,8-6.6,12.8-8.6l7.4,17.7C1060.9,881.2,1058.7,882.7,1056.8,884.6
			L1056.8,884.6z"/>
		<path class="st9" d="M1079.4,880.1c-2.5-1-5.1-1.5-7.8-1.5h-0.1v-19.2h0.1c5.2,0,10.2,1,15,2.9L1079.4,880.1L1079.4,880.1z"/>
	</g>
	<g>
		<path class="st3" d="M1231.1,967.6L1231.1,967.6c-5.2,0-10.3-1-15.1-3l7.3-17.7c2.5,1,5.1,1.5,7.8,1.5L1231.1,967.6L1231.1,967.6z
			"/>
		<path class="st4" d="M1246.2,964.6l-7.3-17.7c2.5-1,4.7-2.5,6.6-4.4l13.5,13.6C1255.4,959.8,1251,962.6,1246.2,964.6L1246.2,964.6
			z"/>
		<path class="st5" d="M1203.1,956.1c-3.7-3.7-6.6-8-8.6-12.8l17.7-7.4c1,2.5,2.5,4.7,4.4,6.6L1203.1,956.1L1203.1,956.1z"/>
		<path class="st6" d="M1267.6,943.2l-17.7-7.3c1-2.5,1.5-5.1,1.5-7.8V928l19.2-0.1v0.2C1270.7,933.4,1269.6,938.5,1267.6,943.2
			L1267.6,943.2z"/>
		<path class="st4" d="M1191.5,928.2L1191.5,928.2c0-5.3,1-10.4,3-15.2l17.7,7.3c-1,2.5-1.5,5.1-1.5,7.8v0.1H1191.5l7.9-0.1
			L1191.5,928.2L1191.5,928.2z"/>
		<path class="st7" d="M1249.9,920.2c-1-2.5-2.5-4.7-4.5-6.6l13.5-13.6c3.7,3.7,6.6,8,8.6,12.8L1249.9,920.2z"/>
		<path class="st8" d="M1216.6,913.7l-13.6-13.5c3.7-3.7,8-6.6,12.8-8.6l7.4,17.7C1220.7,910.3,1218.5,911.8,1216.6,913.7
			L1216.6,913.7z"/>
		<path class="st9" d="M1239.2,909.3c-2.5-1-5.1-1.5-7.8-1.5h-0.1v-19.2h0.1c5.2,0,10.2,1,15,2.9L1239.2,909.3L1239.2,909.3z"/>
	</g>
</g>
<ellipse class="st10" cx="1220" cy="1525.7" rx="446.5" ry="33.9"/>
<g>
	<g>
		<path class="st11" d="M1211.1,453.8h-78.5c-10.4,0-18.9-8.4-18.9-18.9v-50.3c0-10.4,8.4-18.9,18.9-18.9h78.5
			c10.4,0,18.9,8.4,18.9,18.9v50.3C1229.9,445.3,1221.5,453.8,1211.1,453.8z"/>
		<polygon class="st11" points="1171.8,470.5 1191.8,442 1171.8,413.5 1151.9,442 		"/>
		<path class="st0" d="M1171.8,430.1l19.9-19.9c4.3-4.3,4.3-11.2,0-15.5s-11.2-4.3-15.5,0l-4.3,4.3l-4.2-4.2
			c-4.3-4.3-11.2-4.3-15.6,0c-4.3,4.3-4.3,11.2,0,15.5L1171.8,430.1L1171.8,430.1z"/>
	</g>
	<g>
		<g>
			<path class="st11" d="M1311.8,556.6h-78.5c-10.4,0-18.9-8.4-18.9-18.9v-50.3c0-10.4,8.4-18.9,18.9-18.9h78.5
				c10.4,0,18.9,8.4,18.9,18.9v50.3C1330.7,548.1,1322.2,556.6,1311.8,556.6z"/>
			<polygon class="st11" points="1272.6,573.3 1292.5,544.8 1272.6,516.3 1252.6,544.8 			"/>
		</g>
		<circle class="st0" cx="1272.6" cy="503.1" r="7.5"/>
		<path class="st0" d="M1251.8,533.3h41.5v0.3c0-11.5-9.3-20.7-20.7-20.7l0,0c-11.4,0-20.7,9.3-20.7,20.7L1251.8,533.3L1251.8,533.3
			z"/>
	</g>
	<g>
		<g>
			<path class="st11" d="M1698.2,572.2h78.5c10.4,0,18.9,8.4,18.9,18.9v50.3c0,10.4-8.4,18.9-18.9,18.9h-78.5
				c-10.4,0-18.9-8.4-18.9-18.9v-50.3C1679.4,580.7,1687.8,572.2,1698.2,572.2z"/>
			<polygon class="st11" points="1737.5,677 1757.4,648.5 1737.5,620 1717.5,648.5 			"/>
		</g>
		<ellipse class="st0" cx="1737.5" cy="615" rx="23" ry="17"/>
		<polygon class="st0" points="1737.4,625.1 1721.3,636.6 1723.9,621 		"/>
		<path class="st11" d="M1743.7,615.2c0,1.7,1.4,3.2,3.2,3.2s3.2-1.4,3.2-3.2s-1.4-3.2-3.2-3.2S1743.7,613.5,1743.7,615.2z"/>
		<path class="st11" d="M1734.3,615.2c0,1.7,1.4,3.2,3.2,3.2s3.2-1.4,3.2-3.2s-1.4-3.2-3.2-3.2S1734.3,613.5,1734.3,615.2z"/>
		<path class="st11" d="M1724.8,615.2c0,1.7,1.4,3.2,3.2,3.2s3.2-1.4,3.2-3.2s-1.4-3.2-3.2-3.2S1724.8,613.5,1724.8,615.2z"/>
	</g>
	<g>
		<path class="st12" d="M807.5,203.9h444c21.2,0,38.4,17.2,38.4,38.4l0,0c0,21.2-17.2,38.4-38.4,38.4h-444
			c-21.2,0-38.4-17.2-38.4-38.4l0,0C769,221.1,786.2,203.9,807.5,203.9z"/>
		<g>
			<path class="st0" d="M802.5,229.9h17.8v4.5H807v17.8h13.4v4.5h-17.8v-26.8H802.5z M820.3,234.4h4.5v17.8h-4.5V234.4z"/>
			<path class="st0" d="M829.3,229.9h22.3v4.5h-17.8v4.5h13.4v4.5h-13.4v8.9h17.8v4.5h-22.3V229.9L829.3,229.9z"/>
			<path class="st0" d="M856,234.4h4.5v13.4h13.4v-13.4h4.5v22.3h-4.5v-4.5h-13.4v4.5H856V234.4L856,234.4z M860.5,229.9h13.4v4.5
				h-13.4V229.9z"/>
			<path class="st0" d="M882.8,229.9h17.8v4.5h-13.4v17.8h13.4v4.5h-17.8V229.9z M900.6,234.4h4.5v17.8h-4.5V234.4z"/>
			<path class="st0" d="M909.5,229.9h4.5v22.3h17.8v4.5h-22.3V229.9L909.5,229.9z"/>
			<path class="st0" d="M936.3,229.9h4.5v26.8h-4.5V229.9z"/>
			<path class="st0" d="M945.2,229.9h4.5v4.5h4.5v4.5h-4.5v17.8h-4.5V229.9L945.2,229.9z M954.1,238.8h4.5v4.5h-4.5V238.8z
				 M958.6,243.3h4.5v-13.4h4.5v26.8h-4.5v-8.9h-4.5V243.3L958.6,243.3z"/>
			<path class="st0" d="M972,229.9h22.3v4.5h-17.8v4.5h13.4v4.5h-13.4v8.9h17.8v4.5H972V229.9L972,229.9z"/>
		</g>
		<g>
			<path class="st11" d="M1034.1,239.8c-2.5,0-4.5,2-4.5,4.5s2,4.5,4.5,4.5h36.1v-9H1034.1L1034.1,239.8z"/>
			<path class="st13" d="M1258.5,244.3c0-2.5-2-4.5-4.5-4.5h-183.8v9H1254C1256.5,248.8,1258.5,246.8,1258.5,244.3L1258.5,244.3z"/>
		</g>
	</g>
	<g>
		<rect x="1479.7" y="708.1" class="st0" width="142.7" height="93.2"/>
		<path class="st2" d="M1552.6,761.3c-9,0-18.5-4-29-12.1c-11.8-9.1-44.3-40-44.6-40.3l1.5-1.5c0.3,0.3,32.7,31.2,44.4,40.2
			c20,15.4,36.1,15.4,52.3,0.1c10.8-10.2,44.2-40,44.5-40.3l1.4,1.6c-0.3,0.3-33.7,30-44.5,40.2
			C1570.1,757.2,1561.6,761.3,1552.6,761.3L1552.6,761.3z"/>
		<circle class="st11" cx="1621.5" cy="708.7" r="28.5"/>
		
			<rect x="1591.1" y="743" transform="matrix(0.5771 -0.8166 0.8166 0.5771 36.2302 1630.1029)" class="st2" width="2.1" height="74.1"/>
		
			<rect x="1472.8" y="778.7" transform="matrix(0.8164 -0.5774 0.5774 0.8164 -173.0193 1015.2287)" class="st2" width="75" height="2.1"/>
	</g>
	<g>
		<g>
			<path class="st12" d="M1501,243.6c-20.2,0-36.6-16.4-36.6-36.6s16.4-36.6,36.6-36.6s36.6,16.4,36.6,36.6S1521.2,243.6,1501,243.6
				z M1501,173c-18.7,0-34,15.2-34,34s15.2,34,34,34s34-15.2,34-34S1519.7,173,1501,173z"/>
			<rect x="1483.4" y="194.9" class="st12" width="26.9" height="24.3"/>
			<polygon class="st12" points="1520.1,218 1510.3,210 1510.3,204 1520.1,196 			"/>
		</g>
		<g>
			<path class="st0" d="M1833.8,384H1531V263h302.8V384z M1533.7,381.3h297.4V265.7h-297.4V381.3L1533.7,381.3z"/>
			<g>
				<rect x="1599.3" y="286.8" class="st0" width="93.4" height="9.9"/>
				<rect x="1676.6" y="306.5" class="st0" width="61.8" height="9.9"/>
				<rect x="1629.8" y="306.5" class="st0" width="42.2" height="9.9"/>
				<rect x="1629.8" y="326.1" class="st0" width="139.1" height="9.9"/>
				<rect x="1629.8" y="345.8" class="st0" width="73.7" height="9.9"/>
			</g>
		</g>
		<g>
			<path class="st12" d="M1755.6,459.7c-26,0-47.1-21.1-47.1-47.1s21.2-47.1,47.1-47.1s47.1,21.1,47.1,47.1
				S1781.6,459.7,1755.6,459.7z M1755.6,368.6c-24.2,0-43.9,19.7-43.9,44s19.7,44,43.9,44s43.9-19.7,43.9-44
				S1779.8,368.6,1755.6,368.6z"/>
			<path class="st12" d="M1764.3,409.4c0,4.8-3.9,8.6-8.7,8.6l0,0c-4.8,0-8.7-3.9-8.7-8.6v-18.3c0-4.8,3.9-8.6,8.7-8.6l0,0
				c4.8,0,8.7,3.9,8.7,8.6V409.4z"/>
			<path class="st12" d="M1755.6,428.4c-10.3,0-18.7-8.4-18.7-18.7h5.7c0,7.2,5.8,13,13,13s13-5.8,13-13h5.7
				C1774.3,420,1765.9,428.4,1755.6,428.4z"/>
			<rect x="1752.8" y="425.6" class="st12" width="5.7" height="17.1"/>
		</g>
		<g>
			<circle class="st14" cx="1406.4" cy="299.2" r="73.9"/>
			<g>
				<g>
					<polygon class="st15" points="1386.9,331.8 1396.9,326.5 1417.8,326.2 1429,332 1404.5,352 					"/>
					<path class="st15" d="M1418.8,331.1c0,4.2-7.8,8.3-11.7,8.3c-3.9,0-11.7-4.1-11.7-8.3c0.3-6.3,1.2-26.1,1.2-26.1h20.9
						C1417.6,305,1418.8,324,1418.8,331.1L1418.8,331.1z"/>
					<path class="st16" d="M1397.4,311.9c0,0,2.7,9.9,9.6,10.2c6.9,0.3,9.8-10.2,9.8-10.2l-9.6-2L1397.4,311.9L1397.4,311.9z"/>
				</g>
				<path class="st12" d="M1458.7,351.4c-0.1-0.2-0.2-0.4-0.3-0.5c-3.5-5.7-30.4-20-34.5-21.9c-5,18.8-26.4,17.6-33.4,0.3
					c-4.2,1.9-31.5,16.8-35.1,22.5c-0.1,0.1-0.2,0.3-0.3,0.5c13.3,12.9,31.4,20.8,51.3,20.8S1445.3,364.8,1458.7,351.4L1458.7,351.4
					z"/>
				<g>
					<g id="head">
						<g id="head-2">
							<path class="st16" d="M1389.8,285.6c0,0-2.3-1.5-4.2,0.9c-1.8,2.4-0.6,11.5,3.9,11.5S1389.8,285.6,1389.8,285.6L1389.8,285.6
								z"/>
							<path class="st16" d="M1425,285.6c0,0,2.3-1.5,4.2,0.9c1.8,2.4,0.6,11.5-3.9,11.5S1425,285.6,1425,285.6L1425,285.6z"/>
							<path class="st15" d="M1425.7,283.1c0-10.2-8.2-16.9-18.4-16.9s-18.4,6.7-18.4,16.9c0,0,0.1,13,0.1,13.6c0,4.7,2.3,11,6,15.3
								c2.9,3.4,6,6.6,9.2,7.5c1.1,0.3,5.3,0.3,6.4,0c3.3-1,6.3-4.4,9.1-7.9c3.7-4.7,6-11.1,6-14.8
								C1425.6,296.1,1425.7,283.1,1425.7,283.1L1425.7,283.1z"/>
						</g>
						<g id="face">
							<g id="eyebrows">
								<path class="st12" d="M1411.1,283.4c0,0,7.6-0.8,9-0.6c2.4,0.2,3,1.8,3.3,2.7c0.1,0.3-9.9,1.3-11.3,0.8
									C1410.7,285.7,1411.1,283.4,1411.1,283.4L1411.1,283.4z"/>
								<path class="st12" d="M1403.6,283.4c0,0-7.6-0.8-9-0.6c-2.4,0.2-3,1.8-3.3,2.7c-0.1,0.3,9.9,1.3,11.3,0.8
									C1404,285.7,1403.6,283.4,1403.6,283.4L1403.6,283.4z"/>
							</g>
							<g>
								<path class="st17" d="M1409.5,302.7c0.7,0,1.4,1,1.4,1l-2.7,0.2C1408.7,303.2,1408.9,302.7,1409.5,302.7z"/>
								<path class="st17" d="M1405.6,302.7c-0.7,0-1.4,1-1.4,1l2.7,0.2C1406.5,303.2,1406.3,302.7,1405.6,302.7z"/>
								<path class="st17" d="M1405.5,298.5c0.5-4.7,0-10,0-10.1l-1.1,0.1c0,0,0.5,5.3,0,9.9L1405.5,298.5L1405.5,298.5z"/>
							</g>
							<g>
								<path class="st17" d="M1402.9,308.5c-0.7,0-1.5-0.2-2.4-0.8c-0.2-0.2-0.3-0.5-0.2-0.8c0.2-0.2,0.5-0.3,0.8-0.1
									c1.3,0.9,2.5,0.5,3.5,0.2c0.5-0.2,1-0.3,1.4-0.2c0.6,0.1,1.1,0.2,1.7,0.2c0.7,0,1.1-0.1,1.6-0.2s1,0,1.6,0.2
									c1,0.3,2.1,0.6,3.4-0.2c0.2-0.2,0.6-0.1,0.8,0.1c0.2,0.2,0.1,0.6-0.2,0.8c-1.7,1.2-3.3,0.7-4.3,0.4c-0.4-0.1-0.8-0.2-1-0.2
									c-0.6,0.1-1,0.2-1.8,0.2s-1.3-0.1-2-0.2c-0.2,0-0.5,0.1-0.9,0.2C1404.4,308.2,1403.7,308.4,1402.9,308.5L1402.9,308.5z"/>
								<path class="st17" d="M1407.8,311.5c-1.9,0-3.3-0.7-3.4-0.7c-0.3-0.1-0.4-0.5-0.2-0.7c0.1-0.3,0.5-0.4,0.7-0.2
									c0.1,0,2.9,1.4,5.6,0c0.3-0.1,0.6,0,0.7,0.2c0.1,0.3,0,0.6-0.2,0.7C1409.9,311.3,1408.8,311.5,1407.8,311.5L1407.8,311.5z"
									/>
							</g>
						</g>
					</g>
					<g>
						<g>
							<g id="face-2">
								<path class="st12" d="M1400.6,291.2c-0.2,1.6-1,2.9-2.4,3s-2.6-1.2-2.6-2.8s0.7-0.4,2.1-0.4S1400.7,290.4,1400.6,291.2z"/>
							</g>
							<path class="st12" d="M1401.9,292.1c-3.3-1.2-5.1-1.2-7.2-1.1c-0.5,0-1.1,0-1.7,0v-0.9c0.6,0,1.1,0,1.6,0
								c2.2,0,4-0.1,7.5,1.2L1401.9,292.1L1401.9,292.1z"/>
						</g>
						<g>
							<g id="face-3">
								<path class="st12" d="M1414,291.2c0.2,1.6,1,2.9,2.4,3s2.6-1.2,2.6-2.8c0.1-1.6-0.7-0.4-2.1-0.4S1414,290.4,1414,291.2z"/>
							</g>
							<path class="st12" d="M1412.7,292.1l-0.3-0.8c3.5-1.3,5.3-1.2,7.5-1.2c0.5,0,1.1,0,1.7,0v0.9c-0.6,0-1.1,0-1.7,0
								C1417.7,290.9,1416.1,290.9,1412.7,292.1L1412.7,292.1z"/>
						</g>
					</g>
					<path class="st12" d="M1408.4,271.9c0,0-2.5-3.3-6.9,1c-3.2,3.2-11.3,20.4-11.3,20.4s-10-16.5-6.5-26.4
						c3.9-11.4,13.7-16,23.8-13c0,0,16.9-6.1,23.6,12.3c4.3,11.9-6.6,26.2-6.6,26.2s-6.3-13.2-7.4-16.5
						C1414.9,269.5,1409.2,268.8,1408.4,271.9L1408.4,271.9z"/>
				</g>
			</g>
		</g>
		<circle class="st14" cx="1875" cy="494.5" r="73.9"/>
		<g>
			<polygon class="st12" points="1853.7,468.7 1845.9,498.2 1852.8,543.4 1897.3,530 1900.2,498.4 1894.7,460.9 1881.7,450.5 			"/>
			<g>
				<g>
					<g>
						<g>
							<path class="st12" d="M1899.1,561.8v-0.2c0.1-0.8-0.2-1.5-0.7-2c0.6-0.4,1-1,1-1.8v-0.2c0.1-0.8-0.2-1.5-0.7-2
								c0.6-0.4,1-1.1,1-1.8v-0.2c0.1-0.8-0.2-1.5-0.7-2c0.6-0.4,0.9-1.1,1-1.8v-0.2c0.1-0.8-0.2-1.5-0.7-2c0.6-0.4,0.9-1.1,1-1.8
								v-0.2c0.1-0.8-0.2-1.5-0.7-2c0.6-0.4,0.9-1.1,1-1.8v-0.2c0.1-0.8-0.2-1.5-0.7-2c0.6-0.4,0.9-1.1,1-1.8v-0.2
								c0.1-0.8-0.2-1.5-0.7-2c0.6-0.4,0.9-1.1,1-1.9v-0.2c0.1-0.8-0.2-1.5-0.8-2c0.6-0.4,0.9-1.1,0.9-1.9v-0.2
								c0-0.8-0.3-1.5-0.8-1.9c0.6-0.4,0.9-1.1,0.9-1.9v-0.2c0-0.8-0.3-1.5-0.8-1.9c0.5-0.5,0.9-1.1,0.9-1.9v-0.2
								c0-0.8-0.3-1.4-0.8-1.9c0.5-0.5,0.9-1.1,0.9-1.9V517c0-0.8-0.3-1.4-0.8-1.9c0.5-0.5,0.9-1.1,0.9-1.9V513
								c0-0.8-0.3-1.4-0.9-1.9c0.5-0.5,0.8-1.2,0.8-1.9V509c0-0.8-0.4-1.4-0.9-1.9c0.5-0.5,0.8-1.2,0.8-1.9V505
								c0-0.8-0.4-1.4-0.9-1.9c0.5-0.5,0.8-1.2,0.8-2v-0.2c-0.1-0.8-0.4-1.4-1-1.9c0.5-0.5,0.8-1.2,0.7-2v-0.2
								c-0.1-0.8-0.4-1.4-1-1.8c0.5-0.5,0.8-1.2,0.7-2v-0.2c-0.1-0.8-0.5-1.4-1.1-1.8c0.5-0.5,0.7-1.2,0.6-2v-0.2
								c-0.1-0.8-0.5-1.4-1.1-1.8c0.5-0.5,0.7-1.3,0.6-2v-0.2c-0.1-0.8-0.6-1.4-1.2-1.8c0.4-0.6,0.7-1.3,0.5-2.1l-0.1-0.2
								c-0.2-0.8-0.6-1.4-1.3-1.7c0.4-0.6,0.6-1.4,0.4-2.1c0-0.1,0-0.2-0.1-0.2c-0.2-0.8-0.7-1.3-1.4-1.6c0.4-0.6,0.5-1.4,0.2-2.1
								c0-0.1-0.1-0.2-0.1-0.2c-0.3-0.8-0.8-1.3-1.5-1.5c0.3-0.7,0.4-1.5,0-2.2c0-0.1-0.1-0.2-0.1-0.2c-0.3-0.7-1-1.2-1.7-1.4
								c0.2-0.7,0.2-1.5-0.3-2.2c-0.1-0.1-0.1-0.1-0.2-0.2c-0.5-0.7-1.2-1.1-2-1.1c0.1-0.8-0.2-1.6-0.8-2.2
								c-0.1-0.1-0.1-0.1-0.2-0.2c-0.6-0.5-1.3-0.7-2.1-0.6c0-0.7-0.3-1.5-1-1.9c-0.1,0-0.1-0.1-0.2-0.2c-0.6-0.5-1.4-0.6-2.1-0.5
								c-0.1-0.7-0.5-1.4-1.2-1.9c-0.1,0-0.2-0.1-0.2-0.1c-0.7-0.4-1.5-0.5-2.2-0.2c-0.2-0.7-0.7-1.4-1.5-1.7
								c-0.1,0-0.2-0.1-0.2-0.1c-0.8-0.3-1.7-0.2-2.3,0.3c-0.4-0.7-1.1-1.2-1.9-1.4c-0.1,0-0.2,0-0.3,0c-0.9-0.1-1.7,0.3-2.2,1
								c-0.6-0.6-1.5-0.9-2.4-0.6c-0.1,0-0.2,0.1-0.3,0.1c-0.9,0.3-1.6,1-1.7,1.9c-0.9-0.3-1.9-0.1-2.6,0.6
								c-0.2,0.2-0.3,0.3-0.3,0.4l3.9,3.2l0,0l0,0c0.3-0.4,0.6-0.8,0.7-1.2c0.5,0.1,1,0.2,1.5,0c0.1,0,0.1,0,0.2,0
								c0.6-0.1,1-0.5,1.3-0.9c0.4,0.4,0.9,0.6,1.5,0.7c0.1,0,0.1,0,0.2,0c0.6,0.1,1.2-0.1,1.7-0.4c0.3,0.5,0.7,1,1.3,1.2
								c0.1,0,0.1,0,0.2,0.1c0.6,0.2,1.3,0.2,1.9,0c0.2,0.6,0.6,1.2,1.1,1.5c0.1,0,0.1,0.1,0.2,0.1c0.6,0.4,1.3,0.5,1.9,0.3
								c0.1,0.6,0.4,1.3,1,1.7c0.1,0,0.1,0.1,0.2,0.1c0.6,0.4,1.3,0.6,1.9,0.5c0,0.7,0.3,1.3,0.8,1.8c0.1,0,0.1,0.1,0.2,0.1
								c0.5,0.4,1.1,0.7,1.7,0.7c-0.1,0.6,0.1,1.2,0.4,1.8c0,0.1,0.1,0.1,0.1,0.2c0.4,0.6,0.9,0.9,1.6,1.1c-0.2,0.6-0.2,1.3,0.1,1.9
								c0,0.1,0.1,0.1,0.1,0.2c0.3,0.6,0.8,1.1,1.4,1.3c-0.3,0.6-0.4,1.3-0.1,2c0,0.1,0.1,0.1,0.1,0.2c0.2,0.7,0.7,1.2,1.3,1.5
								c-0.3,0.6-0.5,1.3-0.3,2c0,0.1,0,0.1,0.1,0.2c0.2,0.7,0.7,1.3,1.2,1.6c-0.4,0.5-0.6,1.3-0.4,2l0.1,0.2
								c0.2,0.7,0.6,1.3,1.2,1.7c-0.4,0.5-0.6,1.2-0.5,2v0.2c0.1,0.7,0.5,1.3,1.1,1.7c-0.4,0.5-0.7,1.2-0.6,2v0.2
								c0.1,0.7,0.5,1.4,1.1,1.8c-0.5,0.5-0.7,1.2-0.7,1.9v0.2c0.1,0.7,0.4,1.4,1,1.8c-0.5,0.5-0.8,1.2-0.7,1.9v0.2
								c0.1,0.7,0.4,1.4,1,1.8c-0.5,0.5-0.8,1.2-0.7,1.9v0.2c0.1,0.8,0.4,1.4,0.9,1.8c-0.5,0.5-0.8,1.2-0.8,1.9v0.2
								c0,0.8,0.4,1.4,0.9,1.9c-0.5,0.5-0.8,1.1-0.8,1.9v0.2c0,0.8,0.3,1.4,0.9,1.9c-0.5,0.5-0.8,1.1-0.8,1.9v0.2
								c0,0.8,0.3,1.4,0.8,1.9c-0.5,0.5-0.9,1.1-0.9,1.9v0.2c0,0.8,0.3,1.4,0.8,1.9c-0.5,0.5-0.9,1.1-0.9,1.9v0.2
								c0,0.8,0.3,1.4,0.8,1.9c-0.5,0.4-0.9,1.1-0.9,1.9v0.2c0,0.8,0.3,1.4,0.8,1.9c-0.5,0.4-0.9,1.1-0.9,1.8v0.2
								c0,0.8,0.3,1.4,0.8,1.9c-0.6,0.4-0.9,1.1-0.9,1.8v0.2c-0.1,0.8,0.2,1.4,0.7,1.9c-0.6,0.4-0.9,1.1-1,1.8v0.2
								c-0.1,0.8,0.2,1.4,0.7,1.9c-0.6,0.4-0.9,1.1-1,1.8v0.2c-0.1,0.8,0.2,1.5,0.7,1.9c-0.6,0.4-0.9,1.1-1,1.8v0.2
								c-0.1,0.8,0.2,1.5,0.7,2c-0.6,0.4-0.9,1.1-1,1.8v0.2c-0.1,0.8,0.2,1.5,0.7,2c-0.6,0.4-0.9,1.1-1,1.8v0.2
								c-0.1,0.8,0.2,1.5,0.7,2c-0.6,0.4-1,1-1,1.8v0.2c-0.1,0.8,0.2,1.5,0.7,2c-0.6,0.4-1,1-1,1.8v0.2c-0.1,0.8,0.2,1.5,0.7,2
								C1894.2,563.6,1899.1,562.5,1899.1,561.8L1899.1,561.8z"/>
							<path class="st12" d="M1901.2,558.9c0.5-0.5,0.9-1.1,0.9-1.9v-0.2c0-0.8-0.3-1.4-0.8-1.9c0.5-0.5,0.9-1.1,0.9-1.9v-0.2
								c0-0.8-0.3-1.4-0.8-1.9c0.5-0.5,0.9-1.1,0.9-1.9v-0.2c0-0.8-0.3-1.4-0.8-1.9c0.5-0.5,0.9-1.1,0.9-1.9v-0.2
								c0-0.8-0.3-1.4-0.8-1.9c0.5-0.5,0.9-1.1,0.9-1.9v-0.2c0-0.8-0.3-1.4-0.8-1.9c0.5-0.5,0.9-1.1,0.9-1.9v-0.2
								c0-0.8-0.3-1.4-0.8-1.9c0.5-0.4,0.9-1.1,0.9-1.9v-0.2c0-0.8-0.3-1.4-0.8-1.9c0.5-0.4,0.9-1.1,0.9-1.9v-0.2
								c0-0.8-0.3-1.4-0.8-1.9c0.5-0.4,0.9-1.1,0.9-1.8v-0.2c0-0.8-0.3-1.4-0.8-1.9c0.5-0.4,0.9-1.1,0.9-1.8V521
								c0-0.8-0.3-1.4-0.8-1.9c0.5-0.4,0.9-1.1,0.9-1.8v-0.2c0.1-0.8-0.2-1.4-0.8-1.9c0.6-0.4,0.9-1.1,0.9-1.8v-0.2
								c0-0.8-0.3-1.5-0.8-1.9c0.5-0.5,0.9-1.1,0.9-1.9v-0.2c0-0.8-0.3-1.5-0.8-1.9c0.5-0.5,0.9-1.1,0.9-1.9v-0.2
								c0-0.8-0.3-1.5-0.8-1.9c0.5-0.5,0.9-1.2,0.8-1.9v-0.2c0-0.8-0.4-1.4-0.9-1.9c0.5-0.5,0.8-1.2,0.8-1.9v-0.2
								c0-0.8-0.4-1.4-1-1.9c0.5-0.5,0.8-1.2,0.8-2v-0.2c-0.1-0.8-0.4-1.4-1-1.9c0.5-0.5,0.8-1.2,0.7-2V489
								c-0.1-0.8-0.5-1.4-1.1-1.8c0.5-0.5,0.7-1.3,0.6-2V485c-0.1-0.8-0.6-1.4-1.2-1.8c0.4-0.6,0.6-1.3,0.5-2.1l-0.1-0.2
								c-0.2-0.8-0.7-1.4-1.3-1.7c0.4-0.6,0.6-1.4,0.3-2.1c0-0.1-0.1-0.2-0.1-0.2c-0.2-0.8-0.8-1.3-1.5-1.6c0.4-0.6,0.4-1.4,0.1-2.2
								c0-0.1-0.1-0.2-0.1-0.2c-0.3-0.7-0.9-1.3-1.7-1.5c0.3-0.7,0.3-1.5-0.1-2.2c0-0.1-0.1-0.1-0.1-0.2c-0.4-0.7-1.1-1.1-1.8-1.2
								c0.2-0.7,0.1-1.5-0.4-2.2c-0.1-0.1-0.1-0.1-0.2-0.2c-0.5-0.6-1.2-1-2-1l0,0c0.1-0.8-0.2-1.5-0.8-2.1
								c-0.1-0.1-0.1-0.1-0.2-0.2c-0.6-0.5-1.4-0.8-2.1-0.6c0-0.8-0.4-1.5-1.1-1.9c-0.1,0-0.2-0.1-0.2-0.1c-0.7-0.5-1.5-0.5-2.2-0.3
								c-0.1-0.7-0.6-1.4-1.3-1.8c-0.1,0-0.2-0.1-0.2-0.1c-0.7-0.4-1.5-0.4-2.2-0.1c-0.2-0.7-0.7-1.3-1.4-1.6
								c-0.1,0-0.2-0.1-0.2-0.1c-0.8-0.3-1.6-0.2-2.2,0.1c-0.3-0.7-0.9-1.3-1.7-1.5c-0.1,0-0.2,0-0.3-0.1c-0.9-0.2-1.8,0.1-2.4,0.7
								c-0.6-0.8-1.7-1.1-2.6-0.8c-0.1,0-0.3,0.1-0.4,0.1c-1.2,0.5-1.9,1.8-1.6,3c-1.1,0.4-1.9,1.5-1.7,2.7c0,0.2,0.1,0.4,0.1,0.5
								l4.9-1.1l0,0l0,0c0-0.1,0-0.2-0.1-0.4h0.1c0,0,0,0,0.1,0c0.4-0.1,0.8-0.4,1.1-0.7c0.3,0.4,0.8,0.7,1.4,0.8c0.1,0,0.1,0,0.2,0
								c0.7,0.2,1.3,0.1,1.9-0.2c0.2,0.6,0.7,1.1,1.4,1.4c0.1,0,0.1,0.1,0.2,0.1c0.7,0.3,1.4,0.2,2,0c0.2,0.6,0.6,1.2,1.2,1.5
								c0.1,0,0.1,0.1,0.2,0.1c0.6,0.3,1.3,0.4,1.9,0.2c0.1,0.6,0.5,1.2,1.1,1.6c0.1,0,0.1,0.1,0.2,0.1c0.6,0.4,1.2,0.5,1.9,0.4
								c0,0.6,0.3,1.3,0.8,1.7c0.1,0,0.1,0.1,0.2,0.1c0.5,0.5,1.1,0.7,1.8,0.7c-0.1,0.6,0.1,1.3,0.5,1.8c0.1,0.1,0.1,0.1,0.1,0.2
								c0.4,0.5,1,0.9,1.7,1c-0.2,0.6-0.1,1.3,0.2,1.9c0,0.1,0.1,0.1,0.1,0.2c0.3,0.6,0.9,1,1.5,1.2c-0.2,0.6-0.3,1.3,0,1.9
								c0,0.1,0.1,0.1,0.1,0.2c0.3,0.6,0.8,1.1,1.4,1.4c-0.3,0.6-0.4,1.3-0.2,2c0,0.1,0,0.1,0.1,0.2c0.2,0.7,0.7,1.2,1.3,1.5
								c-0.4,0.5-0.5,1.2-0.4,2l0.1,0.2c0.2,0.7,0.6,1.3,1.2,1.6c-0.4,0.5-0.6,1.2-0.5,2v0.2c0.1,0.7,0.5,1.3,1.1,1.7
								c-0.4,0.5-0.7,1.2-0.6,1.9v0.2c0.1,0.7,0.5,1.4,1,1.8c-0.5,0.5-0.7,1.2-0.7,1.9v0.2c0.1,0.7,0.4,1.4,0.9,1.8
								c-0.5,0.5-0.8,1.2-0.8,1.9v0.2c0,0.7,0.4,1.4,0.9,1.8c-0.5,0.5-0.8,1.1-0.8,1.9v0.2c0,0.7,0.3,1.4,0.9,1.9
								c-0.5,0.5-0.8,1.1-0.8,1.9v0.2c0,0.8,0.3,1.4,0.8,1.9c-0.5,0.5-0.9,1.1-0.9,1.9v0.2c0,0.8,0.3,1.4,0.8,1.9
								c-0.5,0.4-0.9,1.1-0.9,1.8v0.2c0,0.8,0.2,1.4,0.8,1.9c-0.5,0.4-0.9,1.1-0.9,1.8v0.2c-0.1,0.8,0.2,1.5,0.8,1.9
								c-0.5,0.4-0.9,1.1-0.9,1.9v0.2c0,0.8,0.3,1.4,0.8,1.9c-0.5,0.4-0.9,1.1-0.9,1.9v0.2c0,0.8,0.3,1.5,0.8,1.9
								c-0.5,0.4-0.9,1.1-0.9,1.9v0.2c0,0.8,0.3,1.5,0.8,1.9c-0.5,0.4-0.9,1.1-0.9,1.9v0.2c0,0.8,0.3,1.4,0.8,1.9
								c-0.5,0.5-0.9,1.1-0.9,1.9v0.2c0,0.8,0.3,1.4,0.8,1.9c-0.5,0.5-0.9,1.1-0.9,1.9v0.2c0,0.8,0.3,1.4,0.8,1.9
								c-0.5,0.5-0.9,1.1-0.9,1.9v0.2c0,0.8,0.3,1.4,0.8,1.9c-0.5,0.5-0.9,1.1-0.9,1.9v0.2c0,0.8,0.3,1.4,0.8,1.9
								c-0.5,0.5-0.9,1.1-0.9,1.9v0.2c0,0.8,0.3,1.4,0.8,1.9c-0.5,0.5-0.9,1.1-0.9,1.9v0.2C1897.1,557.6,1901.8,559.3,1901.2,558.9
								L1901.2,558.9z"/>
							<path class="st12" d="M1908.6,556.9c0.5-0.5,0.9-1.1,0.9-1.9v-0.2c0-0.8-0.3-1.4-0.8-1.9c0.5-0.5,0.9-1.1,0.9-1.9v-0.2
								c0-0.8-0.3-1.4-0.8-1.9c0.5-0.5,0.9-1.1,0.9-1.9v-0.2c0-0.8-0.3-1.4-0.9-1.9c0.5-0.5,0.8-1.1,0.8-1.9v-0.2
								c0-0.8-0.3-1.4-0.9-1.9c0.5-0.5,0.8-1.2,0.8-1.9v-0.2c0-0.8-0.3-1.4-0.9-1.9c0.5-0.5,0.8-1.2,0.8-1.9v-0.2
								c0-0.8-0.4-1.4-0.9-1.9c0.5-0.5,0.8-1.2,0.8-1.9v-0.2c0-0.8-0.4-1.4-0.9-1.9c0.5-0.5,0.8-1.2,0.8-1.9v-0.2
								c0-0.8-0.4-1.4-0.9-1.9c0.5-0.5,0.8-1.2,0.8-1.9v-0.2c0-0.8-0.4-1.4-0.9-1.9c0.5-0.5,0.8-1.2,0.8-1.9v-0.2
								c-0.1-0.8-0.4-1.4-1-1.8c0.5-0.5,0.8-1.2,0.8-2v-0.2c-0.1-0.8-0.4-1.4-1-1.8c0.5-0.5,0.8-1.2,0.7-2v-0.2
								c-0.1-0.8-0.4-1.4-1-1.8c0.5-0.5,0.8-1.2,0.7-2v-0.2c-0.1-0.8-0.4-1.4-1-1.8c0.5-0.5,0.8-1.2,0.7-2v-0.2
								c-0.1-0.8-0.5-1.4-1.1-1.8c0.5-0.5,0.7-1.2,0.7-2v-0.2c-0.1-0.8-0.5-1.4-1.1-1.8c0.5-0.5,0.7-1.2,0.6-2v-0.2
								c-0.1-0.8-0.5-1.4-1.1-1.8c0.5-0.5,0.7-1.3,0.6-2v-0.2c-0.1-0.8-0.6-1.4-1.2-1.8c0.4-0.5,0.7-1.3,0.5-2v-0.2
								c-0.1-0.8-0.6-1.4-1.2-1.7c0.4-0.6,0.6-1.3,0.5-2l-0.1-0.2c-0.2-0.8-0.6-1.4-1.2-1.7c0.4-0.6,0.6-1.3,0.4-2.1l-0.1-0.2
								c-0.2-0.8-0.7-1.3-1.3-1.7c0.4-0.6,0.6-1.4,0.3-2.1l-0.1-0.2c-0.2-0.8-0.8-1.3-1.4-1.6c0.4-0.6,0.5-1.4,0.2-2.1l-0.1-0.2
								c-0.3-0.7-0.8-1.3-1.5-1.5c0.3-0.6,0.4-1.5,0.1-2.2c0-0.1-0.1-0.2-0.1-0.2c-0.3-0.7-1-1.2-1.7-1.4c0.3-0.7,0.2-1.5-0.2-2.2
								c-0.1-0.1-0.1-0.1-0.1-0.2c-0.4-0.7-1.2-1.1-1.9-1.2c0.2-0.7,0-1.5-0.5-2.1l-0.2-0.2c-0.5-0.6-1.2-0.9-1.9-0.9l0,0
								c0.1-0.7-0.2-1.5-0.7-2c-0.1-0.1-0.1-0.1-0.2-0.2c-0.6-0.6-1.3-0.8-2.1-0.7c0-0.8-0.3-1.5-1-2c-0.1,0-0.1-0.1-0.2-0.2
								c-0.7-0.5-1.5-0.6-2.2-0.4c-0.1-0.8-0.6-1.5-1.3-1.8c-0.1,0-0.2-0.1-0.2-0.1c-0.7-0.4-1.6-0.4-2.3,0
								c-0.3-0.7-0.9-1.4-1.7-1.6c-0.1,0-0.2,0-0.3-0.1c-0.8-0.2-1.7,0-2.3,0.5c-0.4-0.7-1.2-1.1-2-1.2c-0.1,0-0.2,0-0.3,0
								c-0.9,0-1.6,0.4-2.1,1c-0.6-0.5-1.4-0.8-2.3-0.6c-0.1,0-0.2,0-0.3,0.1c-0.8,0.2-1.5,0.8-1.8,1.5c-0.7-0.4-1.6-0.4-2.3-0.1
								c-0.1,0-0.2,0.1-0.2,0.1c-0.8,0.4-1.2,1.1-1.4,1.8c-0.7-0.2-1.6-0.1-2.2,0.4c-0.1,0.1-0.2,0.1-0.2,0.2c-0.7,0.5-1,1.3-1,2
								c-0.8-0.1-1.6,0.2-2.2,0.8c-0.2,0.2-0.2,0.3-0.2,0.3c-0.9,1.1-0.7,2.7,0.4,3.5c1.1,0.9,2.7,0.7,3.5-0.4c0,0,0.1,0,0.1-0.1
								c0.4-0.5,0.6-1.1,0.6-1.7c0.6,0.1,1.3-0.1,1.8-0.5c0.1,0,0.1-0.1,0.2-0.1c0.5-0.4,0.9-1,1-1.6c0.6,0.2,1.2,0.1,1.8-0.2
								c0.1,0,0.1-0.1,0.2-0.1c0.6-0.3,1-0.8,1.2-1.3c0.5,0.3,1.2,0.4,1.8,0.2c0.1,0,0.1,0,0.2,0c0.6-0.1,1.2-0.5,1.5-1
								c0.4,0.4,1,0.6,1.7,0.7c0.1,0,0.1,0,0.2,0c0.6,0,1.2-0.2,1.7-0.6c0.3,0.5,0.8,0.9,1.4,1.1c0.1,0,0.1,0,0.2,0.1
								c0.6,0.2,1.3,0.1,1.8-0.2c0.2,0.6,0.6,1.1,1.2,1.4c0.1,0,0.1,0.1,0.2,0.1c0.6,0.3,1.3,0.4,1.9,0.2c0.1,0.6,0.4,1.2,1,1.6
								c0.1,0,0.1,0.1,0.2,0.1c0.6,0.4,1.2,0.6,1.9,0.5c0,0.6,0.3,1.3,0.8,1.8c0.1,0,0.1,0.1,0.2,0.2c0.5,0.5,1.2,0.7,1.8,0.7
								c-0.1,0.7,0.1,1.3,0.6,1.9l0.2,0.2c0.4,0.5,1.1,0.8,1.7,0.9c-0.1,0.6,0,1.3,0.3,1.9c0,0.1,0.1,0.1,0.1,0.2
								c0.4,0.6,0.9,1,1.6,1.1c-0.2,0.6-0.2,1.3,0.1,1.9c0,0.1,0.1,0.1,0.1,0.2c0.3,0.6,0.8,1.1,1.4,1.4c-0.3,0.6-0.4,1.3-0.1,2
								l0.1,0.2c0.2,0.7,0.8,1.2,1.4,1.5c-0.3,0.6-0.5,1.3-0.3,2l0.1,0.2c0.2,0.7,0.7,1.3,1.3,1.6c-0.4,0.6-0.5,1.3-0.4,2l0.1,0.2
								c0.2,0.7,0.6,1.3,1.2,1.6c-0.4,0.5-0.6,1.3-0.4,2l0.1,0.2c0.2,0.7,0.6,1.3,1.2,1.7c-0.4,0.5-0.6,1.2-0.5,2v0.2
								c0.1,0.7,0.6,1.3,1.1,1.7c-0.4,0.5-0.7,1.2-0.6,2v0.2c0.1,0.7,0.5,1.4,1.1,1.7c-0.4,0.5-0.7,1.2-0.6,2v0.2
								c0.1,0.7,0.5,1.4,1.1,1.8c-0.5,0.5-0.7,1.2-0.6,2v0.2c0.1,0.7,0.5,1.4,1,1.8c-0.5,0.5-0.7,1.2-0.7,2v0.2
								c0.1,0.8,0.5,1.4,1,1.8c-0.5,0.5-0.8,1.2-0.7,2v0.2c0.1,0.8,0.4,1.4,1,1.8c-0.5,0.5-0.8,1.2-0.7,1.9v0.2
								c0.1,0.8,0.4,1.4,1,1.8c-0.5,0.5-0.8,1.2-0.7,1.9v0.2c0.1,0.8,0.4,1.4,1,1.8c-0.5,0.5-0.8,1.2-0.8,1.9v0.2
								c0.1,0.8,0.4,1.4,0.9,1.8c-0.5,0.5-0.8,1.2-0.8,1.9v0.2c0,0.8,0.4,1.4,0.9,1.8c-0.5,0.5-0.8,1.2-0.8,1.9v0.2
								c0,0.8,0.4,1.4,0.9,1.9c-0.5,0.5-0.8,1.2-0.8,1.9v0.2c0,0.8,0.4,1.4,0.9,1.9c-0.5,0.5-0.8,1.2-0.8,1.9v0.2
								c0,0.8,0.4,1.4,0.9,1.9c-0.5,0.5-0.8,1.2-0.8,1.9l0,0v0.2c0,0.8,0.3,1.4,0.9,1.9c-0.5,0.5-0.8,1.1-0.8,1.9v0.2
								c0,0.8,0.3,1.4,0.9,1.9c-0.5,0.5-0.8,1.1-0.8,1.9v0.2c0,0.8,0.3,1.4,0.8,1.9c-0.5,0.5-0.9,1.1-0.9,1.9v0.2
								c0,0.8,0.3,1.4,0.8,1.9c-0.5,0.5-0.9,1.1-0.9,1.9v0.2c0,0.8,0.3,1.4,0.8,1.9C1904.7,557.3,1909.1,557.3,1908.6,556.9
								L1908.6,556.9z"/>
						</g>
						<g>
							<path class="st12" d="M1856.9,560.3v-0.2c-0.1-0.8,0.2-1.5,0.7-2c-0.6-0.4-0.9-1.1-1-1.8v-0.2c-0.1-0.8,0.2-1.5,0.7-2
								c-0.6-0.4-0.9-1.1-1-1.8v-0.2c-0.1-0.8,0.2-1.5,0.7-2c-0.6-0.4-0.9-1.1-1-1.8v-0.2c-0.1-0.8,0.2-1.5,0.7-2
								c-0.6-0.4-0.9-1.1-1-1.8v-0.2c-0.1-0.8,0.2-1.5,0.7-1.9c-0.6-0.4-0.9-1.1-1-1.8v-0.2c-0.1-0.8,0.2-1.5,0.7-1.9
								c-0.6-0.4-0.9-1.1-1-1.8v-0.2c-0.1-0.8,0.2-1.5,0.8-1.9c-0.6-0.4-0.9-1.1-0.9-1.9v-0.2c-0.1-0.8,0.2-1.5,0.8-1.9
								c-0.6-0.4-0.9-1.1-0.9-1.9v-0.2c0-0.8,0.3-1.5,0.8-1.9c-0.6-0.4-0.9-1.1-0.9-1.9v-0.2c0-0.8,0.3-1.5,0.8-1.9
								c-0.5-0.5-0.9-1.1-0.9-1.9v-0.2c0-0.8,0.3-1.5,0.8-1.9c-0.5-0.5-0.9-1.1-0.9-1.9v-0.2c0-0.8,0.3-1.4,0.8-1.9
								c-0.5-0.5-0.9-1.1-0.9-1.9v-0.2c0-0.8,0.3-1.5,0.8-1.9c-0.5-0.5-0.9-1.1-0.9-1.9v-0.2c0-0.8,0.3-1.4,0.8-1.9
								c-0.5-0.5-0.9-1.1-0.9-1.9v-0.2c0-0.8,0.3-1.4,0.9-1.9c-0.5-0.5-0.8-1.1-0.8-1.9v-0.2c0-0.8,0.3-1.4,0.9-1.9
								c-0.5-0.5-0.8-1.2-0.8-1.9v-0.2c0-0.8,0.4-1.4,0.9-1.9c-0.5-0.5-0.8-1.2-0.8-1.9v-0.2c0-0.8,0.4-1.4,1-1.9
								c-0.5-0.5-0.8-1.2-0.8-2v-0.2c0.1-0.8,0.4-1.4,1-1.9c-0.5-0.5-0.8-1.2-0.7-2v-0.2c0.1-0.8,0.5-1.4,1.1-1.8
								c-0.5-0.5-0.7-1.3-0.6-2.1c0-0.1,0-0.2,0-0.3c0.1-0.8,0.6-1.4,1.3-1.8c-0.4-0.6-0.6-1.4-0.4-2.2c0-0.1,0.1-0.2,0.1-0.3
								c0.2-0.8,0.8-1.4,1.6-1.6c-0.3-0.6-0.4-1.4,0-2.1l0.1-0.2c0.3-0.7,0.9-1.2,1.6-1.4c-0.3-0.6-0.3-1.4,0.1-2.1l0.1-0.2
								c0.3-0.7,0.9-1.2,1.6-1.3c-0.3-0.7-0.2-1.4,0.1-2.1l0.1-0.2c0.4-0.7,1-1.1,1.7-1.3c-0.2-0.7-0.2-1.5,0.3-2.1l0.1-0.2
								c0.4-0.7,1.1-1.1,1.8-1.2c-0.2-0.7,0-1.5,0.5-2.1c0.1-0.1,0.1-0.1,0.2-0.2c0.5-0.6,1.3-1,2.1-1c-0.1-0.8,0.2-1.6,0.9-2.1
								c0.1-0.1,0.2-0.1,0.2-0.2c0.8-0.6,1.8-0.7,2.6-0.3c0.3-1,1.3-1.7,2.3-1.7h0.1c0.1,0,0.2,0,0.4,0c1.2,0.1,2.1,1,2.3,2.1
								c1-0.2,2.1,0.2,2.7,1.2c0.1,0.2,0.2,0.4,0.2,0.4l-4.6,2.2l0,0l0,0c-0.2-0.3-0.3-0.6-0.3-0.9c-0.2,0-0.4,0.1-0.7,0h-0.1
								c-0.4,0-0.7-0.1-1-0.2c-0.2,0.4-0.4,0.8-0.8,1.1c-0.1,0-0.1,0.1-0.2,0.1c-0.5,0.4-1.1,0.6-1.7,0.6c0.1,0.6-0.1,1.3-0.5,1.8
								c-0.1,0.1-0.1,0.1-0.1,0.2c-0.4,0.5-1.1,0.9-1.7,1c0.2,0.6,0.1,1.3-0.3,1.9l-0.1,0.2c-0.4,0.6-1,1-1.7,1.1
								c0.2,0.6,0.2,1.4-0.2,2l-0.1,0.2c-0.3,0.6-0.9,1.1-1.6,1.2c0.2,0.6,0.2,1.4-0.1,2l-0.1,0.2c-0.3,0.7-0.9,1.1-1.6,1.3
								c0.3,0.6,0.3,1.4,0,2l-0.1,0.2c-0.3,0.7-0.8,1.1-1.5,1.4c0.3,0.6,0.3,1.2,0.2,1.9c0,0.1,0,0.1-0.1,0.2
								c-0.2,0.7-0.6,1.2-1.2,1.5c0.4,0.5,0.6,1.2,0.4,1.9c0,0.1,0,0.1,0,0.2c-0.1,0.7-0.5,1.3-1.1,1.7c0.4,0.5,0.7,1.2,0.6,1.9v0.2
								c-0.1,0.7-0.5,1.4-1,1.8c0.5,0.5,0.8,1.2,0.7,1.9v0.2c-0.1,0.7-0.4,1.4-0.9,1.8c0.5,0.5,0.8,1.2,0.8,1.9v0.2
								c0,0.7-0.4,1.4-0.9,1.8c0.5,0.5,0.8,1.1,0.8,1.9v0.2c0,0.8-0.4,1.4-0.9,1.9c0.5,0.5,0.8,1.1,0.8,1.9v0.2
								c0,0.8-0.3,1.4-0.9,1.9c0.5,0.5,0.8,1.1,0.8,1.9v0.2c0,0.8-0.3,1.4-0.8,1.9c0.5,0.5,0.9,1.1,0.9,1.9v0.2
								c0,0.8-0.3,1.4-0.8,1.9c0.5,0.5,0.9,1.1,0.9,1.9v0.2c0,0.8-0.3,1.4-0.8,1.9c0.5,0.5,0.9,1.1,0.9,1.9v0.2
								c0,0.8-0.3,1.4-0.8,1.9c0.5,0.5,0.9,1.1,0.9,1.9v0.2c0,0.8-0.3,1.4-0.8,1.9c0.5,0.4,0.9,1.1,0.9,1.8v0.2
								c0,0.8-0.3,1.4-0.8,1.9c0.5,0.4,0.9,1.1,0.9,1.8v0.2c0,0.8-0.3,1.4-0.8,1.9c0.5,0.4,0.9,1.1,0.9,1.8v0.2
								c0.1,0.8-0.2,1.4-0.8,1.9c0.6,0.4,0.9,1.1,0.9,1.8v0.2c0.1,0.8-0.2,1.5-0.7,1.9c0.6,0.4,0.9,1.1,1,1.8v0.2
								c0.1,0.8-0.2,1.5-0.7,1.9c0.6,0.4,0.9,1.1,1,1.8v0.2c0.1,0.8-0.2,1.5-0.7,1.9c0.6,0.4,0.9,1.1,1,1.8v0.2
								c0.1,0.8-0.2,1.5-0.7,1.9c0.6,0.4,0.9,1.1,1,1.8v0.2c0.1,0.8-0.2,1.5-0.7,1.9c0.6,0.4,0.9,1.1,1,1.8v0.2
								c0.1,0.8-0.2,1.5-0.7,1.9c0.6,0.4,0.9,1.1,1,1.8v0.2C1862,560.7,1856.9,561.1,1856.9,560.3L1856.9,560.3z"/>
							<path class="st12" d="M1853,559.6v-0.2c-0.1-0.8,0.2-1.5,0.7-2c-0.6-0.4-1-1-1.1-1.8v-0.2c-0.1-0.8,0.2-1.5,0.7-2
								c-0.6-0.4-1-1-1-1.8v-0.2c-0.1-0.8,0.2-1.5,0.7-2c-0.6-0.4-1-1.1-1-1.8v-0.2c-0.1-0.8,0.2-1.5,0.7-2c-0.6-0.4-0.9-1.1-1-1.8
								v-0.2c-0.1-0.8,0.2-1.5,0.7-2c-0.6-0.4-0.9-1.1-1-1.8v-0.2c-0.1-0.8,0.2-1.5,0.7-2c-0.6-0.4-0.9-1.1-1-1.8v-0.2
								c-0.1-0.8,0.2-1.5,0.7-2c-0.6-0.4-0.9-1.1-1-1.8v-0.2c-0.1-0.8,0.2-1.5,0.7-2c-0.6-0.4-0.9-1.1-1-1.9v-0.2
								c-0.1-0.8,0.2-1.5,0.8-1.9c-0.6-0.4-0.9-1.1-0.9-1.9V523c0-0.8,0.3-1.5,0.8-1.9c-0.5-0.5-0.9-1.1-0.9-1.9V519
								c0-0.8,0.3-1.4,0.8-1.9c-0.5-0.5-0.9-1.1-0.9-1.9V515c0-0.8,0.3-1.5,0.8-1.9c-0.5-0.5-0.9-1.1-0.9-1.9V511
								c0-0.8,0.3-1.4,0.9-1.9c-0.5-0.5-0.9-1.1-0.8-1.9V507c0-0.8,0.3-1.4,0.9-1.9c-0.5-0.5-0.8-1.2-0.8-1.9V503
								c0-0.8,0.4-1.4,0.9-1.9c-0.5-0.5-0.8-1.2-0.8-1.9V499c0-0.8,0.4-1.4,1-1.9c-0.5-0.5-0.8-1.2-0.8-2v-0.2
								c0.1-0.8,0.4-1.4,1-1.9c-0.5-0.5-0.8-1.2-0.7-2v-0.2c0.1-0.8,0.5-1.4,1-1.8c-0.5-0.5-0.7-1.2-0.7-2v-0.2
								c0.1-0.8,0.5-1.4,1.1-1.8c-0.5-0.5-0.7-1.3-0.6-2v-0.2c0.1-0.8,0.6-1.4,1.2-1.8c-0.4-0.6-0.7-1.3-0.5-2.1l0.1-0.2
								c0.2-0.8,0.6-1.4,1.3-1.7c-0.4-0.6-0.6-1.3-0.4-2.1c0-0.1,0-0.2,0.1-0.2c0.2-0.8,0.7-1.4,1.4-1.7c-0.4-0.6-0.5-1.4-0.3-2.1
								c0-0.1,0.1-0.2,0.1-0.2c0.2-0.8,0.8-1.3,1.5-1.6c-0.3-0.7-0.4-1.5-0.1-2.2c0-0.1,0.1-0.2,0.1-0.2c0.3-0.7,1-1.2,1.7-1.4
								c-0.3-0.7-0.2-1.5,0.3-2.2c0.1-0.1,0.1-0.1,0.2-0.2c0.5-0.7,1.2-1.1,2-1.1c-0.1-0.8,0.1-1.6,0.8-2.2c0.1-0.1,0.1-0.1,0.2-0.2
								c0.6-0.5,1.3-0.8,2.1-0.6c0-0.7,0.3-1.5,0.9-2c0.1,0,0.1-0.1,0.2-0.2c0.6-0.5,1.4-0.6,2.1-0.5c0.1-0.7,0.5-1.4,1.2-1.9
								c0.1,0,0.2-0.1,0.2-0.1c0.7-0.4,1.5-0.5,2.2-0.2c0.2-0.8,0.7-1.4,1.5-1.7c0.1,0,0.2-0.1,0.2-0.1c0.8-0.3,1.7-0.2,2.3,0.2
								c0.4-0.7,1.1-1.3,1.9-1.4c0.1,0,0.2,0,0.3,0c0.9-0.1,1.7,0.3,2.3,1c0.6-0.6,1.5-0.9,2.4-0.6c0.1,0,0.2,0.1,0.3,0.1
								c0.9,0.3,1.6,1,1.7,1.9c0.9-0.3,1.9-0.1,2.6,0.6c0.2,0.2,0.3,0.3,0.3,0.4l-3.9,3.2l0,0l0,0c-0.3-0.4-0.6-0.8-0.7-1.2
								c-0.5,0.2-1,0.2-1.5,0c-0.1,0-0.1,0-0.2,0c-0.6-0.1-1-0.5-1.3-0.9c-0.4,0.4-0.9,0.6-1.5,0.7c-0.1,0-0.1,0-0.2,0
								c-0.6,0.1-1.2-0.1-1.7-0.4c-0.3,0.5-0.7,1-1.3,1.2c-0.1,0-0.1,0-0.2,0.1c-0.6,0.2-1.3,0.2-1.9,0c-0.2,0.6-0.6,1.2-1.1,1.5
								c-0.1,0-0.1,0.1-0.2,0.1c-0.6,0.4-1.3,0.5-1.9,0.3c-0.1,0.6-0.4,1.3-0.9,1.7c-0.1,0-0.1,0.1-0.2,0.1
								c-0.6,0.5-1.2,0.6-1.9,0.5c0,0.7-0.3,1.3-0.8,1.8c-0.1,0-0.1,0.1-0.2,0.1c-0.5,0.4-1.1,0.7-1.7,0.7c0.1,0.6,0,1.2-0.4,1.8
								c0,0.1-0.1,0.1-0.1,0.2c-0.4,0.6-0.9,0.9-1.6,1.1c0.2,0.6,0.2,1.3-0.1,1.9c0,0.1-0.1,0.1-0.1,0.2c-0.3,0.6-0.8,1.1-1.4,1.3
								c0.3,0.6,0.4,1.3,0.2,2c0,0.1-0.1,0.1-0.1,0.2c-0.2,0.7-0.7,1.2-1.3,1.5c0.4,0.6,0.5,1.3,0.3,2c0,0.1,0,0.1-0.1,0.2
								c-0.2,0.7-0.6,1.3-1.2,1.6c0.4,0.5,0.6,1.2,0.4,2l-0.1,0.2c-0.1,0.7-0.6,1.3-1.2,1.7c0.4,0.5,0.6,1.2,0.5,2v0.2
								c-0.1,0.7-0.5,1.3-1.1,1.7c0.4,0.5,0.7,1.2,0.6,2v0.2c-0.1,0.7-0.5,1.4-1,1.8c0.5,0.5,0.7,1.2,0.7,1.9v0.2
								c-0.1,0.7-0.4,1.4-1,1.8c0.5,0.5,0.8,1.2,0.7,1.9v0.2c-0.1,0.7-0.4,1.4-1,1.8c0.5,0.5,0.8,1.2,0.8,1.9v0.2
								c0,0.8-0.4,1.4-0.9,1.8c0.5,0.5,0.8,1.1,0.8,1.9v0.2c0,0.8-0.4,1.4-0.9,1.9c0.5,0.5,0.8,1.1,0.8,1.9v0.2
								c0,0.8-0.3,1.4-0.9,1.9c0.5,0.5,0.8,1.1,0.8,1.9v0.2c0,0.8-0.3,1.4-0.8,1.9c0.5,0.5,0.9,1.1,0.9,1.9v0.2
								c0,0.8-0.3,1.4-0.8,1.9c0.5,0.5,0.9,1.1,0.9,1.9v0.2c0,0.8-0.3,1.4-0.8,1.9c0.5,0.4,0.9,1.1,0.9,1.8v0.2
								c0,0.8-0.3,1.4-0.8,1.9c0.5,0.4,0.9,1.1,0.9,1.8v0.2c0.1,0.8-0.2,1.5-0.7,1.9c0.6,0.4,0.9,1.1,1,1.8v0.2
								c0.1,0.8-0.2,1.4-0.7,1.9c0.6,0.4,0.9,1.1,1,1.8v0.2c0.1,0.8-0.2,1.4-0.7,1.9c0.6,0.4,0.9,1.1,1,1.8v0.2
								c0.1,0.8-0.2,1.5-0.7,2c0.6,0.4,0.9,1.1,1,1.8v0.2c0.1,0.8-0.2,1.5-0.7,2c0.6,0.4,0.9,1.1,1,1.8v0.2c0.1,0.8-0.2,1.5-0.7,2
								c0.6,0.4,1,1,1,1.8v0.2c0.1,0.8-0.2,1.5-0.7,2c0.6,0.4,1,1,1,1.8v0.2c0.1,0.8-0.2,1.5-0.7,2c0.6,0.4,1,1,1.1,1.8v0.2
								c0.1,0.8-0.2,1.5-0.6,2C1858,561.4,1853.1,560.3,1853,559.6L1853,559.6z"/>
							<path class="st12" d="M1845.1,557.2V557c0-0.8,0.4-1.4,0.9-1.9c-0.5-0.5-0.8-1.2-0.8-1.9V553c0-0.8,0.4-1.4,0.9-1.9
								c-0.5-0.5-0.8-1.2-0.8-1.9V549c0-0.8,0.3-1.4,0.9-1.9c-0.5-0.5-0.8-1.2-0.8-1.9V545c0-0.8,0.3-1.4,0.9-1.9
								c-0.5-0.5-0.8-1.2-0.8-1.9V541c0-0.8,0.3-1.4,0.9-1.9c-0.5-0.5-0.8-1.1-0.8-1.9V537c0-0.8,0.3-1.4,0.9-1.9
								c-0.5-0.5-0.8-1.1-0.8-1.9V533c0-0.8,0.3-1.4,0.9-1.9c-0.5-0.5-0.8-1.1-0.8-1.9V529c0-0.8,0.3-1.4,0.8-1.9
								c-0.5-0.5-0.9-1.1-0.9-1.9V525c0-0.8,0.3-1.4,0.8-1.9c-0.5-0.5-0.9-1.1-0.9-1.9V521c0-0.8,0.3-1.4,0.8-1.9
								c-0.5-0.5-0.9-1.1-0.9-1.9V517c0-0.8,0.3-1.4,0.8-1.9c-0.5-0.5-0.9-1.1-0.9-1.9V513c0-0.8,0.3-1.4,0.8-1.9
								c-0.5-0.5-0.9-1.1-0.9-1.9V509c0-0.8,0.3-1.4,0.8-1.9c-0.5-0.5-0.9-1.1-0.9-1.9V505c0-0.8,0.3-1.5,0.9-1.9
								c-0.5-0.5-0.8-1.2-0.8-1.9V501c0-0.8,0.4-1.4,0.9-1.9c-0.5-0.5-0.8-1.2-0.8-2v-0.2c0-0.8,0.4-1.4,1-1.9
								c-0.5-0.5-0.8-1.2-0.7-2v-0.2c0.1-0.8,0.4-1.4,1-1.9c-0.5-0.5-0.8-1.2-0.7-2v-0.2c0.1-0.8,0.5-1.4,1.1-1.8
								c-0.5-0.5-0.7-1.3-0.6-2v-0.2c0.1-0.8,0.6-1.4,1.2-1.8c-0.4-0.6-0.7-1.3-0.5-2.1l0.1-0.2c0.2-0.8,0.6-1.4,1.2-1.7
								c-0.4-0.6-0.6-1.4-0.4-2.1l0.1-0.2c0.2-0.8,0.7-1.4,1.4-1.7c-0.4-0.6-0.5-1.4-0.3-2.1c0-0.1,0.1-0.2,0.1-0.2
								c0.3-0.8,0.8-1.3,1.5-1.5c-0.3-0.7-0.4-1.5-0.1-2.2c0-0.1,0.1-0.2,0.1-0.2c0.3-0.7,1-1.2,1.7-1.4c-0.3-0.7-0.2-1.5,0.2-2.2
								c0.1-0.1,0.1-0.1,0.1-0.2c0.4-0.7,1.1-1.1,1.9-1.2c-0.2-0.7,0-1.5,0.5-2.2c0.1-0.1,0.1-0.1,0.2-0.2c0.5-0.6,1.3-0.9,2-0.9
								l0,0c-0.1-0.8,0.2-1.5,0.8-2.1c0.1-0.1,0.1-0.1,0.2-0.2c0.6-0.5,1.4-0.7,2.2-0.6c0.1-0.8,0.4-1.5,1.1-1.9
								c0.1,0,0.2-0.1,0.2-0.1c0.7-0.4,1.5-0.5,2.2-0.3c0.2-0.7,0.6-1.4,1.3-1.7c0.1,0,0.2-0.1,0.2-0.1c0.7-0.4,1.5-0.3,2.2,0
								c0.2-0.7,0.8-1.3,1.5-1.6c0.1,0,0.2-0.1,0.2-0.1c0.8-0.3,1.6-0.2,2.2,0.2c0.3-0.7,0.9-1.2,1.8-1.4c0.1,0,0.2,0,0.3-0.1
								c0.9-0.2,1.8,0.1,2.4,0.8c0.6-0.7,1.7-1,2.7-0.7c0.1,0,0.3,0.1,0.4,0.1c1.2,0.5,1.8,1.9,1.5,3.1c1.1,0.4,1.8,1.6,1.6,2.8
								c0,0.2-0.1,0.4-0.1,0.5l-4.9-1.3l0,0l0,0c0-0.1,0.1-0.2,0.1-0.4h-0.1c0,0,0,0-0.1,0c-0.4-0.1-0.8-0.4-1.1-0.7
								c-0.3,0.4-0.8,0.7-1.4,0.8c-0.1,0-0.1,0-0.2,0c-0.7,0.1-1.3,0-1.9-0.3c-0.3,0.6-0.8,1.1-1.4,1.3c-0.1,0-0.1,0-0.2,0.1
								c-0.7,0.3-1.4,0.2-2-0.1c-0.2,0.6-0.7,1.2-1.3,1.5c-0.1,0-0.1,0.1-0.2,0.1c-0.6,0.3-1.3,0.3-1.9,0.1
								c-0.1,0.6-0.5,1.2-1.1,1.6c-0.1,0-0.1,0.1-0.2,0.1c-0.6,0.4-1.2,0.5-1.9,0.4c-0.1,0.6-0.3,1.2-0.9,1.7
								c-0.1,0-0.1,0.1-0.2,0.1c-0.5,0.5-1.2,0.7-1.8,0.6c0.1,0.6-0.1,1.3-0.6,1.8c-0.1,0.1-0.1,0.1-0.1,0.2
								c-0.4,0.5-1.1,0.8-1.7,0.9c0.1,0.6,0.1,1.3-0.3,1.9c0,0.1-0.1,0.1-0.1,0.2c-0.4,0.6-0.9,1-1.6,1.1c0.2,0.6,0.2,1.3-0.1,1.9
								c0,0.1-0.1,0.1-0.1,0.2c-0.3,0.6-0.8,1.1-1.4,1.3c0.3,0.6,0.4,1.3,0.1,2c0,0.1-0.1,0.1-0.1,0.2c-0.2,0.7-0.7,1.2-1.3,1.5
								c0.4,0.6,0.5,1.3,0.3,2l-0.1,0.2c-0.2,0.7-0.6,1.3-1.2,1.6c0.4,0.5,0.6,1.2,0.4,2v0.2c-0.1,0.7-0.6,1.3-1.1,1.7
								c0.4,0.5,0.7,1.2,0.5,2v0.2c-0.1,0.7-0.5,1.3-1.1,1.7c0.4,0.5,0.7,1.2,0.6,1.9v0.2c-0.1,0.7-0.5,1.4-1,1.8
								c0.5,0.5,0.8,1.2,0.7,1.9v0.2c-0.1,0.7-0.4,1.4-1,1.8c0.5,0.5,0.8,1.2,0.8,1.9v0.2c0,0.7-0.4,1.4-0.9,1.8
								c0.5,0.5,0.8,1.1,0.8,1.9v0.2c0,0.7-0.4,1.4-0.9,1.9c0.5,0.5,0.8,1.1,0.8,1.9v0.2c0,0.8-0.3,1.4-0.8,1.9
								c0.5,0.5,0.8,1.1,0.9,1.9v0.2c0,0.8-0.3,1.4-0.8,1.9c0.5,0.5,0.9,1.1,0.9,1.9v0.2c0,0.8-0.3,1.4-0.8,1.9
								c0.5,0.5,0.9,1.1,0.9,1.9v0.2c0,0.8-0.3,1.4-0.8,1.9c0.5,0.5,0.9,1.1,0.9,1.9v0.2c0,0.8-0.3,1.4-0.8,1.9
								c0.5,0.5,0.9,1.1,0.9,1.9v0.2c0,0.8-0.3,1.4-0.8,1.9c0.5,0.5,0.9,1.1,0.9,1.9v0.2c0,0.8-0.3,1.4-0.9,1.9
								c0.5,0.5,0.9,1.1,0.8,1.9v0.2c0,0.8-0.3,1.4-0.9,1.9c0.5,0.5,0.8,1.1,0.8,1.9v0.2c0,0.8-0.3,1.4-0.9,1.9
								c0.5,0.5,0.8,1.2,0.8,1.9v0.2c0,0.8-0.3,1.4-0.9,1.9c0.5,0.5,0.8,1.2,0.8,1.9v0.2c0,0.8-0.3,1.4-0.9,1.9
								c0.5,0.5,0.8,1.2,0.8,1.9v0.2c0,0.8-0.3,1.4-0.9,1.9c0.5,0.5,0.8,1.2,0.8,1.9v0.2c0,0.8-0.4,1.4-0.9,1.9
								c0.5,0.5,0.8,1.2,0.8,1.9v0.2C1850.2,558,1845.1,557.9,1845.1,557.2L1845.1,557.2z"/>
							<path class="st12" d="M1837.5,554.5v-0.2c0-0.8,0.4-1.4,0.9-1.9c-0.5-0.5-0.8-1.2-0.8-1.9v-0.2c0-0.8,0.4-1.4,0.9-1.9
								c-0.5-0.5-0.8-1.2-0.8-1.9v-0.2c0-0.8,0.4-1.4,0.9-1.9c-0.5-0.5-0.8-1.2-0.8-1.9v-0.2c0-0.8,0.4-1.4,0.9-1.9
								c-0.5-0.5-0.8-1.2-0.8-1.9v-0.2c0-0.8,0.4-1.4,0.9-1.9c-0.5-0.5-0.8-1.2-0.8-1.9v-0.2c0.1-0.8,0.4-1.4,1-1.9
								c-0.5-0.5-0.8-1.2-0.8-1.9V530c0.1-0.8,0.4-1.4,1-1.8c-0.5-0.5-0.8-1.2-0.8-1.9V526c0.1-0.8,0.4-1.4,1-1.8
								c-0.5-0.5-0.8-1.2-0.7-2V522c0.1-0.8,0.4-1.4,1-1.8c-0.5-0.5-0.8-1.2-0.7-2V518c0.1-0.8,0.4-1.4,1-1.8
								c-0.5-0.5-0.8-1.2-0.7-2V514c0.1-0.8,0.4-1.4,1-1.8c-0.5-0.5-0.8-1.2-0.7-2V510c0.1-0.8,0.5-1.4,1-1.8
								c-0.5-0.5-0.7-1.2-0.7-2V506c0.1-0.8,0.5-1.4,1.1-1.8c-0.5-0.5-0.7-1.2-0.6-2V502c0.1-0.8,0.5-1.4,1.1-1.8
								c-0.5-0.5-0.7-1.2-0.6-2V498c0.1-0.8,0.5-1.4,1.1-1.8c-0.5-0.5-0.7-1.3-0.6-2V494c0.1-0.8,0.5-1.4,1.1-1.8
								c-0.4-0.5-0.7-1.3-0.6-2V490c0.1-0.8,0.6-1.4,1.2-1.7c-0.4-0.5-0.7-1.3-0.5-2v-0.2c0.1-0.8,0.6-1.4,1.2-1.7
								c-0.4-0.6-0.6-1.3-0.5-2l0.1-0.2c0.2-0.8,0.6-1.4,1.2-1.7c-0.4-0.6-0.6-1.3-0.4-2.1l0.1-0.2c0.2-0.8,0.7-1.3,1.3-1.7
								c-0.4-0.6-0.6-1.4-0.3-2.1l0.1-0.2c0.2-0.7,0.7-1.3,1.4-1.6c-0.4-0.6-0.5-1.4-0.3-2.1l0.1-0.2c0.2-0.7,0.8-1.3,1.5-1.6
								c-0.3-0.6-0.4-1.4-0.2-2.1l0.1-0.2c0.3-0.7,0.9-1.2,1.6-1.5c-0.3-0.7-0.3-1.5,0-2.2c0-0.1,0.1-0.1,0.1-0.2
								c0.4-0.7,1-1.2,1.7-1.4c-0.2-0.7-0.2-1.5,0.3-2.2c0.1-0.1,0.1-0.1,0.2-0.2c0.5-0.7,1.2-1.1,2-1.1c-0.1-0.7,0.1-1.5,0.6-2.1
								l0.2-0.2c0.5-0.6,1.2-0.9,2-0.8l0,0c-0.1-0.7,0.2-1.5,0.8-2c0.1-0.1,0.1-0.1,0.2-0.2c0.6-0.5,1.4-0.7,2.1-0.6
								c0-0.8,0.4-1.5,1.1-1.9c0.1,0,0.1-0.1,0.2-0.1c0.7-0.5,1.5-0.6,2.2-0.3c0.1-0.8,0.6-1.4,1.4-1.8c0.1,0,0.2-0.1,0.2-0.1
								c0.8-0.4,1.6-0.3,2.3,0c0.3-0.7,0.9-1.3,1.7-1.5c0.1,0,0.2,0,0.3-0.1c0.8-0.2,1.7,0,2.3,0.6c0.4-0.7,1.2-1.1,2.1-1.1
								c0.1,0,0.2,0,0.3,0c0.9,0,1.6,0.5,2.1,1.1c0.6-0.5,1.4-0.8,2.3-0.5c0.1,0,0.2,0,0.3,0.1c0.8,0.2,1.4,0.8,1.7,1.6
								c0.7-0.4,1.6-0.4,2.3,0c0.1,0,0.2,0.1,0.2,0.1c0.7,0.4,1.2,1.1,1.3,1.9c0.8-0.2,1.6,0,2.2,0.5c0.1,0.1,0.1,0.1,0.2,0.2
								c0.6,0.5,0.9,1.3,0.9,2.1c0.8,0,1.6,0.3,2.1,0.9c0.1,0.2,0.2,0.3,0.2,0.3c0.8,1.1,0.6,2.7-0.5,3.5s-2.7,0.6-3.5-0.5
								c0,0,0-0.1-0.1-0.1c-0.4-0.5-0.6-1.1-0.6-1.7c-0.6,0-1.3-0.1-1.8-0.6c-0.1,0-0.1-0.1-0.2-0.1c-0.5-0.4-0.8-1-0.9-1.6
								c-0.6,0.2-1.3,0.1-1.8-0.2c-0.1,0-0.1-0.1-0.2-0.1c-0.6-0.3-1-0.8-1.2-1.4c-0.5,0.3-1.2,0.4-1.8,0.2c-0.1,0-0.1,0-0.2,0
								c-0.6-0.2-1.1-0.5-1.5-1c-0.4,0.4-1,0.6-1.7,0.6c-0.1,0-0.1,0-0.2,0c-0.6,0-1.2-0.2-1.7-0.6c-0.3,0.5-0.9,0.9-1.5,1
								c-0.1,0-0.1,0-0.2,0c-0.6,0.2-1.3,0.1-1.8-0.2c-0.2,0.6-0.7,1.1-1.3,1.4c-0.1,0-0.1,0.1-0.2,0.1c-0.6,0.3-1.3,0.3-1.9,0.1
								c-0.1,0.6-0.5,1.2-1,1.6c-0.1,0-0.1,0.1-0.2,0.1c-0.6,0.4-1.2,0.5-1.9,0.4c0,0.6-0.3,1.3-0.8,1.8c-0.1,0-0.1,0.1-0.2,0.1
								c-0.5,0.5-1.2,0.7-1.8,0.7c0,0.7-0.2,1.3-0.7,1.9l-0.2,0.2c-0.5,0.5-1.1,0.8-1.7,0.8c0.1,0.6,0,1.3-0.4,1.8
								c0,0.1-0.1,0.1-0.1,0.2c-0.4,0.6-1,1-1.6,1.1c0.2,0.6,0.2,1.3-0.1,1.9c0,0.1-0.1,0.1-0.1,0.2c-0.3,0.6-0.9,1.1-1.5,1.3
								c0.3,0.6,0.3,1.3,0.1,2l-0.1,0.2c-0.3,0.7-0.8,1.2-1.4,1.4c0.3,0.6,0.4,1.3,0.2,2l-0.1,0.2c-0.2,0.7-0.7,1.2-1.3,1.5
								c0.4,0.6,0.5,1.3,0.3,2l-0.1,0.2c-0.2,0.7-0.7,1.3-1.3,1.6c0.4,0.6,0.5,1.3,0.4,2l-0.1,0.2c-0.2,0.7-0.6,1.3-1.2,1.6
								c0.4,0.6,0.6,1.3,0.4,2l-0.1,0.2c-0.2,0.7-0.6,1.3-1.2,1.7c0.4,0.5,0.6,1.3,0.5,2v0.2c-0.1,0.7-0.6,1.3-1.2,1.7
								c0.4,0.5,0.6,1.2,0.5,2v0.2c-0.1,0.7-0.6,1.4-1.1,1.7c0.4,0.5,0.7,1.2,0.6,2v0.2c-0.1,0.7-0.5,1.4-1.1,1.7
								c0.4,0.5,0.7,1.2,0.6,2v0.2c-0.1,0.7-0.5,1.4-1.1,1.8c0.5,0.5,0.7,1.2,0.6,2v0.2c-0.1,0.7-0.5,1.4-1.1,1.8
								c0.5,0.5,0.7,1.2,0.6,2v0.2c-0.1,0.8-0.5,1.4-1,1.8c0.5,0.5,0.7,1.2,0.7,2v0.2c-0.1,0.7-0.5,1.4-1,1.8c0.5,0.5,0.7,1.2,0.7,2
								v0.2c-0.1,0.8-0.4,1.4-1,1.8c0.5,0.5,0.8,1.2,0.7,1.9v0.2c-0.1,0.8-0.4,1.4-1,1.8c0.5,0.5,0.8,1.2,0.7,1.9v0.2
								c-0.1,0.8-0.4,1.4-1,1.8c0.5,0.5,0.8,1.2,0.7,1.9v0.2c-0.1,0.8-0.4,1.4-1,1.8c0.5,0.5,0.8,1.2,0.8,1.9v0.2
								c-0.1,0.8-0.4,1.4-1,1.8c0.5,0.5,0.8,1.2,0.8,1.9l0,0v0.2c0,0.8-0.4,1.4-0.9,1.8c0.5,0.5,0.8,1.2,0.8,1.9v0.2
								c0,0.8-0.4,1.4-0.9,1.8c0.5,0.5,0.8,1.2,0.8,1.9v0.2c0,0.8-0.4,1.4-0.9,1.9c0.5,0.5,0.8,1.2,0.8,1.9v0.2
								c0,0.8-0.4,1.4-0.9,1.9c0.5,0.5,0.8,1.2,0.8,1.9v0.2c0,0.8-0.4,1.4-0.9,1.9c0.5,0.5,0.8,1.2,0.8,1.9v0.2
								C1842.4,555.4,1837.4,555.3,1837.5,554.5L1837.5,554.5z"/>
						</g>
					</g>
					<g>
						<path class="st18" d="M1896.7,486.2c-1-1.3-2.2-1.4-3-1.2c0.2,4.5,0.5,10.5,0.5,10.9c0,0.3,0,0.6-0.1,1
							C1897.4,495.4,1898.2,488.3,1896.7,486.2L1896.7,486.2z"/>
						<path class="st0" d="M1895.3,497L1895.3,497c-0.4,0-0.8-0.3-0.8-0.8v-1.9c0-0.4,0.3-0.8,0.8-0.8l0,0c0.4,0,0.8,0.3,0.8,0.8
							v1.9C1896.1,496.7,1895.8,497,1895.3,497z"/>
					</g>
				</g>
				<polygon class="st19" points="1855.5,527.1 1865.5,521.9 1886.4,521.6 1897.7,527.4 1873.1,547.4 				"/>
				<path class="st19" d="M1887.4,526.4c0,4.2-7.8,8.3-11.7,8.3c-3.9,0-11.7-4.1-11.7-8.3c0.3-6.3,1.2-26.1,1.2-26.1h20.9
					C1886.2,500.3,1887.4,519.4,1887.4,526.4L1887.4,526.4z"/>
				<path class="st18" d="M1866,509.5c0,0,2.7,9.9,9.6,10.2s9.8-10.2,9.8-10.2l-9.6-2L1866,509.5L1866,509.5z"/>
			</g>
			<g>
				<g id="face-4">
					<path class="st19" d="M1893.4,479.9c0-9.6-7.8-15.9-17.4-15.9s-17.4,6.3-17.4,15.9c0,0-0.8,15.4-0.8,15.9
						c0,9.1,11.2,20.8,18.1,20.8c8,0,18.1-13.8,18.1-20.8C1894.2,495.3,1893.4,479.9,1893.4,479.9L1893.4,479.9z"/>
				</g>
				<g id="face-5">
					<g id="eyebrows-2">
						<path class="st12" d="M1879.8,481c0,0,7.6-0.8,9-0.6c2.4,0.2,3,1.8,3.3,2.7c0.1,0.3-9.9,1.3-11.3,0.8
							C1879.4,483.3,1879.8,481,1879.8,481L1879.8,481z"/>
						<path class="st12" d="M1872.2,481c0,0-7.6-0.8-9-0.6c-2.4,0.2-3,1.8-3.3,2.7c-0.1,0.3,9.9,1.3,11.3,0.8
							C1872.7,483.3,1872.2,481,1872.2,481L1872.2,481z"/>
					</g>
					<g>
						<path class="st20" d="M1878.2,500.2c0.7,0,1.4,1,1.4,1l-2.7,0.2C1877.4,500.8,1877.6,500.3,1878.2,500.2z"/>
						<path class="st20" d="M1874.3,500.2c-0.7,0-1.4,1-1.4,1l2.7,0.2C1875.2,500.8,1875,500.3,1874.3,500.2z"/>
						<path class="st20" d="M1874.2,496.1c0.5-4.7,0-10,0-10.1l-1.1,0.1c0,0,0.5,5.3,0,9.9L1874.2,496.1L1874.2,496.1z"/>
					</g>
					<g>
						<path class="st12" d="M1887.8,490.5c0,1.6-1.1,2.9-2.5,2.9s-2.5-1.3-2.5-2.9s1.1-2.9,2.5-2.9S1887.8,488.9,1887.8,490.5z"/>
						<ellipse class="st12" cx="1866.7" cy="490.5" rx="2.5" ry="2.9"/>
						<path class="st20" d="M1871.6,506c-0.7,0-1.5-0.2-2.4-0.8c-0.2-0.2-0.3-0.5-0.2-0.8c0.2-0.2,0.5-0.3,0.8-0.1
							c1.3,0.9,2.5,0.5,3.5,0.2c0.5-0.2,1-0.3,1.4-0.2c0.6,0.1,1.1,0.2,1.7,0.2c0.7,0,1.1-0.1,1.6-0.2s1,0,1.6,0.2
							c1,0.3,2.1,0.6,3.4-0.2c0.2-0.2,0.6-0.1,0.8,0.1c0.2,0.2,0.1,0.6-0.2,0.8c-1.7,1.2-3.3,0.7-4.3,0.4c-0.4-0.1-0.8-0.2-1-0.2
							c-0.6,0.1-1,0.2-1.8,0.2s-1.3-0.1-2-0.2c-0.2,0-0.5,0.1-0.9,0.2C1873.1,505.8,1872.4,506,1871.6,506L1871.6,506z"/>
						<path class="st20" d="M1876.5,509.1c-1.9,0-3.3-0.7-3.4-0.7c-0.3-0.1-0.4-0.5-0.2-0.7c0.1-0.3,0.5-0.4,0.7-0.2
							c0.1,0,2.9,1.4,5.6,0c0.3-0.1,0.6,0,0.7,0.2c0.1,0.3,0,0.6-0.2,0.7C1878.6,508.9,1877.5,509.1,1876.5,509.1L1876.5,509.1z"/>
					</g>
				</g>
			</g>
			<path class="st0" d="M1927.3,546.7c-0.1-0.2-0.2-0.4-0.3-0.5c-3.5-5.7-30.4-20-34.5-21.9c-5,18.8-26.4,17.6-33.4,0.3
				c-4.2,1.9-31.5,16.8-35.1,22.5c-0.1,0.1-0.2,0.3-0.3,0.5c13.3,12.8,31.4,20.8,51.3,20.8S1913.9,560.1,1927.3,546.7L1927.3,546.7z
				"/>
		</g>
		<g>
			<path class="st12" d="M1847.7,325.2h6.7v8l-1.7,14.8h-3.2l-1.8-14.8V325.2L1847.7,325.2z M1847.9,350.6h6.4v6.2h-6.4V350.6z"/>
			<path class="st12" d="M1850.2,371.1c-16,0-29-13-29-29s13-29,29-29s29,13,29,29S1866.2,371.1,1850.2,371.1z M1850.2,315.4
				c-14.7,0-26.7,12-26.7,26.7s12,26.7,26.7,26.7s26.7-12,26.7-26.7S1865,315.4,1850.2,315.4z"/>
		</g>
		<g>
			<g>
				<path class="st12" d="M1575.1,534.1h-2.7v-53.7c0-19.9-16.2-36.1-36.1-36.1h-10.7v-2.7h10.7c21.4,0,38.8,17.4,38.8,38.8
					L1575.1,534.1L1575.1,534.1z"/>
				<polygon class="st12" points="1580.1,526.2 1573.7,537.9 1571.3,533.5 1567.2,526.2 				"/>
			</g>
			<g>
				<polygon class="st12" points="1490.3,436.5 1502,442.9 1490.3,449.3 				"/>
				<polygon class="st12" points="1497.2,593.8 1508.8,600.2 1497.2,606.7 				"/>
				<path class="st12" d="M1502.6,601.9H1454c-21.4,0-38.8-17.4-38.8-38.8v-82.8c0-21.4,17.4-38.8,38.8-38.8h41.9v2.7H1454
					c-19.9,0-36.1,16.2-36.1,36.1v82.8c0,19.9,16.2,36.1,36.1,36.1h48.6V601.9L1502.6,601.9z"/>
			</g>
		</g>
		<g>
			<circle class="st12" cx="1555" cy="584.1" r="25.2"/>
			<path class="st0" d="M1564.7,590.2c0,5.2-4.7,8.2-10,8.2s-8.9-2.4-9.5-8.3v-0.4h3.4v0.4c0.4,3.9,3.1,5.6,6.4,5.6s5.8-2,5.8-5.3
				s-2.1-5.1-6.6-5.1h-0.7v-2.8h0.7c3.3,0,5.9-1.9,5.9-5.4c0-2.8-2-4.7-4.9-4.7s-5.3,1.8-5.7,5.4v0.4h-3.4v-0.4
				c0.5-5,3.9-8.1,9.5-8.1c5.1,0,8.3,2.8,8.3,7c0,3.2-2,5.7-4.9,6.5C1562.6,584.1,1564.7,586.6,1564.7,590.2L1564.7,590.2z"/>
		</g>
	</g>
	<path class="st12" d="M1588.8,764.2h184.8c30.1,0,54.4,24.4,54.4,54.4l0,0c0,30.1-24.4,54.4-54.4,54.4h-184.8
		c-30.1,0-54.4-24.4-54.4-54.4l0,0C1534.3,788.6,1558.7,764.2,1588.8,764.2z"/>
	<g>
		<path class="st0" d="M1592,799.2v9.7h-0.7v-9.4c0-1.2,0-2-0.1-2.9c-0.3-3-2-4.9-5.3-4.9s-6.2,2.2-6.2,6.9v10.3h-0.7v-24.5h0.7
			v11.1l0.7-1.7c1.3-1.8,3.3-2.7,5.5-2.7c3.5,0,5.6,2,6,5.4C1592,797.2,1592,797.8,1592,799.2L1592,799.2z"/>
		<path class="st0" d="M1611.6,800.2c0,5.5-3.3,9.2-8.2,9.2s-8.2-3.7-8.2-9.2s3.3-9.2,8.2-9.2S1611.6,794.6,1611.6,800.2z
			 M1610.8,800.2c0-5.9-3.6-8.5-7.4-8.5s-7.4,2.7-7.4,8.5s3.6,8.5,7.4,8.5S1610.8,806,1610.8,800.2z"/>
		<path class="st0" d="M1629.6,800c0,6.2-3.7,9.3-7.9,9.3c-2.2,0-3.7-0.7-5.1-2.3l-1-2.2v10.5h-0.7v-24.2h0.7v4.2l0.9-2
			c1.6-1.9,3.1-2.5,5.5-2.5C1626.7,790.9,1629.7,794.7,1629.6,800L1629.6,800z M1628.8,800.1c0-4.6-2.4-8.5-6.8-8.5
			c-3.4,0-6.4,1.9-6.4,7.7v2c0,5.7,3.3,7.4,6,7.4C1625.9,808.6,1628.8,805.1,1628.8,800.1z"/>
		<path class="st0" d="M1646.7,800.3h-14.3c0.1,6,3.6,8.3,6.8,8.3c2.8,0,5.5-1.6,6.5-5.1h0.7c-1.1,3.8-4,5.8-7.3,5.8
			c-4.1,0-7.5-3.2-7.5-9.2c0-5.5,3.4-9.1,7.8-9.1c5,0,7.3,4.4,7.3,8.7C1646.7,799.8,1646.7,799.9,1646.7,800.3L1646.7,800.3z
			 M1632.4,799.6h13.6c-0.1-6-3.7-8-6.7-8S1632.5,794.1,1632.4,799.6L1632.4,799.6z"/>
		<path class="st0" d="M1661.3,808.4v0.6c-0.4,0.1-1.1,0.1-1.7,0.1c-1.6,0-2.4-0.7-2.5-2.3c-0.1-0.8-0.1-1.4-0.1-2.3v-12.3h-2.1
			v-0.6h2.1V788h0.7v3.6h3.4v0.6h-3.4v12.5c0,0.9,0,1.4,0,1.9C1657.9,808.2,1658.7,808.8,1661.3,808.4L1661.3,808.4z"/>
		<path class="st0" d="M1677.2,799.2v9.7h-0.7v-9.4c0-1.2,0-2-0.1-2.9c-0.3-3-2-4.9-5.3-4.9s-6.2,2.2-6.2,6.9v10.3h-0.7v-24.5h0.7
			v11.1l0.7-1.7c1.3-1.8,3.3-2.7,5.5-2.7c3.5,0,5.6,2,6,5.4C1677.2,797.2,1677.2,797.8,1677.2,799.2L1677.2,799.2z"/>
		<path class="st0" d="M1682.8,787.9c0,0.4-0.3,0.7-0.7,0.7s-0.7-0.3-0.7-0.7s0.3-0.7,0.7-0.7S1682.8,787.5,1682.8,787.9z
			 M1681.8,808.9v-17.5h0.7v17.5H1681.8z"/>
		<path class="st0" d="M1697.9,796.2h-0.7c-0.7-3-2.3-4.5-5.2-4.5c-2.4,0-4.6,1.4-4.6,4s2,3.4,4.7,4c4,0.9,6,2.2,6,5.1
			s-2.4,4.6-5.9,4.6s-6-1.7-6.5-5.6h0.7c0.6,3.7,2.9,4.9,5.8,4.9c2.8,0,5-1.3,5-3.8s-1.4-3.5-5.6-4.4c-2.8-0.6-5.2-1.8-5.2-4.7
			c0-2.7,2.3-4.7,5.4-4.7C1695.6,790.9,1697.5,793.3,1697.9,796.2L1697.9,796.2z"/>
		<path class="st0" d="M1721.5,800.3h-14.3c0.1,6,3.6,8.3,6.8,8.3c2.8,0,5.5-1.6,6.5-5.1h0.7c-1.1,3.8-4,5.8-7.3,5.8
			c-4.1,0-7.5-3.2-7.5-9.2c0-5.5,3.4-9.1,7.8-9.1c5,0,7.3,4.4,7.3,8.7C1721.5,799.8,1721.5,799.9,1721.5,800.3L1721.5,800.3z
			 M1707.2,799.6h13.6c-0.1-6-3.7-8-6.7-8S1707.3,794.1,1707.2,799.6L1707.2,799.6z"/>
		<path class="st0" d="M1747.3,799.2v9.7h-0.7v-9.4c0-1.2,0-2-0.1-2.9c-0.3-3-1.7-5-4.5-5s-5.4,2.3-5.4,7.2v10h-0.7v-9.4
			c0-1.2,0-2-0.1-2.9c-0.3-3-1.7-5-4.5-5s-5.4,2.3-5.4,7.2v10h-0.7v-17.5h0.7v3.7l0.8-1.9c1.2-1.6,2.8-2.3,4.6-2.3
			c2.8,0,4.6,1.7,5.1,4.5l1.1-2.3c1.2-1.6,2.8-2.3,4.6-2.3c3.1,0,4.9,2,5.2,5.4C1747.3,797.2,1747.4,797.7,1747.3,799.2
			L1747.3,799.2z"/>
		<path class="st0" d="M1762.9,804.6l-0.8,1.8c-1.2,2-3.3,3-5.6,3c-3.3,0-5.4-1.6-5.4-4.7c0-4.1,5.2-5.8,10.6-5.8h1.1V798
			c0-0.8,0-1.5-0.1-2.3c-0.2-2.6-2-4-4.8-4c-2.4,0-5.1,1.3-5.5,4.5h-0.7c0.2-2.9,2.8-5.2,6.2-5.2s5.3,1.7,5.5,4.6
			c0.1,0.9,0.1,1.4,0.1,2.3v5.4c0,2,0.1,3.3,0.3,5.6h-0.8L1762.9,804.6L1762.9,804.6z M1762.8,801.9v-2.4
			c-5.1-0.3-10.9,1.1-10.9,5.1c0,2.4,1.5,4,4.7,4C1760.3,808.6,1762.8,805.4,1762.8,801.9L1762.8,801.9z"/>
		<path class="st0" d="M1769.3,787.9c0,0.4-0.3,0.7-0.7,0.7s-0.7-0.3-0.7-0.7s0.3-0.7,0.7-0.7S1769.3,787.5,1769.3,787.9z
			 M1768.3,808.9v-17.5h0.7v17.5H1768.3z"/>
		<path class="st0" d="M1774.3,804.9c0,1.2,0,1.8,0,2.3c0.1,1.1,0.5,1.3,1.9,1.2v0.6c-0.3,0.1-0.6,0.1-1,0.1c-0.9,0-1.6-0.4-1.6-1.7
			c0-0.7,0-1.2,0-2.5v-20.4h0.7V804.9L1774.3,804.9z"/>
		<path class="st0" d="M1587.4,848.7h-0.7V832h-6.6v16.6h-0.7V832h-1.9v-0.7h1.9v-1.5c0-0.5,0-1.1,0.1-1.8c0.2-2.5,2.3-4.5,5.7-4.5
			c0.7,0,1,0,1.6,0.2v0.7c-4.4-0.6-6.3,1.5-6.5,3.7c-0.1,0.7-0.1,1.2-0.1,1.7v1.5h7.3L1587.4,848.7L1587.4,848.7z"/>
		<path class="st0" d="M1605.2,839v9.7h-0.7v-9.4c0-1.2,0-2-0.1-2.9c-0.3-3-2-4.9-5.3-4.9s-6.2,2.2-6.2,6.9v10.3h-0.7v-17.5h0.7v4
			l0.7-1.7c1.3-1.8,3.3-2.7,5.5-2.7c3.5,0,5.6,2,6,5.4C1605.1,837,1605.1,837.6,1605.2,839L1605.2,839z"/>
		<path class="st0" d="M1623,848.7h-0.7v-4l-0.9,2c-1.6,1.9-3.1,2.5-5.5,2.5c-4.5,0-7.5-3.8-7.5-9c0-6.2,3.7-9.3,7.9-9.3
			c2.2,0,3.7,0.7,5.1,2.3l1,2.2v-10.9h0.7L1623,848.7L1623,848.7z M1622.3,840.8v-2c0-5.7-3.3-7.4-6-7.4c-4.2,0-7.1,3.5-7.1,8.5
			c0,4.6,2.4,8.5,6.8,8.5C1619.4,848.4,1622.3,846.5,1622.3,840.8z"/>
		<path class="st0" d="M1638.4,836h-0.7c-0.7-3-2.3-4.5-5.2-4.5c-2.4,0-4.6,1.4-4.6,4s2,3.4,4.7,4c4,0.9,6,2.2,6,5.1
			s-2.4,4.6-5.9,4.6s-6-1.7-6.5-5.6h0.7c0.6,3.7,2.9,4.9,5.8,4.9c2.8,0,5-1.3,5-3.8s-1.4-3.5-5.6-4.4c-2.8-0.6-5.2-1.8-5.2-4.7
			c0-2.7,2.3-4.7,5.4-4.7C1636.1,830.8,1638,833.1,1638.4,836L1638.4,836z"/>
		<path class="st0" d="M1654.1,848.7c-2.3,6.1-3.8,7-5.7,7c-0.5,0-0.8,0-1.2-0.1v-0.7c0.4,0.1,0.9,0.1,1.3,0.1
			c1.3,0,2.6-0.9,4.1-4.6l0.6-1.4l-6.8-17.8h0.8l6.4,16.8l6.4-16.8h0.8L1654.1,848.7L1654.1,848.7z"/>
		<path class="st0" d="M1678.5,840c0,5.5-3.3,9.2-8.2,9.2s-8.2-3.7-8.2-9.2s3.3-9.2,8.2-9.2S1678.5,834.4,1678.5,840z M1677.7,840
			c0-5.9-3.6-8.5-7.4-8.5s-7.4,2.7-7.4,8.5s3.6,8.5,7.4,8.5S1677.7,845.8,1677.7,840z"/>
		<path class="st0" d="M1694.6,848.7h-0.7v-4l-0.7,1.7c-1.3,1.8-3.3,2.7-5.5,2.7c-3.5,0-5.6-2-6-5.4c-0.1-0.9-0.1-1.4-0.1-2.8v-9.7
			h0.7v9.4c0,1.2,0,2,0.1,2.9c0.3,3,2,4.9,5.3,4.9s6.2-2.2,6.2-6.9v-10.3h0.7V848.7L1694.6,848.7z"/>
		<path class="st0" d="M1724.2,848.7h-0.9l-6.1-21.8l-6.6,21.8h-1l-5.7-22.9h0.8l5.5,22.2l6.5-21.8h1l6.1,21.8l5.9-22.1h0.7
			L1724.2,848.7L1724.2,848.7z"/>
		<path class="st0" d="M1747.7,848.7h-14.2v-22.9h13.9v0.7h-13.2V837h12.5v0.7h-12.5V848h13.5L1747.7,848.7L1747.7,848.7z"/>
		<path class="st0" d="M1766.2,848.7H1752v-22.9h0.7V848h13.5V848.7L1766.2,848.7z"/>
		<path class="st0" d="M1784.1,848.7h-14.2v-22.9h0.7V848h13.5V848.7L1784.1,848.7z"/>
	</g>
	<g>
		<rect x="711.2" y="658.9" class="st12" width="4" height="11.9"/>
		<rect x="722.5" y="658.9" class="st12" width="4" height="11.9"/>
		<rect x="733.8" y="658.9" class="st12" width="4" height="11.9"/>
		<rect x="745.1" y="649" class="st12" width="4" height="31.7"/>
		<rect x="756.4" y="658.9" class="st12" width="4" height="11.9"/>
		<rect x="767.7" y="658.9" class="st12" width="4" height="11.9"/>
		<rect x="779" y="658.9" class="st12" width="4" height="11.9"/>
		<rect x="790.3" y="649" class="st12" width="4" height="31.7"/>
		<rect x="801.6" y="639.1" class="st12" width="4" height="51.5"/>
		<rect x="812.9" y="619.3" class="st12" width="4" height="91"/>
		<rect x="824.2" y="639.1" class="st12" width="4" height="51.5"/>
		<rect x="835.5" y="649" class="st12" width="4" height="31.7"/>
		<rect x="846.8" y="658.9" class="st12" width="4" height="11.9"/>
		<rect x="858" y="658.9" class="st12" width="4" height="11.9"/>
		<rect x="869.3" y="658.9" class="st12" width="4" height="11.9"/>
		<rect x="880.6" y="658.9" class="st12" width="4" height="11.9"/>
		<rect x="891.9" y="658.9" class="st12" width="4" height="11.9"/>
		<rect x="903.2" y="658.9" class="st12" width="4" height="11.9"/>
		<rect x="914.5" y="649" class="st12" width="4" height="31.7"/>
		<rect x="925.8" y="629.2" class="st12" width="4" height="71.3"/>
		<rect x="937.1" y="649" class="st12" width="4" height="31.7"/>
		<rect x="948.4" y="639.1" class="st12" width="4" height="51.5"/>
		<rect x="959.7" y="619.3" class="st12" width="4" height="91"/>
		<rect x="971" y="639.1" class="st12" width="4" height="51.5"/>
		<rect x="982.3" y="649" class="st12" width="4" height="31.7"/>
		<rect x="993.6" y="658.9" class="st12" width="4" height="11.9"/>
		<rect x="1004.9" y="658.9" class="st12" width="4" height="11.9"/>
		<rect x="1016.2" y="658.9" class="st12" width="4" height="11.9"/>
		<rect x="1027.5" y="658.9" class="st12" width="4" height="11.9"/>
		<rect x="1038.8" y="658.9" class="st12" width="4" height="11.9"/>
		<rect x="1050.1" y="639.1" class="st12" width="4" height="51.5"/>
		<rect x="1061.4" y="629.2" class="st12" width="4" height="71.3"/>
		<rect x="1072.7" y="619.3" class="st12" width="4" height="91"/>
		<rect x="1084" y="639.1" class="st12" width="4" height="51.5"/>
		<rect x="1095.3" y="649" class="st12" width="4" height="31.7"/>
		<rect x="1106.6" y="658.9" class="st12" width="4" height="11.9"/>
	</g>
	<g>
		<g>
			<rect x="730.8" y="393.2" class="st12" width="159.2" height="77.8"/>
			<g>
				<path class="st0" d="M787.3,442.9c0,10.2-7.4,16.2-16.1,16.2c-6.8,0-13.8-4-14.8-13.8l-0.1-0.7h1.6l0.1,0.7
					c0.7,7.1,5.6,12.3,13.3,12.3c6.9,0,14.3-4.5,14.3-14.6c0-8.9-5.5-14.5-13.2-14.5c-5.9,0-10.7,2.5-13.5,8.4h-1.6l4.7-28.2h25.2
					v1.5h-23.8l-4.2,23.8l2.7-3.5c3-2.2,6.3-3.5,10.6-3.5C781.7,427,787.3,433.9,787.3,442.9L787.3,442.9z"/>
				<path class="st0" d="M826,444.9c0,8.9-7,14.2-16.1,14.2c-8.6,0-14.7-5.2-15.7-15l-0.1-0.7h1.6l0.1,0.7
					c0.8,7.8,5.6,13.5,14.1,13.5s14.4-4.5,14.4-12.7c0-6.5-4.5-11.5-15-11.5H808v-1.5h1.2c6.6,0,14.2-4.4,14.2-11.9
					s-5.3-11.1-12-11.1c-7.4,0-12.7,4.6-13.5,12.5l-0.1,0.7h-1.6l0.1-0.7c0.9-8.9,7.1-14,15.1-14c8.9,0,13.7,5.4,13.7,12.5
					c0,6.2-4.6,11.2-10.7,12.5C821.5,433.5,826,437.4,826,444.9L826,444.9z"/>
			</g>
			<g>
				<path class="st0" d="M848.1,426.5c11.9,0,16.5-10.7,16.5-25.9c0-2.6-0.1-5.1-0.4-7.4h-1.7c0.3,2.3,0.4,4.8,0.4,7.4
					c0,13.8-3.8,24.3-14.8,24.3s-14.8-10.7-14.8-24.3c0-2.6,0.1-5.1,0.4-7.4H832c-0.3,2.3-0.4,4.8-0.4,7.4
					C831.6,415.8,836.2,426.5,848.1,426.5L848.1,426.5z"/>
				<path class="st0" d="M858.5,437.2c-0.8,0-1.3,0.1-3,1.2l-11.5,7.2v1.8l13.7-8.5V471h1.6v-33.8H858.5L858.5,437.2z"/>
			</g>
		</g>
		<g>
			<path class="st12" d="M751.2,531.4h-1.1v-6.1L749,528c-2,2.8-5,4.1-8.3,4.1c-5.3,0-8.6-3-9.1-8.2c-0.2-1.4-0.2-2.2-0.2-4.3v-14.8
				h1.1v14.3c0,1.9,0,3,0.2,4.4c0.5,4.5,3,7.5,8,7.5s9.4-3.4,9.4-10.5v-15.8h1.1V531.4z"/>
			<path class="st12" d="M778.2,516.7v14.8h-1.1v-14.3c0-1.9,0-3-0.2-4.4c-0.5-4.5-3-7.5-8-7.5s-9.4,3.4-9.4,10.5v15.8h-1.1V505h1.1
				v6.1l1.1-2.6c2-2.8,5-4.1,8.3-4.1c5.3,0,8.6,3,9.1,8.2C778.2,513.7,778.2,514.5,778.2,516.7z"/>
			<path class="st12" d="M794.5,504.2v1c-4.8-0.4-8.2,2.9-8.2,11.7v14.5h-1.1v-26.6h1.1v5.7l1.1-3c1.4-2.1,3.5-3.4,6-3.4
				C793.7,504.2,794.1,504.2,794.5,504.2L794.5,504.2z"/>
			<path class="st12" d="M818.8,518.4H797c0.2,9.2,5.5,12.7,10.3,12.7c4.2,0,8.4-2.4,10-7.8h1.1c-1.6,5.9-6.1,8.8-11.2,8.8
				c-6.2,0-11.4-4.8-11.4-14.1c0-8.4,5.2-13.9,11.8-13.9c7.6,0,11.2,6.7,11.2,13.3C818.9,517.6,818.9,517.8,818.8,518.4z M797,517.3
				h20.7c-0.2-9.2-5.6-12.1-10.2-12.1S797.3,509,797,517.3z"/>
			<path class="st12" d="M841,524.9l-1.2,2.7c-1.9,3-5,4.5-8.6,4.5c-5,0-8.2-2.4-8.2-7.1c0-6.2,7.9-8.9,16.2-8.9h1.7v-1.4
				c0-1.3,0-2.3-0.1-3.4c-0.3-4-3-6.1-7.3-6.1c-3.7,0-7.7,2-8.3,6.9h-1.1c0.3-4.4,4.2-8,9.4-8s8.1,2.6,8.4,7
				c0.1,1.4,0.1,2.1,0.1,3.5v8.2c0,3,0.2,5.1,0.5,8.6h-1.2L841,524.9L841,524.9z M841,520.9v-3.6c-7.8-0.5-16.7,1.7-16.7,7.7
				c0,3.7,2.3,6.1,7.1,6.1C837.1,531.1,841,526.1,841,520.9L841,520.9z"/>
			<path class="st12" d="M869.5,531.4h-1.1v-6.1l-1.4,3c-2.4,2.8-4.8,3.7-8.4,3.7c-6.9,0-11.5-5.7-11.5-13.8
				c0-9.4,5.7-14.2,12.1-14.2c3.4,0,5.6,1,7.7,3.4l1.5,3.3v-16.6h1.1L869.5,531.4L869.5,531.4z M868.4,519.4v-3
				c0-8.7-5-11.2-9.2-11.2c-6.4,0-10.9,5.3-10.9,12.9c0,7,3.6,12.9,10.3,12.9C864,531.1,868.4,528.2,868.4,519.4L868.4,519.4z"/>
			<path class="st12" d="M919.9,516.7v14.8h-1.1v-14.3c0-1.9,0-3-0.2-4.4c-0.5-4.5-2.6-7.6-6.9-7.6s-8.2,3.4-8.2,11v15.2h-1.1v-14.3
				c0-1.9,0-3-0.2-4.4c-0.5-4.5-2.6-7.6-6.9-7.6s-8.2,3.4-8.2,11v15.2H886v-26.6h1.1v5.7l1.2-2.9c1.8-2.4,4.2-3.5,7-3.5
				c4.3,0,7,2.5,7.8,6.9l1.6-3.4c1.8-2.4,4.2-3.5,7-3.5c4.8,0,7.4,3,8,8.2C919.9,513.7,920,514.5,919.9,516.7L919.9,516.7z"/>
			<path class="st12" d="M947.7,518.4h-21.8c0.2,9.2,5.5,12.7,10.3,12.7c4.2,0,8.4-2.4,10-7.8h1.1c-1.6,5.9-6.1,8.8-11.2,8.8
				c-6.2,0-11.4-4.8-11.4-14.1c0-8.4,5.2-13.9,11.8-13.9c7.6,0,11.2,6.7,11.2,13.3C947.8,517.6,947.8,517.8,947.7,518.4z
				 M925.9,517.3h20.7c-0.2-9.2-5.6-12.1-10.2-12.1S926.2,509,925.9,517.3z"/>
			<path class="st12" d="M969.4,512.1h-1.1c-1.1-4.6-3.6-6.9-7.9-6.9c-3.7,0-7.1,2.2-7.1,6.1c0,3.9,3,5.2,7.2,6.2
				c6.1,1.4,9.1,3.3,9.1,7.7s-3.7,7-8.9,7s-9.2-2.5-9.8-8.6h1.1c0.9,5.6,4.4,7.5,8.8,7.5c4.2,0,7.7-2,7.7-5.9s-2.1-5.2-8.5-6.7
				c-4.2-1-7.9-2.7-7.9-7.2c0-4.1,3.4-7.2,8.3-7.2C966,504.1,968.7,507.7,969.4,512.1L969.4,512.1z"/>
			<path class="st12" d="M991.4,512.1h-1.1c-1.1-4.6-3.6-6.9-7.9-6.9c-3.7,0-7.1,2.2-7.1,6.1c0,3.9,3,5.2,7.2,6.2
				c6.1,1.4,9.1,3.3,9.1,7.7s-3.7,7-8.9,7s-9.2-2.5-9.8-8.6h1.1c0.9,5.6,4.4,7.5,8.8,7.5c4.2,0,7.7-2,7.7-5.9s-2.1-5.2-8.5-6.7
				c-4.2-1-7.9-2.7-7.9-7.2c0-4.1,3.4-7.2,8.3-7.2C987.9,504.1,990.7,507.7,991.4,512.1L991.4,512.1z"/>
			<path class="st12" d="M1013.8,524.9l-1.2,2.7c-1.9,3-5,4.5-8.6,4.5c-5,0-8.2-2.4-8.2-7.1c0-6.2,7.9-8.9,16.2-8.9h1.7v-1.4
				c0-1.3,0-2.3-0.1-3.4c-0.3-4-3-6.1-7.3-6.1c-3.7,0-7.7,2-8.3,6.9h-1.1c0.3-4.4,4.2-8,9.5-8s8.1,2.6,8.4,7
				c0.1,1.4,0.1,2.1,0.1,3.5v8.2c0,3,0.2,5.1,0.5,8.6h-1.2L1013.8,524.9L1013.8,524.9z M1013.8,520.9v-3.6
				c-7.8-0.5-16.7,1.7-16.7,7.7c0,3.7,2.3,6.1,7.1,6.1C1010,531.1,1013.8,526.1,1013.8,520.9L1013.8,520.9z"/>
			<path class="st12" d="M1042.4,524.4c0,4.2,0,6.3-0.1,8c-0.2,6-4.1,10.2-10.9,10.2c-4.9,0-9.3-2-10.2-8l-0.1-0.8h1.1l0.1,0.8
				c0.7,5.1,4.8,6.9,9.1,6.9c6.3,0,9.6-3.9,9.7-9.5c0.1-1.8,0.1-3.1,0.1-5.6v-1l-1.4,3c-2.4,2.8-4.8,3.7-8.4,3.7
				c-6.9,0-11.5-5.7-11.5-13.8c0-9.4,5.7-14.2,12.1-14.2c3.4,0,5.6,1,7.7,3.4l1.5,3.3v-6.3h1.1L1042.4,524.4L1042.4,524.4z
				 M1041.3,519.4v-3c0-8.7-5.1-11.2-9.2-11.2c-6.4,0-10.9,5.3-10.9,12.9c0,7,3.6,12.9,10.3,12.9
				C1036.8,531.1,1041.3,528.2,1041.3,519.4L1041.3,519.4z"/>
			<path class="st12" d="M1070.4,518.4h-21.8c0.2,9.2,5.4,12.7,10.3,12.7c4.2,0,8.4-2.4,9.9-7.8h1.1c-1.6,5.9-6.1,8.8-11.2,8.8
				c-6.2,0-11.4-4.8-11.4-14.1c0-8.4,5.2-13.9,11.8-13.9c7.6,0,11.2,6.7,11.2,13.3C1070.5,517.6,1070.5,517.8,1070.4,518.4
				L1070.4,518.4z M1048.6,517.3h20.7c-0.2-9.2-5.6-12.1-10.2-12.1S1048.8,509,1048.6,517.3L1048.6,517.3z"/>
			<path class="st12" d="M1092.1,512.1h-1.1c-1.1-4.6-3.6-6.9-7.9-6.9c-3.7,0-7.1,2.2-7.1,6.1c0,3.9,3,5.2,7.2,6.2
				c6.1,1.4,9.1,3.3,9.1,7.7s-3.7,7-8.9,7s-9.2-2.5-9.8-8.6h1.1c0.9,5.6,4.4,7.5,8.8,7.5c4.2,0,7.7-2,7.7-5.9s-2.1-5.2-8.5-6.7
				c-4.2-1-7.9-2.7-7.9-7.2c0-4.1,3.4-7.2,8.3-7.2C1088.6,504.1,1091.4,507.7,1092.1,512.1L1092.1,512.1z"/>
		</g>
	</g>
	<g>
		<path class="st21" d="M659.2,326.6L659.2,326.6c-6.5,0-12.8-1.2-18.7-3.7l9-21.9c3.1,1.3,6.3,1.9,9.7,1.9V326.6L659.2,326.6z"/>
		<path class="st22" d="M678,322.9l-9.1-21.9c3.1-1.3,5.8-3.1,8.2-5.5l16.8,16.8C689.3,316.8,683.9,320.4,678,322.9L678,322.9z"/>
		<path class="st23" d="M624.6,312.3c-4.6-4.6-8.2-9.9-10.7-15.8l21.9-9.1c1.3,3.1,3.1,5.8,5.5,8.2L624.6,312.3L624.6,312.3z"/>
		<path class="st24" d="M704.5,296.4l-21.9-9.1c1.3-3,1.9-6.3,1.9-9.6v-0.1l23.7-0.2v0.2C708.2,284.1,706.9,290.4,704.5,296.4
			L704.5,296.4z"/>
		<path class="st22" d="M610.2,277.8v-0.2c0-6.5,1.2-12.7,3.7-18.7l21.9,9.1c-1.3,3-1.9,6.3-1.9,9.6v0.1L610.2,277.8l9.7-0.1
			L610.2,277.8L610.2,277.8z"/>
		<path class="st25" d="M682.5,267.9c-1.3-3.1-3.2-5.8-5.5-8.2l16.7-16.9c4.6,4.6,8.2,9.9,10.7,15.8L682.5,267.9L682.5,267.9z"/>
		<path class="st26" d="M641.2,259.9l-16.8-16.8c4.6-4.6,9.9-8.1,15.9-10.6l9.1,21.9C646.4,255.6,643.6,257.5,641.2,259.9
			L641.2,259.9z"/>
		<path class="st27" d="M669.2,254.3c-3-1.2-6.3-1.9-9.6-1.9h-0.1v-23.7h0.1c6.4,0,12.7,1.2,18.6,3.6L669.2,254.3L669.2,254.3z"/>
	</g>
	<g>
		<g>
			<path class="st12" d="M733.8,858c-33.5,0-60.7-27.2-60.7-60.7s27.2-60.7,60.7-60.7s60.7,27.2,60.7,60.7S767.3,858,733.8,858z
				 M733.8,741.7c-30.6,0-55.5,24.9-55.5,55.5s24.9,55.5,55.5,55.5s55.5-24.9,55.5-55.5S764.4,741.7,733.8,741.7z"/>
			<path class="st12" d="M702.3,834L702.3,834c-3.7-2.5-5.8-6.6-5.5-9c1-6.7,11.3-18.4,17.9-18.6c1.4-0.1,3.1,0.6,5.2,2
				c2.7,1.8,5.5,4.5,6.6,5.7l0.1,0.1c0.2,0.1,0.9-0.2,1.4-0.7l18.4-27.7c0.2-0.6,0.3-1.4,0.1-1.5c0,0,0,0-0.1,0
				c-1.5-0.6-5.1-2.1-7.8-3.9c-2.1-1.4-3.4-2.7-3.9-4.1c-2.3-6.2,4.5-20.2,10.3-23.7c2-1.2,6.7-0.9,10.4,1.5c1.2,0.8,2.3,1.8,3.1,3
				c3.4,4.8,5.9,12,5.5,15.8s-10.5,24-15.7,32.6c-0.3,0.5-1.5,2.3-1.9,2.8c-5.8,7.9-20.1,24.5-23.5,26.4c-3.3,1.8-11,2.3-16.7,1
				C704.9,835.3,703.6,834.8,702.3,834L702.3,834z"/>
		</g>
		<circle class="st12" cx="736.9" cy="878.1" r="7.7"/>
		<path class="st12" d="M743,904.2c0,3.4-2.7,6.1-6.1,6.1s-6.1-2.7-6.1-6.1s2.7-6.1,6.1-6.1S743,900.8,743,904.2z"/>
		<circle class="st12" cx="736.9" cy="930.2" r="5.2"/>
	</g>
	<g>
		<ellipse class="st12" cx="590" cy="687.1" rx="59" ry="59"/>
		<path class="st0" d="M577.3,717.9c-1.2,0-2.3-0.3-3.3-0.9c-2.1-1.2-3.3-3.4-3.3-5.8v-48.1c0-2.4,1.2-4.6,3.3-5.8s4.6-1.2,6.7,0
			l41.7,24c2.1,1.2,3.3,3.4,3.3,5.8s-1.2,4.6-3.3,5.8l-41.7,24C579.6,717.6,578.4,717.9,577.3,717.9L577.3,717.9z M577.3,660.5
			c-0.6,0-1,0.2-1.3,0.3c-0.4,0.2-1.3,0.9-1.3,2.2v48.1c0,1.3,0.9,2,1.3,2.2c0.4,0.2,1.4,0.7,2.5,0l41.7-24c1.1-0.7,1.3-1.8,1.3-2.2
			s-0.1-1.5-1.3-2.2l-41.7-24C578.1,660.6,577.7,660.5,577.3,660.5L577.3,660.5z"/>
	</g>
	<g>
		<path class="st0" d="M1620.7,707.9c0,8.7-4,12.5-8.9,12.5c-4.2,0-6.9-2.4-7.2-6.2v-0.3h3.7l0.1,0.3c0.5,2.3,1.7,3.4,3.8,3.4
			c2.8,0,4.7-2.4,4.9-8.4l-1.2,2c-1.2,1-2.4,1.4-4.1,1.4c-4.8,0-7.4-3.2-7.4-7.5c0-5,3.6-8.1,8.2-8.1
			C1617.8,697.2,1620.7,700.4,1620.7,707.9L1620.7,707.9z M1616.8,704.9c0-2.8-1.7-5-4.2-5s-4.3,2-4.3,4.9s1.3,5.2,4.3,5.2
			C1614.8,710,1616.8,708.2,1616.8,704.9z"/>
		<path class="st0" d="M1640.2,707.9c0,8.7-4,12.5-8.9,12.5c-4.2,0-6.9-2.4-7.2-6.2v-0.3h3.7l0.1,0.3c0.5,2.3,1.7,3.4,3.8,3.4
			c2.8,0,4.7-2.4,4.9-8.4l-1.2,2c-1.2,1-2.4,1.4-4.1,1.4c-4.8,0-7.4-3.2-7.4-7.5c0-5,3.6-8.1,8.2-8.1
			C1637.2,697.2,1640.2,700.4,1640.2,707.9L1640.2,707.9z M1636.2,704.9c0-2.8-1.7-5-4.2-5s-4.3,2-4.3,4.9s1.3,5.2,4.3,5.2
			C1634.3,710,1636.2,708.2,1636.2,704.9z"/>
	</g>
</g>
</svg>
