<?xml version="1.0" encoding="utf-8"?>
<!-- Generator: Adobe Illustrator 27.3.1, SVG Export Plug-In . SVG Version: 6.00 Build 0)  -->
<svg version="1.1" id="Layer_1" xmlns="http://www.w3.org/2000/svg" xmlns:xlink="http://www.w3.org/1999/xlink" x="0px" y="0px"
	 viewBox="0 0 2000 2000" style="enable-background:new 0 0 2000 2000;" xml:space="preserve">
<style type="text/css">
	.st0{opacity:0.3;fill:#293657;enable-background:new    ;}
	.st1{fill:#E2857E;}
	.st2{fill:#293657;}
	.st3{fill:#FFFFFF;}
	.st4{fill:#E3847C;}
	.st5{fill:#FCF75A;}
	.st6{fill:#EBECED;}
	.st7{fill:#2A3756;}
	.st8{fill:#527BEF;}
	.st9{fill:#4E5EAF;}
	.st10{fill:#EF5C00;}
	.st11{opacity:0.4;fill:#2E3C5C;enable-background:new    ;}
	.st12{fill:#151C28;}
</style>
<g>
	<path class="st0" d="M1563.1,1771.5c0,16.3-98.3,29.5-334,29.5s-809.5-13.2-809.5-29.5s573.8-29.5,809.5-29.5
		S1563.1,1755.2,1563.1,1771.5L1563.1,1771.5z"/>
	<path class="st0" d="M1209.3,214.6C1091.5,270.9,780.6,458,696.9,490.7s-399.8,190-340.4,551.7s59.1,498.3,355.1,548
		c296,49.7,695.1-213.4,858.1-474.6s263.9-448.2,17.5-776.1C1437.9,179.5,1284.4,178.6,1209.3,214.6L1209.3,214.6z"/>
</g>
<g>
	<path class="st1" d="M1045.1,879.1l-22.7-13.9c-0.5-5.9-1.8-12.5-3.1-18.1c-2.7-11.3-12.5-18.9-19.1-29.8
		c-6.5-10.9-12.3-19.5-14.6-16.8s-2.8,10.8-0.7,16.7c2.2,6,12.7,17.4,11,17.9c-1.6,0.5-19.7-7-19.7-7s-43.2-27.4-47.1-20
		c-3.3,6.4,39,29.7,39,29.7l-1.4,2c0,0-47.1-30.8-51.7-22.5s45.2,33.2,45.2,33.2l-0.6,1.9c-8.4-4.7-45.8-26.3-48.6-19
		c-3.6,9.3,45.9,29.1,45.9,29.1s0.2,1.7-0.3,1.5c-9.7-3.8-35.5-13.2-36.7-8.3c-2,8.2,39.6,21.5,39.6,21.5s32,13.8,41,15.5
		c1.5,0.3,3.1,0.1,4.7-0.5l18.4,13.7L1045.1,879.1L1045.1,879.1z"/>
	<g id="_02_3_4">
		<g id="_02_Standing">
			<g id="leg">
				<path class="st2" d="M1360.1,1007.5c0,0-53.2,340.6-56,367.6c-2.8,26.9,20.9,88.6-11.8,275.9l-43.7,2.2
					c-2.2-80.9-6.1-222.9-6.6-255.8c-0.7-46.7-9.5-294.2-9.5-294.2S1333.3,942.7,1360.1,1007.5L1360.1,1007.5z"/>
				<g>
					<polygon class="st3" points="1284.4,1718.7 1255.9,1749 1241.6,1705.4 1246.9,1672.9 1288.7,1676.2 					"/>
					<polygon class="st4" points="1246.9,1672.9 1288.7,1676.2 1292.2,1651 1248.6,1653.2 					"/>
				</g>
			</g>
			<g id="hoodie">
				<g id="head">
					<path class="st4" d="M1333.3,464.5c-28.9-4.7-67.5,4.4-71.5,52.5c-2.8,33.7-4.6,92,17,97.5c9.6,2.5,44.8-3.9,44.8-3.9l-5.2,62
						l66.3-27.4l-15.6-55.7C1369.2,589.5,1428.7,480,1333.3,464.5L1333.3,464.5z"/>
					<path class="st2" d="M1279.1,475.5l48.2,59.2c6.4-14.8,18.2-12.1,25.2-1.1c8.6,13.5-7.1,27-5.1,31.7c2,4.6,18.1,24.1,21.8,24.3
						c3.8,0.2,71.8-38.1,32.2-116.3C1383.2,437.2,1317.7,429.6,1279.1,475.5L1279.1,475.5z"/>
					<path class="st2" d="M1319.9,408.6c-3.3,22.9,9,39.2,29.8,42.2s32.5-10.6,35.8-33.5s-5.2-41.7-26.1-44.7
						C1338.6,369.7,1323.2,385.7,1319.9,408.6z"/>
				</g>
				<path class="st5" d="M1269.3,674.2l240.8-84c0,0,41,127.9-60.6,133.9c-60.8,3.6-118.2,8.5-149.5-16.7
					C1279,690.5,1269.3,674.2,1269.3,674.2L1269.3,674.2z"/>
			</g>
		</g>
		<g id="_02_Front">
			<g id="leg-2">
				<path class="st2" d="M1472.7,1097.4c0,0-15.9,109-21.4,250.2c-4.8,123.8,21.4,124.4-1,298.5h-42.6
					c-1.9-114.4-4.6-114.1-51.1-578.4C1356.7,1067.8,1446.7,1032.3,1472.7,1097.4L1472.7,1097.4z"/>
				<polygon class="st3" points="1411.7,1728.1 1450.4,1717 1450.4,1671.1 1409.9,1671.1 				"/>
				<polygon class="st4" points="1450.4,1671.1 1409.9,1671.1 1407.8,1646.2 1450.4,1646.2 				"/>
			</g>
			<g id="hoodie-2">
				<path class="st5" d="M1456.2,671.2c14.4,98.9,38.9,480.4,38.9,480.4c-47.3,50.8-277.5,2.1-277.5,2.1s17-332.8,51.8-479.4
					C1269.3,674.2,1437.5,616.4,1456.2,671.2L1456.2,671.2z"/>
			</g>
		</g>
		<path class="st5" d="M1468,692c0,0,123.4,190.3,94.7,250.1s-132,118.6-132,118.6l2.7-336.4L1468,692L1468,692z"/>
		<path class="st2" d="M1288.1,1710c3.1,0.8,11.6,56,6.5,58.9c-5,2.9-145.9,5.1-154.1-2.9c-4.3-4.2,0.3-22.8,3.2-23.6
			c54.4-15.2,93.9-43.8,93.9-43.8s13.9,5,12.3,12.4l-1.7,3.1c0,0,8.8,8.2,17.3,7.4C1274,1720.7,1280.1,1707.8,1288.1,1710
			L1288.1,1710z"/>
		<path class="st2" d="M1450.4,1699.6c-5.7-3.8-12.6-6-20.6-5.8c-7.1,0.2-13.7,2.3-18.9,5.7l-14.3,56.2l0.3,10.9
			c-0.1-0.1-0.1,0.3,0.2,0.9c8.1,3.7,20.5,5.8,34.3,5.5c15.2-0.4,28.5-3.8,36.2-8.6l-0.3-10.7L1450.4,1699.6L1450.4,1699.6z"/>
		<path class="st5" d="M1032,869.2l-23.6,30.8c0,0,115,98,156,100s100-81,100-81V706.2l-112.9,189.5L1032,869.2L1032,869.2z"/>
	</g>
</g>
<g>
	<path class="st6" d="M769.5,905.2c20.3-8.5,106.5-53.4,99.4-70.4s-99.5,13.2-119.8,21.8s-32.2,26.4-26.6,39.8
		C728.1,909.8,749.2,913.8,769.5,905.2L769.5,905.2z"/>
	<path class="st3" d="M468.6,865.3c0,81,67.8,146.6,151.5,146.6s151.5-65.6,151.5-146.6s-67.8-146.6-151.5-146.6
		S468.6,784.4,468.6,865.3z"/>
	<g>
		<path class="st3" d="M560.8,854.7c0.8-0.1,1.6-0.3,2.4-0.6c14.6-5.9,26-17,32.2-31.5s6.3-30.4,0.5-45L573,720.8
			c-5.9-14.6-17-26-31.5-32.2s-30.4-6.3-45-0.5c-4.8,1.9-7.2,7.4-5.2,12.3c1.9,4.8,7.4,7.2,12.3,5.2c9.9-4,20.8-3.9,30.6,0.3
			s17.4,11.9,21.4,21.8l22.8,56.7c4,9.9,3.9,20.8-0.3,30.6s-11.9,17.4-21.8,21.4c-4.8,1.9-7.2,7.4-5.2,12.3
			C552.6,852.9,556.7,855.2,560.8,854.7L560.8,854.7z"/>
		<path class="st7" d="M523.1,827c4.4,36.4,53.9,60.4,110.6,53.6c56.7-6.8,99.1-41.8,94.7-78.2C724,766,674.5,742,617.8,748.8
			S518.7,790.6,523.1,827L523.1,827z"/>
	</g>
	<path class="st6" d="M470.9,935.1c-5.6,21.3-22.4,117-4.5,121.7s50-87,55.5-108.4c5.6-21.3-1.3-41.6-15.4-45.3
		C492.4,899.4,476.5,913.7,470.9,935.1L470.9,935.1z"/>
	<g>
		<g>
			<path class="st8" d="M549.8,808.3l1.4-0.2c0.8-0.1,1.6,0.5,1.7,1.4l0.2,1.4c0.1,0.8-0.5,1.6-1.4,1.7l-1.4,0.2
				c-0.8,0.1-1.6-0.5-1.7-1.4l-0.2-1.4C548.4,809.1,549,808.4,549.8,808.3L549.8,808.3z"/>
			<path class="st8" d="M573.9,805.4l1.4-0.2c0.8-0.1,1.6,0.5,1.7,1.4l0.2,1.4c0.1,0.8-0.5,1.6-1.4,1.7l-1.4,0.2
				c-0.8,0.1-1.6-0.5-1.7-1.4l-0.2-1.4C572.5,806.2,573.1,805.5,573.9,805.4L573.9,805.4z"/>
			<path class="st8" d="M584.5,804l1.4-0.2c0.8-0.1,1.6,0.5,1.7,1.4l0.2,1.4c0.1,0.8-0.5,1.6-1.4,1.7l-1.4,0.2
				c-0.8,0.1-1.6-0.5-1.7-1.4l-0.2-1.4C583.1,804.9,583.7,804.1,584.5,804L584.5,804z"/>
			<path class="st8" d="M595,802.8l1.4-0.2c0.8-0.1,1.6,0.5,1.7,1.4l0.2,1.4c0.1,0.8-0.5,1.6-1.4,1.7l-1.4,0.2
				c-0.8,0.1-1.6-0.5-1.7-1.4l-0.2-1.4C593.5,803.6,594.1,802.9,595,802.8L595,802.8z"/>
			<path class="st8" d="M610.7,800.9l1.4-0.2c0.8-0.1,1.6,0.5,1.7,1.4l0.2,1.4c0.1,0.8-0.5,1.6-1.4,1.7l-1.4,0.2
				c-0.8,0.1-1.6-0.5-1.7-1.4l-0.2-1.4C609.2,801.8,609.8,801,610.7,800.9L610.7,800.9z"/>
			<path class="st8" d="M621.2,799.6l1.4-0.2c0.8-0.1,1.6,0.5,1.7,1.4l0.2,1.4c0.1,0.8-0.5,1.6-1.4,1.7l-1.4,0.2
				c-0.8,0.1-1.6-0.5-1.7-1.4l-0.2-1.4C619.7,800.4,620.3,799.7,621.2,799.6L621.2,799.6z"/>
			<path class="st8" d="M545.2,814l1.4-0.2c0.8-0.1,1.6,0.5,1.7,1.4l0.2,1.4c0.1,0.8-0.5,1.6-1.4,1.7l-1.4,0.2
				c-0.8,0.1-1.6-0.5-1.7-1.4l-0.2-1.4C543.7,814.9,544.4,814.1,545.2,814L545.2,814z"/>
			<g>
				<path class="st8" d="M549.1,815.1c-0.1-0.8,0.5-1.6,1.4-1.7l1.4-0.2c0.8-0.1,1.6,0.5,1.7,1.4l0.2,1.4c0.1,0.8-0.5,1.6-1.3,1.7
					l-1.4,0.2c-0.8,0.1-1.6-0.5-1.7-1.4L549.1,815.1L549.1,815.1z"/>
				<path class="st8" d="M549.6,819.9c-0.1-0.8,0.5-1.6,1.3-1.7l1.4-0.2c0.8-0.1,1.6,0.5,1.7,1.4l0.2,1.4c0.1,0.8-0.5,1.6-1.4,1.7
					l-1.4,0.2c-0.8,0.1-1.6-0.5-1.7-1.4L549.6,819.9L549.6,819.9z"/>
			</g>
			<g>
				<path class="st8" d="M574.6,810.4l1.4-0.2c0.8-0.1,1.6,0.5,1.7,1.4l0.2,1.4c0.1,0.8-0.5,1.6-1.4,1.7l-1.4,0.2
					c-0.8,0.1-1.6-0.5-1.7-1.4l-0.2-1.4C573.2,811.3,573.8,810.5,574.6,810.4z"/>
				<path class="st8" d="M575.2,815.2l1.4-0.2c0.8-0.1,1.6,0.5,1.7,1.4l0.2,1.4c0.1,0.8-0.5,1.6-1.4,1.7l-1.4,0.2
					c-0.8,0.1-1.6-0.5-1.7-1.4l-0.2-1.4C573.7,816.1,574.4,815.3,575.2,815.2L575.2,815.2z"/>
			</g>
			<g>
				<path class="st8" d="M585.1,809.2l1.4-0.2c0.8-0.1,1.6,0.5,1.7,1.4l0.2,1.4c0.1,0.8-0.5,1.6-1.4,1.7l-1.4,0.2
					c-0.8,0.1-1.6-0.5-1.7-1.4l-0.2-1.4C583.7,810,584.3,809.2,585.1,809.2L585.1,809.2z"/>
				<path class="st8" d="M585.7,814l1.4-0.2c0.8-0.1,1.6,0.5,1.7,1.4l0.2,1.4c0.1,0.8-0.5,1.6-1.4,1.7l-1.4,0.2
					c-0.8,0.1-1.6-0.5-1.7-1.4l-0.2-1.4C584.2,814.8,584.9,814.1,585.7,814z"/>
			</g>
			<g>
				<path class="st8" d="M595.6,807.9l1.4-0.2c0.8-0.1,1.6,0.5,1.7,1.4l0.2,1.4c0.1,0.8-0.5,1.6-1.4,1.7l-1.4,0.2
					c-0.8,0.1-1.6-0.5-1.7-1.4l-0.2-1.4C594.2,808.7,594.8,808,595.6,807.9L595.6,807.9z"/>
				<path class="st8" d="M596.2,812.7l1.4-0.2c0.8-0.1,1.6,0.5,1.7,1.3l0.2,1.4c0.1,0.8-0.5,1.6-1.4,1.7l-1.4,0.2
					c-0.8,0.1-1.6-0.5-1.7-1.4l-0.2-1.4C594.7,813.6,595.3,812.8,596.2,812.7L596.2,812.7z"/>
			</g>
			<path class="st8" d="M600,813.8c-0.1-0.8,0.5-1.6,1.3-1.7l1.4-0.2c0.8-0.1,1.6,0.5,1.7,1.4l0.2,1.4c0.1,0.8-0.5,1.6-1.4,1.7
				l-1.4,0.2c-0.8,0.1-1.6-0.5-1.7-1.4L600,813.8L600,813.8z"/>
			<g>
				<path class="st8" d="M610,807.7c-0.1-0.8,0.5-1.6,1.3-1.7l1.4-0.2c0.8-0.1,1.6,0.5,1.7,1.4l0.2,1.4c0.1,0.8-0.5,1.6-1.4,1.7
					l-1.4,0.2c-0.8,0.1-1.6-0.5-1.7-1.4L610,807.7L610,807.7z"/>
				<path class="st8" d="M611.9,810.8l1.4-0.2c0.8-0.1,1.6,0.5,1.7,1.3l0.2,1.4c0.1,0.8-0.5,1.6-1.4,1.7l-1.4,0.2
					c-0.8,0.1-1.6-0.5-1.7-1.4l-0.2-1.4C610.5,811.6,611.1,810.9,611.9,810.8L611.9,810.8z"/>
			</g>
			<g>
				<path class="st8" d="M620.5,806.4c-0.1-0.8,0.5-1.6,1.4-1.7l1.4-0.2c0.8-0.1,1.6,0.5,1.7,1.4l0.2,1.4c0.1,0.8-0.5,1.6-1.4,1.7
					l-1.4,0.2c-0.8,0.1-1.6-0.5-1.7-1.3L620.5,806.4L620.5,806.4z"/>
				<path class="st8" d="M622.4,809.5l1.4-0.2c0.8-0.1,1.6,0.5,1.7,1.4l0.2,1.4c0.1,0.8-0.5,1.6-1.4,1.7l-1.4,0.2
					c-0.8,0.1-1.6-0.5-1.7-1.4l-0.2-1.4C621,810.3,621.6,809.6,622.4,809.5L622.4,809.5z"/>
			</g>
			<g>
				<path class="st8" d="M550.3,825c-0.1-0.8,0.5-1.6,1.4-1.7l1.4-0.2c0.8-0.1,1.6,0.5,1.7,1.4l0.2,1.4c0.1,0.8-0.5,1.6-1.3,1.7
					l-1.4,0.2c-0.8,0.1-1.6-0.5-1.7-1.4L550.3,825L550.3,825z"/>
				<path class="st8" d="M552.2,828.1l1.4-0.2c0.8-0.1,1.6,0.5,1.7,1.4l0.2,1.4c0.1,0.8-0.5,1.6-1.4,1.7l-1.4,0.2
					c-0.8,0.1-1.6-0.5-1.7-1.4l-0.2-1.4C550.8,829,551.4,828.2,552.2,828.1z"/>
			</g>
			<g>
				<path class="st8" d="M574.5,822.1c-0.1-0.8,0.5-1.6,1.4-1.7l1.4-0.2c0.8-0.1,1.6,0.5,1.7,1.4l0.2,1.4c0.1,0.8-0.5,1.6-1.4,1.7
					l-1.4,0.2c-0.8,0.1-1.6-0.5-1.7-1.4L574.5,822.1L574.5,822.1z"/>
				<path class="st8" d="M576.4,825.2l1.4-0.2c0.8-0.1,1.6,0.5,1.7,1.4l0.2,1.4c0.1,0.8-0.5,1.6-1.4,1.7l-1.4,0.2
					c-0.8,0.1-1.6-0.5-1.7-1.4l-0.2-1.4C574.9,826,575.5,825.3,576.4,825.2L576.4,825.2z"/>
			</g>
			<path class="st8" d="M580.3,826.3c-0.1-0.8,0.5-1.6,1.3-1.7l1.4-0.2c0.8-0.1,1.6,0.5,1.7,1.4l0.2,1.4c0.1,0.8-0.5,1.6-1.4,1.7
				l-1.4,0.2c-0.8,0.1-1.6-0.5-1.7-1.4L580.3,826.3L580.3,826.3z"/>
			<g>
				<path class="st8" d="M586.3,819.1l1.4-0.2c0.8-0.1,1.6,0.5,1.7,1.4l0.2,1.4c0.1,0.8-0.5,1.6-1.4,1.7l-1.4,0.2
					c-0.8,0.1-1.6-0.5-1.7-1.4l-0.2-1.4C584.9,819.9,585.5,819.2,586.3,819.1z"/>
				<path class="st8" d="M586.9,823.9l1.4-0.2c0.8-0.1,1.6,0.5,1.7,1.4l0.2,1.4c0.1,0.8-0.5,1.6-1.4,1.7l-1.4,0.2
					c-0.8,0.1-1.6-0.5-1.7-1.4l-0.2-1.4C585.4,824.8,586,824,586.9,823.9L586.9,823.9z"/>
			</g>
			<g>
				<path class="st8" d="M596.8,817.8l1.4-0.2c0.8-0.1,1.6,0.5,1.7,1.4l0.2,1.4c0.1,0.8-0.5,1.6-1.3,1.7l-1.4,0.2
					c-0.8,0.1-1.6-0.5-1.7-1.4l-0.2-1.4C595.4,818.6,596,817.9,596.8,817.8L596.8,817.8z"/>
				<path class="st8" d="M597.4,822.6l1.4-0.2c0.8-0.1,1.6,0.5,1.7,1.4l0.2,1.4c0.1,0.8-0.5,1.6-1.4,1.7l-1.4,0.2
					c-0.8,0.1-1.6-0.5-1.7-1.4l-0.2-1.4C595.9,823.5,596.5,822.7,597.4,822.6z"/>
			</g>
			<path class="st8" d="M607.3,816.5l1.4-0.2c0.8-0.1,1.6,0.5,1.7,1.4l0.2,1.4c0.1,0.8-0.5,1.6-1.4,1.7l-1.4,0.2
				c-0.8,0.1-1.6-0.5-1.7-1.4l-0.2-1.4C605.9,817.3,606.5,816.6,607.3,816.5z"/>
			<g>
				<path class="st8" d="M611.2,817.6c-0.1-0.8,0.5-1.6,1.4-1.7l1.4-0.2c0.8-0.1,1.6,0.5,1.7,1.4l0.2,1.4c0.1,0.8-0.5,1.6-1.4,1.7
					l-1.4,0.2c-0.8,0.1-1.6-0.5-1.7-1.4L611.2,817.6z"/>
				<path class="st8" d="M611.8,822.4c-0.1-0.8,0.5-1.6,1.3-1.7l1.4-0.2c0.8-0.1,1.6,0.5,1.7,1.4l0.2,1.4c0.1,0.8-0.5,1.6-1.4,1.7
					l-1.4,0.2c-0.8,0.1-1.6-0.5-1.7-1.4L611.8,822.4L611.8,822.4z"/>
			</g>
			<g>
				<path class="st8" d="M623.1,814.6l1.4-0.2c0.8-0.1,1.6,0.5,1.7,1.4l0.2,1.4c0.1,0.8-0.5,1.6-1.3,1.7l-1.4,0.2
					c-0.8,0.1-1.6-0.5-1.7-1.4l-0.2-1.4C621.6,815.4,622.2,814.7,623.1,814.6L623.1,814.6z"/>
				<path class="st8" d="M623.6,819.4l1.4-0.2c0.8-0.1,1.6,0.5,1.7,1.3l0.2,1.4c0.1,0.8-0.5,1.6-1.4,1.7l-1.4,0.2
					c-0.8,0.1-1.6-0.5-1.7-1.4l-0.2-1.4C622.1,820.3,622.7,819.5,623.6,819.4L623.6,819.4z"/>
			</g>
		</g>
		<g>
			<path class="st8" d="M626.4,799l1.4-0.2c0.8-0.1,1.6,0.5,1.7,1.4l0.2,1.4c0.1,0.8-0.5,1.6-1.4,1.7l-1.4,0.2
				c-0.8,0.1-1.6-0.5-1.7-1.4l-0.2-1.4C625,799.8,625.6,799,626.4,799L626.4,799z"/>
			<path class="st8" d="M631.7,798.3l1.4-0.2c0.8-0.1,1.6,0.5,1.7,1.4l0.2,1.4c0.1,0.8-0.5,1.6-1.4,1.7l-1.4,0.2
				c-0.8,0.1-1.6-0.5-1.7-1.4l-0.2-1.4C630.2,799.2,630.8,798.4,631.7,798.3z"/>
			<path class="st8" d="M637,797.6l1.4-0.2c0.8-0.1,1.6,0.5,1.7,1.4l0.2,1.4c0.1,0.8-0.5,1.6-1.4,1.7l-1.4,0.2
				c-0.8,0.1-1.6-0.5-1.7-1.4l-0.2-1.4C635.5,798.5,636.1,797.7,637,797.6L637,797.6z"/>
			<path class="st8" d="M646.1,798.1c-0.1-0.8,0.5-1.6,1.4-1.7l1.4-0.2c0.8-0.1,1.6,0.5,1.7,1.4l0.2,1.4c0.1,0.8-0.5,1.6-1.4,1.7
				l-1.4,0.2c-0.8,0.1-1.6-0.5-1.7-1.4L646.1,798.1L646.1,798.1z"/>
			<path class="st8" d="M651.3,797.5c-0.1-0.8,0.5-1.6,1.3-1.7l1.4-0.2c0.8-0.1,1.6,0.5,1.7,1.4l0.2,1.4c0.1,0.8-0.5,1.6-1.3,1.7
				l-1.4,0.2c-0.8,0.1-1.6-0.5-1.7-1.4L651.3,797.5z"/>
			<path class="st8" d="M658,795l1.4-0.2c0.8-0.1,1.6,0.5,1.7,1.4l0.2,1.4c0.1,0.8-0.5,1.6-1.4,1.7l-1.4,0.2
				c-0.8,0.1-1.6-0.5-1.7-1.4l-0.2-1.4C656.5,795.9,657.1,795.2,658,795L658,795z"/>
			<path class="st8" d="M667,795.5c-0.1-0.8,0.5-1.6,1.4-1.7l1.4-0.2c0.8-0.1,1.6,0.5,1.7,1.4l0.2,1.4c0.1,0.8-0.5,1.6-1.4,1.7
				l-1.4,0.2c-0.8,0.1-1.6-0.5-1.7-1.4L667,795.5z"/>
			<path class="st8" d="M672.3,794.9c-0.1-0.8,0.5-1.6,1.3-1.7l1.4-0.2c0.8-0.1,1.6,0.5,1.7,1.4l0.2,1.4c0.1,0.8-0.5,1.6-1.3,1.7
				l-1.4,0.2c-0.8,0.1-1.6-0.5-1.7-1.4L672.3,794.9z"/>
			<path class="st8" d="M677.5,794.2c-0.1-0.8,0.5-1.6,1.3-1.7l1.4-0.2c0.8-0.1,1.6,0.5,1.7,1.4l0.2,1.4c0.1,0.8-0.5,1.6-1.4,1.7
				l-1.4,0.2c-0.8,0.1-1.6-0.5-1.7-1.4L677.5,794.2L677.5,794.2z"/>
			<path class="st8" d="M689.4,791.2l1.4-0.2c0.8-0.1,1.6,0.5,1.7,1.4l0.2,1.4c0.1,0.8-0.5,1.6-1.4,1.7l-1.4,0.2
				c-0.8,0.1-1.6-0.5-1.7-1.4l-0.2-1.4C688,792.1,688.6,791.3,689.4,791.2z"/>
			<path class="st8" d="M694.7,790.6l1.4-0.2c0.8-0.1,1.6,0.5,1.7,1.4l0.2,1.4c0.1,0.8-0.5,1.6-1.4,1.7l-1.4,0.2
				c-0.8,0.1-1.6-0.5-1.7-1.4l-0.2-1.4C693.2,791.5,693.8,790.7,694.7,790.6L694.7,790.6z"/>
			<path class="st8" d="M627.7,808.8l1.4-0.2c0.8-0.1,1.6,0.5,1.7,1.4l0.2,1.4c0.1,0.8-0.5,1.6-1.4,1.7l-1.4,0.2
				c-0.8,0.1-1.6-0.5-1.7-1.4l-0.2-1.4C626.2,809.7,626.8,808.9,627.7,808.8z"/>
			<path class="st8" d="M631.5,809.9c-0.1-0.8,0.5-1.6,1.4-1.7l1.4-0.2c0.8-0.1,1.6,0.5,1.7,1.4l0.2,1.4c0.1,0.8-0.5,1.6-1.4,1.7
				l-1.4,0.2c-0.8,0.1-1.6-0.5-1.7-1.4L631.5,809.9L631.5,809.9z"/>
			<g>
				<path class="st8" d="M636.2,804.5c-0.1-0.8,0.5-1.6,1.4-1.7l1.4-0.2c0.8-0.1,1.6,0.5,1.7,1.4l0.2,1.4c0.1,0.8-0.5,1.6-1.4,1.7
					l-1.4,0.2c-0.8,0.1-1.6-0.5-1.7-1.4L636.2,804.5L636.2,804.5z"/>
				<path class="st8" d="M638.2,807.5l1.4-0.2c0.8-0.1,1.6,0.5,1.7,1.4l0.2,1.4c0.1,0.8-0.5,1.6-1.4,1.7l-1.4,0.2
					c-0.8,0.1-1.6-0.5-1.7-1.4l-0.2-1.4C636.7,808.4,637.3,807.6,638.2,807.5z"/>
			</g>
			<g>
				<path class="st8" d="M648.1,801.5l1.4-0.2c0.8-0.1,1.6,0.5,1.7,1.4l0.2,1.4c0.1,0.8-0.5,1.6-1.4,1.7l-1.4,0.2
					c-0.8,0.1-1.6-0.5-1.7-1.4l-0.2-1.4C646.6,802.3,647.2,801.6,648.1,801.5L648.1,801.5z"/>
				<path class="st8" d="M647.3,808c-0.1-0.8,0.5-1.6,1.4-1.7l1.4-0.2c0.8-0.1,1.6,0.5,1.7,1.4l0.2,1.4c0.1,0.8-0.5,1.6-1.4,1.7
					l-1.4,0.2c-0.8,0.1-1.6-0.5-1.7-1.4L647.3,808L647.3,808z"/>
			</g>
			<path class="st8" d="M652.5,807.4c-0.1-0.8,0.5-1.6,1.3-1.7l1.4-0.2c0.8-0.1,1.6,0.5,1.7,1.4l0.2,1.4c0.1,0.8-0.5,1.6-1.4,1.7
				l-1.4,0.2c-0.8,0.1-1.6-0.5-1.7-1.4L652.5,807.4L652.5,807.4z"/>
			<path class="st8" d="M657.8,806.7c-0.1-0.8,0.5-1.6,1.4-1.7l1.4-0.2c0.8-0.1,1.6,0.5,1.7,1.4l0.2,1.4c0.1,0.8-0.5,1.6-1.4,1.7
				l-1.4,0.2c-0.8,0.1-1.6-0.5-1.7-1.4L657.8,806.7z"/>
			<g>
				<path class="st8" d="M667.7,800.6c-0.1-0.8,0.5-1.6,1.4-1.7l1.4-0.2c0.8-0.1,1.6,0.5,1.7,1.4l0.2,1.4c0.1,0.8-0.5,1.6-1.4,1.7
					l-1.4,0.2c-0.8,0.1-1.6-0.5-1.7-1.4L667.7,800.6z"/>
				<path class="st8" d="M669.6,803.7l1.4-0.2c0.8-0.1,1.6,0.5,1.7,1.4l0.2,1.4c0.1,0.8-0.5,1.6-1.4,1.7l-1.4,0.2
					c-0.8,0.1-1.6-0.5-1.7-1.4l-0.2-1.4C668.2,804.6,668.8,803.8,669.6,803.7L669.6,803.7z"/>
			</g>
			<path class="st8" d="M674.9,803.1l1.4-0.2c0.8-0.1,1.6,0.5,1.7,1.4l0.2,1.4c0.1,0.8-0.5,1.6-1.4,1.7l-1.4,0.2
				c-0.8,0.1-1.6-0.5-1.7-1.4l-0.2-1.4C673.4,804,674,803.2,674.9,803.1L674.9,803.1z"/>
			<g>
				<path class="st8" d="M679.5,797.7l1.4-0.2c0.8-0.1,1.6,0.5,1.7,1.4l0.2,1.4c0.1,0.8-0.5,1.6-1.4,1.7l-1.4,0.2
					c-0.8,0.1-1.6-0.5-1.7-1.4l-0.2-1.4C678.1,798.5,678.7,797.8,679.5,797.7L679.5,797.7z"/>
				<path class="st8" d="M680.1,802.5l1.4-0.2c0.8-0.1,1.6,0.5,1.7,1.4l0.2,1.4c0.1,0.8-0.5,1.6-1.4,1.7l-1.4,0.2
					c-0.8,0.1-1.6-0.5-1.7-1.4l-0.2-1.4C678.7,803.3,679.3,802.5,680.1,802.5z"/>
			</g>
			<g>
				<path class="st8" d="M688.7,798c-0.1-0.8,0.5-1.6,1.4-1.7l1.4-0.2c0.8-0.1,1.6,0.5,1.7,1.4l0.2,1.4c0.1,0.8-0.5,1.6-1.4,1.7
					l-1.4,0.2c-0.8,0.1-1.6-0.5-1.7-1.3L688.7,798L688.7,798z"/>
				<path class="st8" d="M689.3,802.9c-0.1-0.8,0.5-1.6,1.3-1.7l1.4-0.2c0.8-0.1,1.6,0.5,1.7,1.4l0.2,1.4c0.1,0.8-0.5,1.6-1.4,1.7
					l-1.4,0.2c-0.8,0.1-1.6-0.5-1.7-1.4L689.3,802.9L689.3,802.9z"/>
			</g>
			<path class="st8" d="M632.2,815c-0.1-0.8,0.5-1.6,1.4-1.7l1.4-0.2c0.8-0.1,1.6,0.5,1.7,1.4l0.2,1.4c0.1,0.8-0.5,1.6-1.4,1.7
				l-1.4,0.2c-0.8,0.1-1.6-0.5-1.7-1.4L632.2,815L632.2,815z"/>
			<path class="st8" d="M639.4,817.5l1.4-0.2c0.8-0.1,1.6,0.5,1.7,1.3l0.2,1.4c0.1,0.8-0.5,1.6-1.3,1.7l-1.4,0.2
				c-0.8,0.1-1.6-0.5-1.7-1.4l-0.2-1.4C637.9,818.3,638.5,817.6,639.4,817.5L639.4,817.5z"/>
			<g>
				<path class="st8" d="M649.3,811.4l1.4-0.2c0.8-0.1,1.6,0.5,1.7,1.3l0.2,1.4c0.1,0.8-0.5,1.6-1.4,1.7l-1.4,0.2
					c-0.8,0.1-1.6-0.5-1.7-1.4l-0.2-1.4C647.9,812.2,648.5,811.5,649.3,811.4L649.3,811.4z"/>
				<path class="st8" d="M648.5,817.9c-0.1-0.8,0.5-1.6,1.4-1.7l1.4-0.2c0.8-0.1,1.6,0.5,1.7,1.4l0.2,1.4c0.1,0.8-0.5,1.6-1.3,1.7
					l-1.4,0.2c-0.8,0.1-1.6-0.5-1.7-1.4L648.5,817.9L648.5,817.9z"/>
			</g>
			<path class="st8" d="M655.1,815.6l1.4-0.2c0.8-0.1,1.6,0.5,1.7,1.4l0.2,1.4c0.1,0.8-0.5,1.6-1.4,1.7l-1.4,0.2
				c-0.8,0.1-1.6-0.5-1.7-1.4l-0.2-1.4C653.6,816.4,654.2,815.7,655.1,815.6z"/>
			<path class="st8" d="M660.3,814.9l1.4-0.2c0.8-0.1,1.6,0.5,1.7,1.4l0.2,1.4c0.1,0.8-0.5,1.6-1.4,1.7l-1.4,0.2
				c-0.8,0.1-1.6-0.5-1.7-1.4l-0.2-1.4C658.9,815.8,659.5,815,660.3,814.9L660.3,814.9z"/>
			<g>
				<path class="st8" d="M670.4,808.7l1.4-0.2c0.8-0.1,1.6,0.5,1.7,1.4l0.2,1.4c0.1,0.8-0.5,1.6-1.4,1.7l-1.4,0.2
					c-0.8,0.1-1.6-0.5-1.7-1.4l-0.2-1.4C668.9,809.6,669.5,808.8,670.4,808.7L670.4,808.7z"/>
				<path class="st8" d="M670.8,813.7l1.4-0.2c0.8-0.1,1.6,0.5,1.7,1.4l0.2,1.4c0.1,0.8-0.5,1.6-1.4,1.7l-1.4,0.2
					c-0.8,0.1-1.6-0.5-1.7-1.4l-0.2-1.4C669.4,814.5,670,813.7,670.8,813.7z"/>
			</g>
			<g>
				<path class="st8" d="M679.5,809.2c-0.1-0.8,0.5-1.6,1.3-1.7l1.4-0.2c0.8-0.1,1.6,0.5,1.7,1.4l0.2,1.4c0.1,0.8-0.5,1.6-1.4,1.7
					l-1.4,0.2c-0.8,0.1-1.6-0.5-1.7-1.4L679.5,809.2L679.5,809.2z"/>
				<path class="st8" d="M681.4,812.4l1.4-0.2c0.8-0.1,1.6,0.5,1.7,1.4l0.2,1.4c0.1,0.8-0.5,1.6-1.4,1.7l-1.4,0.2
					c-0.8,0.1-1.6-0.5-1.7-1.4l-0.2-1.4C679.9,813.2,680.5,812.4,681.4,812.4z"/>
			</g>
			<g>
				<path class="st8" d="M689.9,808c-0.1-0.8,0.5-1.6,1.4-1.7l1.4-0.2c0.8-0.1,1.6,0.5,1.7,1.4l0.2,1.4c0.1,0.8-0.5,1.6-1.4,1.7
					l-1.4,0.2c-0.8,0.1-1.6-0.5-1.7-1.4L689.9,808L689.9,808z"/>
				<path class="st8" d="M690.5,812.8c-0.1-0.8,0.5-1.6,1.3-1.7l1.4-0.2c0.8-0.1,1.6,0.5,1.7,1.4l0.2,1.4c0.1,0.8-0.5,1.6-1.4,1.7
					l-1.4,0.2c-0.8,0.1-1.6-0.5-1.7-1.4L690.5,812.8L690.5,812.8z"/>
			</g>
			<path class="st8" d="M697.1,810.4l1.4-0.2c0.8-0.1,1.6,0.5,1.7,1.4l0.2,1.4c0.1,0.8-0.5,1.6-1.4,1.7l-1.4,0.2
				c-0.8,0.1-1.6-0.5-1.7-1.3l-0.2-1.4C695.6,811.3,696.2,810.5,697.1,810.4L697.1,810.4z"/>
			<path class="st8" d="M699.9,789.9l1.4-0.2c0.8-0.1,1.6,0.5,1.7,1.4l0.2,1.4c0.1,0.8-0.5,1.6-1.4,1.7l-1.4,0.2
				c-0.8,0.1-1.6-0.5-1.7-1.4l-0.2-1.4C698.5,790.8,699.1,790,699.9,789.9L699.9,789.9z"/>
			<g>
				<path class="st8" d="M705.8,794.4l1.4-0.2c0.8-0.1,1.6,0.5,1.7,1.4l0.2,1.4c0.1,0.8-0.5,1.6-1.4,1.7l-1.4,0.2
					c-0.8,0.1-1.6-0.5-1.7-1.4l-0.2-1.4C704.4,795.3,705,794.5,705.8,794.4z"/>
				<path class="st8" d="M705,801c-0.1-0.8,0.5-1.6,1.4-1.7l1.4-0.2c0.8-0.1,1.6,0.5,1.7,1.4l0.2,1.4c0.1,0.8-0.5,1.6-1.4,1.7
					l-1.4,0.2c-0.8,0.1-1.6-0.5-1.7-1.4L705,801L705,801z"/>
			</g>
			<path class="st8" d="M702.3,809.8l1.4-0.2c0.8-0.1,1.6,0.5,1.7,1.3l0.2,1.4c0.1,0.8-0.5,1.6-1.4,1.7l-1.4,0.2
				c-0.8,0.1-1.6-0.5-1.7-1.3l-0.2-1.4C700.9,810.7,701.5,809.9,702.3,809.8L702.3,809.8z"/>
			<path class="st8" d="M705.7,806c-0.1-0.8,0.5-1.6,1.4-1.7l1.4-0.2c0.8-0.1,1.6,0.5,1.7,1.4l0.2,1.4c0.1,0.8-0.5,1.6-1.4,1.7
				l-1.4,0.2c-0.8,0.1-1.6-0.5-1.7-1.4L705.7,806L705.7,806z"/>
		</g>
	</g>
	<g id="envelope">
		
			<rect x="792.6" y="773.9" transform="matrix(0.9336 -0.3584 0.3584 0.9336 -241.1539 369.2424)" class="st3" width="165.7" height="122.5"/>
		<g>
			<polygon class="st9" points="825.3,910.6 818.5,913.2 829.9,918.1 836.7,915.5 			"/>
			<polygon class="st9" points="852.5,900.1 845.7,902.7 857.1,907.7 863.9,905 			"/>
			<polygon class="st10" points="839,905.3 832.2,907.9 843.6,912.8 850.5,910.2 			"/>
			<polygon class="st10" points="866.2,894.9 859.3,897.5 870.8,902.4 877.6,899.8 			"/>
			<polygon class="st10" points="893.4,884.4 886.6,887 898,892 904.8,889.3 			"/>
			<polygon class="st9" points="879.9,889.6 873.1,892.2 884.5,897.1 891.4,894.5 			"/>
			<polygon class="st9" points="906.9,879.2 900,881.9 911.5,886.8 918.3,884.2 			"/>
			<polygon class="st9" points="934.1,868.8 927.3,871.4 938.7,876.3 945.5,873.7 			"/>
			<polygon class="st10" points="920.7,874 913.8,876.6 925.2,881.5 932.1,878.9 			"/>
			<polygon class="st10" points="947.8,863.5 941,866.2 952.4,871.1 959.2,868.5 			"/>
			<polygon class="st9" points="961.5,858.3 954.7,860.9 966.2,865.8 973,863.2 			"/>
			<polygon class="st9" points="941.5,776 938.9,769.2 934,780.6 936.6,787.5 			"/>
			<polygon class="st9" points="784.5,804.5 777.7,807.1 789.1,812 796,809.4 			"/>
			<polygon class="st9" points="811.8,794 805,796.6 816.4,801.6 823.2,799 			"/>
			<polygon class="st10" points="798.3,799.2 791.5,801.8 802.9,806.7 809.7,804.1 			"/>
			<polygon class="st10" points="825.4,788.8 818.6,791.4 830,796.3 836.8,793.7 			"/>
			<polygon class="st10" points="852.7,778.3 845.9,780.9 857.3,785.9 864.1,783.2 			"/>
			<polygon class="st9" points="839.2,783.5 832.4,786.1 843.8,791 850.6,788.4 			"/>
			<polygon class="st9" points="866.1,773.2 859.3,775.8 870.7,780.7 877.5,778.1 			"/>
			<polygon class="st9" points="893.4,762.7 886.6,765.3 898,770.2 904.8,767.6 			"/>
			<polygon class="st10" points="879.9,767.8 873.1,770.5 884.5,775.4 891.3,772.8 			"/>
			<polygon class="st10" points="907,757.5 900.2,760.1 911.6,765 918.5,762.4 			"/>
			<polygon class="st9" points="920.8,752.2 914,754.8 925.4,759.7 932.2,757.1 			"/>
			<polygon class="st10" points="936.4,762.6 933.8,755.7 928.8,767.2 931.4,774 			"/>
			<polygon class="st10" points="946.8,789.7 944.2,782.9 939.2,794.3 941.8,801.1 			"/>
			<polygon class="st10" points="957.2,816.9 954.6,810.1 949.7,821.5 952.3,828.4 			"/>
			<polygon class="st9" points="952.1,803.5 949.5,796.6 944.5,808.1 947.1,814.9 			"/>
			<polygon class="st9" points="962.4,830.4 959.8,823.6 954.9,835 957.5,841.8 			"/>
			<polygon class="st10" points="967.7,844.2 965.1,837.3 960.1,848.8 962.8,855.6 			"/>
			<polygon class="st9" points="795.5,833.5 792.8,826.7 787.9,838.1 790.5,844.9 			"/>
			<polygon class="st10" points="790.3,820 787.7,813.2 782.7,824.6 785.3,831.5 			"/>
			<polygon class="st10" points="800.7,847.2 798.1,840.3 793.1,851.8 795.7,858.6 			"/>
			<polygon class="st10" points="811.2,874.4 808.5,867.6 803.6,879 806.2,885.8 			"/>
			<polygon class="st9" points="806,860.9 803.4,854.1 798.4,865.5 801,872.3 			"/>
			<polygon class="st9" points="816.3,887.9 813.7,881 808.8,892.5 811.4,899.3 			"/>
			<polygon class="st10" points="821.6,901.7 819,894.8 814,906.2 816.7,913.1 			"/>
		</g>
		
			<rect x="800.9" y="811.5" transform="matrix(0.9336 -0.3584 0.3584 0.9336 -241.4066 350.6393)" class="st11" width="48.5" height="30.1"/>
		
			<rect x="862.1" y="815.6" transform="matrix(0.9336 -0.3584 0.3584 0.9336 -233.5236 374.5225)" class="st12" width="62.8" height="3.3"/>
		
			<rect x="866.5" y="827.2" transform="matrix(0.9336 -0.3584 0.3584 0.9336 -237.3913 376.8723)" class="st12" width="62.8" height="3.3"/>
		
			<rect x="823" y="867.9" transform="matrix(0.9336 -0.3584 0.3584 0.9336 -258.5414 358.438)" class="st9" width="29.2" height="17.5"/>
		<path class="st12" d="M857.4,884.9c-7.5,2.9-15.9-0.9-18.8-8.4s0.9-15.9,8.4-18.8s15.9,0.9,18.8,8.4S864.8,882,857.4,884.9z
			 M847.6,859.3c-6.6,2.5-9.9,10-7.4,16.6s10,9.9,16.6,7.4s9.9-10,7.4-16.6C861.6,860.1,854.2,856.8,847.6,859.3L847.6,859.3z"/>
		<path class="st12" d="M858.7,888.3c-9.4,3.6-20-1.1-23.6-10.5s1.1-20,10.5-23.6s20,1.1,23.6,10.5
			C872.8,874.2,868.1,884.7,858.7,888.3z M846.4,856.3c-8.3,3.2-12.5,12.5-9.3,20.8s12.5,12.5,20.8,9.3s12.5-12.5,9.3-20.8
			C864,857.2,854.7,853.1,846.4,856.3z"/>
	</g>
</g>
</svg>
