<?xml version="1.0" encoding="utf-8"?>
<!-- Generator: Adobe Illustrator 27.3.1, SVG Export Plug-In . SVG Version: 6.00 Build 0)  -->
<svg version="1.1" id="Layer_1" xmlns="http://www.w3.org/2000/svg" xmlns:xlink="http://www.w3.org/1999/xlink" x="0px" y="0px"
	 viewBox="0 0 2000 2000" style="enable-background:new 0 0 2000 2000;" xml:space="preserve">
<style type="text/css">
	.st0{opacity:0.3;fill:#293657;enable-background:new    ;}
	.st1{fill:#EBECED;}
	.st2{fill:#FFFFFF;}
	.st3{fill:#2A3756;}
	.st4{fill:#527BEF;}
	.st5{fill:#D1D3D4;}
	.st6{fill:#FF584D;}
	.st7{fill:#E2CC2D;}
	.st8{fill:#6DB5B5;}
	.st9{fill:#293657;}
	.st10{fill:#E3847C;}
	.st11{fill:#EDD700;}
	.st12{fill:#D17575;}
	.st13{fill:#E2857E;}
	.st14{fill:#DB7D7B;}
</style>
<g>
	<path class="st0" d="M1375.8,1771.5c0,16.3-98.3,29.5-334,29.5s-519.5-13.2-519.5-29.5S806,1742,1041.7,1742
		S1375.8,1755.2,1375.8,1771.5z"/>
	<g>
		<path class="st1" d="M790.1,846.2c16.6,14.5,94.7,72.3,106.9,58.4c12.1-13.9-55.6-83.6-72.2-98.1c-16.6-14.5-37.8-17.4-47.4-6.4
			C767.8,811,773.5,831.7,790.1,846.2L790.1,846.2z"/>
		<path class="st2" d="M531.3,779.3c0,81,67.8,146.6,151.5,146.6s151.5-65.6,151.5-146.6s-67.8-146.6-151.5-146.6
			S531.3,698.4,531.3,779.3z"/>
		<g>
			<path class="st2" d="M623.5,768.7c0.8-0.1,1.6-0.3,2.4-0.6c14.6-5.9,26-17,32.2-31.5s6.3-30.4,0.5-45l-22.8-56.7
				c-5.9-14.6-17-26-31.5-32.2s-30.4-6.3-45-0.5c-4.8,1.9-7.2,7.4-5.2,12.3s7.4,7.2,12.3,5.2c9.9-4,20.8-3.9,30.6,0.3
				s17.4,11.9,21.4,21.8l22.8,56.7c4,9.9,3.9,20.8-0.3,30.6s-11.9,17.4-21.8,21.4c-4.8,1.9-7.2,7.4-5.2,12.3
				C615.2,766.9,619.3,769.2,623.5,768.7L623.5,768.7z"/>
			<path class="st3" d="M585.7,741c4.4,36.4,53.9,60.4,110.6,53.6s99.1-41.8,94.7-78.2c-4.4-36.4-53.9-60.4-110.6-53.6
				C623.8,669.6,581.3,704.6,585.7,741L585.7,741z"/>
		</g>
		<path class="st1" d="M533.6,849.1c-5.6,21.3-22.4,117-4.5,121.7c17.9,4.7,50-87,55.5-108.4c5.6-21.3-1.3-41.6-15.4-45.3
			C555.1,813.4,539.1,827.7,533.6,849.1L533.6,849.1z"/>
		<g>
			<g>
				<path class="st4" d="M603.5,723.9l1.1-0.1c0.7-0.1,1.3,0.4,1.4,1.1l0.1,1.1c0.1,0.7-0.4,1.3-1.1,1.4l-1.1,0.1
					c-0.7,0.1-1.3-0.4-1.4-1.1l-0.1-1.1C602.4,724.6,602.9,724,603.5,723.9z"/>
				<path class="st4" d="M604,728l1.1-0.1c0.7-0.1,1.3,0.4,1.4,1.1l0.1,1.1c0.1,0.7-0.4,1.3-1.1,1.4l-1.1,0.1
					c-0.7,0.1-1.3-0.4-1.4-1.1l-0.1-1.1C602.8,728.7,603.3,728.1,604,728z"/>
				<path class="st4" d="M604.6,732.1l1.1-0.1c0.7-0.1,1.3,0.4,1.4,1.1l0.1,1.1c0.1,0.7-0.4,1.3-1.1,1.4l-1.1,0.1
					c-0.7,0.1-1.3-0.4-1.4-1.1l-0.1-1.1C603.5,732.8,603.9,732.2,604.6,732.1z"/>
				<path class="st4" d="M605.1,736.4l1.1-0.1c0.7-0.1,1.3,0.4,1.4,1.1l0.1,1.1c0.1,0.7-0.4,1.3-1.1,1.4l-1.1,0.1
					c-0.7,0.1-1.3-0.4-1.4-1.1l-0.1-1.1C603.9,737.1,604.4,736.5,605.1,736.4L605.1,736.4z"/>
				<path class="st4" d="M605.6,740.6l1.1-0.1c0.7-0.1,1.3,0.4,1.4,1.1l0.1,1.1c0.1,0.7-0.4,1.3-1.1,1.4l-1.1,0.1
					c-0.7,0.1-1.3-0.4-1.4-1.1l-0.1-1.1C604.4,741.3,604.9,740.7,605.6,740.6z"/>
				<path class="st4" d="M606.1,744.8l1.1-0.1c0.7-0.1,1.3,0.4,1.4,1.1l0.1,1.1c0.1,0.7-0.4,1.3-1.1,1.4l-1.1,0.1
					c-0.7,0.1-1.3-0.4-1.4-1.1l-0.1-1.1C605,745.5,605.4,744.9,606.1,744.8z"/>
			</g>
			<g>
				<path class="st4" d="M607.6,723.3l1.1-0.1c0.7-0.1,1.3,0.4,1.4,1.1l0.1,1.1c0.1,0.7-0.4,1.3-1.1,1.4l-1.1,0.1
					c-0.7,0.1-1.3-0.4-1.4-1.1l-0.1-1.1C606.5,724,607,723.4,607.6,723.3z"/>
				<path class="st4" d="M607.5,733c-0.1-0.7,0.4-1.3,1.1-1.4l1.1-0.1c0.7-0.1,1.3,0.4,1.4,1.1l0.1,1.1c0.1,0.7-0.4,1.3-1.1,1.4
					l-1.1,0.1c-0.7,0.1-1.3-0.4-1.4-1.1L607.5,733L607.5,733z"/>
				<path class="st4" d="M610.1,744.3l1.1-0.1c0.7-0.1,1.3,0.4,1.4,1.1l0.1,1.1c0.1,0.7-0.4,1.3-1.1,1.4l-1.1,0.1
					c-0.7,0.1-1.3-0.4-1.4-1.1l-0.1-1.1C609,745,609.5,744.4,610.1,744.3z"/>
			</g>
			<g>
				<path class="st4" d="M611.6,722.8l1.1-0.1c0.7-0.1,1.3,0.4,1.4,1.1l0.1,1.1c0.1,0.7-0.4,1.3-1.1,1.4l-1.1,0.1
					c-0.7,0.1-1.3-0.4-1.4-1.1l-0.1-1.1C610.5,723.5,610.9,722.9,611.6,722.8z"/>
				<path class="st4" d="M612.6,731.1l1.1-0.1c0.7-0.1,1.3,0.4,1.4,1.1l0.1,1.1c0.1,0.7-0.4,1.3-1.1,1.4l-1.1,0.1
					c-0.7,0.1-1.3-0.4-1.4-1.1l-0.1-1.1C611.5,731.8,611.9,731.2,612.6,731.1z"/>
				<path class="st4" d="M614.1,743.8l1.1-0.1c0.7-0.1,1.3,0.4,1.4,1.1l0.1,1.1c0.1,0.7-0.4,1.3-1.1,1.4l-1.1,0.1
					c-0.7,0.1-1.3-0.4-1.4-1.1l-0.1-1.1C613,744.5,613.5,743.8,614.1,743.8z"/>
			</g>
			<g>
				<path class="st4" d="M615.5,722.4l1.1-0.1c0.7-0.1,1.3,0.4,1.4,1.1l0.1,1.1c0.1,0.7-0.4,1.3-1.1,1.4l-1.1,0.1
					c-0.7,0.1-1.3-0.4-1.4-1.1l-0.1-1.1C614.4,723.1,614.9,722.5,615.5,722.4z"/>
				<path class="st4" d="M616.6,730.6l1.1-0.1c0.7-0.1,1.3,0.4,1.4,1.1l0.1,1.1c0.1,0.7-0.4,1.3-1.1,1.4l-1.1,0.1
					c-0.7,0.1-1.3-0.4-1.4-1.1l-0.1-1.1C615.4,731.3,615.9,730.7,616.6,730.6z"/>
				<path class="st4" d="M618.2,743.3l1.1-0.1c0.7-0.1,1.3,0.4,1.4,1.1l0.1,1.1c0.1,0.7-0.4,1.3-1.1,1.4l-1.1,0.1
					c-0.7,0.1-1.3-0.4-1.4-1.1l-0.1-1.1C617,743.9,617.5,743.3,618.2,743.3z"/>
			</g>
			<g>
				<path class="st4" d="M623.6,721.4l1.1-0.1c0.7-0.1,1.3,0.4,1.4,1.1l0.1,1.1c0.1,0.7-0.4,1.3-1.1,1.4L624,725
					c-0.7,0.1-1.3-0.4-1.4-1.1l-0.1-1.1C622.4,722.1,622.9,721.4,623.6,721.4z"/>
				<path class="st4" d="M624,725.5l1.1-0.1c0.7-0.1,1.3,0.4,1.4,1.1l0.1,1.1c0.1,0.7-0.4,1.3-1.1,1.4l-1.1,0.1
					c-0.7,0.1-1.3-0.4-1.4-1.1l-0.1-1.1C622.8,726.2,623.3,725.6,624,725.5z"/>
				<path class="st4" d="M624.6,729.6l1.1-0.1c0.7-0.1,1.3,0.4,1.4,1.1l0.1,1.1c0.1,0.7-0.4,1.3-1.1,1.4l-1.1,0.1
					c-0.7,0.1-1.3-0.4-1.4-1.1l-0.1-1.1C623.5,730.3,624,729.7,624.6,729.6z"/>
				<path class="st4" d="M625.1,733.9l1.1-0.1c0.7-0.1,1.3,0.4,1.4,1.1l0.1,1.1c0.1,0.7-0.4,1.3-1.1,1.4l-1.1,0.1
					c-0.7,0.1-1.3-0.4-1.4-1.1l-0.1-1.1C623.9,734.6,624.4,734,625.1,733.9z"/>
				<path class="st4" d="M625.7,738l1.1-0.1c0.7-0.1,1.3,0.4,1.4,1.1l0.1,1.1c0.1,0.7-0.4,1.3-1.1,1.4l-1.1,0.1
					c-0.7,0.1-1.3-0.4-1.4-1.1l-0.1-1.1C624.5,738.7,625,738.1,625.7,738z"/>
				<path class="st4" d="M626.2,742.2l1.1-0.1c0.7-0.1,1.3,0.4,1.4,1.1l0.1,1.1c0.1,0.7-0.4,1.3-1.1,1.4l-1.1,0.1
					c-0.7,0.1-1.3-0.4-1.4-1.1l-0.1-1.1C625,742.9,625.5,742.3,626.2,742.2z"/>
			</g>
			<path class="st4" d="M628.6,729.1l1.1-0.1c0.7-0.1,1.3,0.4,1.4,1.1l0.1,1.1c0.1,0.7-0.4,1.3-1.1,1.4l-1.1,0.1
				c-0.7,0.1-1.3-0.4-1.4-1.1l-0.1-1.1C627.5,729.8,628,729.2,628.6,729.1z"/>
			<path class="st4" d="M633.1,732.8l1.1-0.1c0.7-0.1,1.3,0.4,1.4,1.1l0.1,1.1c0.1,0.7-0.4,1.3-1.1,1.4l-1.1,0.1
				c-0.7,0.1-1.3-0.4-1.4-1.1l-0.1-1.1C631.9,733.5,632.4,732.9,633.1,732.8z"/>
			<g>
				<path class="st4" d="M635.6,719.8l1.1-0.1c0.7-0.1,1.3,0.4,1.4,1.1l0.1,1.1c0.1,0.7-0.4,1.3-1.1,1.4l-1.1,0.1
					c-0.7,0.1-1.3-0.4-1.4-1.1l-0.1-1.1C634.4,720.5,634.9,719.9,635.6,719.8z"/>
				<path class="st4" d="M636.1,723.9l1.1-0.1c0.7-0.1,1.3,0.4,1.4,1.1l0.1,1.1c0.1,0.7-0.4,1.3-1.1,1.4l-1.1,0.1
					c-0.7,0.1-1.3-0.4-1.4-1.1l-0.1-1.1C634.9,724.6,635.4,724,636.1,723.9z"/>
				<path class="st4" d="M636.6,728.1l1.1-0.1c0.7-0.1,1.3,0.4,1.4,1.1l0.1,1.1c0.1,0.7-0.4,1.3-1.1,1.4l-1.1,0.1
					c-0.7,0.1-1.3-0.4-1.4-1.1l-0.1-1.1C635.4,728.8,635.9,728.2,636.6,728.1z"/>
				<path class="st4" d="M637.1,732.3l1.1-0.1c0.7-0.1,1.3,0.4,1.4,1.1l0.1,1.1c0.1,0.7-0.4,1.3-1.1,1.4l-1.1,0.1
					c-0.7,0.1-1.3-0.4-1.4-1.1l-0.1-1.1C636,733,636.5,732.4,637.1,732.3z"/>
				<path class="st4" d="M637.6,736.6l1.1-0.1c0.7-0.1,1.3,0.4,1.4,1.1l0.1,1.1c0.1,0.7-0.4,1.3-1.1,1.4l-1.1,0.1
					c-0.7,0.1-1.3-0.4-1.4-1.1l-0.1-1.1C636.5,737.2,636.9,736.6,637.6,736.6z"/>
				<path class="st4" d="M638.1,740.8l1.1-0.1c0.7-0.1,1.3,0.4,1.4,1.1l0.1,1.1c0.1,0.7-0.4,1.3-1.1,1.4l-1.1,0.1
					c-0.7,0.1-1.3-0.4-1.4-1.1l-0.1-1.1C637,741.5,637.5,740.8,638.1,740.8z"/>
			</g>
			<path class="st4" d="M643.6,718.8l1.1-0.1c0.7-0.1,1.3,0.4,1.4,1.1l0.1,1.1c0.1,0.7-0.4,1.3-1.1,1.4l-1.1,0.1
				c-0.7,0.1-1.3-0.4-1.4-1.1l-0.1-1.1C642.4,719.5,642.9,718.9,643.6,718.8z"/>
			<path class="st4" d="M647.6,718.2l1.1-0.1c0.7-0.1,1.3,0.4,1.4,1.1l0.1,1.1c0.1,0.7-0.4,1.3-1.1,1.4l-1.1,0.1
				c-0.7,0.1-1.3-0.4-1.4-1.1l-0.1-1.1C646.5,718.9,647,718.3,647.6,718.2z"/>
			<g>
				<path class="st4" d="M651.6,717.8l1.1-0.1c0.7-0.1,1.3,0.4,1.4,1.1l0.1,1.1c0.1,0.7-0.4,1.3-1.1,1.4l-1.1,0.1
					c-0.7,0.1-1.3-0.4-1.4-1.1l-0.1-1.1C650.4,718.5,650.9,717.9,651.6,717.8z"/>
				<path class="st4" d="M652,722l1.1-0.1c0.7-0.1,1.3,0.4,1.4,1.1l0.1,1.1c0.1,0.7-0.4,1.3-1.1,1.4l-1.1,0.1
					c-0.7,0.1-1.3-0.4-1.4-1.1l-0.1-1.1C650.9,722.7,651.3,722,652,722z"/>
				<path class="st4" d="M652.7,726l1.1-0.1c0.7-0.1,1.3,0.4,1.4,1.1l0.1,1.1c0.1,0.7-0.4,1.3-1.1,1.4l-1.1,0.1
					c-0.7,0.1-1.3-0.4-1.4-1.1l-0.1-1.1C651.5,726.7,652,726.1,652.7,726z"/>
				<path class="st4" d="M652,731.7c-0.1-0.7,0.4-1.3,1.1-1.4l1.1-0.1c0.7-0.1,1.3,0.4,1.4,1.1l0.1,1.1c0.1,0.7-0.4,1.3-1.1,1.4
					l-1.1,0.1c-0.7,0.1-1.3-0.4-1.4-1.1L652,731.7L652,731.7z"/>
				<path class="st4" d="M653.7,734.5l1.1-0.1c0.7-0.1,1.3,0.4,1.4,1.1l0.1,1.1c0.1,0.7-0.4,1.3-1.1,1.4l-1.1,0.1
					c-0.7,0.1-1.3-0.4-1.4-1.1l-0.1-1.1C652.5,735.1,653,734.5,653.7,734.5z"/>
				<path class="st4" d="M653.1,740c-0.1-0.7,0.4-1.3,1.1-1.4l1.1-0.1c0.7-0.1,1.3,0.4,1.4,1.1l0.1,1.1c0.1,0.7-0.4,1.3-1.1,1.4
					l-1.1,0.1c-0.7,0.1-1.3-0.4-1.4-1.1L653.1,740z"/>
			</g>
			<path class="st4" d="M655.6,717.3l1.1-0.1c0.7-0.1,1.3,0.4,1.4,1.1l0.1,1.1c0.1,0.7-0.4,1.3-1.1,1.4l-1.1,0.1
				c-0.7,0.1-1.3-0.4-1.4-1.1l-0.1-1.1C654.4,718,654.9,717.4,655.6,717.3z"/>
			<path class="st4" d="M659.6,716.8l1.1-0.1c0.7-0.1,1.3,0.4,1.4,1.1l0.1,1.1c0.1,0.7-0.4,1.3-1.1,1.4l-1.1,0.1
				c-0.7,0.1-1.3-0.4-1.4-1.1l-0.1-1.1C658.4,717.5,658.9,716.9,659.6,716.8z"/>
			<g>
				<path class="st4" d="M667.6,715.8l1.1-0.1c0.7-0.1,1.3,0.4,1.4,1.1l0.1,1.1c0.1,0.7-0.4,1.3-1.1,1.4l-1.1,0.1
					c-0.7,0.1-1.3-0.4-1.4-1.1l-0.1-1.1C666.4,716.5,666.9,715.8,667.6,715.8z"/>
				<path class="st4" d="M668.1,719.9l1.1-0.1c0.7-0.1,1.3,0.4,1.4,1.1l0.1,1.1c0.1,0.7-0.4,1.3-1.1,1.4l-1.1,0.1
					c-0.7,0.1-1.3-0.4-1.4-1.1l-0.1-1.1C666.9,720.6,667.4,720,668.1,719.9z"/>
				<path class="st4" d="M667.5,725.4c-0.1-0.7,0.4-1.3,1.1-1.4l1.1-0.1c0.7-0.1,1.3,0.4,1.4,1.1l0.1,1.1c0.1,0.7-0.4,1.3-1.1,1.4
					l-1.1,0.1c-0.7,0.1-1.3-0.4-1.4-1.1L667.5,725.4z"/>
				<path class="st4" d="M669.1,728.3l1.1-0.1c0.7-0.1,1.3,0.4,1.4,1.1l0.1,1.1c0.1,0.7-0.4,1.3-1.1,1.4l-1.1,0.1
					c-0.7,0.1-1.3-0.4-1.4-1.1l-0.1-1.1C668,729,668.5,728.3,669.1,728.3z"/>
				<path class="st4" d="M669.7,732.5l1.1-0.1c0.7-0.1,1.3,0.4,1.4,1.1l0.1,1.1c0.1,0.7-0.4,1.3-1.1,1.4l-1.1,0.1
					c-0.7,0.1-1.3-0.4-1.4-1.1l-0.1-1.1C668.5,733.1,669,732.5,669.7,732.5z"/>
				<path class="st4" d="M669.1,738c-0.1-0.7,0.4-1.3,1.1-1.4l1.1-0.1c0.7-0.1,1.3,0.4,1.4,1.1l0.1,1.1c0.1,0.7-0.4,1.3-1.1,1.4
					l-1.1,0.1c-0.7,0.1-1.3-0.4-1.4-1.1L669.1,738L669.1,738z"/>
			</g>
			<g>
				<path class="st4" d="M671.6,715.3l1.1-0.1c0.7-0.1,1.3,0.4,1.4,1.1l0.1,1.1c0.1,0.7-0.4,1.3-1.1,1.4l-1.1,0.1
					c-0.7,0.1-1.3-0.4-1.4-1.1l-0.1-1.1C670.4,716,670.9,715.3,671.6,715.3z"/>
				<path class="st4" d="M672.6,723.6l1.1-0.1c0.7-0.1,1.3,0.4,1.4,1.1l0.1,1.1c0.1,0.7-0.4,1.3-1.1,1.4l-1.1,0.1
					c-0.7,0.1-1.3-0.4-1.4-1.1l-0.1-1.1C671.4,724.3,671.9,723.7,672.6,723.6z"/>
				<path class="st4" d="M674.2,736.1l1.1-0.1c0.7-0.1,1.3,0.4,1.4,1.1l0.1,1.1c0.1,0.7-0.4,1.3-1.1,1.4l-1.1,0.1
					c-0.7,0.1-1.3-0.4-1.4-1.1l-0.1-1.1C673.1,736.8,673.6,736.2,674.2,736.1z"/>
			</g>
			<g>
				<path class="st4" d="M675.6,714.8l1.1-0.1c0.7-0.1,1.3,0.4,1.4,1.1l0.1,1.1c0.1,0.7-0.4,1.3-1.1,1.4l-1.1,0.1
					c-0.7,0.1-1.3-0.4-1.4-1.1l-0.1-1.1C674.4,715.5,674.9,714.8,675.6,714.8z"/>
				<path class="st4" d="M676.6,723.1l1.1-0.1c0.7-0.1,1.3,0.4,1.4,1.1l0.1,1.1c0.1,0.7-0.4,1.3-1.1,1.4l-1.1,0.1
					c-0.7,0.1-1.3-0.4-1.4-1.1l-0.1-1.1C675.4,723.8,675.9,723.2,676.6,723.1z"/>
				<path class="st4" d="M677.1,737c-0.1-0.7,0.4-1.3,1.1-1.4l1.1-0.1c0.7-0.1,1.3,0.4,1.4,1.1l0.1,1.1c0.1,0.7-0.4,1.3-1.1,1.4
					l-1.1,0.1c-0.7,0.1-1.3-0.4-1.4-1.1L677.1,737L677.1,737z"/>
			</g>
			<g>
				<path class="st4" d="M679.6,714.3l1.1-0.1c0.7-0.1,1.3,0.4,1.4,1.1l0.1,1.1c0.1,0.7-0.4,1.3-1.1,1.4l-1.1,0.1
					c-0.7,0.1-1.3-0.4-1.4-1.1l-0.1-1.1C678.4,715,678.9,714.4,679.6,714.3z"/>
				<path class="st4" d="M680.6,722.5l1.1-0.1c0.7-0.1,1.3,0.4,1.4,1.1l0.1,1.1c0.1,0.7-0.4,1.3-1.1,1.4l-1.1,0.1
					c-0.7,0.1-1.3-0.4-1.4-1.1l-0.1-1.1C679.5,723.2,680,722.6,680.6,722.5z"/>
				<path class="st4" d="M682.2,735.2l1.1-0.1c0.7-0.1,1.3,0.4,1.4,1.1l0.1,1.1c0.1,0.7-0.4,1.3-1.1,1.4l-1.1,0.1
					c-0.7,0.1-1.3-0.4-1.4-1.1l-0.1-1.1C681,735.9,681.5,735.3,682.2,735.2z"/>
			</g>
			<g>
				<path class="st4" d="M687.7,713.2l1.1-0.1c0.7-0.1,1.3,0.4,1.4,1.1l0.1,1.1c0.1,0.7-0.4,1.3-1.1,1.4l-1.1,0.1
					c-0.7,0.1-1.3-0.4-1.4-1.1l-0.1-1.1C686.5,713.9,687,713.3,687.7,713.2z"/>
				<path class="st4" d="M688.1,717.4l1.1-0.1c0.7-0.1,1.3,0.4,1.4,1.1l0.1,1.1c0.1,0.7-0.4,1.3-1.1,1.4l-1.1,0.1
					c-0.7,0.1-1.3-0.4-1.4-1.1l-0.1-1.1C686.9,718.1,687.4,717.4,688.1,717.4z"/>
				<path class="st4" d="M688.6,721.6l1.1-0.1c0.7-0.1,1.3,0.4,1.4,1.1l0.1,1.1c0.1,0.7-0.4,1.3-1.1,1.4l-1.1,0.1
					c-0.7,0.1-1.3-0.4-1.4-1.1l-0.1-1.1C687.4,722.3,687.9,721.7,688.6,721.6z"/>
				<path class="st4" d="M689.1,725.8l1.1-0.1c0.7-0.1,1.3,0.4,1.4,1.1l0.1,1.1c0.1,0.7-0.4,1.3-1.1,1.4l-1.1,0.1
					c-0.7,0.1-1.3-0.4-1.4-1.1l-0.1-1.1C688,726.4,688.5,725.8,689.1,725.8z"/>
				<path class="st4" d="M689.7,730l1.1-0.1c0.7-0.1,1.3,0.4,1.4,1.1l0.1,1.1c0.1,0.7-0.4,1.3-1.1,1.4l-1.1,0.1
					c-0.7,0.1-1.3-0.4-1.4-1.1l-0.1-1.1C688.5,730.7,689,730.1,689.7,730z"/>
				<path class="st4" d="M690.2,734.1l1.1-0.1c0.7-0.1,1.3,0.4,1.4,1.1l0.1,1.1c0.1,0.7-0.4,1.3-1.1,1.4l-1.1,0.1
					c-0.7,0.1-1.3-0.4-1.4-1.1l-0.1-1.1C689.1,734.8,689.5,734.2,690.2,734.1z"/>
			</g>
			<g>
				<path class="st4" d="M691.7,712.7l1.1-0.1c0.7-0.1,1.3,0.4,1.4,1.1l0.1,1.1c0.1,0.7-0.4,1.3-1.1,1.4l-1.1,0.1
					c-0.7,0.1-1.3-0.4-1.4-1.1l-0.1-1.1C690.5,713.4,691,712.8,691.7,712.7z"/>
				<path class="st4" d="M692.1,726.6c-0.1-0.7,0.4-1.3,1.1-1.4l1.1-0.1c0.7-0.1,1.3,0.4,1.4,1.1l0.1,1.1c0.1,0.7-0.4,1.3-1.1,1.4
					l-1.1,0.1c-0.7,0.1-1.3-0.4-1.4-1.1L692.1,726.6L692.1,726.6z"/>
			</g>
			<g>
				<path class="st4" d="M694.5,713.6c-0.1-0.7,0.4-1.3,1.1-1.4l1.1-0.1c0.7-0.1,1.3,0.4,1.4,1.1l0.1,1.1c0.1,0.7-0.4,1.3-1.1,1.4
					l-1.1,0.1c-0.7,0.1-1.3-0.4-1.4-1.1L694.5,713.6L694.5,713.6z"/>
				<path class="st4" d="M697.2,724.7l1.1-0.1c0.7-0.1,1.3,0.4,1.4,1.1l0.1,1.1c0.1,0.7-0.4,1.3-1.1,1.4l-1.1,0.1
					c-0.7,0.1-1.3-0.4-1.4-1.1l-0.1-1.1C696,725.4,696.5,724.8,697.2,724.7z"/>
				<path class="st4" d="M697.7,728.9l1.1-0.1c0.7-0.1,1.3,0.4,1.4,1.1l0.1,1.1c0.1,0.7-0.4,1.3-1.1,1.4l-1.1,0.1
					c-0.7,0.1-1.3-0.4-1.4-1.1l-0.1-1.1C696.5,729.6,697,729,697.7,728.9z"/>
			</g>
			<g>
				<path class="st4" d="M699.7,711.7l1.1-0.1c0.7-0.1,1.3,0.4,1.4,1.1l0.1,1.1c0.1,0.7-0.4,1.3-1.1,1.4l-1.1,0.1
					c-0.7,0.1-1.3-0.4-1.4-1.1l-0.1-1.1C698.5,712.4,699,711.7,699.7,711.7z"/>
				<path class="st4" d="M700,715.9l1.1-0.1c0.7-0.1,1.3,0.4,1.4,1.1l0.1,1.1c0.1,0.7-0.4,1.3-1.1,1.4l-1.1,0.1
					c-0.7,0.1-1.3-0.4-1.4-1.1l-0.1-1.1C698.9,716.6,699.4,716,700,715.9z"/>
				<path class="st4" d="M699.5,721.4c-0.1-0.7,0.4-1.3,1.1-1.4l1.1-0.1c0.7-0.1,1.3,0.4,1.4,1.1l0.1,1.1c0.1,0.7-0.4,1.3-1.1,1.4
					l-1.1,0.1c-0.7,0.1-1.3-0.4-1.4-1.1L699.5,721.4z"/>
				<path class="st4" d="M701.1,724.2l1.1-0.1c0.7-0.1,1.3,0.4,1.4,1.1l0.1,1.1c0.1,0.7-0.4,1.3-1.1,1.4l-1.1,0.1
					c-0.7,0.1-1.3-0.4-1.4-1.1l-0.1-1.1C700,724.9,700.5,724.3,701.1,724.2z"/>
				<path class="st4" d="M701.1,734c-0.1-0.7,0.4-1.3,1.1-1.4l1.1-0.1c0.7-0.1,1.3,0.4,1.4,1.1l0.1,1.1c0.1,0.7-0.4,1.3-1.1,1.4
					l-1.1,0.1c-0.7,0.1-1.3-0.4-1.4-1.1L701.1,734z"/>
			</g>
			<g>
				<path class="st4" d="M715.6,709.7l1.1-0.1c0.7-0.1,1.3,0.4,1.4,1.1l0.1,1.1c0.1,0.7-0.4,1.3-1.1,1.4l-1.1,0.1
					c-0.7,0.1-1.3-0.4-1.4-1.1l-0.1-1.1C714.5,710.4,714.9,709.8,715.6,709.7z"/>
				<path class="st4" d="M716.1,713.9l1.1-0.1c0.7-0.1,1.3,0.4,1.4,1.1l0.1,1.1c0.1,0.7-0.4,1.3-1.1,1.4l-1.1,0.1
					c-0.7,0.1-1.3-0.4-1.4-1.1l-0.1-1.1C714.9,714.5,715.4,713.9,716.1,713.9z"/>
				<path class="st4" d="M716.7,718l1.1-0.1c0.7-0.1,1.3,0.4,1.4,1.1l0.1,1.1c0.1,0.7-0.4,1.3-1.1,1.4l-1.1,0.1
					c-0.7,0.1-1.3-0.4-1.4-1.1l-0.1-1.1C715.5,718.7,716,718.1,716.7,718z"/>
				<path class="st4" d="M716.1,723.6c-0.1-0.7,0.4-1.3,1.1-1.4l1.1-0.1c0.7-0.1,1.3,0.4,1.4,1.1l0.1,1.1c0.1,0.7-0.4,1.3-1.1,1.4
					l-1.1,0.1c-0.7,0.1-1.3-0.4-1.4-1.1L716.1,723.6z"/>
				<path class="st4" d="M717.7,726.4l1.1-0.1c0.7-0.1,1.3,0.4,1.4,1.1l0.1,1.1c0.1,0.7-0.4,1.3-1.1,1.4l-1.1,0.1
					c-0.7,0.1-1.3-0.4-1.4-1.1l-0.1-1.1C716.6,727,717.1,726.4,717.7,726.4z"/>
				<path class="st4" d="M718.2,730.7l1.1-0.1c0.7-0.1,1.3,0.4,1.4,1.1l0.1,1.1c0.1,0.7-0.4,1.3-1.1,1.4l-1.1,0.1
					c-0.7,0.1-1.3-0.4-1.4-1.1l-0.1-1.1C717,731.4,717.5,730.7,718.2,730.7z"/>
			</g>
			<g>
				<path class="st4" d="M719.7,709.1l1.1-0.1c0.7-0.1,1.3,0.4,1.4,1.1l0.1,1.1c0.1,0.7-0.4,1.3-1.1,1.4l-1.1,0.1
					c-0.7,0.1-1.3-0.4-1.4-1.1l-0.1-1.1C718.5,709.8,719,709.2,719.7,709.1z"/>
				<path class="st4" d="M720.1,723.1c-0.1-0.7,0.4-1.3,1.1-1.4l1.1-0.1c0.7-0.1,1.3,0.4,1.4,1.1l0.1,1.1c0.1,0.7-0.4,1.3-1.1,1.4
					l-1.1,0.1c-0.7,0.1-1.3-0.4-1.4-1.1L720.1,723.1z"/>
			</g>
			<g>
				<path class="st4" d="M723.6,708.7l1.1-0.1c0.7-0.1,1.3,0.4,1.4,1.1l0.1,1.1c0.1,0.7-0.4,1.3-1.1,1.4l-1.1,0.1
					c-0.7,0.1-1.3-0.4-1.4-1.1l-0.1-1.1C722.5,709.4,722.9,708.8,723.6,708.7z"/>
				<path class="st4" d="M725.2,721.1l1.1-0.1c0.7-0.1,1.3,0.4,1.4,1.1l0.1,1.1c0.1,0.7-0.4,1.3-1.1,1.4l-1.1,0.1
					c-0.7,0.1-1.3-0.4-1.4-1.1l-0.1-1.1C724.1,721.8,724.5,721.2,725.2,721.1z"/>
			</g>
			<g>
				<path class="st4" d="M727.7,708.2l1.1-0.1c0.7-0.1,1.3,0.4,1.4,1.1l0.1,1.1c0.1,0.7-0.4,1.3-1.1,1.4l-1.1,0.1
					c-0.7,0.1-1.3-0.4-1.4-1.1l-0.1-1.1C726.5,708.8,727,708.2,727.7,708.2z"/>
				<path class="st4" d="M728.1,712.3l1.1-0.1c0.7-0.1,1.3,0.4,1.4,1.1l0.1,1.1c0.1,0.7-0.4,1.3-1.1,1.4l-1.1,0.1
					c-0.7,0.1-1.3-0.4-1.4-1.1l-0.1-1.1C726.9,713,727.4,712.4,728.1,712.3z"/>
				<path class="st4" d="M728.7,716.5l1.1-0.1c0.7-0.1,1.3,0.4,1.4,1.1l0.1,1.1c0.1,0.7-0.4,1.3-1.1,1.4l-1.1,0.1
					c-0.7,0.1-1.3-0.4-1.4-1.1l-0.1-1.1C727.5,717.2,728,716.5,728.7,716.5z"/>
				<path class="st4" d="M729.1,720.7l1.1-0.1c0.7-0.1,1.3,0.4,1.4,1.1l0.1,1.1c0.1,0.7-0.4,1.3-1.1,1.4l-1.1,0.1
					c-0.7,0.1-1.3-0.4-1.4-1.1l-0.1-1.1C728,721.4,728.5,720.8,729.1,720.7z"/>
			</g>
			<g>
				<path class="st4" d="M735.6,707.2l1.1-0.1c0.7-0.1,1.3,0.4,1.4,1.1l0.1,1.1c0.1,0.7-0.4,1.3-1.1,1.4l-1.1,0.1
					c-0.7,0.1-1.3-0.4-1.4-1.1l-0.1-1.1C734.5,707.9,735,707.3,735.6,707.2z"/>
				<path class="st4" d="M738.2,728.1l1.1-0.1c0.7-0.1,1.3,0.4,1.4,1.1l0.1,1.1c0.1,0.7-0.4,1.3-1.1,1.4l-1.1,0.1
					c-0.7,0.1-1.3-0.4-1.4-1.1l-0.1-1.1C737,728.8,737.5,728.2,738.2,728.1z"/>
			</g>
			<g>
				<path class="st4" d="M739.6,706.7l1.1-0.1c0.7-0.1,1.3,0.4,1.4,1.1l0.1,1.1c0.1,0.7-0.4,1.3-1.1,1.4l-1.1,0.1
					c-0.7,0.1-1.3-0.4-1.4-1.1l-0.1-1.1C738.5,707.4,739,706.8,739.6,706.7z"/>
				<path class="st4" d="M742.2,727.6l1.1-0.1c0.7-0.1,1.3,0.4,1.4,1.1l0.1,1.1c0.1,0.7-0.4,1.3-1.1,1.4l-1.1,0.1
					c-0.7,0.1-1.3-0.4-1.4-1.1l-0.1-1.1C741,728.3,741.5,727.7,742.2,727.6z"/>
			</g>
			<g>
				<path class="st4" d="M743.7,706.1l1.1-0.1c0.7-0.1,1.3,0.4,1.4,1.1l0.1,1.1c0.1,0.7-0.4,1.3-1.1,1.4l-1.1,0.1
					c-0.7,0.1-1.3-0.4-1.4-1.1l-0.1-1.1C742.5,706.8,743,706.2,743.7,706.1z"/>
				<path class="st4" d="M744.1,710.2l1.1-0.1c0.7-0.1,1.3,0.4,1.4,1.1l0.1,1.1c0.1,0.7-0.4,1.3-1.1,1.4l-1.1,0.1
					c-0.7,0.1-1.3-0.4-1.4-1.1l-0.1-1.1C743,710.9,743.5,710.3,744.1,710.2z"/>
				<path class="st4" d="M743.6,715.8c-0.1-0.7,0.4-1.3,1.1-1.4l1.1-0.1c0.7-0.1,1.3,0.4,1.4,1.1l0.1,1.1c0.1,0.7-0.4,1.3-1.1,1.4
					l-1.1,0.1c-0.7,0.1-1.3-0.4-1.4-1.1L743.6,715.8z"/>
				<path class="st4" d="M744.1,720c-0.1-0.7,0.4-1.3,1.1-1.4l1.1-0.1c0.7-0.1,1.3,0.4,1.4,1.1l0.1,1.1c0.1,0.7-0.4,1.3-1.1,1.4
					l-1.1,0.1c-0.7,0.1-1.3-0.4-1.4-1.1L744.1,720L744.1,720z"/>
				<path class="st4" d="M745.7,722.9l1.1-0.1c0.7-0.1,1.3,0.4,1.4,1.1l0.1,1.1c0.1,0.7-0.4,1.3-1.1,1.4l-1.1,0.1
					c-0.7,0.1-1.3-0.4-1.4-1.1l-0.1-1.1C744.6,723.6,745,722.9,745.7,722.9z"/>
				<path class="st4" d="M746.2,727.1l1.1-0.1c0.7-0.1,1.3,0.4,1.4,1.1l0.1,1.1c0.1,0.7-0.4,1.3-1.1,1.4l-1.1,0.1
					c-0.7,0.1-1.3-0.4-1.4-1.1l-0.1-1.1C745,727.8,745.5,727.2,746.2,727.1z"/>
			</g>
			<g>
				<path class="st4" d="M747.7,705.7l1.1-0.1c0.7-0.1,1.3,0.4,1.4,1.1l0.1,1.1c0.1,0.7-0.4,1.3-1.1,1.4l-1.1,0.1
					c-0.7,0.1-1.3-0.4-1.4-1.1l-0.1-1.1C746.5,706.3,747,705.7,747.7,705.7z"/>
				<path class="st4" d="M749.2,727.9c-0.1-0.7,0.4-1.3,1.1-1.4l1.1-0.1c0.7-0.1,1.3,0.4,1.4,1.1l0.1,1.1c0.1,0.7-0.4,1.3-1.1,1.4
					l-1.1,0.1c-0.7,0.1-1.3-0.4-1.4-1.1L749.2,727.9z"/>
			</g>
			<g>
				<path class="st4" d="M751.7,705.1l1.1-0.1c0.7-0.1,1.3,0.4,1.4,1.1l0.1,1.1c0.1,0.7-0.4,1.3-1.1,1.4l-1.1,0.1
					c-0.7,0.1-1.3-0.4-1.4-1.1l-0.1-1.1C750.5,705.8,751,705.2,751.7,705.1z"/>
				<path class="st4" d="M754.2,726.1l1.1-0.1c0.7-0.1,1.3,0.4,1.4,1.1l0.1,1.1c0.1,0.7-0.4,1.3-1.1,1.4l-1.1,0.1
					c-0.7,0.1-1.3-0.4-1.4-1.1l-0.1-1.1C753,726.8,753.5,726.2,754.2,726.1z"/>
			</g>
			<g>
				<path class="st4" d="M759.6,704.2l1.1-0.1c0.7-0.1,1.3,0.4,1.4,1.1l0.1,1.1c0.1,0.7-0.4,1.3-1.1,1.4l-1.1,0.1
					c-0.7,0.1-1.3-0.4-1.4-1.1l-0.1-1.1C758.5,704.8,759,704.2,759.6,704.2z"/>
				<path class="st4" d="M760.1,708.3l1.1-0.1c0.7-0.1,1.3,0.4,1.4,1.1l0.1,1.1c0.1,0.7-0.4,1.3-1.1,1.4l-1.1,0.1
					c-0.7,0.1-1.3-0.4-1.4-1.1l-0.1-1.1C759,709,759.4,708.3,760.1,708.3z"/>
				<path class="st4" d="M760.7,712.4l1.1-0.1c0.7-0.1,1.3,0.4,1.4,1.1l0.1,1.1c0.1,0.7-0.4,1.3-1.1,1.4l-1.1,0.1
					c-0.7,0.1-1.3-0.4-1.4-1.1l-0.1-1.1C759.5,713.1,760,712.5,760.7,712.4z"/>
				<path class="st4" d="M761.2,716.7l1.1-0.1c0.7-0.1,1.3,0.4,1.4,1.1l0.1,1.1c0.1,0.7-0.4,1.3-1.1,1.4l-1.1,0.1
					c-0.7,0.1-1.3-0.4-1.4-1.1l-0.1-1.1C760,717.3,760.5,716.7,761.2,716.7z"/>
				<path class="st4" d="M761.7,720.8l1.1-0.1c0.7-0.1,1.3,0.4,1.4,1.1l0.1,1.1c0.1,0.7-0.4,1.3-1.1,1.4l-1.1,0.1
					c-0.7,0.1-1.3-0.4-1.4-1.1l-0.1-1.1C760.6,721.5,761.1,720.9,761.7,720.8z"/>
				<path class="st4" d="M761.2,726.4c-0.1-0.7,0.4-1.3,1.1-1.4l1.1-0.1c0.7-0.1,1.3,0.4,1.4,1.1l0.1,1.1c0.1,0.7-0.4,1.3-1.1,1.4
					l-1.1,0.1c-0.7,0.1-1.3-0.4-1.4-1.1L761.2,726.4L761.2,726.4z"/>
			</g>
			<path class="st4" d="M764.7,711.9l1.1-0.1c0.7-0.1,1.3,0.4,1.4,1.1l0.1,1.1c0.1,0.7-0.4,1.3-1.1,1.4l-1.1,0.1
				c-0.7,0.1-1.3-0.4-1.4-1.1l-0.1-1.1C763.5,712.6,764,712,764.7,711.9z"/>
			<path class="st4" d="M769.1,715.7l1.1-0.1c0.7-0.1,1.3,0.4,1.4,1.1l0.1,1.1c0.1,0.7-0.4,1.3-1.1,1.4l-1.1,0.1
				c-0.7,0.1-1.3-0.4-1.4-1.1l-0.1-1.1C768,716.4,768.5,715.8,769.1,715.7z"/>
			<g>
				<path class="st4" d="M771.7,702.5l1.1-0.1c0.7-0.1,1.3,0.4,1.4,1.1l0.1,1.1c0.1,0.7-0.4,1.3-1.1,1.4l-1.1,0.1
					c-0.7,0.1-1.3-0.4-1.4-1.1l-0.1-1.1C770.6,703.2,771,702.6,771.7,702.5z"/>
				<path class="st4" d="M772.2,706.7l1.1-0.1c0.7-0.1,1.3,0.4,1.4,1.1l0.1,1.1c0.1,0.7-0.4,1.3-1.1,1.4l-1.1,0.1
					c-0.7,0.1-1.3-0.4-1.4-1.1l-0.1-1.1C771,707.4,771.5,706.8,772.2,706.7z"/>
				<path class="st4" d="M772.7,710.9l1.1-0.1c0.7-0.1,1.3,0.4,1.4,1.1l0.1,1.1c0.1,0.7-0.4,1.3-1.1,1.4l-1.1,0.1
					c-0.7,0.1-1.3-0.4-1.4-1.1l-0.1-1.1C771.5,711.6,772,711,772.7,710.9z"/>
				<path class="st4" d="M773.2,715.2l1.1-0.1c0.7-0.1,1.3,0.4,1.4,1.1l0.1,1.1c0.1,0.7-0.4,1.3-1.1,1.4l-1.1,0.1
					c-0.7,0.1-1.3-0.4-1.4-1.1l-0.1-1.1C772,715.9,772.5,715.3,773.2,715.2z"/>
				<path class="st4" d="M773.7,719.3l1.1-0.1c0.7-0.1,1.3,0.4,1.4,1.1l0.1,1.1c0.1,0.7-0.4,1.3-1.1,1.4l-1.1,0.1
					c-0.7,0.1-1.3-0.4-1.4-1.1l-0.1-1.1C772.6,720,773,719.4,773.7,719.3z"/>
				<path class="st4" d="M774.3,723.5l1.1-0.1c0.7-0.1,1.3,0.4,1.4,1.1l0.1,1.1c0.1,0.7-0.4,1.3-1.1,1.4l-1.1,0.1
					c-0.7,0.1-1.3-0.4-1.4-1.1l-0.1-1.1C773.1,724.2,773.6,723.6,774.3,723.5z"/>
			</g>
		</g>
		<g>
			<g>
				<path class="st5" d="M695.5,821.4c0.7,4-2.1,7.8-6.1,8.5l-10.5,1.7c-4,0.7-7.8-2.1-8.5-6.1l0,0c-0.7-4,2.1-7.8,6.1-8.5l10.5-1.7
					C691,814.7,694.8,817.4,695.5,821.4L695.5,821.4L695.5,821.4z"/>
				<path class="st5" d="M725.3,816.5c0.7,4-2.1,7.8-6.1,8.5l-10.5,1.7c-4,0.7-7.8-2.1-8.5-6.1l0,0c-0.7-4,2.1-7.8,6.1-8.5l10.5-1.7
					C720.8,809.7,724.6,812.5,725.3,816.5L725.3,816.5z"/>
				<path class="st5" d="M755.1,811.6c0.7,4-2.1,7.8-6.1,8.5l-10.5,1.7c-4,0.7-7.8-2.1-8.5-6.1l0,0c-0.7-4,2.1-7.8,6.1-8.5l10.5-1.7
					C750.6,804.8,754.4,807.6,755.1,811.6L755.1,811.6z"/>
				<path class="st5" d="M698.8,841.9c0.7,4-2.1,7.8-6.1,8.5l-10.5,1.7c-4,0.7-7.8-2.1-8.5-6.1l0,0c-0.7-4,2.1-7.8,6.1-8.5l10.5-1.7
					C694.4,835.1,698.2,837.9,698.8,841.9L698.8,841.9L698.8,841.9z"/>
				<path class="st5" d="M728.7,837c0.7,4-2.1,7.8-6.1,8.5l-10.5,1.7c-4,0.7-7.8-2.1-8.5-6.1l0,0c-0.7-4,2.1-7.8,6.1-8.5l10.5-1.7
					C724.2,830.2,728,832.9,728.7,837L728.7,837L728.7,837z"/>
				<path class="st5" d="M758.5,832.1c0.7,4-2.1,7.8-6.1,8.5l-10.5,1.7c-4,0.7-7.8-2.1-8.5-6.1l0,0c-0.7-4,2.1-7.8,6.1-8.5L750,826
					C754,825.3,757.8,828,758.5,832.1L758.5,832.1z"/>
				<path class="st5" d="M702.2,862.4c0.7,4-2.1,7.8-6.1,8.5l-10.5,1.7c-4,0.7-7.8-2.1-8.5-6.1l0,0c-0.7-4,2.1-7.8,6.1-8.5l10.5-1.7
					C697.7,855.6,701.5,858.3,702.2,862.4L702.2,862.4L702.2,862.4z"/>
				<path class="st5" d="M732,857.4c0.7,4-2.1,7.8-6.1,8.5l-10.5,1.7c-4,0.7-7.8-2.1-8.5-6.1l0,0c-0.7-4,2.1-7.8,6.1-8.5l10.5-1.7
					C727.6,850.7,731.4,853.4,732,857.4L732,857.4L732,857.4z"/>
				<path class="st5" d="M761.9,852.5c0.7,4-2.1,7.8-6.1,8.5l-10.5,1.7c-4,0.7-7.8-2.1-8.5-6.1l0,0c-0.7-4,2.1-7.8,6.1-8.5l10.5-1.7
					C757.4,845.7,761.2,848.5,761.9,852.5L761.9,852.5z"/>
			</g>
			<g>
				<path class="st6" d="M706,885.2c0.7,4-2.1,7.8-6.1,8.5l-10.5,1.7c-4,0.7-7.8-2.1-8.5-6.1l0,0c-0.7-4,2.1-7.8,6.1-8.5l10.5-1.7
					C701.5,878.4,705.3,881.1,706,885.2L706,885.2L706,885.2z"/>
				<path class="st7" d="M735.8,880.2c0.7,4-2.1,7.8-6.1,8.5l-10.5,1.7c-4,0.7-7.8-2.1-8.5-6.1l0,0c-0.7-4,2.1-7.8,6.1-8.5l10.5-1.7
					C731.3,873.5,735.1,876.2,735.8,880.2L735.8,880.2L735.8,880.2z"/>
				<path class="st8" d="M765.6,875.3c0.7,4-2.1,7.8-6.1,8.5l-10.5,1.7c-4,0.7-7.8-2.1-8.5-6.1l0,0c-0.7-4,2.1-7.8,6.1-8.5l10.5-1.7
					C761.1,868.5,764.9,871.3,765.6,875.3L765.6,875.3z"/>
			</g>
		</g>
	</g>
</g>
<g id="_02_3_4">
	<g id="_02_Standing">
		<g id="leg">
			<path class="st9" d="M1172.7,1007.5c0,0-53.2,340.6-56,367.6c-2.8,26.9,20.9,88.6-11.8,275.9l-43.7,2.2
				c-2.2-80.9-6.1-222.9-6.6-255.8c-0.7-46.7-9.5-294.2-9.5-294.2S1146,942.7,1172.7,1007.5L1172.7,1007.5z"/>
			<g>
				<polygon class="st2" points="1097.1,1718.7 1068.5,1749 1054.2,1705.4 1059.6,1672.9 1101.4,1676.2 				"/>
				<polygon class="st10" points="1059.6,1672.9 1101.4,1676.2 1104.9,1651 1061.2,1653.2 				"/>
			</g>
		</g>
		<g id="hoodie">
			<g id="head">
				<path class="st10" d="M1146,464.5c-28.9-4.7-67.5,4.4-71.5,52.5c-2.8,33.7-4.6,92,17,97.5c9.6,2.5,44.8-3.9,44.8-3.9l-5.2,62
					l66.3-27.4l-15.6-55.7C1181.9,589.5,1241.3,480,1146,464.5L1146,464.5z"/>
				<path class="st9" d="M1091.8,475.5l48.2,59.2c6.4-14.8,18.2-12.1,25.2-1.1c8.6,13.5-7.1,27-5.1,31.7c2,4.6,18.1,24.1,21.8,24.3
					s71.8-38.1,32.2-116.3C1195.9,437.2,1130.3,429.6,1091.8,475.5L1091.8,475.5z"/>
				<path class="st9" d="M1132.5,408.6c-3.3,22.9,9,39.2,29.8,42.2s32.5-10.6,35.8-33.5s-5.2-41.7-26.1-44.7
					C1151.2,369.7,1135.8,385.7,1132.5,408.6L1132.5,408.6z"/>
			</g>
			<path class="st11" d="M1082,674.2l240.8-84c0,0,41,127.9-60.6,133.9c-60.8,3.6-118.2,8.5-149.5-16.7
				C1091.7,690.6,1082,674.2,1082,674.2L1082,674.2z"/>
		</g>
	</g>
	<g id="_02_Front">
		<g id="leg-2">
			<path class="st9" d="M1285.4,1097.4c0,0-15.9,109-21.4,250.2c-4.8,123.8,21.4,124.4-1,298.5h-42.6
				c-1.9-114.4-4.6-114.1-51.1-578.4C1169.4,1067.8,1259.4,1032.3,1285.4,1097.4L1285.4,1097.4z"/>
			<polygon class="st2" points="1224.3,1728.1 1263.1,1717 1263.1,1671.1 1222.5,1671.1 			"/>
			<polygon class="st10" points="1263.1,1671.1 1222.5,1671.1 1220.5,1646.2 1263.1,1646.2 			"/>
		</g>
		<g id="hoodie-2">
			<path class="st11" d="M1268.8,671.2c14.3,98.9,38.9,480.4,38.9,480.4c-47.3,50.8-277.5,2.1-277.5,2.1s17-332.8,51.8-479.4
				C1082,674.2,1250.1,616.4,1268.8,671.2L1268.8,671.2z"/>
		</g>
	</g>
	<path class="st11" d="M1280.6,692c0,0,123.4,190.3,94.7,250.1s-132,118.6-132,118.6l2.7-336.4L1280.6,692L1280.6,692z"/>
	<path class="st9" d="M1100.7,1710c3.1,0.8,11.6,56,6.5,58.9c-5,2.9-146,5.1-154.1-2.9c-4.3-4.2,0.3-22.8,3.2-23.6
		c54.4-15.2,93.9-43.8,93.9-43.8s13.9,5,12.3,12.4l-1.7,3.1c0,0,8.8,8.2,17.3,7.4C1086.7,1720.7,1092.8,1707.8,1100.7,1710
		L1100.7,1710z"/>
	<path class="st9" d="M1263.1,1699.6c-5.7-3.8-12.6-6-20.6-5.8c-7.1,0.2-13.7,2.3-18.9,5.7l-14.3,56.2l0.3,10.9
		c-0.1-0.1-0.1,0.3,0.2,0.9c8.1,3.7,20.5,5.8,34.3,5.5c15.2-0.4,28.5-3.8,36.2-8.6l-0.3-10.7L1263.1,1699.6L1263.1,1699.6z"/>
	<g>
		<g>
			<path class="st12" d="M765.2,837.1c0,0-12.3,2-13.1,1.9s-10.4,4.9-13.3,0.7c-2.9-4.2,10.8-10,10.8-10l12.7,3.7L765.2,837.1
				L765.2,837.1z"/>
			<path class="st13" d="M744.8,822.4c0,0,3.9-2.6,7.1-2.8s28.6,9,31.8,10.6s14.7,13.5,14.7,13.5l-23.2-5L744.8,822.4L744.8,822.4z"
				/>
			<path class="st12" d="M756.2,832.7l-11.6,4.5c0,0-4.2,5.1-8,6.8s-6.7,1-7.3,0.5c-0.7-0.6,8-12.6,8-12.6l14.4-5.1L756.2,832.7
				L756.2,832.7z"/>
			<path class="st14" d="M751.3,829.6l-15.1,5.3c0,0-9.7,7.9-13.4,6.9s-3.8-3.3-3.8-3.3l12-10.5L751.3,829.6L751.3,829.6z"/>
			<path class="st13" d="M844.6,874.3l-16.7-12.4c0,0-25.4-17.3-28.9-20.7s-18.8-8.7-25.2-11.5c-10-4.4-16.2-7.3-22.7-8.2
				c-10.7-1.5-33.4,5.8-34.6,7.5c-1.3,1.9,4.5,4.2,7.8,3.9c3.9,0.4,17.7-2.2,21.4-2.1c3.9,0.2,18,7.2,20.1,9.2
				c1.7,1.6,5.7,7.6,5.7,7.6l-1.2,7.4l-12.8-2.4c0,0-14.5-11.4-17.5-8.1c-4,4.5,6.4,12.3,10,15.1c5.3,4,15.9,12.3,22,15
				c9,3.9,37.5,9.6,37.5,9.6l19.4,11.4L844.6,874.3L844.6,874.3z"/>
		</g>
		<path class="st11" d="M844.6,869.2L821,900c0,0,115,98,156,100s100-81,100-81V706.2L964.1,895.6L844.6,869.2L844.6,869.2z"/>
	</g>
</g>
</svg>
