<?xml version="1.0" encoding="utf-8"?>
<!-- Generator: Adobe Illustrator 27.3.1, SVG Export Plug-In . SVG Version: 6.00 Build 0)  -->
<svg version="1.1" id="Layer_1" xmlns="http://www.w3.org/2000/svg" xmlns:xlink="http://www.w3.org/1999/xlink" x="0px" y="0px"
	 viewBox="0 0 2400 1700" style="enable-background:new 0 0 2400 1700;" xml:space="preserve">
<style type="text/css">
	.st0{fill:#EF5C00;}
	.st1{fill:#EAEBEC;}
	.st2{fill:#FFFFFF;}
	.st3{fill:#293657;}
	.st4{fill:#5078F1;}
	.st5{fill:#527BEF;}
	.st6{fill:#EDD600;}
	.st7{opacity:0.3;fill:#293657;enable-background:new    ;}
</style>
<g>
	<path class="st0" d="M1900.3,855.6c15.4,22.2,43.2,53,57,66.9c6.5,6.5,26.4,26.5,48.6,15.3c49.3-24.7,24.2-147,10.9-194.8l38.1,7.6
		l-75.9-79.4l-11.8,104.5l29.9-30c16.6,60,24.2,138.1-6.5,153.4c-16.1,8-35.7-18.5-61-54.8C1890,787.2,1863.3,802.3,1900.3,855.6
		L1900.3,855.6z"/>
	<g>
		<g>
			<path class="st1" d="M1478.1,854.5c-16.3,34.9-100.6,182.4-129.8,168.7s30-172.9,46.3-207.8c16.3-34.9,48.3-54.5,71.3-43.7
				C1489,782.6,1494.4,819.6,1478.1,854.5L1478.1,854.5z"/>
			<path class="st2" d="M1925.6,738.3c0,141.5-118.6,256.3-264.9,256.3s-264.9-114.8-264.9-256.3S1514.4,482,1660.7,482
				S1925.6,596.8,1925.6,738.3z"/>
			<path class="st3" d="M1822.3,701.8c-7.7,63.6-94.2,105.6-193.3,93.7c-99.1-11.9-173.2-73.2-165.6-136.8s94.2-105.6,193.3-93.7
				C1755.8,576.9,1829.9,638.1,1822.3,701.8L1822.3,701.8z"/>
			<path class="st1" d="M1932.1,831.1c17.5,34.3,82.2,191.4,53.5,206c-28.7,14.7-118-129.8-135.6-164.1
				c-17.5-34.3-13.4-71.5,9.3-83.1C1882,778.3,1914.6,796.8,1932.1,831.1L1932.1,831.1z"/>
		</g>
		<g>
			<path class="st4" d="M1684.7,691.7c0-4.9,3.9-8.8,8.8-8.9c4.9,0,8.8,3.9,8.9,8.8c0,4.9-3.9,8.8-8.8,8.9
				C1688.7,700.5,1684.7,696.6,1684.7,691.7z"/>
			<path class="st4" d="M1706.4,688.7c0-4.9,3.9-8.8,8.8-8.9c4.9,0,8.8,3.9,8.9,8.8c0,4.9-3.9,8.8-8.8,8.9
				C1710.4,697.5,1706.4,693.5,1706.4,688.7z"/>
			<path class="st4" d="M1728.1,685.6c0-4.9,3.9-8.8,8.8-8.9c4.9,0,8.8,3.9,8.9,8.8c0,4.9-3.9,8.8-8.8,8.9
				C1732.1,694.4,1728.1,690.5,1728.1,685.6L1728.1,685.6z"/>
			<path class="st4" d="M1709.3,709.9c0-4.9,3.9-8.8,8.8-8.9c4.9,0,8.8,3.9,8.9,8.8c0,4.9-3.9,8.8-8.8,8.9
				C1713.3,718.7,1709.4,714.7,1709.3,709.9z"/>
			<path class="st4" d="M1731.1,706.8c0-4.9,3.9-8.8,8.8-8.9c4.9,0,8.8,3.9,8.9,8.8c0,4.9-3.9,8.8-8.8,8.9
				C1735.1,715.6,1731.1,711.7,1731.1,706.8L1731.1,706.8z"/>
			<path class="st4" d="M1749.8,682.6c0-4.9,3.9-8.8,8.8-8.9c4.9,0,8.8,3.9,8.9,8.8s-3.9,8.8-8.8,8.9
				C1753.8,691.4,1749.8,687.4,1749.8,682.6z"/>
		</g>
		<g>
			<path class="st4" d="M1597.8,675.1c1.4-4.7-1.3-9.6-5.9-11c-4.7-1.4-9.6,1.3-11,5.9c-1.4,4.7,1.3,9.6,5.9,11
				C1591.5,682.4,1596.4,679.8,1597.8,675.1L1597.8,675.1z"/>
			<path class="st4" d="M1577.8,666.1c1.4-4.7-1.2-9.6-5.9-11c-4.7-1.4-9.6,1.3-11,5.9c-1.4,4.7,1.3,9.6,5.9,11
				C1571.5,673.4,1576.4,670.8,1577.8,666.1z"/>
			<path class="st4" d="M1557.8,657.1c1.4-4.7-1.3-9.6-5.9-11c-4.7-1.4-9.6,1.3-11,5.9s1.3,9.6,5.9,11
				C1551.5,664.4,1556.4,661.8,1557.8,657.1L1557.8,657.1z"/>
			<path class="st4" d="M1569,685.6c1.4-4.7-1.3-9.6-5.9-11c-4.7-1.4-9.6,1.3-10.9,5.9c-1.4,4.7,1.3,9.6,5.9,11
				C1562.7,692.9,1567.6,690.3,1569,685.6z"/>
			<path class="st4" d="M1549,676.6c1.4-4.7-1.3-9.6-5.9-11c-4.7-1.4-9.6,1.3-11,5.9s1.3,9.6,5.9,11
				C1542.7,683.9,1547.6,681.3,1549,676.6L1549,676.6z"/>
			<path class="st4" d="M1537.8,648.1c1.4-4.7-1.2-9.6-5.9-11s-9.6,1.3-11,5.9c-1.4,4.7,1.3,9.6,5.9,11
				C1531.5,655.4,1536.4,652.7,1537.8,648.1z"/>
		</g>
	</g>
	<g>
		<g>
			<path class="st1" d="M931.2,858.8c22.4,31.4,131.9,161.2,158.2,142.4c26.3-18.7-60.8-164.6-83.1-196s-57.3-44.8-78-30.1
				C907.5,790,908.8,827.4,931.2,858.8z"/>
			<path class="st2" d="M472.4,738.3c0,141.5,118.6,256.3,264.9,256.3s264.9-114.8,264.9-256.3S883.6,482,737.3,482
				S472.4,596.8,472.4,738.3L472.4,738.3z"/>
			<path class="st3" d="M575.7,701.8c7.7,63.6,94.2,105.6,193.3,93.7s173.2-73.2,165.6-136.8S840.4,553.1,741.3,565
				C642.2,576.9,568.1,638.1,575.7,701.8L575.7,701.8z"/>
			<path class="st1" d="M465.9,831.1c-17.5,34.3-82.2,191.4-53.5,206c28.7,14.7,118-129.8,135.6-164.1c17.5-34.3,13.4-71.5-9.3-83.1
				C516,778.3,483.4,796.8,465.9,831.1L465.9,831.1z"/>
		</g>
		<g>
			<g>
				<path class="st5" d="M873.1,665.6c0.6,5,5.2,8.6,10.2,8c5-0.6,8.6-5.2,8-10.2c-0.6-5-5.2-8.6-10.2-8
					C876,656,872.5,660.5,873.1,665.6z"/>
				<path class="st5" d="M814.8,675.1c0.6,5,5.2,8.6,10.2,8c5-0.6,8.6-5.2,8-10.2c-0.6-5-5.2-8.6-10.2-8
					C817.7,665.5,814.2,670.1,814.8,675.1z"/>
				<path class="st5" d="M829.2,652.7c0.6,5,5.2,8.6,10.2,8s8.6-5.2,8-10.2c-0.6-5-5.1-8.6-10.2-8
					C832.2,643.1,828.7,647.7,829.2,652.7z"/>
				<path class="st5" d="M852.1,648.8c0.6,5,5.2,8.6,10.2,8c5-0.6,8.6-5.2,8-10.2c-0.6-5-5.2-8.6-10.2-8
					C855.1,639.2,851.5,643.8,852.1,648.8L852.1,648.8z"/>
			</g>
			<g>
				<path class="st5" d="M695.7,686.7c0.6,5,5.2,8.6,10.2,8c5-0.6,8.6-5.2,8-10.2c-0.6-5-5.2-8.6-10.2-8
					C698.7,677.1,695.1,681.6,695.7,686.7L695.7,686.7z"/>
				<path class="st5" d="M637.4,696.2c0.6,5,5.2,8.6,10.2,8c5-0.6,8.6-5.1,8-10.2c-0.6-5-5.2-8.6-10.2-8
					C640.4,686.6,636.8,691.2,637.4,696.2L637.4,696.2z"/>
				<path class="st5" d="M651.9,673.8c0.6,5,5.2,8.6,10.2,8c5-0.6,8.6-5.2,8-10.2c-0.6-5-5.2-8.6-10.2-8
					C654.9,664.2,651.3,668.8,651.9,673.8z"/>
				<path class="st5" d="M674.8,669.9c0.6,5,5.2,8.6,10.2,8c5-0.6,8.6-5.2,8-10.2c-0.6-5-5.2-8.6-10.2-8
					C677.7,660.3,674.2,664.8,674.8,669.9z"/>
			</g>
		</g>
	</g>
	<g>
		<path class="st0" d="M1861.4,504.6c5.8-42.3-12.6-80.9-43.5-92.2c7.1,15.8,9.5,34.7,5.6,54c-0.9,4.7-2.2,9.2-3.7,13.5
			c-9.2,25.7-28.8,44.7-51.5,51.4c1.6,21.3,17.7,39.9,40.4,44.4c3.3,0.7,6.5,1,9.7,1c20-12.6,36.1-36.2,41.9-65.3
			C1860.7,509.1,1861.1,506.8,1861.4,504.6L1861.4,504.6z"/>
		<path class="st0" d="M1542.7,441.2c10.8-41.3,42.5-69.9,75.4-68.5c-12.6,11.9-22,28.4-25.8,47.7c-0.9,4.7-1.5,9.3-1.7,13.9
			c-1.3,27.3,9.5,52.3,27.9,67.2c-9.7,19-31.7,30.1-54.3,25.6c-3.2-0.7-6.4-1.6-9.3-2.8c-13.7-19.3-19.5-47.3-13.7-76.3
			C1541.6,445.6,1542.1,443.4,1542.7,441.2L1542.7,441.2z"/>
	</g>
	<path class="st6" d="M578.3,436.1c-32.8-2.8-49.8-11-51.8-25.2s12-26.8,42.8-38.5c25-9.5,58.8-17.5,95-22.6s70.9-6.6,97.5-4.4
		c32.8,2.8,49.8,11,51.8,25.2c2,14.2-12,26.8-42.9,38.5c-25,9.5-58.7,17.5-95,22.6C639.6,436.7,605,438.3,578.3,436.1L578.3,436.1z
		 M667.4,371.5c-68.1,9.5-110.1,27.3-118.2,36.2c10.2,6.3,55.4,11.9,123.6,2.3C741,400.5,783,382.7,791,373.8
		C780.8,367.5,735.6,362,667.4,371.5L667.4,371.5z"/>
	<ellipse class="st7" cx="758.4" cy="1487" rx="270.4" ry="36"/>
	<ellipse class="st7" cx="1660.7" cy="1487" rx="270.4" ry="36"/>
</g>
</svg>
