<?xml version="1.0" encoding="utf-8"?>
<!-- Generator: Adobe Illustrator 27.3.1, SVG Export Plug-In . SVG Version: 6.00 Build 0)  -->
<svg version="1.1" id="Layer_1" xmlns="http://www.w3.org/2000/svg" xmlns:xlink="http://www.w3.org/1999/xlink" x="0px" y="0px"
	 viewBox="0 0 2400 1700" style="enable-background:new 0 0 2400 1700;" xml:space="preserve">
<style type="text/css">
	.st0{opacity:0.31;fill:#293657;enable-background:new    ;}
	.st1{fill:#EBECED;}
	.st2{fill:#D9DADB;}
	.st3{fill:#FFFFFF;}
	.st4{fill:#2A3756;}
	.st5{fill:#527BEF;}
	.st6{opacity:0.7;fill:#4189A8;enable-background:new    ;}
	.st7{fill:#151C28;}
	.st8{opacity:0.7;fill:#2B5C70;enable-background:new    ;}
	.st9{opacity:0.5;fill:#2B5C70;enable-background:new    ;}
	.st10{fill:#FBF84A;}
	.st11{opacity:0.5;}
	.st12{fill:#2B5C70;}
	.st13{fill:#4E5EAF;}
</style>
<path class="st0" d="M2161,1497.8c0,31.6-562.5,57.2-1096,57.2s-836-25.6-836-57.2s302.5-57.2,836-57.2S2161,1466.1,2161,1497.8z"/>
<g>
	<path class="st1" d="M1537.5,712.5c22.4,44,105.3,245.1,68.5,263.9c-36.8,18.8-151.1-166.2-173.6-210.2
		c-22.4-44-17.1-91.6,11.9-106.4C1473.3,645,1515.1,668.6,1537.5,712.5L1537.5,712.5z"/>
	<polygon class="st2" points="786.9,655.4 899.6,816.5 876,618.7 795.7,559.2 	"/>
	<g>
		<path class="st3" d="M1539.7,665c0,189.4-154.8,342.9-345.8,342.9S848,854.4,848,665s154.8-342.9,345.8-342.9
			S1539.7,475.6,1539.7,665z"/>
		<g>
			<path class="st3" d="M1221.6,598.5c-1.8-0.2-3.7-0.7-5.5-1.4c-33.2-13.7-59.3-39.9-73.4-73.7s-14.4-71.2-1.1-105.3l52.1-132.7
				c13.4-34.1,38.9-60.8,71.9-75.2s69.5-14.8,102.7-1.1c11,4.5,16.4,17.4,11.9,28.7c-4.4,11.3-17,16.8-28,12.2
				c-22.6-9.3-47.4-9.1-69.8,0.8c-22.4,9.8-39.7,27.9-48.8,51.1l-52.1,132.7c-9.1,23.2-8.8,48.5,0.7,71.5
				c9.6,22.9,27.2,40.7,49.8,50c11,4.5,16.4,17.4,11.9,28.7C1240.4,594.3,1231,599.7,1221.6,598.5L1221.6,598.5z"/>
			<g>
				<path class="st4" d="M1432.8,559.5c-0.7,85.7-107,153.7-237.3,151.9s-235.4-72.8-234.7-158.6c0.7-85.7,107-153.7,237.3-151.9
					C1328.5,402.8,1433.6,473.8,1432.8,559.5L1432.8,559.5z"/>
				<g>
					<path class="st5" d="M1051.4,551.4c-0.1,6.8-5.5,12.2-12.1,12.1c-6.6-0.1-12-5.7-11.9-12.5s5.5-12.2,12.1-12.1
						C1046.2,539,1051.5,544.6,1051.4,551.4z"/>
					<path class="st5" d="M1128.9,556c-0.1,6.8-5.5,12.2-12.1,12.1c-6.6-0.1-12-5.7-11.9-12.5s5.5-12.2,12.1-12.2
						C1123.7,543.6,1129,549.2,1128.9,556L1128.9,556z"/>
					<path class="st5" d="M1106.8,528c-0.1,6.8-5.5,12.2-12.1,12.1c-6.6-0.1-12-5.7-11.9-12.5s5.5-12.2,12.1-12.1
						C1101.5,515.7,1106.8,521.2,1106.8,528L1106.8,528z"/>
					<path class="st5" d="M1076.4,526c-0.1,6.8-5.5,12.2-12.1,12.1c-6.7-0.1-12-5.7-11.9-12.5s5.5-12.2,12.1-12.1
						C1071.1,513.6,1076.4,519.2,1076.4,526z"/>
				</g>
				<g>
					<path class="st5" d="M1285.9,554.8c-0.1,6.8-5.5,12.2-12.1,12.1c-6.6-0.1-12-5.7-11.9-12.5s5.5-12.2,12.1-12.1
						C1280.7,542.4,1286,547.9,1285.9,554.8L1285.9,554.8z"/>
					<path class="st5" d="M1363.4,559.3c-0.1,6.8-5.5,12.2-12.1,12.1s-12-5.7-11.9-12.5s5.5-12.2,12.1-12.1
						C1358.2,546.9,1363.5,552.5,1363.4,559.3z"/>
					<path class="st5" d="M1341.3,531.4c-0.1,6.8-5.5,12.2-12.1,12.1c-6.6-0.1-12-5.7-11.9-12.5s5.5-12.2,12.1-12.1
						C1336,519,1341.3,524.6,1341.3,531.4L1341.3,531.4z"/>
					<path class="st5" d="M1310.9,529.3c-0.1,6.8-5.5,12.2-12.1,12.1c-6.6-0.1-12-5.7-11.9-12.5s5.5-12.2,12.1-12.1
						C1305.6,517,1310.9,522.5,1310.9,529.3L1310.9,529.3z"/>
				</g>
			</g>
		</g>
	</g>
	<g>
		<path class="st6" d="M793,569.2l205,202c11.2,6.2,26.5,10.7,32.9,16.9l25.9,25.6c3.3,3.3,8.6,3.2,11.9-0.1s3.2-8.6-0.1-11.9l-1-1
			l-24.8-24.7c-6.4-6.3-11.1-21.5-17.4-32.6l-205-201.9L793,569.2L793,569.2z"/>
		<path class="st4" d="M823.1,537.8c9.4,9.3-24.2,43.5-33.7,34.2L636.9,421.7c-9.4-9.3-9.5-24.5-0.2-33.9l0,0
			c9.3-9.4,24.5-9.5,33.9-0.2L823.1,537.8z"/>
		<path class="st7" d="M832.2,531.2c5.3,5.2,5.4,13.8,0.1,19.1L802.1,581c-5.2,5.3-13.8,5.4-19.1,0.1l0,0
			c-5.3-5.2-5.4-13.8-0.1-19.1l30.2-30.7C818.3,526,826.9,526,832.2,531.2L832.2,531.2z"/>
	</g>
	<path class="st1" d="M831.4,605.4c13.2,44.2,3.9,86-20.7,93.4c-24.6,7.3-55.2-22.6-68.4-66.8s-3.9-86,20.7-93.4
		S818.3,561.2,831.4,605.4z"/>
</g>
<g>
	<path class="st8" d="M574.7,1136.3c0,6.1-5,11.1-11.1,11.1h-81.4c-6.1,0-11.1-5-11.1-11.1l0,0c0-6.1,5-11.1,11.1-11.1h81.4
		C569.7,1125.2,574.7,1130.1,574.7,1136.3L574.7,1136.3z"/>
	<path class="st9" d="M653.9,1432.9L568.8,1310c-4.2-6-8.8-11-13.7-15.1v-147.6h-64.6v147.6c-4.9,4-9.5,9-13.7,15.1l-85.1,122.9
		c-25.3,36.5-9.6,66.4,34.8,66.4H619C663.5,1499.3,679.2,1469.5,653.9,1432.9L653.9,1432.9z"/>
</g>
<g>
	<g>
		<path class="st8" d="M776.8,1011c0,8.2-6.7,14.9-14.9,14.9H652.3c-8.2,0-14.9-6.7-14.9-14.9l0,0c0-8.2,6.7-14.9,14.9-14.9h109.5
			C770.1,996,776.8,1002.7,776.8,1011L776.8,1011z"/>
		<path class="st9" d="M883.3,1410l-114.5-165.4c-5.6-8.1-11.8-14.8-18.4-20.2v-198.5h-86.9v198.5c-6.6,5.4-12.8,12.2-18.4,20.2
			L530.7,1410c-34,49.1-13,89.3,46.8,89.3h259C896.3,1499.3,917.4,1459.1,883.3,1410L883.3,1410z"/>
	</g>
	<path class="st10" d="M593.4,1483.2h227.3c52.4,0,70.9-35.3,41.1-78.4l-66-95.3H618.4l-66,95.3
		C522.5,1447.9,541,1483.2,593.4,1483.2L593.4,1483.2z"/>
</g>
<g>
	<g>
		<g>
			<g>
				<path class="st8" d="M1142,914.9c0,7.5-6.1,13.6-13.6,13.6h-86.9c-7.5,0-13.6-6.1-13.6-13.6l0,0c0-7.5,6.1-13.6,13.6-13.6h86.9
					C1135.9,901.3,1142,907.4,1142,914.9L1142,914.9z"/>
				<g class="st11">
					<path class="st12" d="M1046.6,1402.5c0,21,17,38,38,38s38-17,38-38v-474h-76.1L1046.6,1402.5L1046.6,1402.5z"/>
				</g>
			</g>
			<g>
				<path class="st8" d="M1290.7,914.9c0,7.5-6.1,13.6-13.6,13.6h-86.9c-7.5,0-13.6-6.1-13.6-13.6l0,0c0-7.5,6.1-13.6,13.6-13.6
					h86.9C1284.6,901.3,1290.7,907.4,1290.7,914.9L1290.7,914.9z"/>
				<g class="st11">
					<path class="st12" d="M1195.2,1402.5c0,21,17,38,38,38s38-17,38-38v-474h-76.1L1195.2,1402.5L1195.2,1402.5z"/>
				</g>
			</g>
			<g>
				<path class="st8" d="M1439.3,914.9c0,7.5-6.1,13.6-13.6,13.6h-86.9c-7.5,0-13.6-6.1-13.6-13.6l0,0c0-7.5,6.1-13.6,13.6-13.6
					h86.9C1433.2,901.3,1439.3,907.4,1439.3,914.9L1439.3,914.9z"/>
				<g class="st11">
					<path class="st12" d="M1343.8,1402.5c0,21,17,38,38,38s38-17,38-38v-474h-76.1L1343.8,1402.5L1343.8,1402.5z"/>
				</g>
			</g>
			<g>
				<path class="st8" d="M1587.9,914.9c0,7.5-6.1,13.6-13.6,13.6h-86.9c-7.5,0-13.6-6.1-13.6-13.6l0,0c0-7.5,6.1-13.6,13.6-13.6
					h86.9C1581.8,901.3,1587.9,907.4,1587.9,914.9L1587.9,914.9z"/>
				<g class="st11">
					<path class="st12" d="M1492.5,1402.5c0,21,17,38,38,38s38-17,38-38v-474h-76.1L1492.5,1402.5L1492.5,1402.5z"/>
				</g>
			</g>
		</g>
		<path class="st4" d="M1084.6,1432.6c17,0,30.7-13.8,30.7-30.7v-255.6h-61.5v255.6C1053.9,1418.8,1067.6,1432.6,1084.6,1432.6z"/>
		<path class="st3" d="M1618.3,1181.6h-636v317.8h650.5v-317.8L1618.3,1181.6L1618.3,1181.6z M1018.5,1464.9v-249h578.1v249H1018.5z
			"/>
	</g>
	<path class="st10" d="M1233.1,1432.6c17,0,30.7-13.8,30.7-30.7v-127.7h-61.5v127.7C1202.3,1418.8,1216.1,1432.6,1233.1,1432.6z"/>
	<path class="st10" d="M1530.1,1432.6c17,0,30.7-13.8,30.7-30.7v-54.6h-61.5v54.6C1499.3,1418.8,1513.1,1432.6,1530.1,1432.6z"/>
</g>
<g>
	<g>
		<g>
			<path class="st8" d="M1915.3,979.3c0,8.2-6.7,14.9-14.9,14.9h-109.5c-8.2,0-14.9-6.7-14.9-14.9l0,0c0-8.2,6.7-14.9,14.9-14.9
				h109.5C1908.6,964.3,1915.3,971,1915.3,979.3L1915.3,979.3z"/>
			<path class="st9" d="M1889,1232.1v-142.8l83.4,83.5l20.5-20.5L1889,1048.4v-54.2h-86.9v237.9c-54.4,18.2-93.7,69.5-93.7,130.1
				c0,75.8,61.4,137.2,137.2,137.2s137.2-61.4,137.2-137.2C1982.7,1301.6,1943.5,1250.3,1889,1232.1L1889,1232.1z"/>
		</g>
		<path class="st12" d="M1845.6,1479.1c64.9,0,117.4-52.6,117.4-117.4c0-10-1.2-19.6-3.6-28.9h-227.7c-2.3,9.2-3.6,18.9-3.6,28.9
			C1728.1,1426.5,1780.7,1479.1,1845.6,1479.1L1845.6,1479.1z"/>
	</g>
	<g>
		<path class="st13" d="M1820.5,1370.9c0,4.9-4,8.9-8.9,8.9s-8.9-4-8.9-8.9s4-8.9,8.9-8.9S1820.5,1366,1820.5,1370.9z"/>
		<path class="st13" d="M1861.9,1359.1c0,6.5-5.3,11.8-11.8,11.8s-11.8-5.3-11.8-11.8s5.3-11.8,11.8-11.8
			S1861.9,1352.5,1861.9,1359.1z"/>
		<path class="st13" d="M1844.9,1391.8c0,5.6-4.6,10.2-10.2,10.2s-10.2-4.6-10.2-10.2s4.6-10.2,10.2-10.2
			S1844.9,1386.2,1844.9,1391.8z"/>
		<path class="st13" d="M1915.3,1412.1c0,5.6-4.6,10.2-10.2,10.2s-10.2-4.6-10.2-10.2s4.6-10.2,10.2-10.2
			S1915.3,1406.5,1915.3,1412.1z"/>
	</g>
</g>
</svg>
