<?xml version="1.0" encoding="UTF-8"?>
<svg id="Layer_1" data-name="Layer 1" xmlns="http://www.w3.org/2000/svg" viewBox="0 0 800 259.63">
  <path d="m207.17,211.52l-38.09-65.98-15-25.99-4.3,103.24c.03,1.18-.32,2.49-1.03,3.54-1.23,1.81-3.05,2.18-4.08.83h0s-28.32-37.23-28.32-37.23l-44.06,15.67v.02c-1.6.57-2.93-.74-2.96-2.93-.02-1.27.4-2.56,1.07-3.53l65.82-110.55-5.23-9.06c-10.67-18.49-37.36-18.49-48.03,0l-38.09,65.98L6.77,211.52c-10.67,18.49,2.67,41.59,24.01,41.59h152.37c21.35,0,34.69-23.11,24.01-41.59Z"/>
  <g>
    <path d="m388.33,90.32c-5.96-5.95-13.91-10.7-23.87-14.25-9.96-3.55-22.16-5.33-36.58-5.33-13.28,0-24.62,1.72-34,5.15-9.39,3.44-17,7.62-22.84,12.54-5.84,4.92-10.19,10.02-13.05,15.28-2.86,5.27-4.41,9.74-4.64,13.4,0,2.29.63,4.12,1.89,5.5,1.26,1.38,3.14,2.06,5.67,2.06h27.14c3.43,0,6.06-1.49,7.9-4.47,2.52-5.5,6.35-9.9,11.51-13.22,5.15-3.32,11.85-4.98,20.09-4.98,11.68,0,19.92,2.63,24.73,7.9,4.81,5.27,7.21,12.71,7.21,22.32v7.21l-47.05,6.87c-21.07,3.21-38.12,9.56-51.18,19.06-13.05,9.5-19.58,22.27-19.58,38.3,0,9.85,2.8,18.72,8.41,26.61,5.61,7.9,13.22,14.2,22.84,18.89,9.62,4.69,20.38,7.04,32.29,7.04,9.84,0,18.37-1.2,25.59-3.6,7.21-2.41,13.33-5.55,18.37-9.45,5.03-3.89,9.04-7.9,12.02-12.02v13.39c0,2.29.74,4.24,2.23,5.84,1.49,1.61,3.49,2.41,6.01,2.41h27.82c2.29,0,4.23-.8,5.84-2.41,1.6-1.6,2.4-3.54,2.4-5.84v-107.84c0-8.93-1.37-17.4-4.12-25.42-2.75-8.01-7.1-14.99-13.05-20.95Zm-28.51,84.84c0,10.99-1.89,20.09-5.67,27.3-3.78,7.21-8.93,12.54-15.45,15.97-6.53,3.43-13.8,5.15-21.81,5.15-5.27,0-10.3-.86-15.11-2.58-4.81-1.72-8.76-4.35-11.85-7.9s-4.64-7.84-4.64-12.88c0-6.64,3.32-12.24,9.96-16.83,6.64-4.58,16.71-7.9,30.22-9.96l34.35-5.5v7.21Z"/>
    <path d="m479.41,74.18h-28.51c-2.29,0-4.24.8-5.84,2.4-1.61,1.61-2.4,3.55-2.4,5.84v162.11c0,2.29.8,4.24,2.4,5.84,1.6,1.61,3.55,2.41,5.84,2.41h28.51c2.52,0,4.52-.8,6.01-2.41,1.49-1.6,2.23-3.54,2.23-5.84V82.42c0-2.29-.75-4.23-2.23-5.84-1.49-1.6-3.49-2.4-6.01-2.4Z"/>
    <path d="m480.79,3.42h-31.25c-2.29,0-4.24.8-5.84,2.41-1.61,1.6-2.41,3.55-2.41,5.84v24.73c0,2.29.8,4.24,2.41,5.84,1.6,1.61,3.55,2.41,5.84,2.41h31.25c2.52,0,4.58-.8,6.18-2.41,1.6-1.6,2.4-3.54,2.4-5.84V11.67c0-2.29-.8-4.24-2.4-5.84-1.61-1.6-3.67-2.41-6.18-2.41Z"/>
    <path d="m634.79,74.18h-14.08c-10.99,0-20.67,1.95-29.02,5.84-8.36,3.89-15.17,9.5-20.44,16.83v-14.08c0-2.52-.86-4.58-2.58-6.18-1.72-1.6-3.72-2.4-6.01-2.4h-27.82c-2.29,0-4.24.8-5.84,2.4-1.61,1.61-2.4,3.67-2.4,6.18v161.77c0,2.29.8,4.24,2.4,5.84,1.6,1.61,3.55,2.41,5.84,2.41h29.88c2.52,0,4.58-.8,6.18-2.41,1.6-1.6,2.4-3.54,2.4-5.84v-94.45c0-10.99,3.03-19.52,9.1-25.59,6.06-6.06,14.6-9.1,25.59-9.1h26.79c2.52,0,4.52-.8,6.01-2.4,1.49-1.6,2.23-3.55,2.23-5.84v-24.73c0-2.29-.75-4.23-2.23-5.84-1.49-1.6-3.5-2.4-6.01-2.4Z"/>
    <path d="m794.58,217.4c-1.6-1.6-3.55-2.4-5.84-2.4h-23.7c-8.24,0-14.03-2.63-17.35-7.9-3.32-5.26-4.98-12.59-4.98-21.98v-74.53h42.93c2.29,0,4.23-.8,5.84-2.4,1.6-1.6,2.4-3.66,2.4-6.18v-19.58c0-2.29-.81-4.23-2.4-5.84-1.61-1.6-3.55-2.4-5.84-2.4h-42.93V17.16c0-2.29-.81-4.24-2.4-5.84-1.61-1.6-3.55-2.41-5.84-2.41h-27.82c-2.52,0-4.52.8-6.01,2.41-1.49,1.6-2.23,3.55-2.23,5.84v57.02h-27.14c-2.29,0-4.24.8-5.84,2.4-1.61,1.61-2.4,3.55-2.4,5.84v19.58c0,2.52.8,4.58,2.4,6.18,1.6,1.6,3.55,2.4,5.84,2.4h27.14v77.97c0,14.2,2.29,26.05,6.87,35.55,4.58,9.5,11.56,16.66,20.95,21.46,9.39,4.81,20.95,7.21,34.69,7.21h27.82c2.29,0,4.23-.8,5.84-2.41,1.6-1.6,2.41-3.54,2.41-5.84v-21.29c0-2.29-.81-4.23-2.41-5.84Z"/>
  </g>
</svg>