<?xml version="1.0" encoding="utf-8"?>
<!-- Generator: Adobe Illustrator 27.3.1, SVG Export Plug-In . SVG Version: 6.00 Build 0)  -->
<svg version="1.1" id="Layer_1" xmlns="http://www.w3.org/2000/svg" xmlns:xlink="http://www.w3.org/1999/xlink" x="0px" y="0px"
	 viewBox="0 0 2400 1700" style="enable-background:new 0 0 2400 1700;" xml:space="preserve">
<style type="text/css">
	.st0{fill:#56B7E0;}
	.st1{fill:#FFFFFF;}
	.st2{opacity:0.59;fill:#FFFFFF;enable-background:new    ;}
	.st3{fill:#171E26;}
	.st4{fill:#527BEF;}
	.st5{fill:#DBD2D2;}
	.st6{fill:#D84848;}
	.st7{fill:#BA3535;}
	.st8{opacity:0.3;fill:#293657;}
</style>
<rect class="st0" width="2400" height="1700"/>
<g>
	<circle class="st1" cx="727.2" cy="572.4" r="14.5"/>
	
		<ellipse transform="matrix(0.2309 -0.973 0.973 0.2309 329.8667 1134.641)" class="st1" cx="882.6" cy="358.7" rx="12.3" ry="12.3"/>
	
		<ellipse transform="matrix(0.7071 -0.7071 0.7071 0.7071 254.2022 1002.178)" class="st1" cx="1336.8" cy="194.2" rx="12.3" ry="12.3"/>
	
		<ellipse transform="matrix(0.7071 -0.7071 0.7071 0.7071 28.3324 1404.933)" class="st1" cx="1710.1" cy="668.3" rx="11.6" ry="11.5"/>
	<circle class="st1" cx="970.8" cy="421.8" r="11.5"/>
	<circle class="st2" cx="1913.3" cy="900" r="18.3"/>
	<circle class="st2" cx="767.2" cy="902.3" r="19.8"/>
	
		<ellipse transform="matrix(0.7071 -0.7071 0.7071 0.7071 209.234 1506.47)" class="st1" cx="1923.1" cy="500.7" rx="18.4" ry="18.4"/>
	<circle class="st1" cx="2026.8" cy="258" r="16.2"/>
	<circle class="st1" cx="1661.8" cy="301.6" r="15.1"/>
	
		<ellipse transform="matrix(0.7071 -0.7071 0.7071 0.7071 -412.8177 428.0345)" class="st1" cx="310.3" cy="712.3" rx="17.6" ry="17.7"/>
	<circle class="st1" cx="479.3" cy="975.3" r="14.7"/>
	<circle class="st1" cx="528.8" cy="703.9" r="12.2"/>
	<circle class="st1" cx="823.5" cy="980.7" r="13.7"/>
	<circle class="st1" cx="276.6" cy="1352.7" r="8.6"/>
	
		<ellipse transform="matrix(0.2297 -0.9733 0.9733 0.2297 304.9585 3176.01)" class="st1" cx="2158.9" cy="1395.3" rx="9.9" ry="9.9"/>
	<circle class="st1" cx="1981.1" cy="847.9" r="11"/>
	<circle class="st1" cx="592.8" cy="1298.3" r="11"/>
	<circle class="st1" cx="1966.7" cy="1272" r="15.8"/>
	<circle class="st1" cx="2171.9" cy="928.7" r="14.6"/>
	<circle class="st2" cx="2122" cy="495.8" r="14.3"/>
	<circle class="st2" cx="375.5" cy="338" r="17.1"/>
	<circle class="st1" cx="495.9" cy="270.5" r="14.3"/>
	<circle class="st1" cx="1182.8" cy="716.1" r="14.3"/>
	<circle class="st1" cx="1422.8" cy="515.5" r="14.8"/>
	
		<ellipse transform="matrix(0.2297 -0.9733 0.9733 0.2297 663.4163 1795.5386)" class="st2" cx="1466" cy="478.7" rx="11.3" ry="11.3"/>
	<circle class="st2" cx="321.6" cy="1158.2" r="11.4"/>
</g>
<g>
	<path class="st1" d="M1553.1,826.2c-2.5,164.9-139.4,296.4-305.6,293.9c-166.2-2.6-299-138.3-296.4-303.1
		c2.5-164.9,139.4-296.4,305.6-293.9C1422.9,525.6,1555.6,661.3,1553.1,826.2L1553.1,826.2z"/>
	<g>
		<path class="st3" d="M1407,762.3c-9.8,74-108.9,121.3-221.3,105.7c-112.4-15.6-195.6-88.2-185.7-162.2
			c9.8-74,108.9-121.3,221.3-105.7C1333.7,615.7,1416.9,688.3,1407,762.3z"/>
		<g>
			<path class="st4" d="M1069.1,713.2c-0.8,5.9-6.1,10-11.8,9.2c-5.7-0.8-9.7-6.2-8.9-12.1c0.8-5.9,6.1-10,11.8-9.2
				C1065.8,701.9,1069.8,707.3,1069.1,713.2z"/>
			<path class="st4" d="M1135.5,725.5c-0.8,5.9-6.1,10-11.8,9.2c-5.7-0.8-9.7-6.2-8.9-12c0.8-5.9,6.1-10,11.8-9.2
				C1132.3,714.2,1136.3,719.6,1135.5,725.5L1135.5,725.5z"/>
			<path class="st4" d="M1119.4,698.9c-0.8,5.9-6.1,10-11.8,9.2c-5.7-0.8-9.7-6.2-8.9-12.1s6.1-10,11.8-9.2
				C1116.1,687.7,1120.1,693.1,1119.4,698.9L1119.4,698.9z"/>
			<path class="st4" d="M1093.3,693.9c-0.8,5.9-6.1,10-11.8,9.2c-5.7-0.8-9.7-6.2-9-12.1c0.8-5.9,6.1-10,11.8-9.2
				C1090.1,682.6,1094.1,688,1093.3,693.9L1093.3,693.9z"/>
		</g>
		<g>
			<path class="st4" d="M1271.3,741.3c-0.8,5.9-6,10-11.8,9.2c-5.7-0.8-9.7-6.2-8.9-12.1s6.1-10,11.8-9.2S1272.1,735.4,1271.3,741.3
				L1271.3,741.3z"/>
			<path class="st4" d="M1337.8,753.5c-0.8,5.9-6.1,10-11.8,9.2c-5.7-0.8-9.7-6.2-8.9-12.1c0.8-5.9,6-10,11.8-9.2
				C1334.5,742.3,1338.5,747.7,1337.8,753.5L1337.8,753.5z"/>
			<path class="st4" d="M1321.6,727c-0.8,5.9-6.1,10-11.8,9.2c-5.7-0.8-9.7-6.2-8.9-12.1c0.8-5.9,6.1-10,11.8-9.2
				C1318.4,715.7,1322.4,721.1,1321.6,727z"/>
			<path class="st4" d="M1295.6,722c-0.8,5.9-6.1,10-11.8,9.2c-5.7-0.8-9.7-6.2-8.9-12.1s6.1-10,11.8-9.2
				C1292.3,710.7,1296.3,716.1,1295.6,722L1295.6,722z"/>
		</g>
	</g>
	<path class="st5" d="M1475.6,1021.5c-10.7-9.6-19.7-23.1-26.3-40c-12.5-31.3-15.7-70.6-8.9-110.6s22.6-76.1,44.6-101.6
		c16.9-19.6,36-31.2,55.1-34l2.6,8c-17.7,2.1-35.5,12.9-51.4,31.4c-21.1,24.4-36.2,59-42.7,97.6c-6.5,38.6-3.5,76.3,8.4,106.2
		c6.2,15.6,14.4,28,24.2,36.8L1475.6,1021.5L1475.6,1021.5z"/>
	<path class="st5" d="M1380.7,551.5c-0.1,0-7.7-4.8-27.9-9.7l1.9-8c21.9,5.3,30.1,10.6,30.4,10.8L1380.7,551.5L1380.7,551.5z"/>
</g>
<g>
	<path class="st6" d="M1250.6,486.9c0,0,122.8-93.3,153.1-100.3c21.6-5,79.8,13.7,111.6,24.8c13.6,4.8,24.8,14.7,31.2,27.6
		l65.3,137.8l-29.4,10.2l-47.5-48.2l-19.2,69l-232.2-48.5L1250.6,486.9L1250.6,486.9z"/>
	<circle class="st1" cx="1591.1" cy="577.3" r="51.4"/>
	<path class="st1" d="M1504,674.4c-1.9,0-3.9-0.1-5.9-0.4c-114.3-14.7-214.6-66-282.5-144.5c-16.6-19.2-5.3-39,13.9-55.6
		c19.2-16.6,39-23.7,55.7-4.5c53.1,61.4,132.9,101.7,224.7,113.5c25.2,3.2,30.1,26.3,26.9,51.5
		C1533.6,657.4,1526.7,674.4,1504,674.4L1504,674.4z"/>
	<path class="st5" d="M1499.3,677.1c-2,0-4.1-0.1-6.2-0.4c-113.2-14.5-212.6-65.4-279.9-143.2c-9.9-11.5-12.7-29.5-6.4-41.9l4.8,2.5
		c-5.3,10.4-2.8,26.1,5.7,35.9c66.4,76.8,164.6,127,276.5,141.4c1.8,0.2,3.7,0.4,5.5,0.4c19.7,0,33.8-14.2,36.7-37.1l5.4,0.7
		C1538.1,661.1,1522,677.1,1499.3,677.1L1499.3,677.1z"/>
	
		<rect x="1504.9" y="507.5" transform="matrix(0.2738 -0.9618 0.9618 0.2738 627.746 1851.9589)" class="st7" width="70.6" height="5.5"/>
</g>
<ellipse class="st8" cx="1314.3" cy="1436.3" rx="477" ry="31.1"/>
</svg>
