<?xml version="1.0" encoding="utf-8"?>
<!-- Generator: Adobe Illustrator 27.3.1, SVG Export Plug-In . SVG Version: 6.00 Build 0)  -->
<svg version="1.1" id="Layer_1" xmlns="http://www.w3.org/2000/svg" xmlns:xlink="http://www.w3.org/1999/xlink" x="0px" y="0px"
	 viewBox="0 0 2400 1700" style="enable-background:new 0 0 2400 1700;" xml:space="preserve">
<style type="text/css">
	.st0{fill:#5BB8DE;}
	.st1{opacity:0.3;fill:#293657;}
	.st2{fill:#FFFFFF;}
	.st3{fill:#E3847C;}
	.st4{fill:#FCF75A;}
	.st5{fill:#293657;}
	.st6{fill:#448AA7;}
	.st7{fill:#E2857E;}
	.st8{fill:#E2E2E2;}
	.st9{fill:#2A3756;}
	.st10{fill:#EBECED;}
	.st11{fill:#527BEF;}
</style>
<rect class="st0" width="2400" height="1700"/>
<path class="st1" d="M703.6,1520c0,9.8,107.4,17.8,240,17.8s801.6-8,801.6-17.8s-669.1-17.8-801.6-17.8S703.6,1510.1,703.6,1520
	L703.6,1520z"/>
<g>
	<g>
		<g>
			<g id="_03_3_4">
				<g id="_03_Standing">
					<g id="leg">
						<path class="st2" d="M874.8,888.6c0,0,55.9,287.2,58.2,309.5c2.4,22.3-4.7,131.7,21.1,233.1l49.2,1.6
							c1.8-67.1,5-192.7,5.5-220c0.6-38.7,1.9-258.2,1.9-258.2S896.9,834.9,874.8,888.6L874.8,888.6z"/>
						<polygon class="st3" points="958.6,1470.9 981.1,1491.4 996.3,1462.8 996.3,1432.9 958.6,1431.4 						"/>
					</g>
				</g>
				<g id="_03_Front">
					<g id="leg-2">
						<polygon class="st3" points="855.7,1482.4 820.2,1472.8 821.1,1427.3 858.6,1427.3 						"/>
						<path class="st2" d="M793.4,952.4c0,0,12.6,134.5,17.2,258.7c-8.1,103.8-0.6,205.3,0.8,219.2l52.5,0.1
							c0.5-27.2,6.3-125.5,17.8-214.1c16.9-130,41.5-273.1,41.5-273.1S815,898.4,793.4,952.4L793.4,952.4z"/>
					</g>
					<path class="st4" d="M874.8,578.7c-24.2,2.4-65.9,22.8-72.7,29.6c-11.9,82-11.3,400.1-11.3,400.1l227.3-2.2
						c3.1-189,20.6-184.3-34.6-380.2c-11-18.4-51.8-39.6-64.4-43.3C918,582.6,875.5,578.7,874.8,578.7L874.8,578.7z"/>
				</g>
			</g>
			<path class="st2" d="M955.3,1466.3c-2.7,0.8-10.1,49-5.7,51.5c4.4,2.5,127.7,4.5,134.8-2.5c3.8-3.7-0.2-19.9-2.8-20.7
				c-47.6-13.3-82.1-38.3-82.1-38.3s-12.2,4.4-10.8,10.9l1.5,2.7c0,0-7.7,7.2-15.1,6.5C967.6,1475.7,962.2,1464.4,955.3,1466.3
				L955.3,1466.3z"/>
			<path id="male" class="st2" d="M820.6,1456.1c5.2-3.5,11.5-5.5,18.7-5.3c6.5,0.2,12.4,2.1,17.2,5.2l13,51.1l-0.3,9.9
				c0-0.1,0,0.3-0.2,0.8c-7.3,3.3-18.6,5.3-31.2,5c-13.8-0.4-26-3.5-32.9-7.8l0.3-9.7L820.6,1456.1L820.6,1456.1z"/>
		</g>
		<g id="_01_3_4">
			<g>
				<g id="head">
					<path class="st3" d="M919.1,427.1c24-3.5,56.1,16.5,58.6,44.5s2.6,76.3-15.4,80.6c-8,1.9-37.1-3.8-37.1-3.8l2.8,33.3l-53.9-5.5
						l13.6-45.9C887.7,530.2,839.9,438.7,919.1,427.1L919.1,427.1z"/>
					<path class="st5" d="M972.1,454.4c0,0-25.3,2.5-32,15.6c-6.7,13-6.6,40.7-17,15.3c-5.1-12.4-14.9-10.3-20.8-1.3
						c-7.3,11.1,5.5,22.5,3.8,26.3c-1.7,3.8-15.3,19.8-18.4,19.9c-3.1,0.1-29.1-52.6-11.6-83.8C892.4,417.2,965.7,414.3,972.1,454.4
						L972.1,454.4z"/>
					<path class="st5" d="M972.1,454.4c0,0,26.8-20.8,22.2-28.7c-2.8-4.8-18.9,7.5-22.1,2.9c-2.5-3.7,11-12,8.6-15.8
						c-12.5-19.9-87.9,4.1-91.5,20.9C885.6,450.4,972.1,454.4,972.1,454.4L972.1,454.4z"/>
				</g>
				<g id="_01_Standing">
					<g id="hoodie">
						<path class="st4" d="M970.5,590.6l-186.8-60.2c0,0-34,106,50.2,111c53.6,3.2,96.2,3.2,118.7-12.8
							C965.5,619.3,970.5,590.6,970.5,590.6L970.5,590.6z"/>
					</g>
				</g>
			</g>
		</g>
	</g>
	<g>
		<path class="st4" d="M798.6,854.4c-38.2,22.7-117.2,62.7-122.1,7.6c-5.6-62.4,57.2-207.3,125.5-253.7
			c15.7,4.3,22.8,26.6,25.3,54.7C775.8,687.1,810.9,847.1,798.6,854.4L798.6,854.4z"/>
		<g>
			<polygon class="st2" points="924.4,758 924.3,831.6 914.8,832.9 914.9,799.5 885.2,803.7 885.1,837.1 875.6,838.4 875.8,764.8 
				885.2,763.5 885.2,795.1 914.9,791 915,759.3 			"/>
			<path class="st2" d="M988.2,749l-0.1,49.7c0,16.5-9.2,26.5-24.4,28.6c-15.2,2.1-24.3-5.3-24.3-21.8l0.1-49.7l9.5-1.3l-0.1,50.2
				c0,10.4,5.6,15.2,14.8,13.9s14.9-7.7,14.9-18.1l0.1-50.2L988.2,749L988.2,749z"/>
			<path class="st2" d="M1184.4,721.4l-0.1,73.6l-7.9,1.1l-27.6-43c-1.8-2.8-4.6-8.9-4.7-9.2l-0.3,0.2c0,0.3,0.4,6.7,0.4,9.7
				l-0.1,46.9l-8.5,1.2l0.1-73.6l8.2-1.2l27.4,42.4c1.6,2.6,4.4,8.9,4.5,9.2l0.3-0.2c0-0.4-0.3-7.4-0.3-9.7l0.1-46.2L1184.4,721.4
				L1184.4,721.4z"/>
			<polygon class="st2" points="943.8,884 943.7,957.6 934.2,958.9 934.3,885.3 			"/>
			<g>
				<path class="st6" d="M811,716.7l441.2-62l-0.6,318.1l-441.2,62L811,716.7L811,716.7z M1012.9,765.7l14.7,51.4l8.5-1.2l14.9-55.5
					c0.8-2.7,2.4-11.3,2.5-11.7l0.4-0.1c0,0.5-0.8,8.9-0.8,11.5l-0.1,53.5l9.5-1.3l0.1-73.6l-14.3,2l-13.2,50.1
					c-1.4,5.3-2.3,16.3-2.4,16.9l-0.4,0.1c-0.1-0.5-1.1-11-2.4-16.2l-12.9-46.5l-14.4,2l-0.1,73.6l8.5-1.2l0.1-53.5
					c0-2.1-0.6-10.8-0.6-11.3l0.4-0.1C1010.8,755.1,1012.4,763.7,1012.9,765.7L1012.9,765.7L1012.9,765.7z M1078.5,809.9l5.1-17.1
					l29.3-4.1l5,15.7l10.2-1.4l-23.3-70.3l-12.2,1.7l-23.6,76.9L1078.5,809.9L1078.5,809.9L1078.5,809.9z M985.6,944.3
					c-12.4,1.7-19.1-6.1-19.1-24v-5.4c0-17.9,7.6-27.8,19.8-29.5c10.1-1.4,17.1,3.1,17.1,15.3l9.7-1.4c0-17.8-11.4-24.8-26.8-22.6
					c-18.4,2.6-29.6,16.7-29.7,42.3s10.4,36.6,29,34c8-1.1,14.5-4.8,19.1-12.1l2,7.9l6.2-0.9l0.1-38.3l-28.9,4.1l0,8.3l19.2-2.7v1.7
					C1003.2,935,997.9,942.6,985.6,944.3L985.6,944.3L985.6,944.3z M913.4,961.9l10.6-1.5l-14.8-32.2c8.3-4,13.2-11.7,13.2-20.8
					c0-12.1-7.5-19.3-22-17.3l-29.7,4.2l-0.1,73.6l9.5-1.3L880,934l19.8-2.8L913.4,961.9L913.4,961.9L913.4,961.9z M1166.9,927.5
					c14.3-2,25-9.5,25-26c0.1-25.9-38.3-11.7-38.3-29.3c0-7.1,5.9-11.1,13.7-12.2c7.4-1,13.1,2.3,13.1,9.8v1.6l9.8-1.4v-1.3
					c0-14.7-10.3-19.3-23.1-17.5c-12.9,1.8-23.5,9.5-23.5,23c-0.1,26.6,38.4,11.5,38.4,30.1c0,8-5.6,13-15.5,14.4
					c-8.4,1.2-14.6-2.2-14.6-11.2l0.1-2.3l-9.8,1.4c0,0.3-0.1,1.4-0.1,2.2C1142,925.1,1153.4,929.4,1166.9,927.5L1166.9,927.5
					L1166.9,927.5z M1135.6,865.6l0-8.6l-49.7,7l0,8.6l20.1-2.8l-0.1,65l9.5-1.3l0.1-65L1135.6,865.6L1135.6,865.6L1135.6,865.6z
					 M939.4,805.5c0,16.5,9.1,23.9,24.3,21.8c15.2-2.1,24.3-12.1,24.4-28.6l0.1-49.7l-9.5,1.3l-0.1,50.2c0,10.4-5.6,16.8-14.9,18.1
					s-14.9-3.5-14.8-13.9l0.1-50.2l-9.5,1.3L939.4,805.5L939.4,805.5L939.4,805.5z M1076.1,939l0.1-73.6l-9.5,1.3l-0.1,31.7
					l-29.7,4.2l0.1-31.7l-9.5,1.3l-0.1,73.6l9.5-1.3l0.1-33.4l29.7-4.2l-0.1,33.4L1076.1,939L1076.1,939z M924.3,831.6l0.1-73.6
					l-9.5,1.3l-0.1,31.7l-29.7,4.2l0.1-31.7l-9.5,1.3l-0.1,73.6l9.5-1.3l0.1-33.4l29.7-4.2l-0.1,33.4L924.3,831.6L924.3,831.6z
					 M1135.7,728.3l-0.1,73.6l8.5-1.2l0.1-46.9c0-3-0.4-9.4-0.4-9.7l0.3-0.2c0.1,0.3,2.9,6.3,4.7,9.2l27.6,43l7.9-1.1l0.1-73.6
					l-8.5,1.2l-0.1,46.2c0,2.4,0.3,9.4,0.3,9.7l-0.3,0.2c-0.1-0.3-2.9-6.7-4.5-9.2l-27.4-42.4L1135.7,728.3L1135.7,728.3
					L1135.7,728.3z M943.7,957.6l0.1-73.6l-9.5,1.3l-0.1,73.6L943.7,957.6L943.7,957.6z"/>
				<path class="st6" d="M1098.5,741.2c0.1,0.3,1,5.5,1.7,7.9l10,31.3l-24,3.4l10.2-34.2c0.8-2.5,1.7-8.1,1.7-8.4L1098.5,741.2
					L1098.5,741.2z"/>
				<path class="st2" d="M1104.8,732.6l23.3,70.3l-10.2,1.4l-5-15.7l-29.3,4.1l-5.1,17.1l-9.5,1.3l23.6-76.9L1104.8,732.6
					L1104.8,732.6z M1086.2,783.8l24-3.4l-10-31.3c-0.8-2.4-1.7-7.6-1.7-7.9l-0.4,0.1c-0.1,0.3-1,5.9-1.7,8.4L1086.2,783.8
					L1086.2,783.8L1086.2,783.8z"/>
			</g>
			<path class="st2" d="M909.2,928.2l14.8,32.2l-10.6,1.5l-13.6-30.6l-19.8,2.8l-0.1,32.5l-9.5,1.3l0.1-73.6l29.7-4.2
				c14.5-2,22,5.2,22,17.3C922.3,916.5,917.5,924.3,909.2,928.2L909.2,928.2z M880,925.5l19.9-2.8c7.5-1.1,12.5-6.6,12.5-13.9
				c0-7.3-4.4-11.2-12.5-10l-19.9,2.8L880,925.5L880,925.5L880,925.5z"/>
			<path class="st6" d="M900,898.7c8.1-1.1,12.5,2.8,12.5,10c0,7.3-5,12.8-12.5,13.9l-19.9,2.8l0-23.9L900,898.7L900,898.7z"/>
			<path class="st2" d="M1062.6,738.5l-0.1,73.6l-9.5,1.3l0.1-53.5c0-2.6,0.7-11,0.8-11.5l-0.4,0.1c-0.1,0.5-1.7,9-2.5,11.7
				l-14.8,55.5l-8.5,1.2l-14.7-51.4c-0.5-2-2.2-10.6-2.2-11.1l-0.4,0.1c0,0.5,0.6,9.1,0.6,11.3l-0.1,53.5l-8.5,1.2l0.1-73.6l14.4-2
				l12.9,46.5c1.4,5.2,2.4,15.6,2.4,16.2l0.4-0.1c0.1-0.6,1-11.5,2.4-16.9l13.2-50.1L1062.6,738.5L1062.6,738.5z"/>
			<path class="st2" d="M986.2,876.7c15.4-2.2,26.8,4.8,26.8,22.6l-9.7,1.4c0-12.2-7-16.7-17.1-15.3c-12.2,1.7-19.7,11.6-19.8,29.5
				v5.4c0,17.9,6.7,25.8,19.1,24c12.3-1.7,17.7-9.3,17.7-23.4v-1.7l-19.2,2.7l0-8.3l28.9-4.1l-0.1,38.3l-6.2,0.9l-2-7.9
				c-4.5,7.3-11.1,11-19.1,12.1c-18.6,2.6-29-8.5-29-34C956.6,893.4,967.8,879.3,986.2,876.7L986.2,876.7z"/>
			<polygon class="st2" points="1076.2,865.4 1076.1,939 1066.6,940.3 1066.7,907 1037,911.1 1036.9,944.5 1027.4,945.8 
				1027.6,872.2 1037.1,870.9 1037,902.5 1066.7,898.4 1066.8,866.7 			"/>
			<polygon class="st2" points="1135.6,857 1135.6,865.6 1115.4,868.5 1115.3,933.5 1105.8,934.8 1105.9,869.8 1085.8,872.6 
				1085.8,864 			"/>
			<path class="st2" d="M1167.1,851.3c12.8-1.8,23.1,2.8,23.1,17.5v1.3l-9.8,1.4v-1.6c0-7.5-5.7-10.9-13.1-9.8
				c-7.8,1.1-13.7,5.1-13.7,12.2c0,17.6,38.3,3.4,38.3,29.3c0,16.5-10.7,24-25,26c-13.5,1.9-24.9-2.4-24.8-18.6
				c0-0.8,0.1-1.8,0.1-2.2l9.8-1.4l-0.1,2.3c0,9,6.2,12.4,14.6,11.2c9.9-1.4,15.5-6.5,15.5-14.4c0-18.6-38.4-3.5-38.4-30.1
				C1143.7,860.8,1154.2,853.1,1167.1,851.3L1167.1,851.3z"/>
		</g>
		<path class="st7" d="M844.1,775c0,0-8.7-15.8-9-17.1s-2.3-4-2.3-4s-1.2-4.6-1.7-5.2c-0.6-0.6-9.2-10.4-12.3-10.2
			s-16.5,17.7-19.6,21.2c-3.1,3.5-6.9,19.2-10.2,25.6c-3.3,6.3-13.1,13.5-13.1,13.5l9.6,30.4c0,0,18.3-8.8,22.3-11.5
			c4-2.7,11.9-15.6,11.9-15.6l9.8-11c0,0,7.3-3.5,8.4-4.2c7.9-4.5,1.8-9.5,1.8-9.5C842.2,777.1,844.1,775,844.1,775L844.1,775z
			 M817,757.5l5.4-6.3l3.8,3.2L817,757.5z M823.5,768.3l5.4-3.2l1.7,1.9L823.5,768.3L823.5,768.3z"/>
		<g>
			<path class="st7" d="M1258.5,804.6c-1.9-1.7-3.8-2.3-6.5-0.9c-2.7,1.5-10.1,10.6-7.6,13.9c2.5,3.3,10.5-0.4,13.3-4.7
				S1259.7,805.6,1258.5,804.6L1258.5,804.6z"/>
			<path class="st7" d="M1257.6,816.8c-1.3-0.2-5.3,3-8.4,4.9c-3.1,2-8.4,4.9-5.3,9.2c2.2,3.1,6.9,1,8.7,0c1.8-1,8.5-2.7,8.9-6.8
				S1260.9,817.2,1257.6,816.8L1257.6,816.8z"/>
			<path class="st7" d="M1253.5,790.1c-1.3,0.5-4.3,3.8-4.3,6.4s2.3,5.7,5.7,4.5c3.3-1.1,4.4-5.5,3.2-8.5
				C1256.8,789.6,1254.1,789.8,1253.5,790.1L1253.5,790.1z"/>
			<path class="st7" d="M1258.5,832.1c-2.2-0.7-11.4,1.1-12.8,2.1c-1.3,1-2.2,6,1.8,6.7c4.1,0.6,9.8,1.3,12,0.3
				C1261.8,840.1,1261.7,833,1258.5,832.1L1258.5,832.1z"/>
		</g>
	</g>
</g>
<g>
	<g>
		<path class="st8" d="M1366.4,753.4c0,0,31.1,23.1,58.6-11.1c21.2-26.4,14.9,71.4,14.9,71.4s-20.9,10.6-63-16
			C1340.1,774.4,1366.4,753.4,1366.4,753.4L1366.4,753.4z"/>
		<g>
			<path class="st2" d="M1655.3,753.8c0,68.6-57.5,124.2-128.4,124.2s-128.4-55.6-128.4-124.2s57.5-124.2,128.4-124.2
				S1655.3,685.2,1655.3,753.8z"/>
			<g>
				<path class="st2" d="M1577.2,744.8c-0.7-0.1-1.4-0.2-2-0.5c-12.3-5-22-14.5-27.2-26.7c-5.2-12.2-5.4-25.8-0.4-38.1l19.3-48.1
					c5-12.3,14.4-22,26.7-27.2s25.8-5.4,38.1-0.4c4.1,1.7,6.1,6.3,4.4,10.4c-1.6,4.1-6.3,6.1-10.4,4.4c-8.4-3.4-17.6-3.3-25.9,0.3
					c-8.3,3.5-14.8,10.1-18.1,18.5l-19.3,48.1c-3.4,8.4-3.3,17.6,0.3,25.9c3.6,8.3,10.1,14.8,18.5,18.1c4.1,1.7,6.1,6.3,4.4,10.4
					C1584.2,743.3,1580.7,745.2,1577.2,744.8L1577.2,744.8z"/>
				<path class="st9" d="M1605.3,736.1c-3.7,30.8-45.7,51.2-93.7,45.4c-48-5.8-84-35.5-80.3-66.3c3.7-30.8,45.7-51.2,93.7-45.4
					C1573,675.6,1609,705.3,1605.3,736.1L1605.3,736.1z"/>
			</g>
			<path class="st10" d="M1658.5,805.8c8.5,16.6,39.8,92.8,25.9,99.9c-13.9,7.1-57.2-62.9-65.7-79.5c-8.5-16.6-6.5-34.7,4.5-40.3
				C1634.2,780.2,1650,789.2,1658.5,805.8L1658.5,805.8z"/>
		</g>
		<g>
			<path class="st11" d="M1538.6,731.3c0-2.4,1.9-4.3,4.2-4.3c2.4,0,4.3,1.9,4.3,4.2c0,2.4-1.9,4.3-4.2,4.3
				C1540.5,735.5,1538.6,733.6,1538.6,731.3L1538.6,731.3z"/>
			<path class="st11" d="M1549.1,729.8c0-2.4,1.9-4.3,4.2-4.3c2.4,0,4.3,1.9,4.3,4.2c0,2.4-1.9,4.3-4.2,4.3
				C1551,734,1549.1,732.1,1549.1,729.8L1549.1,729.8z"/>
			<path class="st11" d="M1559.6,728.3c0-2.4,1.9-4.3,4.2-4.3c2.4,0,4.3,1.9,4.3,4.2c0,2.3-1.9,4.3-4.2,4.3
				C1561.6,732.6,1559.6,730.7,1559.6,728.3L1559.6,728.3z"/>
			<path class="st11" d="M1550.5,740.1c0-2.4,1.9-4.3,4.2-4.3c2.4,0,4.3,1.9,4.3,4.2c0,2.4-1.9,4.3-4.2,4.3
				C1552.5,744.3,1550.6,742.4,1550.5,740.1L1550.5,740.1z"/>
			<path class="st11" d="M1561.1,738.6c0-2.4,1.9-4.3,4.2-4.3c2.4,0,4.3,1.9,4.3,4.2c0,2.4-1.9,4.3-4.2,4.3
				C1563,742.8,1561.1,740.9,1561.1,738.6L1561.1,738.6z"/>
			<path class="st11" d="M1570.1,726.8c0-2.4,1.9-4.3,4.2-4.3c2.4,0,4.3,1.9,4.3,4.2c0,2.4-1.9,4.3-4.2,4.3
				C1572.1,731.1,1570.2,729.2,1570.1,726.8L1570.1,726.8z"/>
		</g>
		<g>
			<path class="st11" d="M1496.5,723.2c0.7-2.3-0.6-4.6-2.9-5.3c-2.3-0.7-4.6,0.6-5.3,2.9c-0.7,2.3,0.6,4.6,2.9,5.3
				S1495.8,725.5,1496.5,723.2z"/>
			<path class="st11" d="M1486.8,718.8c0.7-2.3-0.6-4.6-2.9-5.3s-4.6,0.6-5.3,2.9c-0.7,2.3,0.6,4.6,2.9,5.3
				C1483.7,722.4,1486.1,721.1,1486.8,718.8z"/>
			<path class="st11" d="M1477.1,714.5c0.7-2.3-0.6-4.6-2.9-5.3c-2.3-0.7-4.6,0.6-5.3,2.9s0.6,4.6,2.9,5.3
				C1474,718,1476.4,716.7,1477.1,714.5z"/>
			<path class="st11" d="M1482.5,728.3c0.7-2.3-0.6-4.6-2.9-5.3c-2.3-0.7-4.6,0.6-5.3,2.9c-0.7,2.3,0.6,4.6,2.9,5.3
				C1479.5,731.8,1481.8,730.6,1482.5,728.3z"/>
			<path class="st11" d="M1472.8,723.9c0.7-2.3-0.6-4.6-2.9-5.3s-4.6,0.6-5.3,2.9s0.6,4.6,2.9,5.3S1472.1,726.2,1472.8,723.9z"/>
			<path class="st11" d="M1467.4,710.1c0.7-2.3-0.6-4.6-2.9-5.3s-4.6,0.6-5.3,2.9s0.6,4.6,2.9,5.3
				C1464.3,713.7,1466.7,712.4,1467.4,710.1z"/>
		</g>
	</g>
	<g>
		<path class="st9" d="M1170.4,193.1l389.2,73.2l2.2,320.9l-389.2-73.2L1170.4,193.1z"/>
	</g>
	<rect x="1355.2" y="531.2" class="st9" width="21.7" height="412.7"/>
	<ellipse class="st8" cx="1354" cy="764.2" rx="12" ry="21.9"/>
</g>
</svg>
