<?xml version="1.0" encoding="utf-8"?>
<!-- Generator: Adobe Illustrator 27.3.1, SVG Export Plug-In . SVG Version: 6.00 Build 0)  -->
<svg version="1.1" id="Layer_1" xmlns="http://www.w3.org/2000/svg" xmlns:xlink="http://www.w3.org/1999/xlink" x="0px" y="0px"
	 viewBox="0 0 2400 1700" style="enable-background:new 0 0 2400 1700;" xml:space="preserve">
<style type="text/css">
	.st0{fill:#56B7E0;}
	.st1{opacity:0.3;fill:#2A3756;enable-background:new    ;}
	.st2{fill:#2A3756;}
	.st3{fill:#9090DD;}
	.st4{fill:#7F7FC6;}
	.st5{fill:#EBECED;}
	.st6{fill:#FFFFFF;}
	.st7{fill:#527BEF;}
	.st8{fill:#26334C;}
	.st9{fill:#151C28;}
	.st10{fill:#212E42;}
	.st11{fill:#FBF84A;}
</style>
<rect class="st0" width="2400" height="1700"/>
<path class="st1" d="M1842.9,1436.1c0,19.9-166,36-370.7,36s-946.7-16.1-946.7-36s741.9-36,946.7-36S1842.9,1416.2,1842.9,1436.1z"
	/>
<path class="st2" d="M1641.7,900.6c-6.5,0-11.7-5.3-11.7-11.7s5.3-11.7,11.7-11.7s11.7,5.3,11.7,11.7S1648.1,900.6,1641.7,900.6z
	 M1641.7,882.7c-3.4,0-6.2,2.8-6.2,6.2s2.8,6.2,6.2,6.2s6.2-2.8,6.2-6.2S1645.1,882.7,1641.7,882.7z"/>
<path class="st2" d="M1602.8,892.6c-58.1,0-118.2-8-179.1-23.7c-57.6-14.9-116.1-36.8-173.9-65.1c-78.7-38.5-140.4-81.8-162-99.3
	l5.6-6.9c21.4,17.3,82.5,60.2,160.5,98.4c57.2,28,115.1,49.6,172.1,64.4c71.2,18.4,141.2,26,208,22.6l0.4,8.8
	C1623.9,892.3,1613.4,892.6,1602.8,892.6L1602.8,892.6z"/>
<g>
	<path d="M1102.7,707.7l4.6-0.7c0,0,1.1-30.3-6.9-31.3c-3.5-0.5-10.8,2.7-10.8,2.7L1102.7,707.7L1102.7,707.7z"/>
	<path class="st3" d="M1018.2,731.4c-0.9,9.2,0.8,18.7,5.5,27.4c12.6,23.4,41.7,32.2,65.1,19.6c16.2-8.7,25.4-25.3,25.3-42.5
		c1.3-18-19.8-58.4-26.4-70.6c-7.9-14.7-26.4-20.3-41.1-12.4l-40.1,21.5c-14.7,7.9-20.3,26.4-12.4,41.1
		C999.1,724.9,1008.3,730.5,1018.2,731.4L1018.2,731.4z M1078.3,670.3c3.6,6.7,0.1,13.1-5.7,18.2c-9.8-1.4-20.1,0.2-29.4,5.2
		c-9.7,5.2-16.8,13.2-21,22.5c-8.1,0.7-16-0.5-18.8-5.7c-5.2-9.6-1.5-21.6,8-26.7c18.1-3.1,25.3-7.9,40.1-21.5
		C1061.2,657.1,1073.2,660.7,1078.3,670.3L1078.3,670.3z"/>
	<path class="st4" d="M1033.8,753.2c9.4,17.5,31.2,24,48.6,14.6s24-31.2,14.6-48.6s-31.2-24-48.6-14.6S1024.5,735.7,1033.8,753.2z"
		/>
</g>
<g>
	<path class="st5" d="M927.1,661.2c11.8,7.2,47.8,23.5,79.4,36.3c12.3,5,34.7-28,24.8-36.5c-25.8-22.2-58.9-47.8-70.7-55
		c-23-14-49.3-13.1-58.5,2.1C892.8,623.5,904,647.2,927.1,661.2L927.1,661.2z"/>
	<path class="st6" d="M601.5,580.7c0,99.2,83.1,179.5,185.6,179.5s185.6-80.4,185.6-179.5s-83.1-179.5-185.6-179.5
		S601.5,481.5,601.5,580.7z"/>
	<g>
		<path class="st6" d="M714.5,567.7c1-0.1,2-0.4,3-0.8c17.8-7.2,31.8-20.9,39.4-38.6c7.5-17.7,7.8-37.3,0.6-55.1l-27.9-69.5
			c-7.2-17.9-20.9-31.8-38.6-39.4s-37.3-7.8-55.1-0.6c-5.9,2.4-8.8,9.1-6.4,15s9.1,8.8,15,6.4c12.1-4.9,25.4-4.7,37.4,0.4
			s21.3,14.6,26.2,26.8l27.9,69.5c4.9,12.1,4.7,25.4-0.4,37.4c-5.1,12-14.6,21.3-26.8,26.2c-5.9,2.4-8.8,9.1-6.4,15
			C704.4,565.5,709.4,568.3,714.5,567.7L714.5,567.7z"/>
		<g>
			<path class="st2" d="M673.9,555.1c5.4,44.6,66,74,135.4,65.6s121.4-51.2,116-95.8c-5.3-44.6-66-74-135.4-65.6
				C720.5,467.6,668.6,510.5,673.9,555.1L673.9,555.1z"/>
			<g>
				<path class="st7" d="M882.7,528.7c0.4,3.5,3.6,6,7.2,5.6s6-3.6,5.6-7.2c-0.4-3.5-3.6-6.1-7.2-5.6
					C884.8,522,882.3,525.2,882.7,528.7z"/>
				<path class="st7" d="M841.6,535.5c0.4,3.5,3.6,6,7.2,5.6c3.5-0.4,6.1-3.6,5.6-7.2c-0.4-3.5-3.6-6.1-7.2-5.6
					C843.7,528.8,841.2,532,841.6,535.5L841.6,535.5z"/>
				<path class="st7" d="M851.8,519.7c0.4,3.5,3.6,6.1,7.2,5.6c3.5-0.4,6-3.6,5.6-7.2c-0.4-3.5-3.6-6.1-7.2-5.6
					S851.4,516.2,851.8,519.7z"/>
				<path class="st7" d="M867.9,516.9c0.4,3.5,3.6,6,7.2,5.6c3.5-0.4,6.1-3.6,5.6-7.2c-0.4-3.5-3.6-6-7.2-5.6
					C870,510.2,867.5,513.4,867.9,516.9L867.9,516.9z"/>
			</g>
			<g>
				<path class="st7" d="M757.8,543.8c0.4,3.5,3.6,6,7.2,5.6c3.5-0.4,6-3.6,5.6-7.2c-0.4-3.5-3.6-6-7.2-5.6
					C759.9,537,757.3,540.2,757.8,543.8L757.8,543.8z"/>
				<path class="st7" d="M716.7,550.5c0.4,3.5,3.6,6,7.2,5.6c3.5-0.4,6-3.6,5.6-7.2c-0.4-3.5-3.6-6-7.2-5.6S716.3,547,716.7,550.5
					L716.7,550.5z"/>
				<path class="st7" d="M726.9,534.7c0.4,3.5,3.6,6.1,7.2,5.6c3.5-0.4,6.1-3.6,5.6-7.2c-0.4-3.5-3.6-6.1-7.2-5.6
					C729,528,726.5,531.2,726.9,534.7z"/>
				<path class="st7" d="M743,531.9c0.4,3.5,3.6,6,7.2,5.6s6.1-3.6,5.6-7.2c-0.4-3.5-3.6-6.1-7.2-5.6
					C745.1,525.2,742.6,528.4,743,531.9L743,531.9z"/>
			</g>
		</g>
	</g>
	<path class="st5" d="M604.4,666.1c-6.8,26.1-27.4,143.3-5.5,149c21.9,5.7,61.2-106.6,68-132.7c6.8-26.1-1.6-51-18.9-55.5
		S611.2,640,604.4,666.1L604.4,666.1z"/>
</g>
<g>
	<path class="st8" d="M1801.3,734.8c0,0,47.9-41.4,53.6-38.9s-23,89.3-23,89.3l-41.1-5.3L1801.3,734.8z"/>
	<path class="st8" d="M1264.2,1212.1l33.6-102l-86.5-77.5c0,0,20.7,125.2,9,135.6s-55.5,64-60.7,73.1c-3.2,5.5,2.4,71.1,7.1,119.9
		c2.8,28,11.2,65.8,12.2,70.1c4.2,18.7,21.9,17.3,21.9,0v-163.4L1264.2,1212.1L1264.2,1212.1z"/>
	<path class="st8" d="M1696.3,1286.6c-1.3-24.5,26.3-196.7,26.3-196.7l-76.2,73.2c0,0,5.1,108.4,9.4,122
		c27.1,85.7,42.6,153.6,70.3,140.1C1730.8,1420.9,1697.1,1303.1,1696.3,1286.6L1696.3,1286.6z"/>
	<path class="st2" d="M1946.5,900.6c-4.7-3.9,3.1-15.7,7.4-21.7c-2.8-2-5.7-3.8-8.5-5.5c-10.9-6.5-52.2-33.2-68.2-69.6
		c-5.7-13-58.7-44.6-58.7-44.6s-3.5-83.4-10.7-84.8c0,0-8.2,11.7-31.6,41.1c-22.4,28.2-34.3,58.3-34.3,58.3
		c-25,41.1-104.1,125.7-116.3,129.6c-26,8.4-171.7,11.9-240.2,0.2s-148.4,21.7-172.9,46.2c-24.5,24.5-5.2,108.5,10.3,134.3
		c15.5,25.8,37.4,73.6,21.9,98.1s-28.4,71-28.4,83.9c0,8.7,24.8,68.8,42.7,109.9c8.7,19.9,30.3,62.7,41.6,56.9
		c15.9-8.1-6.5-49.6-12.7-68.2c-11-32.9-25.6-77.6-25.2-85.1c0.9-21.5,48-91,71.2-111.7s35-110.1,35-110.1s172.1,80.3,196.7,82.9
		c3.2,19.4,9.4,120.5,9.8,148.6c0.3,20.7,57.6,182.9,87.1,148.5c7.3-8.5-46.2-74.4-41.2-166.9c1.6-29.9,35-115,35-115
		s48-24.2,71.7-57.7c22.8-32.1,31.6-59.6,39.1-163.4c2.8-38,22.8-54,25.5-54c26.9,28.5,58.3,21.3,77.7,28.5
		c26,9.7,47.3,14.2,58,14.6c23.9,0.9,30.1-1.7,36.9-15.1C1959.4,907.2,1950.5,904,1946.5,900.6L1946.5,900.6z"/>
	<path class="st2" d="M1206,960.2c0,0-68.3,125.4-104.4,138.3s-95.6,21.9-117.5,7.8c24.5,28.4,92.9,35.6,138.2,14.9
		c62.1-28.3,96.6-112.3,96.6-112.3L1206,960.2L1206,960.2z"/>
	<g>
		<path class="st9" d="M1953.9,879c-4.3,5.9-12.1,17.8-7.4,21.7c4,3.4,12.9,6.5,18.8,8.4c1-2,1.8-3.8,2.4-5.5
			C1971,893.9,1963.4,885.7,1953.9,879L1953.9,879z"/>
		<path class="st9" d="M1829.1,836.3c3.1,5.8,16.6,17.5,24.5,16.8c7.9-0.7,13.7-7,13.1-14c-0.6-7-7.5-12.2-15.4-11.5
			S1829.1,836.3,1829.1,836.3L1829.1,836.3z"/>
	</g>
	<path class="st10" d="M1818.6,759.2l-37.8,5.3c0,0,4.8-48.9,32.1-74.4C1817.8,700,1818.5,759.2,1818.6,759.2L1818.6,759.2z"/>
	<path class="st11" d="M1754.7,979.3c-45.4,0-75.9-22.9-94.2-43.6c-12.3-13.9-21.6-27.5-26.6-37.8l17.4-16.2
		c3.8,8.8,11.1,26,24.7,41.3c24,27,54,39,89.3,35.9l-1.9,20.2C1760.4,979.2,1757.5,979.3,1754.7,979.3L1754.7,979.3z"/>
</g>
<path class="st6" d="M1027.4,690.8c-9.6,11.5-23.2,16-30.3,10.1s-12-24.2-2.3-35.7s30.1-12,37.2-6
	C1039,665.1,1037,679.3,1027.4,690.8z"/>
</svg>
