<?xml version="1.0" encoding="utf-8"?>
<!-- Generator: Adobe Illustrator 27.3.1, SVG Export Plug-In . SVG Version: 6.00 Build 0)  -->
<svg version="1.1" id="Layer_1" xmlns="http://www.w3.org/2000/svg" xmlns:xlink="http://www.w3.org/1999/xlink" x="0px" y="0px"
	 viewBox="0 0 2400 1700" style="enable-background:new 0 0 2400 1700;" xml:space="preserve">
<style type="text/css">
	.st0{fill:#56B7E0;}
	.st1{opacity:0.3;fill:#293657;enable-background:new    ;}
	.st2{fill:#EBECED;}
	.st3{fill:#D9DADB;}
	.st4{fill:#FFFFFF;}
	.st5{fill:#2A3756;}
	.st6{fill:#527BEF;}
	.st7{opacity:0.7;fill:#293657;enable-background:new    ;}
	.st8{fill:#151C28;}
	.st9{opacity:0.5;fill:#293657;enable-background:new    ;}
	.st10{fill:#FBF84A;}
	.st11{fill:#D6CE38;}
	.st12{opacity:0.8;fill:#FBF84A;enable-background:new    ;}
</style>
<rect class="st0" width="2400" height="1700"/>
<path class="st1" d="M1933,1535.1c0,24.2-303.6,43.9-678,43.9s-678-19.7-678-43.9s303.5-43.9,678-43.9S1933,1510.8,1933,1535.1z"/>
<g>
	<path class="st2" d="M1624.1,612.2c22.4,44,105.3,245.1,68.5,263.8c-36.8,18.8-151.1-166.2-173.6-210.2
		c-22.4-44-17.1-91.6,11.9-106.4C1559.9,544.6,1601.6,568.2,1624.1,612.2z"/>
	<polygon class="st3" points="873.4,555 986.2,716.2 962.6,518.3 882.2,458.8 	"/>
	<g>
		<path class="st4" d="M1626.2,564.6c0,189.4-154.8,342.9-345.8,342.9S934.6,754,934.6,564.6s154.8-342.9,345.8-342.9
			S1626.2,375.2,1626.2,564.6L1626.2,564.6z"/>
		<g>
			<path class="st4" d="M1308.1,498.1c-1.8-0.2-3.7-0.7-5.5-1.4c-33.2-13.7-59.3-39.9-73.4-73.7c-14.1-33.8-14.4-71.2-1.1-105.3
				l52.1-132.7c13.4-34.1,38.9-60.8,71.9-75.2c33-14.4,69.5-14.8,102.7-1.1c11,4.5,16.4,17.4,11.9,28.7c-4.4,11.3-17,16.8-28,12.2
				c-22.6-9.3-47.4-9.1-69.8,0.8c-22.4,9.8-39.7,27.9-48.8,51.1l-52.1,132.7c-9.1,23.2-8.8,48.5,0.7,71.5
				c9.6,22.9,27.2,40.7,49.8,50c11,4.5,16.4,17.4,11.9,28.7C1327,493.9,1317.6,499.3,1308.1,498.1L1308.1,498.1z"/>
			<g>
				<path class="st5" d="M1519.4,459.1c-0.7,85.7-107,153.7-237.3,151.9c-130.3-1.8-235.4-72.8-234.7-158.6
					c0.7-85.7,107-153.7,237.3-151.9C1415.1,302.4,1520.1,373.4,1519.4,459.1L1519.4,459.1z"/>
				<g>
					<path class="st6" d="M1138,451c-0.1,6.8-5.5,12.2-12.1,12.1c-6.6-0.1-12-5.7-11.9-12.5c0.1-6.8,5.5-12.2,12.1-12.1
						C1132.7,438.6,1138,444.2,1138,451z"/>
					<path class="st6" d="M1215.5,455.6c-0.1,6.8-5.5,12.2-12.1,12.1c-6.6-0.1-12-5.7-11.9-12.5c0.1-6.8,5.5-12.2,12.1-12.1
						C1210.2,443.2,1215.5,448.8,1215.5,455.6L1215.5,455.6z"/>
					<path class="st6" d="M1193.3,427.6c-0.1,6.8-5.5,12.2-12.1,12.1c-6.6-0.1-12-5.7-11.9-12.5c0.1-6.8,5.5-12.2,12.1-12.1
						C1188,415.3,1193.4,420.8,1193.3,427.6L1193.3,427.6z"/>
					<path class="st6" d="M1162.9,425.6c-0.1,6.8-5.5,12.2-12.1,12.1c-6.7-0.1-12-5.7-11.9-12.5c0.1-6.8,5.5-12.2,12.1-12.1
						C1157.6,413.2,1163,418.8,1162.9,425.6z"/>
				</g>
				<g>
					<path class="st6" d="M1372.5,454.4c-0.1,6.8-5.5,12.2-12.1,12.1c-6.6-0.1-12-5.7-11.9-12.5c0.1-6.8,5.5-12.2,12.1-12.1
						C1367.2,442,1372.5,447.5,1372.5,454.4L1372.5,454.4z"/>
					<path class="st6" d="M1450,458.9c-0.1,6.8-5.5,12.2-12.1,12.1s-12-5.7-11.9-12.5c0.1-6.8,5.5-12.2,12.1-12.1
						C1444.7,446.5,1450,452.1,1450,458.9z"/>
					<path class="st6" d="M1427.8,431c-0.1,6.8-5.5,12.2-12.1,12.1c-6.6-0.1-12-5.7-11.9-12.5c0.1-6.8,5.5-12.2,12.1-12.1
						C1422.5,418.6,1427.9,424.2,1427.8,431L1427.8,431z"/>
					<path class="st6" d="M1397.4,429c-0.1,6.8-5.5,12.2-12.1,12.1c-6.6-0.1-12-5.7-11.9-12.5c0.1-6.8,5.5-12.2,12.1-12.1
						C1392.1,416.6,1397.5,422.1,1397.4,429L1397.4,429z"/>
				</g>
			</g>
		</g>
	</g>
	<g>
		<path class="st7" d="M891.6,488.8l204.9,201.9c11.2,6.2,26.5,10.7,32.9,16.9l25.9,25.6c3.3,3.3,8.6,3.2,11.9-0.1s3.2-8.6-0.1-11.9
			l-1-1l-24.8-24.7c-6.4-6.3-11.1-21.5-17.4-32.6L919,461.1L891.6,488.8L891.6,488.8z"/>
		<path class="st5" d="M921.7,457.4c9.4,9.3-24.2,43.5-33.7,34.2L735.5,341.3c-9.4-9.3-9.5-24.5-0.2-33.9l0,0
			c9.3-9.4,24.5-9.5,33.9-0.2L921.7,457.4z"/>
		<path class="st8" d="M930.8,450.8c5.3,5.2,5.4,13.8,0.1,19.1l-30.2,30.7c-5.2,5.3-13.8,5.4-19.1,0.1l0,0
			c-5.3-5.2-5.4-13.8-0.1-19.1l30.2-30.7C916.9,445.6,925.4,445.6,930.8,450.8L930.8,450.8L930.8,450.8z"/>
	</g>
	<path class="st2" d="M918,505c13.2,44.2,3.9,86-20.7,93.4c-24.6,7.3-55.2-22.6-68.4-66.8s-3.9-86,20.7-93.4S904.8,460.8,918,505z"
		/>
</g>
<g>
	<g>
		<path class="st7" d="M1000.5,678.8c0,15.5,12.6,28.1,28.1,28.1h206.2c15.5,0,28.1-12.6,28.1-28.1l0,0c0-15.5-12.6-28.1-28.1-28.1
			h-206.2C1013,650.6,1000.5,663.2,1000.5,678.8L1000.5,678.8z"/>
		<path class="st9" d="M1049.9,1037.8V895.9l-127.3,127.3L884,984.7l165.9-165.9v-112h163.6v331.1
			c102.5,34.2,176.3,130.9,176.3,244.8c0,142.6-115.6,258.1-258.1,258.1s-258.1-115.6-258.1-258.1
			C873.5,1168.7,947.4,1072.1,1049.9,1037.8L1049.9,1037.8z"/>
	</g>
	<path class="st10" d="M1131.7,1502.6c-122.1,0-221-99-221-221c0-9.2,0.4-18.3,1.5-27.3c1.1-9.2,437.3-9.5,438.5-0.4
		c1.1,9.1,2.1,18.3,2.1,27.7C1352.7,1403.7,1253.7,1502.6,1131.7,1502.6L1131.7,1502.6z"/>
	<path class="st11" d="M1350.7,1254.4c0,15.1-98.2,27.4-219.2,27.4s-219.2-12.2-219.2-27.4s98.2-27.4,219.2-27.4
		S1350.7,1239.3,1350.7,1254.4z"/>
	<path class="st11" d="M1154.6,1362.2c0,5.6,4.6,10.2,10.2,10.2s10.2-4.5,10.2-10.2s-4.6-10.2-10.2-10.2
		S1154.6,1356.6,1154.6,1362.2z"/>
	<circle class="st11" cx="1106.1" cy="1411.9" r="31.8"/>
	<path class="st11" d="M1087.6,1319.5c0,9.5,7.7,17.2,17.2,17.2s17.2-7.7,17.2-17.2s-7.7-17.2-17.2-17.2S1087.6,1310,1087.6,1319.5z
		"/>
	
		<ellipse transform="matrix(0.9239 -0.3827 0.3827 0.9239 -435.8638 488.1035)" class="st11" cx="1009" cy="1339.7" rx="15.3" ry="15.3"/>
	<path class="st12" d="M1179.3,1256c0,11.4,41.4,11.4,41.4,0s-9.3-20.7-20.7-20.7S1179.3,1244.6,1179.3,1256L1179.3,1256z"/>
	<path class="st12" d="M1021.7,1265.2c0,8.4,30.6,8.4,30.6,0s-6.8-15.3-15.3-15.3S1021.7,1256.8,1021.7,1265.2z"/>
	<path class="st12" d="M1051.7,1240.3c0,17.3,62.6,17.3,62.6,0s-14-31.3-31.3-31.3S1051.7,1223,1051.7,1240.3z"/>
</g>
</svg>
