<?xml version="1.0" encoding="utf-8"?>
<!-- Generator: Adobe Illustrator 27.3.1, SVG Export Plug-In . SVG Version: 6.00 Build 0)  -->
<svg version="1.1" id="Layer_1" xmlns="http://www.w3.org/2000/svg" xmlns:xlink="http://www.w3.org/1999/xlink" x="0px" y="0px"
	 viewBox="0 0 2000 2000" style="enable-background:new 0 0 2000 2000;" xml:space="preserve">
<style type="text/css">
	.st0{fill:#56B7E0;}
	.st1{opacity:0.3;fill:#2A3756;enable-background:new    ;}
	.st2{fill:#FFFFFF;}
	.st3{fill:#4E5EAF;}
	.st4{fill:#2A3756;}
	.st5{fill:#E2857E;}
	.st6{fill:#1D273F;}
	.st7{fill:#43840B;}
	.st8{fill:#4A990D;}
	.st9{fill:#243049;}
	.st10{fill:#527BEF;}
	.st11{fill:#EBECED;}
</style>
<rect class="st0" width="2000" height="2000"/>
<path class="st1" d="M1803.6,1590.9c0,13.5-478.1,24.5-872.9,24.5s-715-11-715-24.5s320.1-24.5,715-24.5
	S1803.6,1577.4,1803.6,1590.9z"/>
<g id="chair">
	<rect x="463" y="1291.5" class="st2" width="18.3" height="241.7"/>
	<polygon class="st2" points="470.6,1533.2 470.6,1515.5 330.4,1554.5 335.7,1560.6 	"/>
	<polygon class="st2" points="473.9,1533.2 473.9,1515.5 614,1554.5 607.5,1560.6 	"/>
	<polygon class="st3" points="371.8,1291.5 263.9,909.3 238.1,915 332.5,1312.5 	"/>
	<rect x="332.5" y="1270.5" class="st3" width="317.4" height="42"/>
	<rect x="454.6" y="1312.5" class="st4" width="34" height="64.2"/>
	<path class="st4" d="M353.8,1571.4c0,10-8.1,18.1-18,18.1s-18-8.1-18-18.1s8.1-18.1,18-18.1S353.8,1561.5,353.8,1571.4z"/>
	<path class="st4" d="M625.6,1571.4c0,10-8.1,18.1-18,18.1s-18-8.1-18-18.1s8.1-18.1,18-18.1S625.6,1561.5,625.6,1571.4z"/>
</g>
<g id="chair-2">
	<rect x="1511.9" y="1291.5" class="st2" width="18.3" height="241.7"/>
	<polygon class="st2" points="1522.6,1533.2 1522.6,1515.5 1662.8,1554.5 1657.5,1560.6 	"/>
	<polygon class="st2" points="1519.3,1533.2 1519.3,1515.5 1379.1,1554.5 1385.7,1560.6 	"/>
	<polygon class="st3" points="1621.3,1291.5 1729.3,909.3 1755.1,915 1660.6,1312.5 	"/>
	<rect x="1343.2" y="1270.5" class="st3" width="317.4" height="42"/>
	<rect x="1504.6" y="1312.5" class="st4" width="34" height="64.2"/>
	<path class="st4" d="M1639.4,1571.4c0,10,8.1,18.1,18.1,18.1s18.1-8.1,18.1-18.1s-8.1-18.1-18.1-18.1S1639.4,1561.5,1639.4,1571.4z
		"/>
	<path class="st4" d="M1367.6,1571.4c0,10,8.1,18.1,18.1,18.1s18.1-8.1,18.1-18.1s-8.1-18.1-18.1-18.1S1367.6,1561.5,1367.6,1571.4z
		"/>
</g>
<g id="_02_Sitting">
	<path class="st5" d="M730.6,990.1c0,0,8.2,0.9,9.9,1.1c1.8,0.2,47.6-6,50.2-5.8c2.5,0.2,27.2,6.5,29,7.8
		c1.8,1.4,20.2,23.9,20.2,23.9s0,5.1-5.1,3.7c-5.1-1.4-3.3,1.6-5.5,2c-2.2,0.4-21.2-11.4-21.2-11.4l-13.9-3.1l-3.7,2.9l26.7,15.1
		c0,0,1.2,3.3-2.2,3.9c-3.3,0.6-31.2-11.2-31.2-11.2s-20.7,1.2-25.4,1.2s-17.1-3.7-17.1-3.7l-13.1,3.1L730.6,990.1L730.6,990.1z"/>
	<g id="head">
		<path class="st5" d="M472.8,622.7c24.9-6.3,59.2-1.3,66.3,40.4c5,29.2,10.9,79.8-7.5,86.3c-8.2,2.9-39.4,0-39.4,0l6.6,34.7h-57.2
			l9.4-49.7C450.9,734.4,390.8,643.4,472.8,622.7L472.8,622.7z"/>
		<path class="st4" d="M520.9,628.2l-37.6,55.2c-6.7-12.5-16.7-9.2-22,0.9c-6.5,12.4,8.2,23,6.8,27.2c-1.4,4.2-13.9,22.4-17.2,22.8
			c-3.3,0.5-65.4-27.8-36.8-99C427.2,602.6,483.8,591.1,520.9,628.2L520.9,628.2z"/>
		<path class="st4" d="M480.3,573c4.6,19.7-4.9,34.9-22.8,39.1s-29.1-6.8-33.7-26.5c-4.6-19.7,1.4-36.7,19.4-40.9
			C461.1,540.4,475.7,553.2,480.3,573L480.3,573z"/>
	</g>
	<g id="leg">
		<path class="st6" d="M667.5,1256.2c11.2,20.9,15.6,7.3,46.1,83.7c16.7,41.9,52.2,91.3,71.8,118.8l37.3-13.9
			c-25-66.3-82.9-224.1-98.1-249.5c-21-35.1-203.5-10.6-203.5-10.6s-68.1-44.2-114.9-12.9C393,1180.6,656.2,1235.3,667.5,1256.2
			L667.5,1256.2z"/>
		<g>
			<polygon class="st2" points="810.7,1512.7 836.7,1519.1 843.3,1490.1 828.7,1462.9 795.2,1477.8 			"/>
			<polygon class="st5" points="828.7,1462.9 795.2,1477.8 785.3,1458.8 821,1445.5 			"/>
		</g>
	</g>
	<g id="leg-2">
		<path class="st4" d="M372.3,1224c5.4,88.5,241.7,26.5,249.4,48.9c7.7,22.4,2.9,33,16,102.6c7.7,40.4,30.2,98.4,45.1,128.7
			l36.8-7.3c-14-69.4-31.2-235.8-37.3-264c-8.5-40-188.4-55.4-188.4-55.4s-59-55.5-110.3-32.1C369.4,1151.9,371.5,1210.6,372.3,1224
			L372.3,1224z"/>
		<g>
			<polygon class="st2" points="691.3,1552.6 716.4,1566.1 728.8,1542.5 722.8,1512.8 684.5,1515.6 			"/>
			<polygon class="st5" points="722.8,1512.8 684.5,1515.6 682.9,1504.2 719.7,1496.9 			"/>
		</g>
	</g>
	<g id="hoodie">
		<path class="st2" d="M508.6,770.9l-176.7-43.3c0,0-35.9,111.9,53,117.1C473.9,849.9,508.6,770.9,508.6,770.9L508.6,770.9z"/>
		<path class="st2" d="M460.3,765.2c-25.4,1.6-50.4,7.7-66.8,55.7c-23.4,66.1-33.2,181.2-33.8,399.8l206.2-41.9
			c-21.4-112-18.1-372.1-57.3-408C492.3,764,481.9,763.9,460.3,765.2z"/>
	</g>
	<g id="female">
		<path class="st4" d="M689.7,1546.9c-2.4,0.7-8.9,43.1-5,45.3c3.9,2.2,112.2,3.9,118.5-2.2c3.3-3.2-0.2-17.5-2.5-18.2
			c-41.8-11.7-72.2-33.7-72.2-33.7s-10.7,3.8-9.5,9.6l1.3,2.4c0,0-6.8,6.3-13.3,5.7C700.5,1555.1,695.7,1545.2,689.7,1546.9
			L689.7,1546.9z"/>
		<path class="st4" d="M808.5,1508.2c-2,1.5,7.3,43.4,11.7,44.1c4.4,0.7,106-36.9,109.7-44.9c1.9-4.2-6.5-16.3-8.9-16
			c-43.2,4.2-79.5-5.3-79.5-5.3s-8.6,7.4-5.4,12.3l2.1,1.8c0,0-4,8.3-10.3,10.1C821.5,1512,813.5,1504.4,808.5,1508.2L808.5,1508.2z
			"/>
	</g>
	<g id="table">
		<g id="hand">
			<path class="st2" d="M531.9,843.8l47.7,146l159-1.6l-2.9,36.7c0,0-92.3,31.9-173.2,31.7c-50.7-0.1-95.9-13.9-114.2-20.8
				C438,1029.1,520.4,825.4,531.9,843.8L531.9,843.8z"/>
		</g>
		<g>
			<polygon class="st2" points="1473.5,1596.9 1455.8,1596.9 1372.9,1050.5 1407.2,1050.5 			"/>
			<polygon class="st2" points="671.6,1596.9 689.3,1596.9 772.2,1050.5 737.9,1050.5 			"/>
		</g>
		<g>
			<rect x="659.7" y="1039.4" class="st2" width="825.7" height="22.2"/>
			<g id="laptop">
				<polygon class="st4" points="867.6,1039.4 720.6,1039.4 720.6,1032.2 863.3,1028.7 				"/>
			</g>
		</g>
	</g>
</g>
<g>
	<g id="plant">
		<path class="st7" d="M1022.1,787.8c-6,10.1-4.8,22.8,2.6,28.4c7.4,5.6,18.3,2,24.3-8c6-10.1,4.8-22.8-2.6-28.4
			C1039,774.2,1028.1,777.8,1022.1,787.8z"/>
		<path class="st8" d="M1003.5,855c9.1,15.9,24.8,22.7,35.2,15.3c10.3-7.4,11.3-26.3,2.2-42.1c-9.1-15.9-24.8-22.7-35.2-15.3
			C995.4,820.3,994.4,839.2,1003.5,855L1003.5,855z"/>
		<path class="st8" d="M1025.3,880.2c-10.7,17.6-9,38.1,3.7,45.8c12.7,7.7,31.6-0.3,42.3-17.9c10.7-17.6,9-38.1-3.7-45.8
			C1054.9,854.6,1036,862.6,1025.3,880.2z"/>
		<path class="st7" d="M977.6,968.2c14.4,22.8,39.4,32.8,55.8,22.4c16.4-10.4,18-37.3,3.6-60.1c-14.4-22.8-39.4-32.8-55.8-22.4
			C964.7,918.6,963.1,945.4,977.6,968.2L977.6,968.2z"/>
	</g>
	<rect x="979.8" y="988.4" class="st3" width="86.6" height="51"/>
</g>
<g>
	<path class="st4" d="M1015.4,1039.4H896.5l20-12.4h93.4l-24.6-174.8l9.3-1.3l25.3,183.2c0.2,1.3-0.2,2.7-1.1,3.7
		S1016.8,1039.4,1015.4,1039.4L1015.4,1039.4z"/>
	
		<rect x="809.8" y="848.2" transform="matrix(0.3074 -0.9516 0.9516 0.3074 -150.4939 1509.3101)" class="st4" width="303.5" height="19.6"/>
	<polygon class="st9" points="994.8,850.9 985.4,852.2 997.6,938.7 1004.5,921.2 	"/>
	<path class="st9" d="M995.4,869c20-61.8,28.3-121.6,22.2-152.3l-93.3,288.8C947.2,984.2,975.4,930.9,995.4,869z"/>
</g>
<g>
	<path class="st4" d="M1192.1,1039.4h118.8l-20-12.4h-93.4l24.6-174.8l-9.3-1.3l-25.3,183.2c-0.2,1.3,0.2,2.7,1.1,3.7
		S1190.7,1039.4,1192.1,1039.4L1192.1,1039.4z"/>
	
		<rect x="1236" y="706.5" transform="matrix(0.9516 -0.3074 0.3074 0.9516 -203.4665 424.4639)" class="st4" width="19.6" height="303.5"/>
	<polygon class="st9" points="1212.7,850.9 1222,852.2 1209.9,938.7 1203,921.2 	"/>
	<path class="st9" d="M1212.1,869c-20-61.8-28.3-121.6-22.2-152.3l93.3,288.8C1260.3,984.2,1232.1,930.9,1212.1,869L1212.1,869z"/>
</g>
<g>
	<g>
		<path class="st2" d="M1548.7,849c-0.7-0.1-1.3-0.2-2-0.5c-12.1-4.9-21.6-14.2-26.7-26.2s-5.3-25.3-0.4-37.4l18.9-47.1
			c4.9-12.1,14.2-21.6,26.2-26.7s25.3-5.3,37.4-0.4c4,1.6,6,6.2,4.3,10.2s-6.2,6-10.2,4.3c-8.2-3.3-17.2-3.2-25.4,0.3
			c-8.2,3.5-14.5,9.9-17.8,18.2l-18.9,47.1c-3.3,8.2-3.2,17.2,0.3,25.4c3.5,8.2,9.9,14.5,18.2,17.8c4,1.6,6,6.2,4.3,10.2
			C1555.6,847.5,1552.1,849.4,1548.7,849L1548.7,849z"/>
		<g>
			<g>
				<path class="st2" d="M1501.9,743.3c-34.1,0-64.9,13.7-86.9,35.7c37.7,10,63.8,35.3,60.7,61.6c-3.6,30.2-44.8,50.2-91.8,44.5
					c-0.1,0-0.1,0-0.2,0c11.7,52.8,60.2,92.4,118.3,92.4c66.8,0,121-52.4,121-117.1S1568.7,743.3,1501.9,743.3z"/>
				<path class="st4" d="M1475.7,840.5c3.2-26.2-22.9-51.6-60.7-61.6c-21.1,21.1-34.1,49.8-34.1,81.4c0,8.5,0.9,16.7,2.7,24.7
					c0.1,0,0.1,0,0.2,0C1430.9,890.7,1472,870.7,1475.7,840.5L1475.7,840.5z"/>
			</g>
			<g>
				<path class="st10" d="M1409.6,830.9c-0.3,2.4-2.5,4.1-4.9,3.8s-4.1-2.5-3.8-4.9c0.3-2.4,2.5-4.1,4.9-3.8
					C1408.2,826.4,1409.9,828.5,1409.6,830.9z"/>
				<path class="st10" d="M1437.5,835.5c-0.3,2.4-2.5,4.1-4.9,3.8c-2.4-0.3-4.1-2.5-3.8-4.9c0.3-2.4,2.5-4.1,4.9-3.8
					C1436.1,831,1437.8,833.1,1437.5,835.5z"/>
				<path class="st10" d="M1430.6,824.8c-0.3,2.4-2.5,4.1-4.9,3.8c-2.4-0.3-4.1-2.5-3.8-4.9c0.3-2.4,2.5-4.1,4.9-3.8
					S1430.9,822.4,1430.6,824.8z"/>
				<path class="st10" d="M1419.7,822.9c-0.3,2.4-2.5,4.1-4.9,3.8c-2.4-0.3-4.1-2.5-3.8-4.9s2.5-4.1,4.9-3.8
					S1419.9,820.5,1419.7,822.9z"/>
			</g>
		</g>
	</g>
	<path class="st11" d="M1508.3,927.7c-11.7,14.1-68,71.9-79.8,62.1c-11.8-9.8,34.4-75.9,46.1-90c11.7-14.1,28.7-19.3,38-11.6
		C1521.9,895.9,1520,913.6,1508.3,927.7z"/>
</g>
</svg>
