<?xml version="1.0" encoding="utf-8"?>
<!-- Generator: Adobe Illustrator 27.3.1, SVG Export Plug-In . SVG Version: 6.00 Build 0)  -->
<svg version="1.1" id="Layer_1" xmlns="http://www.w3.org/2000/svg" xmlns:xlink="http://www.w3.org/1999/xlink" x="0px" y="0px"
	 viewBox="0 0 2400 1700" style="enable-background:new 0 0 2400 1700;" xml:space="preserve">
<style type="text/css">
	.st0{fill:#56B7E0;}
	.st1{opacity:0.3;fill:#293657;enable-background:new    ;}
	.st2{fill:#FFFFFF;}
	.st3{fill:#2A3756;}
	.st4{fill:#527BEF;}
	.st5{fill:#2B72B6;}
	.st6{fill:#205689;}
	.st7{fill:#EBECED;}
	.st8{fill:#E8E32E;}
	.st9{fill:#FAF932;}
	.st10{fill:#E3847C;}
	.st11{fill:#293657;}
	.st12{fill:#D77A76;}
	.st13{fill:#C7706F;}
</style>
<rect class="st0" width="2400" height="1700"/>
<path class="st1" d="M1772.2,1576.8c0,14.5-379.3,26.2-695.4,26.2s-449-11.7-449-26.2s133-26.2,449-26.2
	S1772.2,1562.4,1772.2,1576.8z"/>
<g>
	<g>
		<g>
			<path class="st2" d="M1718.7,434c0,72-58.9,130.4-131.5,130.4S1455.7,506,1455.7,434s58.9-130.4,131.5-130.4
				S1718.7,361.9,1718.7,434L1718.7,434z"/>
			<g>
				<path class="st2" d="M1638.7,424.5c-0.7-0.1-1.4-0.3-2.1-0.5c-12.7-5.2-22.6-15.2-27.9-28c-5.3-12.9-5.5-27.1-0.4-40l19.8-50.5
					c5.1-13,14.8-23.1,27.3-28.6c12.5-5.5,26.4-5.6,39.1-0.4c4.2,1.7,6.2,6.6,4.5,10.9c-1.7,4.3-6.4,6.4-10.7,4.7
					c-8.6-3.5-18-3.4-26.5,0.3c-8.5,3.7-15.1,10.6-18.6,19.4l-19.8,50.5c-3.4,8.8-3.4,18.5,0.3,27.2c3.6,8.7,10.4,15.5,19,19
					c4.2,1.7,6.2,6.6,4.6,10.9C1645.8,422.9,1642.3,424.9,1638.7,424.5L1638.7,424.5z"/>
				<g>
					<path class="st3" d="M1659.3,407c-3.8,32.4-46.8,53.7-96,47.7c-49.2-6.1-86-37.2-82.2-69.6s46.8-53.7,96-47.7
						S1663.1,374.7,1659.3,407L1659.3,407z"/>
					<g>
						<path class="st4" d="M1511.3,387.9c-0.3,2.6-2.6,4.4-5.1,4.1s-4.3-2.6-4-5.2c0.3-2.6,2.6-4.4,5.1-4.1
							C1509.8,383,1511.6,385.3,1511.3,387.9z"/>
						<path class="st4" d="M1540.4,392.8c-0.3,2.6-2.6,4.4-5.1,4.1s-4.3-2.6-4-5.2c0.3-2.6,2.6-4.4,5.1-4.1
							C1539,387.9,1540.7,390.2,1540.4,392.8L1540.4,392.8z"/>
						<path class="st4" d="M1533.2,381.3c-0.3,2.6-2.6,4.4-5.1,4.1c-2.5-0.3-4.3-2.6-4-5.2c0.3-2.6,2.6-4.4,5.1-4.1
							S1533.5,378.7,1533.2,381.3z"/>
						<path class="st4" d="M1521.8,379.3c-0.3,2.6-2.6,4.4-5.1,4.1c-2.5-0.3-4.3-2.6-4-5.2c0.3-2.6,2.6-4.4,5.1-4.1
							C1520.3,374.4,1522.1,376.7,1521.8,379.3L1521.8,379.3z"/>
					</g>
					<g>
						<path class="st4" d="M1599.9,398.8c-0.3,2.6-2.6,4.4-5.1,4.1c-2.5-0.3-4.3-2.6-4-5.2c0.3-2.6,2.6-4.4,5.1-4.1
							C1598.4,393.9,1600.2,396.2,1599.9,398.8z"/>
						<path class="st4" d="M1629,403.7c-0.3,2.6-2.6,4.4-5.1,4.1s-4.3-2.6-4-5.2c0.3-2.6,2.6-4.4,5.1-4.1S1629.3,401.1,1629,403.7
							L1629,403.7z"/>
						<path class="st4" d="M1621.7,392.2c-0.3,2.6-2.6,4.4-5.1,4.1c-2.5-0.3-4.3-2.6-4-5.2c0.3-2.6,2.6-4.4,5.1-4.1
							S1622.1,389.6,1621.7,392.2L1621.7,392.2z"/>
						<path class="st4" d="M1610.3,390.2c-0.3,2.6-2.6,4.4-5.1,4.1c-2.5-0.3-4.3-2.6-4-5.2c0.3-2.6,2.6-4.4,5.1-4.1
							S1610.6,387.6,1610.3,390.2z"/>
					</g>
				</g>
			</g>
		</g>
		<g>
			<path class="st5" d="M1449.1,414.1c80.6,16.1,145.5,77.1,173.6,156.2l-213.7,86l16.9-245.6
				C1433.8,411.5,1441.5,412.6,1449.1,414.1L1449.1,414.1z"/>
			<path class="st6" d="M1498.3,411.2c-7.6-1.5-15.4-2.6-23.2-3.4l-49.2,3c7.9,0.7,15.6,1.8,23.2,3.4
				c80.6,16.1,145.5,77.1,173.6,156.2l49.2-3C1643.9,488.2,1579,427.3,1498.3,411.2L1498.3,411.2z"/>
			<polygon class="st6" points="1622.7,570.4 1671.9,567.4 1458.2,653.5 1409,656.4 			"/>
		</g>
		<path class="st7" d="M1683.8,504.8c-16.9,9.3-94.1,43.9-101.7,29.4c-7.6-14.5,63.2-61.5,80-70.8c16.8-9.3,35.4-7.6,41.3,3.8
			C1709.4,478.7,1700.6,495.5,1683.8,504.8L1683.8,504.8z"/>
		<path class="st7" d="M1435.5,502.7c-1.6,11.9-9.9,20.5-18.5,19.3c-8.7-1.2-14.4-11.8-12.8-23.6c1.6-11.9,9.9-20.5,18.5-19.3
			C1431.3,480.2,1437.1,490.8,1435.5,502.7L1435.5,502.7z"/>
	</g>
	<g>
		<path class="st8" d="M1319.8,477.7l49.2-3c10.5-0.6,21.2-0.5,31.9,0.5l-49.2,3C1341,477.2,1330.3,477.1,1319.8,477.7z"/>
		<polygon class="st8" points="1351.8,478.2 1401,475.2 1384.1,720.8 1334.9,723.8 		"/>
		<path class="st9" d="M1351.8,478.2l-16.9,245.6l213.7-86c11.7,33,17,69,14.5,106.4c-9.3,135.7-119.1,236.5-245.1,225.2
			c-7.9-0.7-15.6-1.8-23.2-3.4c-114.2-22.9-196.8-135.5-188-262.7C1116,567.7,1225.7,466.9,1351.8,478.2L1351.8,478.2z"/>
		<path class="st8" d="M1399.1,967c-16.4,1-32.8,2-49.2,3c112.1-6.7,204.6-101.7,213.1-225.7c2.6-37.4-2.8-73.5-14.5-106.4l49.2-3
			c11.7,33,17,69,14.5,106.4C1603.7,865.3,1511.3,960.2,1399.1,967z"/>
	</g>
</g>
<g>
	<g id="_04_3_4">
		<g id="_04_Standing">
			<g id="leg">
				<path class="st10" d="M960.3,1225c0.7-42.9,9.7-172.4,9.7-172.4S850.6,803.2,826,862.7c0,0,82.9,290.4,85.5,315.2
					s-18.2,72.4-4.5,157.7c6.8,42.7,17.4,187.7,17.4,187.7l31,27.4l9.7-40.5C965.1,1510.2,959.9,1255.3,960.3,1225L960.3,1225z"/>
			</g>
		</g>
		<path class="st11" d="M765.9,576.9c0,0-97.8,173.8-79.9,226.6c23.1,68.1,100.2,139.6,100.2,139.6L765.9,576.9L765.9,576.9z"/>
		<g id="_04_Front">
			<g id="leg-2">
				<path class="st10" d="M747.8,950.8c0,0,14.6,100.1,19.6,229.8c4.4,113.7-19.6,114.3,0.9,274.3l2.7,59.2l32.9,16
					c0,0,7.8-180.1,50.5-606.6C854.4,923.6,771.7,891,747.8,950.8L747.8,950.8z"/>
			</g>
			<path id="dress" class="st11" d="M831.7,525c-26.7,1.7-56.1,6.3-64.3,34.2c-5.5,38,3.3,144.9-19.6,269.1
				c-18.5,174.5-16.1,378.8-16.1,378.8l255,1.9c0,0,3.2-191.3-22.9-364.3C946,727.6,978.6,641,962.2,588.1
				c-7.8-24.9-58.9-44.2-76.1-47.5C884.1,540.2,854.4,523.6,831.7,525L831.7,525z"/>
		</g>
		<path id="head" class="st10" d="M897.5,369.9c26.9-1.1,61.1,11.5,59.4,55.8c-1.2,31.1-6,84.4-26.3,87c-9,1.2-40.5-8.5-40.5-8.5
			l-1,50.1c-31.1,13.4-58.5-25.4-58.5-25.4l20.4-49C850.9,479.9,808.9,373.5,897.5,369.9L897.5,369.9z"/>
		<path id="hair" class="st2" d="M848.4,357.2L848.4,357.2c-99,45.8-105.1,334.4-184.1,362.8c159.8,39.6,209.2-259.8,209.2-259.8
			c2.3-4-10.5-18.1-1.1-29.4c7.6-9.2,18.7-10.4,22.8,3.8c0,0,29-49.1,50.5-48.6C937.3,356.4,875.1,341,848.4,357.2L848.4,357.2z"/>
		<path class="st2" d="M923.7,1513.3c-2.9,0.8-12.5,51.7-7.8,54.3c4.6,2.6,134.1,4.7,141.6-2.7c3.9-3.9-0.3-21-3-21.7
			c-50-14-89.5-40.3-89.5-40.3s-9.5,4.6-8,11.4l1.5,2.9c0,0-8.1,7.5-15.9,6.8C934.8,1523.4,931,1511.4,923.7,1513.3L923.7,1513.3z"
			/>
		<path class="st2" d="M770.9,1512.6c5-3.4,10.3-4.8,17.4-4.6c6.3,0.2,11.9,2,16.5,5l12.8,49.5l-0.3,9.6c0-0.1,0,0.3-0.2,0.8
			c-7.1,3.2-18,5.2-30.3,4.8c-13.4-0.4-25.2-3.4-31.9-7.6l0.3-9.4L770.9,1512.6L770.9,1512.6z"/>
		<g>
			<g>
				<path class="st12" d="M1112.5,666.9l33.7-25.8c0,0-3.7-6.8-11.8-5.1c-8.1,1.7-19.3,11.3-19.3,11.3s-12.2-0.3-17.9,0.9
					s-15.1,7.5-16.7,15.1C1079,670.8,1092.5,678.5,1112.5,666.9L1112.5,666.9z"/>
				<path class="st13" d="M1122.4,668.3c8.2-1.3,16.9-2.2,16.9-2.2l42.5-17.5c0,0-1.1-6.9-9.4-5.7c-8.3,1.2-29.7,8.9-29.7,8.9
					l-17.8-0.8C1124.8,651,1117.7,669.1,1122.4,668.3L1122.4,668.3z"/>
				<path class="st12" d="M1137.6,670.9c8.2-1.3,16.9-2.2,16.9-2.2l42.5-16.5c0,0-1.2-6.9-9.4-5.7c-8.3,1.2-29.7,7.9-29.7,7.9
					l-17.8-0.8C1140.1,653.7,1133,671.7,1137.6,670.9L1137.6,670.9z"/>
				<path class="st10" d="M1062.7,749c9.6-19.6,30-60,36.8-62.6c9-3.4,26.9-5.7,34.1-8.6c7.1-2.9,28.7-4.9,28.7-4.9l27.8-11.2
					c0,0-1.2-6.9-9.4-5.7c-8.3,1.2-23.4,5.8-23.4,5.8l-9.4-3.9c0,0-7.8-6.1-13.6-6.5c-5.8-0.3-34.4-0.9-38.7,0.7
					c-4.3,1.6-13,5.6-20.7,15.8c-5.8,7.8-45.8,56.8-60.1,77L1062.7,749L1062.7,749z"/>
			</g>
			<path class="st11" d="M1090.6,711.9l-43.5-18.3l-60,54.5c0,0-0.3-108.4-24.9-160c-53.6-0.1-33.8,211.8-33.8,211.8
				s41.6,43.7,74.1,33.6C1026,826.2,1090.6,711.9,1090.6,711.9L1090.6,711.9z"/>
		</g>
	</g>
	<path class="st10" d="M852.7,928c1.7,1.1,51.1,18.7,53.5,20.2c2.5,1.5,24,20.7,25.1,23c1.1,2.3,7.9,34.6,7.9,34.6s-2.7,5.1-7.1,1.1
		c-4.4-4-4.2-0.2-6.5-0.9c-2.4-0.7-15.4-22.5-15.4-22.5l-12.4-10.4l-5.3,1l19,29c0,0-0.5,4-4.2,2.8c-3.7-1.1-25.6-27.5-25.6-27.5
		s-21.4-9.6-26.2-12c-4.7-2.5-15.3-12.7-15.3-12.7S851,926.9,852.7,928L852.7,928z"/>
</g>
</svg>
