<?xml version="1.0" encoding="UTF-8"?>
<svg id="Layer_1" data-name="Layer 1" xmlns="http://www.w3.org/2000/svg" viewBox="0 0 2400 1700">
  <defs>
    <style>
      .cls-1 {
        fill: #fff;
      }

      .cls-2 {
        fill: #8c754d;
      }

      .cls-3 {
        fill: #324684;
      }

      .cls-4 {
        fill: #b29c6b;
      }

      .cls-5 {
        fill: #dbd2d2;
      }

      .cls-6 {
        fill: #253868;
      }

      .cls-7 {
        fill: #151c28;
      }

      .cls-8 {
        fill: #527bef;
      }

      .cls-9 {
        fill: #56b7e0;
      }

      .cls-10 {
        fill: #4d5cb0;
      }
    </style>
  </defs>
  <rect class="cls-9" width="2400" height="1700"/>
  <g>
    <g>
      <path class="cls-1" d="m817.63,793.05c8.49,209.42,186.57,372.24,397.77,363.68,211.17-8.56,375.49-185.26,367-394.69-8.49-209.41-186.58-372.23-397.75-363.67-211.2,8.56-375.52,185.26-367.03,394.67Z"/>
      <g>
        <path class="cls-1" d="m1049.22,756.05c2.03-.33,4.03-.94,6.01-1.84,36.16-16.64,63.81-46.75,77.84-84.74,14.03-38.02,12.78-79.37-3.54-116.47l-63.51-144.39c-16.31-37.1-45.73-65.49-82.85-79.96-37.11-14.46-77.46-13.25-113.65,3.4-11.99,5.52-17.32,19.97-11.91,32.28,5.41,12.3,19.51,17.8,31.53,12.28,24.55-11.31,51.97-12.13,77.18-2.3,25.22,9.82,45.19,29.11,56.27,54.3l63.52,144.39c11.08,25.22,11.94,53.29,2.4,79.12-9.54,25.8-28.31,46.24-52.88,57.54-11.99,5.52-17.33,19.97-11.93,32.29,4.54,10.28,15.16,15.82,25.53,14.11Z"/>
        <g>
          <path class="cls-7" d="m1007.08,707.22c14.87,93.71,142.29,150.68,284.63,127.26,142.33-23.42,245.69-118.36,230.83-212.06-14.86-93.7-142.3-150.66-284.65-127.25-142.33,23.42-245.67,118.36-230.82,212.06Z"/>
          <g>
            <path class="cls-8" d="m1434.98,634.05c1.19,7.43,8.01,12.47,15.26,11.29,7.25-1.19,12.16-8.19,10.99-15.62-1.19-7.43-8.01-12.49-15.26-11.29-7.25,1.19-12.16,8.19-10.99,15.62Z"/>
            <path class="cls-8" d="m1350.94,651.76c1.17,7.43,8,12.48,15.25,11.28,7.25-1.2,12.17-8.18,10.99-15.6-1.17-7.43-8.01-12.49-15.25-11.31-7.26,1.2-12.17,8.19-10.98,15.62Z"/>
            <path class="cls-8" d="m1370.61,617.54c1.18,7.42,8,12.49,15.26,11.29,7.24-1.19,12.16-8.18,10.98-15.61-1.18-7.43-8-12.49-15.25-11.3-7.25,1.2-12.17,8.19-10.99,15.62Z"/>
            <path class="cls-8" d="m1403.53,610.32c1.18,7.42,8.01,12.48,15.25,11.29,7.26-1.19,12.18-8.19,11-15.62-1.18-7.43-8.01-12.48-15.26-11.28-7.25,1.18-12.16,8.18-10.99,15.62Z"/>
          </g>
          <g>
            <path class="cls-8" d="m1178.89,676.18c1.17,7.43,8,12.48,15.24,11.29,7.25-1.19,12.16-8.18,10.99-15.61-1.17-7.43-8.01-12.49-15.25-11.29-7.24,1.19-12.16,8.17-10.98,15.61Z"/>
            <path class="cls-8" d="m1094.83,693.9c1.18,7.43,8.01,12.48,15.26,11.29,7.25-1.2,12.16-8.18,10.98-15.62-1.18-7.42-8-12.48-15.25-11.28-7.25,1.18-12.17,8.18-10.99,15.61Z"/>
            <path class="cls-8" d="m1114.5,659.67c1.18,7.44,8.01,12.49,15.26,11.29,7.25-1.19,12.17-8.18,10.98-15.61-1.18-7.42-8-12.49-15.24-11.3-7.25,1.19-12.18,8.19-11,15.62Z"/>
            <path class="cls-8" d="m1147.44,652.45c1.18,7.43,8.01,12.48,15.25,11.29,7.24-1.18,12.17-8.18,10.98-15.61-1.17-7.43-8-12.49-15.25-11.3-7.25,1.19-12.17,8.18-10.99,15.62Z"/>
          </g>
        </g>
      </g>
      <path class="cls-5" d="m922.34,1038.89c13.26-12.59,24.23-30.03,32.21-51.61,14.86-40.2,17.63-90.23,7.79-140.88-9.84-50.65-31.13-96.01-59.97-127.72-22.1-24.31-46.7-38.5-71.15-41.45l-3,10.25c22.5,2.16,45.5,15.3,66.38,38.26,27.55,30.31,47.95,73.87,57.43,122.65,9.48,48.79,6.88,96.82-7.33,135.23-7.4,20-17.46,36.08-29.53,47.56l7.17,7.69Z"/>
      <path class="cls-5" d="m1027.95,438.48c.07-.05,9.57-6.28,35.13-13.19l-2.74-10.14c-27.65,7.46-37.91,14.38-38.34,14.67l5.94,8.66Z"/>
    </g>
    <g>
      <g>
        <polygon class="cls-3" points="1112.76 1331.28 1066.58 1283.54 1023.49 1334.18 1015.94 1093.41 1105.21 1093.06 1112.76 1331.28"/>
        <polygon class="cls-3" points="1199.97 1300.44 1206.43 1234.99 1271.2 1247.4 1129.34 1056.18 1058.11 1108.65 1199.97 1300.44"/>
        <polygon class="cls-6" points="1105.05 1175.67 1056.77 1109.65 1059.46 1107.65 1107.74 1173.66 1105.05 1175.67"/>
        <polygon class="cls-10" points="1183.93 984.59 1177 1047.67 1143.38 1100.8 1089.68 1133.67 1026.57 1139.69 966.51 1116.94 921.42 1069.61 900.22 1006.88 907.15 941.66 940.77 887.25 994.47 854.93 1057.58 850.88 1117.64 875.54 1162.73 923.27 1183.93 984.59"/>
        <polygon class="cls-3" points="1091.27 1133.14 1088.09 1134.2 992.88 855.42 996.06 854.43 1091.27 1133.14"/>
        <polygon class="cls-3" points="1028.29 1139.88 1024.93 1139.43 1055.86 850.63 1059.22 851.2 1028.29 1139.88"/>
        <polygon class="cls-3" points="968.03 1117.94 965.17 1116.04 1116.12 874.49 1118.98 876.47 968.03 1117.94"/>
        <polygon class="cls-3" points="922.42 1071.2 920.61 1068.21 1161.73 921.69 1163.54 924.66 922.42 1071.2"/>
        <polygon class="cls-3" points="1184.07 986.08 900.48 1008.83 900.08 1005.35 1183.67 982.7 1184.07 986.08"/>
        <polygon class="cls-3" points="1176.52 1049.04 906.53 943.51 907.63 940.24 1177.62 1045.88 1176.52 1049.04"/>
        <polygon class="cls-3" points="1142.38 1101.74 939.4 888.67 941.77 886.3 1144.75 1099.39 1142.38 1101.74"/>
        <path class="cls-1" d="m1127.48,968.04c16.68,48.37-8.03,99.72-55.2,115.13-47.17,15.67-98.93-11.13-115.61-60.23-16.68-49.27,8.03-101.67,55.2-116.64,47.17-14.67,98.93,13.18,115.61,61.75Z"/>
        <path class="cls-4" d="m1120.38,970.24c15.29,44.39-7.37,91.51-50.61,105.62-43.25,14.33-90.7-10.28-105.99-55.28-15.29-45.14,7.36-93.15,50.61-106.89,43.25-13.49,90.7,12.01,105.99,56.56Z"/>
      </g>
      <path class="cls-2" d="m1106.86,975.37c12.72,36.97-5.85,76.13-41.48,87.72-35.62,11.75-74.81-8.86-87.53-46.25-12.72-37.48,5.85-77.25,41.48-88.6,35.62-11.17,74.81,10.04,87.53,47.12Z"/>
      <path class="cls-4" d="m1070.78,1031.64l-19.44,6.31-19.17-56.1-18.48,19.65-6.15-18.06,14.72-16.94c3.8-4.32,8.23-7.48,13.74-9.23l8.42-2.67,26.35,77.04Z"/>
    </g>
  </g>
</svg>