<?xml version="1.0" encoding="UTF-8"?>
<svg id="Layer_1" data-name="Layer 1" xmlns="http://www.w3.org/2000/svg" viewBox="0 0 2400 1700">
  <defs>
    <style>
      .cls-1 {
        fill: #eaebec;
      }

      .cls-2 {
        fill: #fff;
      }

      .cls-3 {
        fill: #ef5c00;
      }

      .cls-4 {
        fill: #edd600;
      }

      .cls-5 {
        fill: #527bef;
      }

      .cls-6, .cls-7 {
        fill: #293657;
      }

      .cls-8 {
        fill: #56b7e0;
      }

      .cls-9 {
        fill: #5078f1;
      }

      .cls-7 {
        opacity: .3;
      }
    </style>
  </defs>
  <rect class="cls-8" width="2400" height="1700"/>
  <g>
    <path class="cls-3" d="m1900.29,855.59c15.42,22.19,43.18,53.03,56.96,66.86,6.52,6.55,26.36,26.46,48.61,15.33,49.3-24.65,24.18-147.04,10.9-194.82l38.11,7.63-75.92-79.42-11.75,104.45,29.87-29.96c16.55,60.01,24.15,138.13-6.46,153.43-16.05,8.03-35.7-18.45-60.97-54.82-39.66-57.1-66.39-41.99-29.34,11.33Z"/>
    <g>
      <g>
        <path class="cls-1" d="m1478.07,854.52c-16.33,34.91-100.59,182.37-129.81,168.69-29.22-13.68,30-172.85,46.34-207.76,16.33-34.91,48.26-54.46,71.31-43.67,23.06,10.79,28.5,47.83,12.17,82.74Z"/>
        <path class="cls-2" d="m1925.6,738.3c0,141.55-118.6,256.3-264.9,256.3s-264.88-114.75-264.88-256.3,118.6-256.29,264.88-256.29,264.9,114.75,264.9,256.29Z"/>
        <path class="cls-6" d="m1822.27,701.77c-7.66,63.64-94.19,105.57-193.28,93.66-99.09-11.91-173.24-73.15-165.59-136.79,7.65-63.64,94.19-105.56,193.29-93.66,99.09,11.91,173.22,73.15,165.58,136.79Z"/>
        <path class="cls-1" d="m1932.11,831.09c17.53,34.32,82.2,191.36,53.46,206.04-28.74,14.66-118.03-129.8-135.55-164.12-17.53-34.32-13.36-71.53,9.3-83.1,22.67-11.57,55.25,6.86,72.78,41.19Z"/>
      </g>
      <g>
        <path class="cls-9" d="m1684.65,691.73c-.03-4.87,3.88-8.83,8.75-8.86,4.87-.04,8.83,3.88,8.86,8.75.03,4.86-3.89,8.82-8.75,8.86-4.86.03-8.83-3.88-8.86-8.75Z"/>
        <path class="cls-9" d="m1706.37,688.68c-.03-4.87,3.88-8.83,8.75-8.86,4.87-.04,8.83,3.88,8.86,8.75.02,4.87-3.89,8.83-8.75,8.86-4.86.03-8.83-3.89-8.86-8.75Z"/>
        <path class="cls-9" d="m1728.08,685.62c-.03-4.86,3.88-8.82,8.75-8.86,4.87-.03,8.83,3.88,8.87,8.75.03,4.86-3.89,8.82-8.75,8.86-4.86.03-8.83-3.89-8.86-8.75Z"/>
        <path class="cls-9" d="m1709.35,709.88c-.03-4.86,3.88-8.83,8.75-8.86,4.87-.04,8.83,3.88,8.86,8.75.03,4.86-3.89,8.83-8.75,8.86-4.86.03-8.83-3.89-8.86-8.75Z"/>
        <path class="cls-9" d="m1731.06,706.83c-.03-4.87,3.89-8.83,8.75-8.86,4.87-.03,8.83,3.88,8.87,8.75.03,4.86-3.89,8.83-8.75,8.86-4.86.03-8.83-3.89-8.87-8.74Z"/>
        <path class="cls-9" d="m1749.8,682.57c-.03-4.86,3.88-8.83,8.75-8.86,4.87-.03,8.83,3.89,8.86,8.75.03,4.86-3.89,8.82-8.75,8.86-4.86.03-8.82-3.89-8.86-8.75Z"/>
      </g>
      <g>
        <path class="cls-9" d="m1597.81,675.12c1.39-4.66-1.26-9.56-5.92-10.96-4.66-1.39-9.56,1.26-10.96,5.92-1.39,4.66,1.26,9.56,5.91,10.96,4.66,1.39,9.57-1.26,10.96-5.92Z"/>
        <path class="cls-9" d="m1577.82,666.11c1.39-4.66-1.25-9.56-5.92-10.96-4.66-1.39-9.56,1.26-10.96,5.92-1.39,4.66,1.26,9.56,5.92,10.95,4.65,1.39,9.56-1.26,10.96-5.91Z"/>
        <path class="cls-9" d="m1557.83,657.1c1.38-4.66-1.26-9.56-5.92-10.96-4.66-1.39-9.57,1.26-10.96,5.92-1.39,4.66,1.26,9.56,5.91,10.96,4.66,1.39,9.57-1.26,10.96-5.92Z"/>
        <path class="cls-9" d="m1569.02,685.63c1.39-4.66-1.26-9.56-5.92-10.96-4.66-1.39-9.56,1.26-10.95,5.92-1.39,4.66,1.26,9.56,5.91,10.96,4.66,1.39,9.56-1.26,10.96-5.92Z"/>
        <path class="cls-9" d="m1549.03,676.61c1.39-4.66-1.26-9.56-5.92-10.96-4.67-1.39-9.57,1.26-10.96,5.92-1.39,4.66,1.26,9.56,5.91,10.95,4.66,1.39,9.57-1.26,10.96-5.91Z"/>
        <path class="cls-9" d="m1537.83,648.08c1.39-4.66-1.25-9.56-5.91-10.96-4.66-1.4-9.57,1.26-10.96,5.92-1.38,4.66,1.26,9.56,5.92,10.95,4.65,1.39,9.56-1.26,10.95-5.91Z"/>
      </g>
    </g>
    <g>
      <g>
        <path class="cls-1" d="m931.23,858.76c22.37,31.38,131.9,161.18,158.17,142.44,26.26-18.74-60.76-164.58-83.13-195.96-22.37-31.38-57.3-44.84-78.03-30.06-20.73,14.78-19.39,52.19,2.99,83.58Z"/>
        <path class="cls-2" d="m472.37,738.3c0,141.55,118.6,256.3,264.9,256.3s264.89-114.75,264.89-256.3-118.6-256.29-264.89-256.29-264.9,114.75-264.9,256.29Z"/>
        <path class="cls-6" d="m575.7,701.77c7.66,63.64,94.19,105.57,193.28,93.66,99.09-11.91,173.24-73.15,165.59-136.79-7.65-63.64-94.19-105.56-193.29-93.66-99.09,11.91-173.22,73.15-165.58,136.79Z"/>
        <path class="cls-1" d="m465.86,831.09c-17.53,34.32-82.2,191.36-53.46,206.04,28.74,14.66,118.03-129.8,135.55-164.12,17.53-34.32,13.36-71.53-9.3-83.1-22.67-11.57-55.25,6.86-72.78,41.19Z"/>
      </g>
      <g>
        <g>
          <path class="cls-5" d="m873.06,665.56c.6,5.02,5.15,8.6,10.17,8.01,5.02-.59,8.6-5.15,8.01-10.17-.6-5.02-5.15-8.61-10.17-8.01-5.02.6-8.6,5.15-8.01,10.17Z"/>
          <path class="cls-5" d="m814.75,675.1c.6,5.02,5.15,8.6,10.17,8.01,5.02-.6,8.6-5.15,8-10.17-.59-5.01-5.15-8.6-10.16-8.01-5.02.6-8.61,5.15-8.01,10.17Z"/>
          <path class="cls-5" d="m829.25,652.68c.61,5.02,5.16,8.61,10.18,8.01,5.02-.6,8.61-5.15,8-10.17-.6-5.02-5.14-8.6-10.17-8.01-5.02.6-8.6,5.15-8.01,10.17Z"/>
          <path class="cls-5" d="m852.12,648.76c.6,5.02,5.15,8.6,10.17,8.01,5.02-.6,8.61-5.15,8.01-10.17-.59-5.02-5.15-8.6-10.17-8-5.02.59-8.6,5.15-8.01,10.17Z"/>
        </g>
        <g>
          <path class="cls-5" d="m695.69,686.66c.6,5.02,5.15,8.6,10.17,8.01,5.02-.6,8.6-5.16,8-10.17-.59-5.02-5.15-8.61-10.17-8.01-5.02.6-8.6,5.14-8.01,10.17Z"/>
          <path class="cls-5" d="m637.38,696.2c.59,5.02,5.15,8.6,10.17,8,5.02-.59,8.6-5.14,8.01-10.16-.6-5.02-5.15-8.61-10.17-8.02-5.02.6-8.61,5.16-8,10.18Z"/>
          <path class="cls-5" d="m651.89,673.78c.59,5.02,5.15,8.61,10.17,8.01,5.02-.6,8.6-5.15,8-10.17-.6-5.02-5.15-8.6-10.16-8.01-5.02.6-8.61,5.15-8.01,10.17Z"/>
          <path class="cls-5" d="m674.75,669.86c.6,5.02,5.15,8.6,10.17,8.01,5.02-.59,8.6-5.15,8-10.17-.59-5.02-5.15-8.6-10.16-8.01-5.02.6-8.61,5.15-8.01,10.17Z"/>
        </g>
      </g>
    </g>
    <g>
      <path class="cls-3" d="m1861.4,504.56c5.84-42.28-12.57-80.88-43.51-92.17,7.09,15.78,9.48,34.66,5.64,53.96-.93,4.67-2.19,9.17-3.74,13.49-9.21,25.69-28.78,44.71-51.46,51.38,1.63,21.29,17.73,39.93,40.38,44.43,3.26.65,6.5.97,9.69,1,20.02-12.62,36.09-36.21,41.87-65.29.45-2.27.82-4.54,1.13-6.79Z"/>
      <path class="cls-3" d="m1542.67,441.19c10.77-41.3,42.54-69.92,75.45-68.52-12.59,11.87-22.02,28.4-25.85,47.7-.93,4.67-1.49,9.31-1.71,13.89-1.32,27.27,9.49,52.31,27.9,67.16-9.65,19.05-31.66,30.11-54.31,25.61-3.25-.65-6.37-1.59-9.33-2.79-13.68-19.32-19.5-47.26-13.72-76.34.45-2.27.98-4.5,1.56-6.71Z"/>
    </g>
    <path class="cls-4" d="m578.33,436.06c-32.84-2.75-49.77-11-51.76-25.2-1.99-14.2,12.03-26.78,42.85-38.45,25.01-9.47,58.75-17.48,94.98-22.56,36.23-5.08,70.87-6.64,97.52-4.41,32.85,2.75,49.79,11,51.78,25.19,1.99,14.21-12.03,26.79-42.86,38.46-25.01,9.47-58.74,17.49-94.98,22.56-36.23,5.08-70.87,6.64-97.53,4.41Zm89.1-64.55c-68.14,9.55-110.13,27.31-118.17,36.17,10.16,6.31,55.42,11.86,123.56,2.32,68.14-9.55,110.14-27.32,118.16-36.18-10.15-6.31-55.41-11.85-123.55-2.3Z"/>
    <ellipse class="cls-7" cx="758.38" cy="1487" rx="270.43" ry="36"/>
    <ellipse class="cls-7" cx="1660.71" cy="1487" rx="270.43" ry="36"/>
  </g>
</svg>