<?xml version="1.0" encoding="utf-8"?>
<!-- Generator: Adobe Illustrator 27.3.1, SVG Export Plug-In . SVG Version: 6.00 Build 0)  -->
<svg version="1.1" id="Layer_1" xmlns="http://www.w3.org/2000/svg" xmlns:xlink="http://www.w3.org/1999/xlink" x="0px" y="0px"
	 viewBox="0 0 2000 2000" style="enable-background:new 0 0 2000 2000;" xml:space="preserve">
<style type="text/css">
	.st0{fill:#5BB8DE;}
	.st1{fill:#334466;}
	.st2{opacity:0.5;}
	.st3{fill:#9F9AEE;}
	.st4{fill:#FFFFFF;}
	.st5{fill:#D1D3D3;}
	.st6{fill:#2A3756;}
	.st7{fill:#E2E2E2;}
	.st8{fill:#192133;}
	.st9{fill:#527BEF;}
	.st10{fill:#3F3F3F;}
	.st11{fill:#EBECED;}
	.st12{opacity:0.3;fill:#2A3756;enable-background:new    ;}
</style>
<rect class="st0" width="2000" height="2000"/>
<g>
	<g>
		<g>
			<rect x="1069" y="513" class="st1" width="416" height="438"/>
			<g class="st2">
				<rect x="1113.2" y="513.8" class="st3" width="2.5" height="436.9"/>
				<rect x="1159.7" y="513.8" class="st3" width="2.5" height="436.9"/>
				<rect x="1206.1" y="513.8" class="st3" width="2.5" height="436.9"/>
				<rect x="1252.6" y="513.8" class="st3" width="2.5" height="436.9"/>
				<rect x="1299.1" y="513.8" class="st3" width="2.5" height="436.9"/>
				<rect x="1345.5" y="513.8" class="st3" width="2.5" height="436.9"/>
				<rect x="1392" y="513.8" class="st3" width="2.5" height="436.9"/>
				<rect x="1438.4" y="513.8" class="st3" width="2.5" height="436.9"/>
				<g>
					<rect x="1069.3" y="545.2" class="st3" width="415.6" height="2.5"/>
					<rect x="1069.3" y="591.7" class="st3" width="415.6" height="2.5"/>
					<rect x="1069.3" y="638.2" class="st3" width="415.6" height="2.5"/>
					<rect x="1069.3" y="684.6" class="st3" width="415.6" height="2.5"/>
					<rect x="1069.3" y="731.1" class="st3" width="415.6" height="2.5"/>
					<rect x="1069.3" y="777.5" class="st3" width="415.6" height="2.5"/>
					<rect x="1069.3" y="824" class="st3" width="415.6" height="2.5"/>
					<rect x="1069.3" y="870.4" class="st3" width="415.6" height="2.5"/>
					<rect x="1069.3" y="916.9" class="st3" width="415.6" height="2.5"/>
				</g>
			</g>
			<rect x="1069" y="491" class="st4" width="416" height="23"/>
			<rect x="1069" y="951" class="st4" width="416" height="24"/>
		</g>
		<path class="st5" d="M1302.3,488.3c-0.6-13.2-11.4-23.8-24.8-23.8s-24.3,10.6-24.8,23.8H1226v35.6h104.4v-35.6L1302.3,488.3
			L1302.3,488.3z M1277.7,474.5c7.6,0,13.7,6.1,13.7,13.7H1264C1264,480.7,1270.1,474.5,1277.7,474.5L1277.7,474.5z"/>
		<rect x="1270.7" y="454.8" class="st6" width="14.6" height="27.4"/>
	</g>
	<g>
		<path class="st3" d="M1277,876.1c-82.4,0-149.7-65-150-144.8c-0.4-80.2,66.7-145.8,149.4-146.2h0.7c12.5,0,24.9,1.5,36.9,4.4
			c6.5-14.5,18-25.9,32.7-32.3c8-3.5,16.4-5.2,25.1-5.2c8,0,15.8,1.5,23.3,4.5c4.2,1.7,7.5,4.9,9.3,9.1c1.8,4.2,1.9,8.8,0.2,13
			c-2.6,6.5-8.8,10.7-15.8,10.7c-2.2,0-4.3-0.4-6.3-1.2c-7.3-2.9-15.2-2.8-22.4,0.3c-6.1,2.6-11,7.1-14.1,12.9
			c49.3,24.8,80.8,74.4,81.1,128.6c0.2,38.9-15.3,75.5-43.6,103.2c-28.2,27.5-65.8,42.8-105.8,43L1277,876.1L1277,876.1z
			 M1277.2,601.4h-0.6c-73.8,0.3-133.5,58.5-133.2,129.8c0.3,70.9,60.3,128.6,133.7,128.6h0.6c35.8-0.2,69.3-13.8,94.5-38.3
			c25.1-24.5,38.8-57,38.7-91.4c-0.2-50.4-31.1-96.3-78.6-117.1l-7.2-3.2l4.4-11.2c4.5-11.3,13.1-20.2,24.3-25
			c5.8-2.5,11.8-3.8,18.1-3.8c5.8,0,11.4,1.1,16.8,3.2c0.1,0,0.2,0,0.2,0c0.1,0,0.5,0,0.6-0.4c0-0.1,0.1-0.3,0-0.5
			c-0.1-0.3-0.3-0.3-0.4-0.4c-5.6-2.2-11.4-3.3-17.3-3.3c-6.4,0-12.6,1.3-18.6,3.9c-11.5,5-20.4,14.1-25,25.8l-4.4,11.2l-7.2-2.1
			C1303.9,603.3,1290.6,601.4,1277.2,601.4L1277.2,601.4z"/>
		<path class="st6" d="M1335.5,605.4l1.5-3.8c3.7-9.3,10.8-16.6,19.9-20.5c9.2-4,19.3-4.1,28.6-0.4c4.5,1.8,9.7-0.4,11.5-5
			c1.8-4.5-0.4-9.7-4.9-11.5c-13.7-5.4-28.7-5.2-42.2,0.6s-23.9,16.6-29.4,30.3l-1.7,4.3c-13.4-4-27.7-6.1-42.4-6
			c-78.4,0.3-141.7,62.1-141.3,138c0.3,75.8,64.2,137,142.6,136.7s141.7-62.1,141.3-138C1418.8,674.5,1384.5,626.8,1335.5,605.4
			L1335.5,605.4z"/>
		<g>
			<path class="st3" d="M1370.7,683.3c0-23.4-19-42.4-42.4-42.4c-0.8,0-1.5,0-2.3,0.1c-5-16.2-20.1-28-37.9-28
				c-11.2,0-21.4,4.7-28.6,12.2c-5.5-3-11.9-4.7-18.6-4.7c-21.6,0-39.1,17.5-39.1,39.1c0,1.3,0.1,2.5,0.2,3.8
				c-10.9,5.7-18.4,17.1-18.4,30.2c0,18.8,15.2,34,34.1,34c1.2,0,2.3-0.1,3.4-0.2c5.6,11.4,17.2,19.2,30.7,19.2
				c6.3,0,12.2-1.7,17.2-4.7c3.8,8,12,13.5,21.5,13.5c6.6,0,12.6-2.7,16.9-7c4.6,2.9,10,4.6,15.8,4.6c16.4,0,29.8-13.3,29.8-29.8
				c0-1.9-0.2-3.7-0.5-5.4C1363.5,710.4,1370.7,697.7,1370.7,683.3L1370.7,683.3z"/>
			<g>
				<path class="st4" d="M1241.9,656.3c-1.6,0-3.1-0.2-4.6-0.7c-8.5-2.5-12.2-11.2-12.3-11.5l4.4-1.9c0,0.1,3,6.9,9.2,8.8
					c4.2,1.2,9.1,0,14.5-3.8l2.7,4C1251,654.6,1246.3,656.3,1241.9,656.3L1241.9,656.3z"/>
				<path class="st4" d="M1297.1,673.7c-5,0-9.1-1.3-12.2-4c-6.9-5.8-6.3-15.6-6.2-16l4.8,0.3c0,0.1-0.4,7.8,4.5,12
					c3.6,3,9.3,3.6,17,1.7l1.2,4.7C1302.9,673.3,1299.9,673.7,1297.1,673.7L1297.1,673.7z"/>
				<path class="st4" d="M1247.2,726.4l-4.6-1.5c3.1-9.3,13.1-12,27-15.9l2-0.5c12.6-3.5,12.7-17.3,12.7-17.5h4.8
					c0,6.1-3.4,18.5-16.2,22.1l-2,0.5C1258,717.2,1249.5,719.5,1247.2,726.4L1247.2,726.4z"/>
				<path class="st4" d="M1319.5,702.5l-4.3-2.1c2.1-4.4,2.6-8.2,1.4-11.4c-1.8-4.5-6.5-6.5-6.5-6.5l1.8-4.5
					c0.3,0.1,6.7,2.7,9.2,9.2C1322.7,691.8,1322.2,696.9,1319.5,702.5z"/>
				<path class="st4" d="M1348.4,702.3c-0.2-0.6-5.8-15.6-29.1-11.3l-0.9-4.7c27.4-5.1,34.4,14.3,34.5,14.5L1348.4,702.3
					L1348.4,702.3z"/>
				<path class="st4" d="M1327.5,666.9c-2.6-7.5-6.6-12.6-12-15.2c-8.1-3.9-16.6-1-16.7-0.9l-1.6-4.5c0.4-0.2,10.5-3.6,20.4,1.1
					c6.6,3.2,11.5,9.2,14.5,17.9L1327.5,666.9L1327.5,666.9z"/>
				<path class="st4" d="M1224.8,720.9l-4.8-0.2c0.6-11.4,4.3-19.7,11-24.8c10.8-8.1,25.1-4.8,25.7-4.6l-1.1,4.7l0.6-2.3l-0.6,2.3
					c-0.1,0-12.8-2.9-21.7,3.8C1228.3,704,1225.3,711.1,1224.8,720.9L1224.8,720.9z"/>
				<path class="st4" d="M1210.3,703.9l-4.7-1c1-5,0.5-8.9-1.5-11.9c-2.8-4-7.7-4.8-7.8-4.8l0.7-4.8c0.3,0,6.9,1.1,11,6.8
					C1210.8,692.3,1211.6,697.5,1210.3,703.9L1210.3,703.9z"/>
				<path class="st4" d="M1206.9,693.4l-0.2-4.8c12.8-0.5,21.7-6.3,26.4-17.4c3.6-8.5,3.3-17.1,3.3-17.2l4.8-0.2
					c0,0.7,0.6,17.7-10.1,29.3C1225.2,689.5,1217.1,693,1206.9,693.4L1206.9,693.4z"/>
				<path class="st4" d="M1321.3,732.6l-4.8-0.2c0.2-5.8,2.1-10,5.6-12.4c5.6-3.9,13.1-1.6,13.4-1.5l-1.5,4.6
					c-0.1,0-5.6-1.7-9.2,0.8C1322.7,725.5,1321.5,728.4,1321.3,732.6L1321.3,732.6z"/>
				<path class="st4" d="M1276.8,741.3l-4.6-1.6c0.3-0.8,7-19.4,22.8-24.8c9.1-3.1,19.1-1.2,29.8,5.8l-2.6,4.1
					c-9.4-6.1-18.1-7.8-25.6-5.2C1283,724.1,1276.9,741.1,1276.8,741.3L1276.8,741.3z"/>
				<path class="st4" d="M1265.5,712.5c-8-37.1,20.2-46.6,20.5-46.7l1.5,4.6l-0.7-2.3l0.8,2.3c-1,0.3-24.3,8.4-17.3,41.1
					L1265.5,712.5L1265.5,712.5z"/>
				<path class="st4" d="M1270.6,640.2c-9.8,0-17.5-6.3-17.6-6.4l3.1-3.7c0.6,0.5,15.7,12.8,28.8-1.8l3.6,3.2
					C1282.6,638.1,1276.2,640.2,1270.6,640.2L1270.6,640.2z"/>
			</g>
		</g>
	</g>
	<g>
		<g>
			<polygon class="st7" points="1060.8,898 956.4,920.7 942.7,1048.7 1065.5,937 			"/>
			<polygon class="st8" points="1261.3,689.5 1268.2,696 901.9,1097.8 884.3,1081.5 			"/>
			<path class="st4" d="M546,948.7c-0.5,115.6,96,209.8,215.5,210.3c119.5,0.5,216.8-92.8,217.3-208.4s-96-209.8-215.5-210.3
				C643.8,739.7,546.5,833,546,948.7L546,948.7z"/>
			<g>
				<path class="st4" d="M677.7,934c1.2-0.1,2.3-0.4,3.4-0.9c20.8-8.3,37.2-24.2,46.1-44.8c8.9-20.6,9.2-43.4,1-64.3L696,742.9
					c-8.3-20.8-24.2-37.2-44.8-46.1c-20.6-8.9-43.4-9.2-64.3-1c-6.9,2.7-10.3,10.6-7.5,17.5c2.7,6.9,10.6,10.3,17.5,7.5
					c14.2-5.6,29.7-5.4,43.7,0.7c14,6,24.8,17.2,30.4,31.3l32.2,81.2c5.6,14.2,5.4,29.7-0.7,43.7c-6,14-17.2,24.8-31.3,30.4
					c-6.9,2.7-10.3,10.6-7.6,17.5C666,931.4,671.8,934.7,677.7,934L677.7,934z"/>
				<g>
					<path class="st6" d="M630.5,919.2c6,52,76.6,86.6,157.6,77.2s141.8-59.1,135.8-111.2c-6-52-76.6-86.6-157.6-77.2
						C685.3,817.4,624.5,867.2,630.5,919.2L630.5,919.2z"/>
					<g>
						<path class="st9" d="M874.1,889.5c0.5,4.1,4.2,7.1,8.3,6.6c4.1-0.5,7.1-4.2,6.6-8.3c-0.5-4.1-4.2-7.1-8.3-6.6
							C876.6,881.6,873.6,885.4,874.1,889.5z"/>
						<path class="st9" d="M826.2,897.2c0.5,4.1,4.2,7.1,8.3,6.6c4.1-0.5,7.1-4.2,6.6-8.3c-0.5-4.1-4.2-7.1-8.3-6.6
							C828.6,889.3,825.7,893,826.2,897.2z"/>
						<path class="st9" d="M838.1,878.8c0.5,4.1,4.2,7.1,8.3,6.6c4.1-0.5,7.1-4.2,6.6-8.3c-0.5-4.1-4.2-7.1-8.3-6.6
							C840.6,871,837.7,874.7,838.1,878.8L838.1,878.8z"/>
						<path class="st9" d="M856.9,875.6c0.5,4.1,4.2,7.1,8.3,6.6c4.1-0.5,7.1-4.2,6.6-8.3c-0.5-4.1-4.2-7.1-8.3-6.6
							C859.4,867.8,856.5,871.5,856.9,875.6L856.9,875.6z"/>
					</g>
					<g>
						<path class="st9" d="M728.3,906.3c0.5,4.1,4.2,7.1,8.3,6.6c4.1-0.5,7.1-4.2,6.6-8.3c-0.5-4.1-4.2-7.1-8.3-6.6
							C730.8,898.5,727.9,902.2,728.3,906.3L728.3,906.3z"/>
						<path class="st9" d="M680.4,914c0.5,4.1,4.2,7.1,8.3,6.6c4.1-0.5,7.1-4.2,6.6-8.3c-0.5-4.1-4.2-7.1-8.3-6.6
							C682.9,906.2,679.9,909.9,680.4,914L680.4,914z"/>
						<path class="st9" d="M692.4,895.7c0.5,4.1,4.2,7.1,8.3,6.6c4.1-0.5,7.1-4.2,6.6-8.3c-0.5-4.1-4.2-7.1-8.3-6.6
							C694.9,887.8,691.9,891.5,692.4,895.7L692.4,895.7z"/>
						<path class="st9" d="M711.2,892.5c0.5,4.1,4.2,7.1,8.3,6.6c4.1-0.5,7.1-4.2,6.6-8.3c-0.5-4.1-4.2-7.1-8.3-6.6
							C713.7,884.6,710.7,888.4,711.2,892.5L711.2,892.5z"/>
					</g>
				</g>
			</g>
		</g>
		<g>
			<path class="st3" d="M607.9,879.4l2.9,22c0,0,8.2,2.2,9.3,6c1.2,3.8,8.2,47.6,21.3,57.7c13.2,10.1,49.2,24.5,87.5,5
				c38.2-19.5,41.1-53.4,41.1-63.2s2-19.3,11-21.2l6.8-0.9c9.2-0.5,13.5,8.1,16.1,17.6c2.5,9.5,14,41.6,55.9,50.6
				c42,9,73.2-14.1,83.3-27.3c10.1-13.2,5.7-57.3,5.8-61.3c0.1-4,7.5-8.2,7.5-8.2l-2.9-22c0,0-39.6-0.8-55.9,0
				c-16.3,0.8-53.8,6.3-74.3,14.9c-20.6,8.6-38.5,12.2-38.5,12.2s-2.4,0.7-6.8,0.9c0,0-18.2,1.1-40.3-2c-22.1-3-59.7,1.2-75.7,4.6
				C646,868.5,607.9,879.4,607.9,879.4L607.9,879.4z M816.3,872.8c3.1-6.3,25.3-23,52.7-26.1c27.4-3.1,43.6-2.1,52.5,4
				c16.8,11.6,15.7,59.6,9.2,70.3s-44.4,34.4-85.9,14.6C803.2,916,813.2,879.1,816.3,872.8L816.3,872.8z M643.1,887
				c7.2-8,22.4-13.3,49.7-17.3s53,6.4,57.6,11.7c4.6,5.3,23.7,38.3-11.4,68.1c-35.1,29.7-77.8,16.5-86.8,7.8
				C643.3,948.6,629.7,902,643.1,887L643.1,887z"/>
			<path class="st10" d="M937.7,847.8c0.4,2.8,2.9,4.8,5.7,4.4c2.8-0.4,4.8-2.9,4.4-5.7c-0.4-2.8-2.9-4.8-5.7-4.4
				C939.3,842.4,937.3,845,937.7,847.8L937.7,847.8z"/>
			<path class="st10" d="M615.6,889.7c0.4,2.8,2.9,4.8,5.7,4.4c2.8-0.4,4.8-2.9,4.4-5.7c-0.4-2.8-2.9-4.8-5.7-4.4
				C617.2,884.4,615.2,886.9,615.6,889.7L615.6,889.7z"/>
		</g>
		<path class="st11" d="M612.4,1068.7c-10.1,28.9-65,152-89.1,143.5c-24.2-8.5,10-138.9,20.1-167.7s33.8-46.8,52.8-40.1
			C615.3,1011,622.6,1039.8,612.4,1068.7L612.4,1068.7z"/>
		<path class="st7" d="M1092.5,937.6c-11.3,16.1-28,23.9-37.4,17.3s-7.8-25,3.5-41.1c11.3-16.1,28.1-23.9,37.4-17.3
			C1105.4,903.1,1103.8,921.5,1092.5,937.6L1092.5,937.6z"/>
	</g>
</g>
<path class="st12" d="M1519.1,1507c0,25.4-382.4,46-669.1,46s-369.1-20.6-369.1-46s82.4-46,369.1-46S1519.1,1481.6,1519.1,1507z"/>
</svg>
