<?xml version="1.0" encoding="utf-8"?>
<!-- Generator: Adobe Illustrator 27.3.1, SVG Export Plug-In . SVG Version: 6.00 Build 0)  -->
<svg version="1.1" id="Layer_1" xmlns="http://www.w3.org/2000/svg" xmlns:xlink="http://www.w3.org/1999/xlink" x="0px" y="0px"
	 viewBox="0 0 2400 1700" style="enable-background:new 0 0 2400 1700;" xml:space="preserve">
<style type="text/css">
	.st0{fill:#5BB8DE;}
	.st1{fill:#2A3756;}
	.st2{opacity:0.3;fill:#293657;}
	.st3{fill:#FFFFFF;}
	.st4{fill:#7D8EED;}
	.st5{fill:#EBECED;}
	.st6{fill:#CECECE;}
	.st7{fill:#DBDCDD;}
	.st8{fill:#E2857E;}
	.st9{fill:#FAF932;}
	.st10{fill:#E1E1E1;}
	.st11{fill:#293657;}
	.st12{fill:#EAEBEC;}
	.st13{fill:#5078F1;}
	.st14{opacity:0.6;fill:#FFFFFF;enable-background:new    ;}
	.st15{fill:#242F47;}
</style>
<rect class="st0" width="2400" height="1700"/>
<g>
	<g>
		<g>
			<g>
				<path class="st1" d="M1755.3,713.2c0,0,36.8,14.8,53.3,19.5c16.5,4.8,88,26.6,88,26.6s-62-34.4-80.9-39.4
					c-18.9-5-55.6-12.5-55.6-12.5L1755.3,713.2L1755.3,713.2z"/>
				<path class="st1" d="M1766.2,694.3c0,0,48.9,11.7,62,12.9c13.1,1.2,88.6,15.6,88.6,15.6s-47.5-27.1-81.3-33
					c-33.8-5.8-66.1-4.2-66.1-4.2S1762.4,692.6,1766.2,694.3L1766.2,694.3z"/>
				<path class="st1" d="M1777.6,675.5c0,0,51.6,3.6,64.9,5.4c13.4,1.8,105.1,9.3,105.1,9.3s-70.1-23.1-97-25.1s-70.3,3.3-70.3,3.3
					L1777.6,675.5L1777.6,675.5z"/>
				<path class="st1" d="M1788.5,656.5c0,0,50.8-3.2,63-1.5c12.2,1.6,86.3-6.5,86.3-6.5s-71.8-9.9-82.5-10c-10.7-0.1-62.5,8-62.5,8
					L1788.5,656.5L1788.5,656.5z"/>
				<path class="st1" d="M1806.8,631.3c0,0,34.8,4,51.4,3.2s84.1-0.7,84.1-0.7s-56.2-11.8-80.6-13.6c-24.5-1.8-49.6,3.8-49.6,3.8
					L1806.8,631.3z"/>
				<path class="st1" d="M1820.4,612.1c0,0,54.1,2.3,67,2.8c12.8,0.4,86.8,6,86.8,6s-56.1-18-83-19.5c-26.9-1.5-67.1,4.9-67.1,4.9
					L1820.4,612.1L1820.4,612.1z"/>
				<path class="st1" d="M1840.5,590.9c0,0,41.5,7.4,53.5,6.6c11.9-0.8,78.3-1.4,78.3-1.4s-45.4-13.3-66.6-14.1
					c-21.1-0.8-60.9,3.4-60.9,3.4L1840.5,590.9L1840.5,590.9z"/>
				<path class="st1" d="M1860.6,572.8c0,0,39.4,4,51.3,4.8c11.9,0.7,70.4-2.4,70.4-2.4s-43-12-61.4-12.2c-18.4-0.2-56,2.8-56,2.8
					S1856.9,570.9,1860.6,572.8L1860.6,572.8z"/>
				<path class="st1" d="M1877.6,554.5c0,0,45.8,5,53.2,5.7c7.3,0.7,61.5,0,61.5,0s-39-12.3-56.2-11.9c-17.1,0.5-53.1,1.6-53.1,1.6
					L1877.6,554.5z"/>
				<path class="st1" d="M1890.1,542.1c0,0,43.6,5,58.9,0.6s49.7-9.9,49.7-9.9s-39.4-5.6-51.1-2.3c-11.7,3.2-50.1,7-50.1,7
					L1890.1,542.1L1890.1,542.1z"/>
				<path class="st1" d="M1906.5,531c0,0,60.4-9.8,66.8-10.4c6.4-0.5,53.7-13.2,53.7-13.2s-41.3,1.1-59.1,1.3
					c-17.7,0.1-55.8,18.3-55.8,18.3L1906.5,531z"/>
				<path class="st1" d="M1782.4,649.5c75.8-102,134.7-125.1,134.7-125.1s-104.6,79-148.9,170c-4.2,8.6-20.2,45.8-24.7,57.4
					l2.7-38.8C1756.2,690.6,1769.3,667.2,1782.4,649.5L1782.4,649.5z"/>
			</g>
			<g>
				<path class="st1" d="M1714.9,831.5c8.1-71.1,44.9-276.8,203.4-391.7c-7.2,21-134,66.8-188,378.7L1714.9,831.5z"/>
				<path class="st1" d="M1675.9,524.3c0,0,40.3,60.5,48,74.8c7.7,14.3,33,71.7,33,71.7l-3.9,6.6c0,0-35.7-42.9-43.6-66.8
					C1701.6,586.6,1675.9,524.3,1675.9,524.3L1675.9,524.3z"/>
				<path class="st1" d="M1698.9,491.2c0,0,34,63.8,38.5,78.2c4.5,14.4,27.8,73.5,27.8,73.5l-2.3,8.6c0,0-31-50.5-38.6-67.2
					C1716.7,567.7,1698.9,491.2,1698.9,491.2L1698.9,491.2z"/>
				<path class="st1" d="M1726.7,477.6c0,0,24.7,56.1,28.4,68.3c3.7,12.2,18.3,79.1,18.3,79.1l-3.1,6.5c0,0-21.1-56.7-27-71.3
					C1737.3,545.6,1726.7,477.6,1726.7,477.6L1726.7,477.6z"/>
				<path class="st1" d="M1744.8,456.9c0,0,22.2,60.6,25.2,71.6c3.1,11,16.2,68.9,16.2,68.9l-2.1,4c0,0-22.3-49.6-26.1-62.7
					C1754.1,525.5,1744.8,456.9,1744.8,456.9L1744.8,456.9z"/>
				<path class="st1" d="M1768.1,449.5c0,0,15.2,50.7,18.4,62.6c3.2,11.9,11.9,61.8,11.9,61.8l-3.1,6.5c0,0-16.7-43.2-20.2-56.8
					C1771.6,509.9,1768.1,449.5,1768.1,449.5L1768.1,449.5z"/>
				<path class="st1" d="M1791.8,418.6c0,0,8.3,56,11.4,70.1c3.1,14.2,11.4,58.2,11.4,58.2l-3,9.7c0,0-18.5-54.8-22.1-66.1
					S1781.8,432.6,1791.8,418.6L1791.8,418.6z"/>
				<path class="st1" d="M1810.1,405.1c0,0,11.4,52.7,12.7,60.8s6.9,61.2,6.9,61.2l-6.6,10.2c0,0-8.4-45-11.3-55
					C1808.8,472.3,1805.1,413.3,1810.1,405.1L1810.1,405.1z"/>
				<path class="st1" d="M1841,393.8c0,0,2.9,44.9,3.4,54c0.5,9.1-3.9,65.2-3.9,65.2l-2.5,4.5c0,0-6.9-52.5-8.1-66.1
					C1828.9,437.9,1835.8,401,1841,393.8L1841,393.8z"/>
				<path class="st1" d="M1873.3,385.8c0,0-3.2,45.9-5.2,54s-11.8,57.8-11.8,57.8l-6,5.1c0,0,0.1-45.9,2.2-58.6
					C1854.6,431.5,1865.9,396.2,1873.3,385.8z"/>
				<path class="st1" d="M1904.1,376.8c0,0-11.1,44.9-14.8,53.3c-3.7,8.4-16.2,47.5-16.2,47.5l-5.9,6c0,0,4.8-36.1,7.1-50.2
					C1876.7,419.2,1900,379.3,1904.1,376.8L1904.1,376.8z"/>
				<path class="st1" d="M1914.5,444.1c0,0,30.1-30.2,46.4-36.5c16.2-6.3,51.2-13.3,51.2-13.3S1923.7,433.4,1914.5,444.1z"/>
				<path class="st1" d="M1935.4,368.1c0,0-15.8,35.1-19.6,42.6c-3.8,7.5-26,51.4-26,51.4l-7.6,6.3c0,0,7.5-33.3,15.7-50.2
					C1906.1,401.2,1923.2,374.1,1935.4,368.1L1935.4,368.1z"/>
				<path class="st1" d="M1967.6,368c0,0-19.9,26.6-26.1,36.3c-6.2,9.7-26.8,37.3-26.8,37.3l-5.7,6.9c0,0,9.2-31.3,19.1-46.1
					C1938,387.4,1958.7,369.4,1967.6,368L1967.6,368z"/>
			</g>
			<g>
				<path class="st1" d="M1708.9,691.5c0,0-54.2-6.2-68.4-7.9c-14.2-1.7-78-10.5-78-10.5s60.5-4,76.7-1.7
					c16.2,2.3,65.7,11.8,65.7,11.8L1708.9,691.5L1708.9,691.5z"/>
				<path class="st1" d="M1699.7,671.7c0,0-48.2-3.3-59-5.5c-10.8-2.1-85.7-14.7-85.7-14.7s55.5-4.2,83.9-0.9s60.2,13.5,60.2,13.5
					S1703.1,671.2,1699.7,671.7L1699.7,671.7z"/>
				<path class="st1" d="M1694.5,654.7c0,0-42.5-8.1-53.6-9.5c-11.2-1.4-86.9-14.9-86.9-14.9s61.6-3.7,83.7,0.4s56.1,17.7,56.1,17.7
					L1694.5,654.7L1694.5,654.7z"/>
				<path class="st1" d="M1688.7,637.4c0,0-41.3-10.2-51.6-10.7c-10.3-0.5-70-18.2-70-18.2s60.5,2.6,69.3,4.1
					c8.8,1.5,50.2,15.9,50.2,15.9L1688.7,637.4L1688.7,637.4z"/>
				<path class="st1" d="M1677.4,613.9c0,0-29.2-1.9-42.7-5s-69.1-13.2-69.1-13.2s48-1.4,68.3,0.8s40.2,10.5,40.2,10.5L1677.4,613.9
					L1677.4,613.9z"/>
				<path class="st1" d="M1669,596.1c0,0-44.9-6.1-55.5-7.7c-10.6-1.6-72.3-8-72.3-8s48.8-6.4,71.2-3.6c22.3,2.8,54.4,14,54.4,14
					L1669,596.1z"/>
				<path class="st1" d="M1655.7,575.7c0,0-35.3-0.1-45-2.5c-9.7-2.4-64.2-12.8-64.2-12.8s39.4-4.1,56.8-1.7
					c17.5,2.5,49.6,11.9,49.6,11.9L1655.7,575.7L1655.7,575.7z"/>
				<path class="st1" d="M1641.9,557.7c0,0-33-2.5-42.9-3.7c-9.9-1.2-57.5-12.5-57.5-12.5s37.2-3.5,52.3-0.9
					c15.1,2.6,45.6,10.7,45.6,10.7S1645.2,556.7,1641.9,557.7L1641.9,557.7z"/>
				<path class="st1" d="M1630.6,540.2c0,0-38.4-2.7-44.6-3.2c-6.1-0.5-50.6-9.2-50.6-9.2s33.9-4.3,48-1.4c14,2.9,43.4,9.3,43.4,9.3
					L1630.6,540.2L1630.6,540.2z"/>
				<path class="st1" d="M1622.2,528.2c0,0-36.6-2.4-48.5-8.3s-39.4-15.6-39.4-15.6s33.2,1.3,42.3,5.7c9.1,4.4,40.2,13.2,40.2,13.2
					L1622.2,528.2z"/>
				<path class="st1" d="M1610.3,516.5c0,0-48.2-17.1-53.4-18.5c-5.2-1.4-42.2-18.9-42.2-18.9s33.8,7.1,48.4,9.9
					c14.6,2.8,43.2,23.4,43.2,23.4L1610.3,516.5L1610.3,516.5z"/>
				<path class="st1" d="M1694.7,632.6c-47.1-95.2-92.2-123-92.2-123s74.2,80.6,97.1,162.1c1.2,4.1,20.8,71.1,30.1,103.8
					c2.7,9.3,10.2-13.9,7.3-23.1C1725.1,715.4,1700.8,644.9,1694.7,632.6L1694.7,632.6z"/>
				<path class="st1" d="M1652.7,717.5c-18.3,0.7-48.2,17.1-48.2,17.1s37.3-3.8,52.3-4.7c0.7,0,61-10.7,61.8-10.8l-0.6-4.1
					C1709.9,715,1658.1,717.3,1652.7,717.5L1652.7,717.5z"/>
				<path class="st1" d="M1645.3,694.2c-18.8,0.5-67.3,10.9-67.3,10.9s51.8,3,63.6,3.4c5.2,0.2,59.1-2.2,73.2-1.8l-3.8-6.3
					C1695.9,698,1655.7,693.9,1645.3,694.2L1645.3,694.2z"/>
			</g>
		</g>
		<g id="plant">
			<rect x="1654" y="775.3" class="st1" width="157.4" height="27.5"/>
			<path class="st1" d="M1667.8,832.4c0,35.9,29.1,64.9,64.9,64.9l0,0c35.9,0,64.9-29.1,64.9-64.9v-43.3h-129.8L1667.8,832.4
				L1667.8,832.4z"/>
		</g>
	</g>
	<path class="st2" d="M1960.6,1433.7c0,13-234.5,23.6-523.8,23.6S373,1446.7,373,1433.7s774.5-23.6,1063.8-23.6
		S1960.6,1420.6,1960.6,1433.7L1960.6,1433.7z"/>
	<g id="chair">
		<rect x="1140.6" y="1139.1" class="st3" width="17.7" height="233.2"/>
		<polygon class="st3" points="1147.9,1372.2 1147.9,1355.1 1012.7,1392.7 1017.8,1398.6 		"/>
		<polygon class="st3" points="1151.1,1372.2 1151.1,1355.1 1286.3,1392.7 1280,1398.6 		"/>
		<polygon class="st4" points="1052.7,1139.1 948.5,770.4 923.7,775.9 1014.8,1159.3 		"/>
		<rect x="1014.8" y="1118.8" class="st4" width="306.2" height="40.5"/>
		<polygon class="st1" points="1162.9,1221.2 1135,1221.2 1130,1159.3 1167.8,1159.3 		"/>
		<path class="st1" d="M1035.2,1409.1c0,9.6-7.8,17.4-17.4,17.4s-17.4-7.8-17.4-17.4s7.8-17.4,17.4-17.4
			C1027.5,1391.7,1035.2,1399.5,1035.2,1409.1z"/>
		<path class="st1" d="M1297.4,1409.1c0,9.6-7.8,17.4-17.4,17.4s-17.4-7.8-17.4-17.4s7.8-17.4,17.4-17.4
			S1297.4,1399.5,1297.4,1409.1z"/>
	</g>
	<g>
		<path class="st5" d="M1712,895.8h-114.6l19.3-12h90.1l-23.7-168.6l9-1.2l24.4,176.7c0.2,1.3-0.2,2.6-1.1,3.6
			S1713.3,895.9,1712,895.8L1712,895.8z"/>
		
			<rect x="1513.7" y="711.5" transform="matrix(0.3074 -0.9516 0.9516 0.3074 463.7564 2079.1243)" class="st5" width="292.7" height="19"/>
		<polygon class="st6" points="1692.1,714 1683.1,715.3 1694.8,798.8 1701.5,781.8 		"/>
		<path class="st7" d="M1692.7,731.5c19.3-59.7,27.3-117.3,21.4-146.9l-90,278.6C1646.2,842.6,1673.4,791.2,1692.7,731.5z"/>
	</g>
</g>
<g id="_02_Sitting">
	<path class="st8" d="M1398.8,848.3c0,0,7.9,0.9,9.6,1.1c1.7,0.2,45.9-5.8,48.4-5.6c2.5,0.2,26.3,6.2,28,7.6s19.5,23.1,19.5,23.1
		s0,4.9-4.9,3.6c-4.9-1.3-3.2,1.5-5.3,1.9c-2.1,0.4-20.4-11-20.4-11l-13.4-3l-3.6,2.8l25.7,14.5c0,0,1.1,3.2-2.1,3.8
		s-30.1-10.8-30.1-10.8s-20,1.1-24.5,1.1s-16.5-3.6-16.5-3.6l-12.7,3L1398.8,848.3L1398.8,848.3z"/>
	<g id="head">
		<path class="st8" d="M1150,494c24-6.1,57.1-1.2,63.9,39c4.8,28.2,10.5,77-7.2,83.2c-7.9,2.8-38,0-38,0l6.3,33.5h-55.2l9.1-48
			C1128.9,601.7,1071,513.9,1150,494L1150,494z"/>
		<path class="st1" d="M1196.4,499.2l-36.2,53.3c-6.4-12-16.1-8.9-21.2,0.9c-6.3,12,7.9,22.2,6.6,26.2c-1.3,4-13.4,21.6-16.6,22
			c-3.1,0.4-63.1-26.8-35.5-95.5C1106.1,474.6,1160.7,463.5,1196.4,499.2L1196.4,499.2z"/>
		<path class="st1" d="M1157.3,446c4.4,19-4.7,33.7-22,37.7c-17.3,4-28.1-6.6-32.5-25.6s1.4-35.4,18.7-39.5
			C1138.8,414.6,1152.9,427,1157.3,446L1157.3,446z"/>
	</g>
	<path class="st5" d="M1337.8,1105c10.8,20.2,15,7,44.4,80.8c16.1,40.4,50.4,88,69.3,114.6l36-13.4
		c-24.1-63.9-79.9-216.1-94.6-240.6c-20.2-33.8-196.3-10.2-196.3-10.2s-65.7-42.6-110.8-12.4C1073.1,1032.1,1327,1084.8,1337.8,1105
		L1337.8,1105z"/>
	<g id="leg">
		<path class="st3" d="M1053.2,1073.9c5.2,85.3,233.1,25.5,240.6,47.2c7.4,21.6,2.8,31.8,15.5,98.9c7.4,39,29.1,94.9,43.5,124.2
			l35.5-7.1c-13.5-67-30.1-227.5-35.9-254.6c-8.2-38.6-181.7-53.5-181.7-53.5s-56.9-53.5-106.3-31
			C1050.4,1004.4,1052.4,1061,1053.2,1073.9z"/>
		<g>
			<polygon class="st8" points="1493.4,1304.4 1485.9,1287.6 1451.5,1300.4 1461.1,1318.8 1476,1352.4 1504.2,1357.3 1507.5,1330.6 
							"/>
			<polygon class="st8" points="1388.2,1337.2 1352.7,1344.2 1354.2,1355.2 1359.2,1392.9 1385.5,1404.3 1397,1381.2 1391.2,1352.6 
							"/>
		</g>
	</g>
	<g id="fem">
		<path class="st3" d="M1470.6,1343.7c-2,1.6,8.6,43.3,13.1,43.8c4.4,0.5,105.2-40.2,108.6-48.3c1.8-4.3-7.1-16.1-9.4-15.8
			c-43.2,5.5-79.9-2.9-79.9-2.9s-8.4,7.7-5,12.5l2.1,1.7c0,0-3.8,8.5-10.1,10.4S1475.6,1339.8,1470.6,1343.7z"/>
		<path class="st3" d="M1357.3,1384.7c-2.4,0.6-9.2,43.2-5.4,45.4c3.9,2.2,112.5,4.7,118.8-1.4c3.3-3.2-0.1-17.6-2.4-18.2
			c-41.9-12-72.2-34.3-72.2-34.3s-10.8,3.8-9.6,9.5l1.3,2.4c0,0-6.8,6.3-13.4,5.6C1368.1,1393,1363.4,1383.1,1357.3,1384.7
			L1357.3,1384.7z"/>
	</g>
	<g id="hoodie">
		<path class="st9" d="M1184.6,636.9l-170.4-41.8c0,0-34.6,108,51.2,113C1151.1,713.1,1184.6,636.9,1184.6,636.9z"/>
		<path class="st9" d="M1138,631.5c-24.5,1.5-48.6,7.4-64.4,53.7c-22.5,63.7-32.1,174.8-32.7,385.6l198.9-40.4
			c-20.6-108-17.5-358.9-55.3-393.5C1168.9,630.2,1158.9,630.1,1138,631.5L1138,631.5z"/>
	</g>
	<g id="table">
		<g id="hand">
			<path class="st9" d="M1207.1,707.2l46,140.8l153.3-1.5l-2.8,35.4c0,0-89,30.7-167,30.6c-48.9-0.1-92.5-13.4-110.2-20.1
				C1116.5,885.9,1195.9,689.5,1207.1,707.2L1207.1,707.2z"/>
		</g>
		<g>
			<polygon class="st1" points="1825.9,1433.7 1808.8,1433.7 1728.9,906.6 1762,906.6 			"/>
			<polygon class="st1" points="1341.8,1433.7 1358.9,1433.7 1438.8,906.6 1405.8,906.6 			"/>
		</g>
		<g>
			<rect x="1330.3" y="895.8" class="st1" width="507" height="21.4"/>
			<g id="laptop">
				<polygon class="st5" points="1530.8,895.8 1389.1,895.8 1389.1,889 1526.7,885.6 				"/>
			</g>
		</g>
	</g>
</g>
<g>
	<g>
		<path class="st10" d="M827.6,679.9c0,0-32.6,24.3-61.5-11.7c-22.2-27.7-15.7,74.9-15.7,74.9s21.9,11.2,66.1-16.8
			C855.1,701.9,827.6,679.9,827.6,679.9L827.6,679.9z"/>
		<g>
			<path class="st3" d="M524.4,680.3c0,72,60.3,130.3,134.7,130.3s134.7-58.3,134.7-130.3S733.6,550,659.2,550
				S524.4,608.4,524.4,680.3z"/>
			<g>
				<path class="st3" d="M606.4,670.9c0.7-0.1,1.4-0.3,2.1-0.5c13-5.2,23.1-15.2,28.6-28c5.5-12.8,5.6-27.1,0.4-40l-20.3-50.4
					c-5.2-13-15.2-23.1-28-28.6c-12.8-5.5-27.1-5.6-40-0.4c-4.3,1.7-6.4,6.6-4.7,10.9c1.7,4.3,6.6,6.4,10.9,4.7
					c8.8-3.5,18.5-3.4,27.2,0.3c8.7,3.7,15.5,10.6,19,19.4l20.3,50.4c3.5,8.8,3.4,18.5-0.3,27.2c-3.7,8.7-10.6,15.5-19.4,19
					c-4.3,1.7-6.4,6.6-4.7,10.9C599.1,669.2,602.8,671.3,606.4,670.9L606.4,670.9z"/>
				<path class="st11" d="M577,661.8c3.9,32.4,47.9,53.7,98.3,47.6c50.4-6.1,88.1-37.2,84.2-69.6c-3.9-32.4-47.9-53.7-98.3-47.6
					C610.8,598.3,573.1,629.4,577,661.8z"/>
			</g>
			<path class="st12" d="M521.1,734.9c-8.9,17.5-41.8,97.3-27.2,104.8c14.6,7.5,60-66,68.9-83.5s6.8-36.4-4.7-42.3
				C546.6,708,530,717.4,521.1,734.9L521.1,734.9z"/>
		</g>
		<g>
			<path class="st13" d="M647,656.7c0-2.5-2-4.5-4.5-4.5c-2.5,0-4.5,2-4.5,4.5c0,2.5,2,4.5,4.5,4.5
				C644.9,661.1,646.9,659.1,647,656.7L647,656.7z"/>
			<path class="st13" d="M635.9,655.1c0-2.5-2-4.5-4.5-4.5c-2.5,0-4.5,2-4.5,4.5c0,2.5,2,4.5,4.5,4.5
				C633.9,659.6,635.9,657.6,635.9,655.1L635.9,655.1z"/>
			<path class="st13" d="M624.9,653.6c0-2.5-2-4.5-4.5-4.5c-2.5,0-4.5,2-4.5,4.5c0,2.5,2,4.5,4.5,4.5
				C622.8,658,624.9,656,624.9,653.6L624.9,653.6z"/>
			<path class="st13" d="M634.4,665.9c0-2.5-2-4.5-4.5-4.5c-2.5,0-4.5,2-4.5,4.5c0,2.5,2,4.5,4.5,4.5
				C632.4,670.4,634.4,668.4,634.4,665.9L634.4,665.9z"/>
			<path class="st13" d="M623.4,664.3c0-2.5-2-4.5-4.5-4.5c-2.5,0-4.5,2-4.5,4.5c0,2.5,2,4.5,4.5,4.5
				C621.3,668.8,623.3,666.8,623.4,664.3L623.4,664.3z"/>
			<path class="st13" d="M613.8,652c0-2.5-2-4.5-4.5-4.5c-2.5,0-4.5,2-4.5,4.5c0,2.5,2,4.5,4.5,4.5
				C611.8,656.5,613.8,654.5,613.8,652L613.8,652z"/>
		</g>
		<g>
			<path class="st13" d="M691.1,648.2c-0.7-2.4,0.6-4.9,3-5.6s4.9,0.6,5.6,3c0.7,2.4-0.6,4.9-3,5.6S691.8,650.6,691.1,648.2z"/>
			<path class="st13" d="M701.3,643.6c-0.7-2.4,0.6-4.9,3-5.6s4.9,0.6,5.6,3s-0.6,4.9-3,5.6S702,646,701.3,643.6z"/>
			<path class="st13" d="M711.5,639c-0.7-2.4,0.6-4.9,3-5.6s4.9,0.6,5.6,3c0.7,2.4-0.6,4.9-3,5.6S712.2,641.4,711.5,639z"/>
			<path class="st13" d="M705.8,653.6c-0.7-2.4,0.6-4.9,3-5.6s4.9,0.6,5.6,3s-0.6,4.9-3,5.6C709,657.3,706.5,655.9,705.8,653.6z"/>
			<path class="st13" d="M715.9,649c-0.7-2.4,0.6-4.9,3-5.6s4.9,0.6,5.6,3s-0.6,4.9-3,5.6S716.6,651.3,715.9,649z"/>
			<path class="st13" d="M721.6,634.5c-0.7-2.4,0.6-4.9,3-5.6s4.9,0.6,5.6,3c0.7,2.4-0.6,4.9-3,5.6S722.4,636.8,721.6,634.5z"/>
		</g>
	</g>
	<path class="st10" d="M867.6,697.6c-2.3,9.4-13.9,15.3-20.6,13.6s-5.8-10.1-3.4-19.5c2.3-9.4,9.6-15.8,16.2-14.1
		S869.9,688.2,867.6,697.6L867.6,697.6z"/>
	<g id="_03_Standing">
		<g>
			<path class="st10" d="M852.8,690.6l-7.8-18.4c0,0-37.9,15.9-51.7,14.6c-1.8,1.2-2.3,36-2.3,36l60.4-37.2L852.8,690.6L852.8,690.6
				z"/>
			<g>
				<path class="st1" d="M823.9,794.2l27.5-122.5l16.8,1l-27.6,122.5c-1.1,4.8-4.1,7.8-7.1,7.7l-16.8-1
					C819.8,802,822.8,799,823.9,794.2L823.9,794.2z"/>
				<path class="st14" d="M868.2,565c-16.2-7.5-34,7.2-39.7,32.7c-5.8,25.6,2.7,52.3,18.9,59.7c16.2,7.5,34-7.2,39.7-32.8
					C892.9,599.2,884.4,572.5,868.2,565L868.2,565z"/>
				<path class="st15" d="M820.9,594.3c-6.5,28.7,1.3,58.6,17.6,71.4l-27.5,122.5c-1.3,5.7,0.6,11.5,4.2,13.2
					c3.6,1.7,7.5-1.6,8.8-7.2l27.5-122.5c18.4,3.1,36.9-14.7,43.4-43.4c7.2-32.2-3.4-65.9-23.8-75.3
					C850.5,543.6,828.1,562.1,820.9,594.3L820.9,594.3z M828.5,597.8c5.7-25.5,23.5-40.2,39.7-32.7c16.2,7.5,24.7,34.2,18.9,59.7
					c-5.8,25.5-23.5,40.2-39.7,32.8C831.3,650.1,822.8,623.4,828.5,597.8L828.5,597.8z"/>
				<path class="st1" d="M878.5,551.7c3.1,0.2,6.2,1,9.3,2.4c20.4,9.4,31.1,43.1,23.8,75.3c-6.2,27.3-23.2,44.8-40.7,43.7L854,672
					c17.5,1.1,34.6-16.3,40.7-43.7c7.2-32.2-3.4-65.9-23.8-75.3c-3.1-1.4-6.2-2.2-9.3-2.4L878.5,551.7L878.5,551.7z"/>
			</g>
			<path class="st10" d="M802,699.1c0,0,18.8-3.9,23.3-4.7c4.6-0.9,25.8-17.8,29.8-12.8c3.9,5-0.2,13.1-17.7,25
				c-17.5,11.9-22,24.9-35.2,24.5C789,730.6,802,699.1,802,699.1L802,699.1z"/>
		</g>
	</g>
</g>
</svg>
