<?xml version="1.0" encoding="utf-8"?>
<!-- Generator: Adobe Illustrator 27.3.1, SVG Export Plug-In . SVG Version: 6.00 Build 0)  -->
<svg version="1.1" id="Layer_1" xmlns="http://www.w3.org/2000/svg" xmlns:xlink="http://www.w3.org/1999/xlink" x="0px" y="0px"
	 viewBox="0 0 2400 1700" style="enable-background:new 0 0 2400 1700;" xml:space="preserve">
<style type="text/css">
	.st0{fill:#56B7E0;}
	.st1{fill:#FFFFFF;}
	.st2{fill:#151C28;}
	.st3{fill:#527BEF;}
	.st4{fill:#DBD2D2;}
	.st5{fill:#F4F2F2;}
	.st6{fill:#7D8EED;}
	.st7{opacity:0.3;fill:#293657;}
</style>
<rect class="st0" width="2400" height="1700"/>
<g>
	<path class="st1" d="M1574.7,686.4c31.6,209.9-114.4,406-326.1,437.9c-211.7,31.9-409-112.5-440.6-322.4s114.4-406,326.1-437.8
		C1345.8,332.2,1543.1,476.5,1574.7,686.4L1574.7,686.4z"/>
	<g>
		<path class="st1" d="M1337.2,693.9c-2.1,0.1-4.2-0.2-6.3-0.7c-39.2-9.6-72.4-34.3-93.6-69.4c-21.2-35.1-27.9-76.5-18.8-116.5
			l35.6-155.8c9.1-40,33-73.9,67.1-95.4c34.2-21.5,74.5-28,113.7-18.4c13,3.2,21.1,16.6,18,29.8c-3,13.3-16,21.4-29,18.2
			c-26.6-6.6-54-2.1-77.2,12.5c-23.2,14.6-39.4,37.6-45.6,64.8l-35.6,155.8c-6.2,27.2-1.7,55.3,12.8,79.2
			c14.4,23.8,37,40.6,63.6,47.1c13,3.2,21.1,16.5,18,29.8C1357.4,686.1,1347.9,693.6,1337.2,693.9L1337.2,693.9z"/>
		<g>
			<path class="st2" d="M1375.6,636.2c3.1,96.1-112.7,177.1-258.8,181c-146.1,3.9-267-70.7-270.2-166.8
				c-3.2-96,112.7-177.1,258.8-181C1251.5,465.4,1372.4,540.1,1375.6,636.2L1375.6,636.2z"/>
			<g>
				<path class="st3" d="M936,645.2c0.2,7.6-5.6,13.9-13,14.2c-7.4,0.2-13.7-5.8-13.9-13.4c-0.2-7.6,5.6-14,13-14.2
					C929.5,631.6,935.7,637.6,936,645.2z"/>
				<path class="st3" d="M1023,646.8c0.3,7.6-5.6,13.9-13,14.1s-13.7-5.8-13.9-13.4c-0.3-7.6,5.6-14,13-14.2
					C1016.5,633.1,1022.7,639.1,1023,646.8L1023,646.8z"/>
				<path class="st3" d="M996.9,616.5c0.2,7.6-5.6,14-13,14.2c-7.4,0.2-13.7-5.8-13.9-13.4c-0.2-7.6,5.6-14,13-14.2
					C990.4,602.9,996.6,608.9,996.9,616.5L996.9,616.5z"/>
				<path class="st3" d="M962.7,615.6c0.2,7.6-5.6,14-13,14.2c-7.5,0.2-13.7-5.8-13.9-13.4c-0.2-7.6,5.6-13.9,13-14.1
					C956.2,602,962.5,608,962.7,615.6L962.7,615.6z"/>
			</g>
			<g>
				<path class="st3" d="M1198.8,638.2c0.3,7.6-5.6,13.9-13,14.2c-7.4,0.2-13.7-5.8-13.9-13.4c-0.2-7.6,5.6-14,13-14.2
					S1198.5,630.5,1198.8,638.2z"/>
				<path class="st3" d="M1285.8,639.7c0.2,7.6-5.6,14-13,14.2c-7.4,0.2-13.7-5.8-13.9-13.4c-0.2-7.6,5.6-14,13-14.1
					C1279.3,626.1,1285.5,632.1,1285.8,639.7L1285.8,639.7z"/>
				<path class="st3" d="M1259.7,609.4c0.2,7.6-5.6,14-13,14.2c-7.4,0.2-13.7-5.8-13.9-13.4c-0.2-7.6,5.6-14,13-14.2
					C1253.2,595.8,1259.4,601.8,1259.7,609.4L1259.7,609.4z"/>
				<path class="st3" d="M1225.5,608.5c0.2,7.6-5.6,14-13,14.2c-7.4,0.2-13.7-5.8-13.9-13.4c-0.2-7.6,5.6-14,13-14.2
					C1219,594.9,1225.3,600.9,1225.5,608.5L1225.5,608.5z"/>
			</g>
		</g>
	</g>
	<path class="st4" d="M1297.6,374c-0.1,0-10.7-4.4-37.5-6.4l0.8-10.6c28.9,2.1,40.5,7,40.9,7.3L1297.6,374L1297.6,374z"/>
	<g>
		<path class="st4" d="M1375,932.8l-145.1,7c-7.8,0-14.1-6.3-14.1-14.1v-65.6c0-7.8,6.3-14.1,14.1-14.1l145.1-7
			c7.8,0,14.1,6.3,14.1,14.1v65.6C1389.1,926.5,1382.8,932.8,1375,932.8L1375,932.8z"/>
		<polygon class="st1" points="1371.7,898.7 1233.2,905.7 1233.2,862.7 1371.7,855.7 		"/>
		<path class="st2" d="M1249.6,892.7c12.8-3.8,24.6-10.3,34.7-18.9c1.1-0.9,0.9-2.7,0-3.6c-1.8-1.9-4.4-2.5-7-2.2
			c-2.5,0.4-4.6,1.8-6.5,3.4c-3.6,3-7.6,6.8-8,11.8c-0.4,4.9,3.5,9,8.1,10.1c5.2,1.3,10.7-0.7,15.4-2.7c4.8-2.1,9.3-5.2,12.1-9.8
			c-1.5-0.9-2.9-1.7-4.4-2.6c-1.4,2.6-1.2,5.6,0.2,8.1c1.6,2.7,4.3,4.3,7.3,4.6c6.8,0.8,11.9-4.3,15.9-9.1h-3.6
			c5.5,6.5,15.1,7.1,22.9,6.2c9.1-1.1,17.9-4.3,25.3-9.8c1.1-0.8,1.7-2.2,0.9-3.5c-0.6-1.1-2.4-1.7-3.5-0.9c-6.6,4.8-14.2,8-22.3,9
			c-6.6,0.9-15,0.9-19.7-4.6c-0.8-1-2.8-1-3.6,0c-2.7,3.2-5.9,7.1-10.3,7.6c-1.7,0.2-3.5-0.2-4.6-1.6c-0.8-1.1-1.2-2.4-0.6-3.5
			c1.5-2.9-2.7-5.4-4.4-2.6c-1.7,2.9-4.3,4.9-7.3,6.5c-3.2,1.7-6.9,3.2-10.6,3.7c-2.8,0.4-6.6-0.2-7.9-3.1c-1.3-3,1.7-6.2,3.6-8.1
			c1.8-1.8,6.2-6.3,8.9-3.5v-3.6c-9.5,8-20.6,14-32.5,17.6C1245.1,888.7,1246.4,893.6,1249.6,892.7L1249.6,892.7L1249.6,892.7z"/>
	</g>
	<g>
		<g>
			<path class="st2" d="M836.8,1005.1c17.4,53.6,44.3,99.7,78,133.3l9.1-9.1c-32.2-32.2-58.1-76.5-74.9-128.2
				c-12.6-38.8-18.4-78-18.3-114.7c-2.9-8.7-6.9-17-11.1-32.4C815.1,901.5,820.7,955.3,836.8,1005.1L836.8,1005.1z"/>
			<path class="st2" d="M1588.5,658.3c-7.6-24.6-20.4-44.7-37.8-59.4c0,0,9.3,24.6,12.6,35.5c5.1,8.4,9.2,17.7,12.3,27.8
				c17.9,58.2,2.1,137.4-42.3,211.8c-2.3,3.8-4.6,7.6-7,11.3l11.3,7.3c2.5-3.8,4.9-7.7,7.2-11.7
				C1591.2,803.3,1607.5,720.1,1588.5,658.3L1588.5,658.3z"/>
		</g>
		<path class="st2" d="M1537.2,902.5l-18.3-11.7c2.5-4,5-8,7.5-12.1c8.6-14.3,16.2-29.1,22.9-43.9c1.2-2.6,4.2-3.8,6.7-2.6l10.5,4.5
			c2.6,1.1,3.8,4.2,2.6,6.8c-7,15.6-15.1,31.2-24.1,46.2C1542.5,894.1,1539.9,898.3,1537.2,902.5L1537.2,902.5z"/>
		<g>
			<g>
				<path class="st5" d="M1392.4,1242.1l-42.5-26c-23.8-14.5-40.5-37.5-47-64.6c-6.5-27.1-2.1-55.1,12.4-78.9l91.9-150.3l9.3,5.7
					l-91.9,150.3c-13,21.3-17,46.4-11.1,70.7c5.8,24.3,20.8,44.8,42.1,57.9l42.5,26L1392.4,1242.1L1392.4,1242.1z"/>
				<path class="st2" d="M1406.3,1245c-3.8,6.3-12,8.2-18.3,4.4s-15.7-16.8-11.8-23.1c3.8-6.3,19.4-3.4,25.7,0.4
					C1408.1,1230.6,1410.1,1238.7,1406.3,1245L1406.3,1245z"/>
			</g>
			<g>
				<path class="st5" d="M1348,1208.7c-10.7-2.5-21.1-6.6-30.9-12.7l-42.5-26l5.7-9.3l42.5,26c44,26.9,101.6,13,128.6-31l91.9-150.3
					l9.3,5.7l-91.9,150.3C1436.5,1200.7,1390.5,1218.5,1348,1208.7z"/>
				<path class="st2" d="M1265.1,1158.6c-3.8,6.3-1.9,14.4,4.4,18.3s25.3,7.9,29.2,1.7c3.8-6.3-9-20.5-15.3-24.3
					C1277.1,1150.4,1268.9,1152.4,1265.1,1158.6L1265.1,1158.6z"/>
			</g>
			<path class="st2" d="M1540.8,1028.7l-7.8-4.8c-1.2-0.8-1.6-2.4-0.9-3.6l12.5-20.4c10.1-16.5,13.2-36,8.6-54.8
				s-16.1-34.7-32.6-44.8c-16.5-10.1-36-13.2-54.8-8.6c-18.8,4.5-34.7,16.1-44.8,32.6l-11.7,19.1c-0.8,1.3-2.5,1.7-3.8,0.9l-7.7-4.7
				c-1.3-0.8-1.7-2.5-0.9-3.8l11.7-19.1c12.1-19.8,31.2-33.7,53.8-39.1c22.6-5.4,45.9-1.8,65.7,10.3c19.8,12.1,33.7,31.2,39.1,53.8
				c5.4,22.6,1.8,45.9-10.3,65.7l-12.5,20.4C1543.6,1029.1,1542,1029.4,1540.8,1028.7L1540.8,1028.7z"/>
			<g>
				<path class="st2" d="M920.2,1152.5c-25.9-25.8-48.5-57.5-67.4-94.3c-2.2-4.2-0.4-9.5,3.9-11.6l5.8-2.8c4.2-2,9.2-0.3,11.3,3.8
					c17.5,34.2,39.2,64.6,63,88.3L920.2,1152.5L920.2,1152.5z"/>
				
					<ellipse transform="matrix(0.7496 -0.6618 0.6618 0.7496 -526.576 906.236)" class="st2" cx="934.6" cy="1149.2" rx="42.1" ry="52.9"/>
				
					<ellipse transform="matrix(0.7496 -0.6618 0.6618 0.7496 -527.8048 905.422)" class="st1" cx="932.9" cy="1150.4" rx="26.7" ry="33.6"/>
			</g>
		</g>
	</g>
	<polygon class="st6" points="1121.9,938.9 1121.9,889.4 1072.4,889.4 1072.4,938.9 1023,938.9 1023,988.3 1072.4,988.3 
		1072.4,1037.8 1121.9,1037.8 1121.9,988.3 1171.4,988.3 1171.4,938.9 	"/>
</g>
<ellipse class="st7" cx="1230.9" cy="1551.8" rx="455.4" ry="28.4"/>
</svg>
